<?xml version="1.0" encoding="UTF-8" standalone="no"?>
<!DOCTYPE svg PUBLIC "-//W3C//DTD SVG 1.1//EN"
 "http://www.w3.org/Graphics/SVG/1.1/DTD/svg11.dtd">
<!-- Generated by graphviz version 2.38.0 (20140413.2041)
 -->
<!-- Title: dependency&#45;graph Pages: 1 -->
<svg width="1853pt" height="787pt"
 viewBox="0.00 0.00 1853.05 786.94" xmlns="http://www.w3.org/2000/svg" xmlns:xlink="http://www.w3.org/1999/xlink">
<g id="graph0" class="graph" transform="scale(1 1) rotate(0) translate(4 782.943)">
<title>dependency&#45;graph</title>
<polygon fill="white" stroke="none" points="-4,4 -4,-782.943 1849.05,-782.943 1849.05,4 -4,4"/>
<!-- org.scalameta:scalameta_2.11:1.1.0&#45;SNAPSHOT -->
<g id="node1" class="node"><title>org.scalameta:scalameta_2.11:1.1.0&#45;SNAPSHOT</title>
<ellipse fill="none" stroke="black" cx="86.267" cy="-502.355" rx="86.0347" ry="35.2113"/>
<text text-anchor="start" x="47.267" y="-513.155" font-family="Times,serif" font-size="14.00">org.scalameta</text>
<text text-anchor="start" x="40.767" y="-499.155" font-family="Times,serif" font-weight="bold" font-size="14.00">scalameta_2.11</text>
<text text-anchor="start" x="33.267" y="-485.155" font-family="Times,serif" font-size="14.00">1.1.0&#45;SNAPSHOT</text>
</g>
<!-- org.scalameta:inline_2.11:1.1.0&#45;SNAPSHOT -->
<g id="node2" class="node"><title>org.scalameta:inline_2.11:1.1.0&#45;SNAPSHOT</title>
<ellipse fill="none" stroke="black" cx="711.869" cy="-673.355" rx="86.0347" ry="35.2113"/>
<text text-anchor="start" x="672.869" y="-684.155" font-family="Times,serif" font-size="14.00">org.scalameta</text>
<text text-anchor="start" x="679.369" y="-670.155" font-family="Times,serif" font-weight="bold" font-size="14.00">inline_2.11</text>
<text text-anchor="start" x="658.869" y="-656.155" font-family="Times,serif" font-size="14.00">1.1.0&#45;SNAPSHOT</text>
</g>
<!-- org.scalameta:scalameta_2.11:1.1.0&#45;SNAPSHOT&#45;&gt;org.scalameta:inline_2.11:1.1.0&#45;SNAPSHOT -->
<g id="edge1" class="edge"><title>org.scalameta:scalameta_2.11:1.1.0&#45;SNAPSHOT&#45;&gt;org.scalameta:inline_2.11:1.1.0&#45;SNAPSHOT</title>
<path fill="none" stroke="black" d="M114.614,-536.043C137.543,-562.65 172.277,-599.34 208.534,-624.355 292.063,-681.986 317.811,-696.226 417.068,-717.355 492.069,-733.322 514.079,-730.633 589.602,-717.355 607.212,-714.259 625.631,-708.816 642.643,-702.789"/>
<polygon fill="black" stroke="black" points="644.293,-705.912 652.48,-699.187 641.886,-699.339 644.293,-705.912"/>
</g>
<!-- org.scalameta:transversers_2.11:1.1.0&#45;SNAPSHOT -->
<g id="node3" class="node"><title>org.scalameta:transversers_2.11:1.1.0&#45;SNAPSHOT</title>
<ellipse fill="none" stroke="black" cx="503.335" cy="-673.355" rx="86.0347" ry="35.2113"/>
<text text-anchor="start" x="464.335" y="-684.155" font-family="Times,serif" font-size="14.00">org.scalameta</text>
<text text-anchor="start" x="450.335" y="-670.155" font-family="Times,serif" font-weight="bold" font-size="14.00">transversers_2.11</text>
<text text-anchor="start" x="450.335" y="-656.155" font-family="Times,serif" font-size="14.00">1.1.0&#45;SNAPSHOT</text>
</g>
<!-- org.scalameta:scalameta_2.11:1.1.0&#45;SNAPSHOT&#45;&gt;org.scalameta:transversers_2.11:1.1.0&#45;SNAPSHOT -->
<g id="edge2" class="edge"><title>org.scalameta:scalameta_2.11:1.1.0&#45;SNAPSHOT&#45;&gt;org.scalameta:transversers_2.11:1.1.0&#45;SNAPSHOT</title>
<path fill="none" stroke="black" d="M130.137,-532.871C152.705,-547.978 181.286,-565.651 208.534,-578.355 277.109,-610.329 359.376,-635.923 419.392,-652.454"/>
<polygon fill="black" stroke="black" points="418.634,-655.875 429.202,-655.13 420.476,-649.121 418.634,-655.875"/>
</g>
<!-- org.scalameta:quasiquotes_2.11:1.1.0&#45;SNAPSHOT -->
<g id="node4" class="node"><title>org.scalameta:quasiquotes_2.11:1.1.0&#45;SNAPSHOT</title>
<ellipse fill="none" stroke="black" cx="294.801" cy="-534.355" rx="86.0347" ry="35.2113"/>
<text text-anchor="start" x="255.801" y="-545.155" font-family="Times,serif" font-size="14.00">org.scalameta</text>
<text text-anchor="start" x="243.301" y="-531.155" font-family="Times,serif" font-weight="bold" font-size="14.00">quasiquotes_2.11</text>
<text text-anchor="start" x="241.801" y="-517.155" font-family="Times,serif" font-size="14.00">1.1.0&#45;SNAPSHOT</text>
</g>
<!-- org.scalameta:scalameta_2.11:1.1.0&#45;SNAPSHOT&#45;&gt;org.scalameta:quasiquotes_2.11:1.1.0&#45;SNAPSHOT -->
<g id="edge3" class="edge"><title>org.scalameta:scalameta_2.11:1.1.0&#45;SNAPSHOT&#45;&gt;org.scalameta:quasiquotes_2.11:1.1.0&#45;SNAPSHOT</title>
<path fill="none" stroke="black" d="M167.118,-514.727C179.091,-516.582 191.506,-518.506 203.674,-520.391"/>
<polygon fill="black" stroke="black" points="203.403,-523.891 213.821,-521.963 204.475,-516.974 203.403,-523.891"/>
</g>
<!-- org.scalameta:parsers_2.11:1.1.0&#45;SNAPSHOT -->
<g id="node5" class="node"><title>org.scalameta:parsers_2.11:1.1.0&#45;SNAPSHOT</title>
<ellipse fill="none" stroke="black" cx="503.335" cy="-408.355" rx="86.0347" ry="35.2113"/>
<text text-anchor="start" x="464.335" y="-419.155" font-family="Times,serif" font-size="14.00">org.scalameta</text>
<text text-anchor="start" x="465.335" y="-405.155" font-family="Times,serif" font-weight="bold" font-size="14.00">parsers_2.11</text>
<text text-anchor="start" x="450.335" y="-391.155" font-family="Times,serif" font-size="14.00">1.1.0&#45;SNAPSHOT</text>
</g>
<!-- org.scalameta:scalameta_2.11:1.1.0&#45;SNAPSHOT&#45;&gt;org.scalameta:parsers_2.11:1.1.0&#45;SNAPSHOT -->
<g id="edge4" class="edge"><title>org.scalameta:scalameta_2.11:1.1.0&#45;SNAPSHOT&#45;&gt;org.scalameta:parsers_2.11:1.1.0&#45;SNAPSHOT</title>
<path fill="none" stroke="black" d="M147.606,-477.394C166.831,-470.139 188.353,-462.73 208.534,-457.355 275.02,-439.648 351.759,-427.11 410.134,-419.152"/>
<polygon fill="black" stroke="black" points="410.63,-422.617 420.075,-417.817 409.698,-415.68 410.63,-422.617"/>
</g>
<!-- org.scalameta:trees_2.11:1.1.0&#45;SNAPSHOT -->
<g id="node6" class="node"><title>org.scalameta:trees_2.11:1.1.0&#45;SNAPSHOT</title>
<ellipse fill="none" stroke="black" cx="711.869" cy="-471.355" rx="86.0347" ry="35.2113"/>
<text text-anchor="start" x="672.869" y="-482.155" font-family="Times,serif" font-size="14.00">org.scalameta</text>
<text text-anchor="start" x="681.369" y="-468.155" font-family="Times,serif" font-weight="bold" font-size="14.00">trees_2.11</text>
<text text-anchor="start" x="658.869" y="-454.155" font-family="Times,serif" font-size="14.00">1.1.0&#45;SNAPSHOT</text>
</g>
<!-- org.scalameta:scalameta_2.11:1.1.0&#45;SNAPSHOT&#45;&gt;org.scalameta:trees_2.11:1.1.0&#45;SNAPSHOT -->
<g id="edge8" class="edge"><title>org.scalameta:scalameta_2.11:1.1.0&#45;SNAPSHOT&#45;&gt;org.scalameta:trees_2.11:1.1.0&#45;SNAPSHOT</title>
<path fill="none" stroke="black" d="M170.056,-493.485C182.927,-492.302 196.081,-491.206 208.534,-490.355 349.955,-480.693 514.134,-475.643 615.265,-473.242"/>
<polygon fill="black" stroke="black" points="615.543,-476.737 625.458,-473.004 615.379,-469.739 615.543,-476.737"/>
</g>
<!-- org.scalameta:tokenizers_2.11:1.1.0&#45;SNAPSHOT -->
<g id="node7" class="node"><title>org.scalameta:tokenizers_2.11:1.1.0&#45;SNAPSHOT</title>
<ellipse fill="none" stroke="black" cx="920.403" cy="-237.355" rx="86.0347" ry="35.2113"/>
<text text-anchor="start" x="881.403" y="-248.155" font-family="Times,serif" font-size="14.00">org.scalameta</text>
<text text-anchor="start" x="873.903" y="-234.155" font-family="Times,serif" font-weight="bold" font-size="14.00">tokenizers_2.11</text>
<text text-anchor="start" x="867.403" y="-220.155" font-family="Times,serif" font-size="14.00">1.1.0&#45;SNAPSHOT</text>
</g>
<!-- org.scalameta:scalameta_2.11:1.1.0&#45;SNAPSHOT&#45;&gt;org.scalameta:tokenizers_2.11:1.1.0&#45;SNAPSHOT -->
<g id="edge11" class="edge"><title>org.scalameta:scalameta_2.11:1.1.0&#45;SNAPSHOT&#45;&gt;org.scalameta:tokenizers_2.11:1.1.0&#45;SNAPSHOT</title>
<path fill="none" stroke="black" d="M127.34,-471.079C150.178,-454.35 179.882,-434.369 208.534,-420.355 383.677,-334.692 436.079,-330.117 625.602,-284.355 692.412,-268.224 769.138,-256.165 827.426,-248.302"/>
<polygon fill="black" stroke="black" points="827.901,-251.77 837.351,-246.98 826.976,-244.831 827.901,-251.77"/>
</g>
<!-- org.scalameta:dialects_2.11:1.1.0&#45;SNAPSHOT -->
<g id="node14" class="node"><title>org.scalameta:dialects_2.11:1.1.0&#45;SNAPSHOT</title>
<ellipse fill="none" stroke="black" cx="1337.47" cy="-187.355" rx="86.0347" ry="35.2113"/>
<text text-anchor="start" x="1298.47" y="-198.155" font-family="Times,serif" font-size="14.00">org.scalameta</text>
<text text-anchor="start" x="1298.97" y="-184.155" font-family="Times,serif" font-weight="bold" font-size="14.00">dialects_2.11</text>
<text text-anchor="start" x="1284.47" y="-170.155" font-family="Times,serif" font-size="14.00">1.1.0&#45;SNAPSHOT</text>
</g>
<!-- org.scalameta:scalameta_2.11:1.1.0&#45;SNAPSHOT&#45;&gt;org.scalameta:dialects_2.11:1.1.0&#45;SNAPSHOT -->
<g id="edge30" class="edge"><title>org.scalameta:scalameta_2.11:1.1.0&#45;SNAPSHOT&#45;&gt;org.scalameta:dialects_2.11:1.1.0&#45;SNAPSHOT</title>
<path fill="none" stroke="black" d="M102.361,-467.561C147.483,-369.565 291.412,-98.3553 502.335,-98.3553 502.335,-98.3553 502.335,-98.3553 921.403,-98.3553 1053.71,-98.3553 1086.81,-114.393 1215.2,-146.355 1231.01,-150.29 1247.7,-155.332 1263.48,-160.525"/>
<polygon fill="black" stroke="black" points="1262.58,-163.914 1273.17,-163.77 1264.8,-157.276 1262.58,-163.914"/>
</g>
<!-- org.scalameta:common_2.11:1.1.0&#45;SNAPSHOT -->
<g id="node15" class="node"><title>org.scalameta:common_2.11:1.1.0&#45;SNAPSHOT</title>
<ellipse fill="none" stroke="black" cx="1553.78" cy="-566.355" rx="86.0347" ry="35.2113"/>
<text text-anchor="start" x="1514.78" y="-577.155" font-family="Times,serif" font-size="14.00">org.scalameta</text>
<text text-anchor="start" x="1512.28" y="-563.155" font-family="Times,serif" font-weight="bold" font-size="14.00">common_2.11</text>
<text text-anchor="start" x="1500.78" y="-549.155" font-family="Times,serif" font-size="14.00">1.1.0&#45;SNAPSHOT</text>
</g>
<!-- org.scalameta:scalameta_2.11:1.1.0&#45;SNAPSHOT&#45;&gt;org.scalameta:common_2.11:1.1.0&#45;SNAPSHOT -->
<g id="edge39" class="edge"><title>org.scalameta:scalameta_2.11:1.1.0&#45;SNAPSHOT&#45;&gt;org.scalameta:common_2.11:1.1.0&#45;SNAPSHOT</title>
<path fill="none" stroke="black" d="M102.147,-537.181C121.126,-577.564 157.688,-643.423 208.534,-681.355 318.314,-763.255 365.371,-774.355 502.335,-774.355 502.335,-774.355 502.335,-774.355 1129.94,-774.355 1261.91,-774.355 1309.62,-797.637 1423.74,-731.355 1472.36,-703.117 1509.32,-648.806 1530.97,-610.214"/>
<polygon fill="black" stroke="black" points="1534.14,-611.708 1535.88,-601.257 1528,-608.343 1534.14,-611.708"/>
</g>
<!-- org.scalameta:inputs_2.11:1.1.0&#45;SNAPSHOT -->
<g id="node13" class="node"><title>org.scalameta:inputs_2.11:1.1.0&#45;SNAPSHOT</title>
<ellipse fill="none" stroke="black" cx="1337.47" cy="-490.355" rx="86.0347" ry="35.2113"/>
<text text-anchor="start" x="1298.47" y="-501.155" font-family="Times,serif" font-size="14.00">org.scalameta</text>
<text text-anchor="start" x="1302.97" y="-487.155" font-family="Times,serif" font-weight="bold" font-size="14.00">inputs_2.11</text>
<text text-anchor="start" x="1284.47" y="-473.155" font-family="Times,serif" font-size="14.00">1.1.0&#45;SNAPSHOT</text>
</g>
<!-- org.scalameta:inline_2.11:1.1.0&#45;SNAPSHOT&#45;&gt;org.scalameta:inputs_2.11:1.1.0&#45;SNAPSHOT -->
<g id="edge26" class="edge"><title>org.scalameta:inline_2.11:1.1.0&#45;SNAPSHOT&#45;&gt;org.scalameta:inputs_2.11:1.1.0&#45;SNAPSHOT</title>
<path fill="none" stroke="black" d="M788.807,-657.29C888.098,-635.438 1066.85,-593.187 1215.2,-542.355 1233.31,-536.153 1252.51,-528.462 1270.16,-520.914"/>
<polygon fill="black" stroke="black" points="1272,-523.93 1279.79,-516.746 1269.22,-517.505 1272,-523.93"/>
</g>
<!-- org.scalameta:transversers_2.11:1.1.0&#45;SNAPSHOT&#45;&gt;org.scalameta:trees_2.11:1.1.0&#45;SNAPSHOT -->
<g id="edge6" class="edge"><title>org.scalameta:transversers_2.11:1.1.0&#45;SNAPSHOT&#45;&gt;org.scalameta:trees_2.11:1.1.0&#45;SNAPSHOT</title>
<path fill="none" stroke="black" d="M537.978,-640.451C574.091,-605.131 631.468,-549.014 670.115,-511.215"/>
<polygon fill="black" stroke="black" points="672.881,-513.405 677.583,-503.911 667.986,-508.401 672.881,-513.405"/>
</g>
<!-- org.scalameta:transversers_2.11:1.1.0&#45;SNAPSHOT&#45;&gt;org.scalameta:common_2.11:1.1.0&#45;SNAPSHOT -->
<g id="edge34" class="edge"><title>org.scalameta:transversers_2.11:1.1.0&#45;SNAPSHOT&#45;&gt;org.scalameta:common_2.11:1.1.0&#45;SNAPSHOT</title>
<path fill="none" stroke="black" d="M563.804,-698.734C583.173,-705.965 604.996,-713.042 625.602,-717.355 753.678,-744.162 788.552,-736.355 919.403,-736.355 919.403,-736.355 919.403,-736.355 1129.94,-736.355 1261.84,-736.355 1305.64,-753.111 1423.74,-694.355 1463.77,-674.441 1499.01,-637.364 1522.51,-608.221"/>
<polygon fill="black" stroke="black" points="1525.37,-610.249 1528.82,-600.232 1519.88,-605.91 1525.37,-610.249"/>
</g>
<!-- org.scalameta:quasiquotes_2.11:1.1.0&#45;SNAPSHOT&#45;&gt;org.scalameta:parsers_2.11:1.1.0&#45;SNAPSHOT -->
<g id="edge5" class="edge"><title>org.scalameta:quasiquotes_2.11:1.1.0&#45;SNAPSHOT&#45;&gt;org.scalameta:parsers_2.11:1.1.0&#45;SNAPSHOT</title>
<path fill="none" stroke="black" d="M343.703,-505.132C374.093,-486.592 413.565,-462.511 445.532,-443.009"/>
<polygon fill="black" stroke="black" points="447.621,-445.834 454.335,-437.638 443.976,-439.859 447.621,-445.834"/>
</g>
<!-- org.scalameta:quasiquotes_2.11:1.1.0&#45;SNAPSHOT&#45;&gt;org.scalameta:trees_2.11:1.1.0&#45;SNAPSHOT -->
<g id="edge9" class="edge"><title>org.scalameta:quasiquotes_2.11:1.1.0&#45;SNAPSHOT&#45;&gt;org.scalameta:trees_2.11:1.1.0&#45;SNAPSHOT</title>
<path fill="none" stroke="black" d="M375.83,-522.208C445.915,-511.571 547.675,-496.125 620.635,-485.051"/>
<polygon fill="black" stroke="black" points="621.371,-488.48 630.732,-483.519 620.32,-481.559 621.371,-488.48"/>
</g>
<!-- org.scalameta:quasiquotes_2.11:1.1.0&#45;SNAPSHOT&#45;&gt;org.scalameta:inputs_2.11:1.1.0&#45;SNAPSHOT -->
<g id="edge24" class="edge"><title>org.scalameta:quasiquotes_2.11:1.1.0&#45;SNAPSHOT&#45;&gt;org.scalameta:inputs_2.11:1.1.0&#45;SNAPSHOT</title>
<path fill="none" stroke="black" d="M381.081,-531.824C543.484,-526.823 908.339,-514.729 1215.2,-498.355 1223.93,-497.89 1233.01,-497.365 1242.09,-496.814"/>
<polygon fill="black" stroke="black" points="1242.57,-500.291 1252.33,-496.181 1242.14,-493.304 1242.57,-500.291"/>
</g>
<!-- org.scalameta:quasiquotes_2.11:1.1.0&#45;SNAPSHOT&#45;&gt;org.scalameta:dialects_2.11:1.1.0&#45;SNAPSHOT -->
<g id="edge31" class="edge"><title>org.scalameta:quasiquotes_2.11:1.1.0&#45;SNAPSHOT&#45;&gt;org.scalameta:dialects_2.11:1.1.0&#45;SNAPSHOT</title>
<path fill="none" stroke="black" d="M312.921,-499.612C333.138,-461.753 370.044,-401.621 417.068,-364.355 574.081,-239.926 637.812,-233.259 834.136,-193.355 974.61,-164.803 1141.76,-170.44 1243.44,-178.134"/>
<polygon fill="black" stroke="black" points="1243.44,-181.645 1253.68,-178.933 1243.98,-174.666 1243.44,-181.645"/>
</g>
<!-- org.scalameta:quasiquotes_2.11:1.1.0&#45;SNAPSHOT&#45;&gt;org.scalameta:common_2.11:1.1.0&#45;SNAPSHOT -->
<g id="edge40" class="edge"><title>org.scalameta:quasiquotes_2.11:1.1.0&#45;SNAPSHOT&#45;&gt;org.scalameta:common_2.11:1.1.0&#45;SNAPSHOT</title>
<path fill="none" stroke="black" d="M375.374,-547.108C511.585,-568.034 798.388,-608.165 1042.67,-616.355 1119.31,-618.925 1138.54,-618.009 1215.2,-616.355 1307.95,-614.355 1332.39,-623.542 1423.74,-607.355 1442.28,-604.07 1461.85,-598.826 1480,-593.171"/>
<polygon fill="black" stroke="black" points="1481.17,-596.472 1489.63,-590.092 1479.03,-589.804 1481.17,-596.472"/>
</g>
<!-- org.scalameta:parsers_2.11:1.1.0&#45;SNAPSHOT&#45;&gt;org.scalameta:trees_2.11:1.1.0&#45;SNAPSHOT -->
<g id="edge7" class="edge"><title>org.scalameta:parsers_2.11:1.1.0&#45;SNAPSHOT&#45;&gt;org.scalameta:trees_2.11:1.1.0&#45;SNAPSHOT</title>
<path fill="none" stroke="black" d="M573.108,-429.333C592.081,-435.121 612.809,-441.444 632.291,-447.386"/>
<polygon fill="black" stroke="black" points="631.459,-450.792 642.045,-450.362 633.501,-444.096 631.459,-450.792"/>
</g>
<!-- org.scalameta:parsers_2.11:1.1.0&#45;SNAPSHOT&#45;&gt;org.scalameta:tokenizers_2.11:1.1.0&#45;SNAPSHOT -->
<g id="edge10" class="edge"><title>org.scalameta:parsers_2.11:1.1.0&#45;SNAPSHOT&#45;&gt;org.scalameta:tokenizers_2.11:1.1.0&#45;SNAPSHOT</title>
<path fill="none" stroke="black" d="M563.138,-382.857C582.946,-374.343 605.199,-364.861 625.602,-356.355 701.542,-324.698 788.985,-289.432 848.597,-265.568"/>
<polygon fill="black" stroke="black" points="849.935,-268.802 857.919,-261.838 847.335,-262.303 849.935,-268.802"/>
</g>
<!-- org.scalameta:tokens_2.11:1.1.0&#45;SNAPSHOT -->
<g id="node12" class="node"><title>org.scalameta:tokens_2.11:1.1.0&#45;SNAPSHOT</title>
<ellipse fill="none" stroke="black" cx="1128.94" cy="-389.355" rx="86.0347" ry="35.2113"/>
<text text-anchor="start" x="1089.94" y="-400.155" font-family="Times,serif" font-size="14.00">org.scalameta</text>
<text text-anchor="start" x="1093.44" y="-386.155" font-family="Times,serif" font-weight="bold" font-size="14.00">tokens_2.11</text>
<text text-anchor="start" x="1075.94" y="-372.155" font-family="Times,serif" font-size="14.00">1.1.0&#45;SNAPSHOT</text>
</g>
<!-- org.scalameta:parsers_2.11:1.1.0&#45;SNAPSHOT&#45;&gt;org.scalameta:tokens_2.11:1.1.0&#45;SNAPSHOT -->
<g id="edge19" class="edge"><title>org.scalameta:parsers_2.11:1.1.0&#45;SNAPSHOT&#45;&gt;org.scalameta:tokens_2.11:1.1.0&#45;SNAPSHOT</title>
<path fill="none" stroke="black" d="M585.769,-397.765C599.061,-396.379 612.7,-395.162 625.602,-394.355 766.983,-385.515 931.173,-385.88 1032.32,-387.328"/>
<polygon fill="black" stroke="black" points="1032.46,-390.83 1042.51,-387.48 1032.57,-383.831 1032.46,-390.83"/>
</g>
<!-- org.scalameta:parsers_2.11:1.1.0&#45;SNAPSHOT&#45;&gt;org.scalameta:inputs_2.11:1.1.0&#45;SNAPSHOT -->
<g id="edge23" class="edge"><title>org.scalameta:parsers_2.11:1.1.0&#45;SNAPSHOT&#45;&gt;org.scalameta:inputs_2.11:1.1.0&#45;SNAPSHOT</title>
<path fill="none" stroke="black" d="M588.962,-412.662C647.712,-415.937 727.761,-420.966 798.136,-427.355 955.421,-441.635 1137.86,-464.27 1244.87,-478.166"/>
<polygon fill="black" stroke="black" points="1244.61,-481.663 1254.98,-479.483 1245.52,-474.722 1244.61,-481.663"/>
</g>
<!-- org.scalameta:parsers_2.11:1.1.0&#45;SNAPSHOT&#45;&gt;org.scalameta:dialects_2.11:1.1.0&#45;SNAPSHOT -->
<g id="edge29" class="edge"><title>org.scalameta:parsers_2.11:1.1.0&#45;SNAPSHOT&#45;&gt;org.scalameta:dialects_2.11:1.1.0&#45;SNAPSHOT</title>
<path fill="none" stroke="black" d="M530.828,-374.831C553.653,-347.662 588.675,-309.837 625.602,-284.355 708.832,-226.924 737.071,-221.71 834.136,-193.355 997.314,-145.689 1046.23,-141.771 1215.2,-160.355 1227.93,-161.755 1241.28,-163.958 1254.27,-166.516"/>
<polygon fill="black" stroke="black" points="1253.62,-169.955 1264.12,-168.533 1255.03,-163.098 1253.62,-169.955"/>
</g>
<!-- org.scalameta:parsers_2.11:1.1.0&#45;SNAPSHOT&#45;&gt;org.scalameta:common_2.11:1.1.0&#45;SNAPSHOT -->
<g id="edge37" class="edge"><title>org.scalameta:parsers_2.11:1.1.0&#45;SNAPSHOT&#45;&gt;org.scalameta:common_2.11:1.1.0&#45;SNAPSHOT</title>
<path fill="none" stroke="black" d="M531.341,-441.824C553.698,-466.868 587.829,-499.431 625.602,-515.355 911.984,-636.092 1292.85,-603.906 1463.48,-580.648"/>
<polygon fill="black" stroke="black" points="1464,-584.11 1473.43,-579.27 1463.04,-577.176 1464,-584.11"/>
</g>
<!-- org.scalameta:trees_2.11:1.1.0&#45;SNAPSHOT&#45;&gt;org.scalameta:tokenizers_2.11:1.1.0&#45;SNAPSHOT -->
<g id="edge12" class="edge"><title>org.scalameta:trees_2.11:1.1.0&#45;SNAPSHOT&#45;&gt;org.scalameta:tokenizers_2.11:1.1.0&#45;SNAPSHOT</title>
<path fill="none" stroke="black" d="M729.367,-436.494C749.64,-396.459 787.197,-330.619 834.136,-286.355 840.475,-280.378 847.675,-274.836 855.141,-269.794"/>
<polygon fill="black" stroke="black" points="857.469,-272.459 863.992,-264.109 853.686,-266.569 857.469,-272.459"/>
</g>
<!-- org.scalameta:trees_2.11:1.1.0&#45;SNAPSHOT&#45;&gt;org.scalameta:tokens_2.11:1.1.0&#45;SNAPSHOT -->
<g id="edge20" class="edge"><title>org.scalameta:trees_2.11:1.1.0&#45;SNAPSHOT&#45;&gt;org.scalameta:tokens_2.11:1.1.0&#45;SNAPSHOT</title>
<path fill="none" stroke="black" d="M789.968,-456.124C861.059,-442.079 966.492,-421.25 1040.65,-406.599"/>
<polygon fill="black" stroke="black" points="1041.77,-409.946 1050.9,-404.575 1040.41,-403.079 1041.77,-409.946"/>
</g>
<!-- org.scalameta:trees_2.11:1.1.0&#45;SNAPSHOT&#45;&gt;org.scalameta:inputs_2.11:1.1.0&#45;SNAPSHOT -->
<g id="edge25" class="edge"><title>org.scalameta:trees_2.11:1.1.0&#45;SNAPSHOT&#45;&gt;org.scalameta:inputs_2.11:1.1.0&#45;SNAPSHOT</title>
<path fill="none" stroke="black" d="M797.945,-473.947C913.643,-477.473 1120,-483.76 1240.91,-487.444"/>
<polygon fill="black" stroke="black" points="1241.15,-490.953 1251.25,-487.759 1241.37,-483.956 1241.15,-490.953"/>
</g>
<!-- org.scalameta:trees_2.11:1.1.0&#45;SNAPSHOT&#45;&gt;org.scalameta:dialects_2.11:1.1.0&#45;SNAPSHOT -->
<g id="edge32" class="edge"><title>org.scalameta:trees_2.11:1.1.0&#45;SNAPSHOT&#45;&gt;org.scalameta:dialects_2.11:1.1.0&#45;SNAPSHOT</title>
<path fill="none" stroke="black" d="M766.323,-443.769C787.349,-433.102 811.768,-420.938 834.136,-410.355 987.515,-337.786 1170.2,-258.432 1267.46,-216.737"/>
<polygon fill="black" stroke="black" points="1269.08,-219.853 1276.89,-212.698 1266.32,-213.418 1269.08,-219.853"/>
</g>
<!-- org.scalameta:trees_2.11:1.1.0&#45;SNAPSHOT&#45;&gt;org.scalameta:common_2.11:1.1.0&#45;SNAPSHOT -->
<g id="edge41" class="edge"><title>org.scalameta:trees_2.11:1.1.0&#45;SNAPSHOT&#45;&gt;org.scalameta:common_2.11:1.1.0&#45;SNAPSHOT</title>
<path fill="none" stroke="black" d="M791.026,-485.704C805.34,-488.1 820.166,-490.429 834.136,-492.355 1057.48,-523.155 1321.49,-547.186 1458.94,-558.769"/>
<polygon fill="black" stroke="black" points="1458.76,-562.266 1469.02,-559.615 1459.35,-555.29 1458.76,-562.266"/>
</g>
<!-- com.lihaoyi:scalaparse_2.11:0.3.7 -->
<g id="node8" class="node"><title>com.lihaoyi:scalaparse_2.11:0.3.7</title>
<ellipse fill="none" stroke="black" cx="1128.94" cy="-35.3553" rx="77.5641" ry="35.2113"/>
<text text-anchor="start" x="1095.44" y="-46.1553" font-family="Times,serif" font-size="14.00">com.lihaoyi</text>
<text text-anchor="start" x="1081.94" y="-32.1553" font-family="Times,serif" font-weight="bold" font-size="14.00">scalaparse_2.11</text>
<text text-anchor="start" x="1114.44" y="-18.1553" font-family="Times,serif" font-size="14.00">0.3.7</text>
</g>
<!-- org.scalameta:tokenizers_2.11:1.1.0&#45;SNAPSHOT&#45;&gt;com.lihaoyi:scalaparse_2.11:0.3.7 -->
<g id="edge13" class="edge"><title>org.scalameta:tokenizers_2.11:1.1.0&#45;SNAPSHOT&#45;&gt;com.lihaoyi:scalaparse_2.11:0.3.7</title>
<path fill="none" stroke="black" d="M955.046,-204.451C991.374,-168.921 1049.22,-112.347 1087.87,-74.5438"/>
<polygon fill="black" stroke="black" points="1090.63,-76.7397 1095.33,-67.2453 1085.74,-71.7353 1090.63,-76.7397"/>
</g>
<!-- org.scalameta:tokenizers_2.11:1.1.0&#45;SNAPSHOT&#45;&gt;org.scalameta:tokens_2.11:1.1.0&#45;SNAPSHOT -->
<g id="edge21" class="edge"><title>org.scalameta:tokenizers_2.11:1.1.0&#45;SNAPSHOT&#45;&gt;org.scalameta:tokens_2.11:1.1.0&#45;SNAPSHOT</title>
<path fill="none" stroke="black" d="M956.103,-269.79C979.636,-291.028 1011.94,-318.747 1042.67,-340.355 1050.34,-345.749 1058.64,-351.084 1066.96,-356.137"/>
<polygon fill="black" stroke="black" points="1065.22,-359.173 1075.6,-361.291 1068.8,-353.162 1065.22,-359.173"/>
</g>
<!-- org.scalameta:tokenizers_2.11:1.1.0&#45;SNAPSHOT&#45;&gt;org.scalameta:inputs_2.11:1.1.0&#45;SNAPSHOT -->
<g id="edge27" class="edge"><title>org.scalameta:tokenizers_2.11:1.1.0&#45;SNAPSHOT&#45;&gt;org.scalameta:inputs_2.11:1.1.0&#45;SNAPSHOT</title>
<path fill="none" stroke="black" d="M997.144,-253.599C1059.73,-269.617 1148.77,-298.595 1215.2,-345.355 1254.13,-372.75 1287.87,-415.647 1309.81,-447.686"/>
<polygon fill="black" stroke="black" points="1306.92,-449.656 1315.41,-455.997 1312.72,-445.747 1306.92,-449.656"/>
</g>
<!-- org.scalameta:tokenizers_2.11:1.1.0&#45;SNAPSHOT&#45;&gt;org.scalameta:dialects_2.11:1.1.0&#45;SNAPSHOT -->
<g id="edge33" class="edge"><title>org.scalameta:tokenizers_2.11:1.1.0&#45;SNAPSHOT&#45;&gt;org.scalameta:dialects_2.11:1.1.0&#45;SNAPSHOT</title>
<path fill="none" stroke="black" d="M1003.41,-227.477C1072.79,-219.119 1172.16,-207.148 1244.29,-198.459"/>
<polygon fill="black" stroke="black" points="1244.77,-201.927 1254.28,-197.256 1243.94,-194.977 1244.77,-201.927"/>
</g>
<!-- org.scalameta:tokenizers_2.11:1.1.0&#45;SNAPSHOT&#45;&gt;org.scalameta:common_2.11:1.1.0&#45;SNAPSHOT -->
<g id="edge42" class="edge"><title>org.scalameta:tokenizers_2.11:1.1.0&#45;SNAPSHOT&#45;&gt;org.scalameta:common_2.11:1.1.0&#45;SNAPSHOT</title>
<path fill="none" stroke="black" d="M1006.48,-234.885C1066.32,-235.6 1147.48,-241.57 1215.2,-264.355 1318.72,-299.182 1343.25,-320.528 1423.74,-394.355 1465.63,-432.786 1503.35,-486.362 1527.03,-523.463"/>
<polygon fill="black" stroke="black" points="1524.16,-525.464 1532.46,-532.053 1530.08,-521.728 1524.16,-525.464"/>
</g>
<!-- com.lihaoyi:fastparse_2.11:0.3.7 -->
<g id="node9" class="node"><title>com.lihaoyi:fastparse_2.11:0.3.7</title>
<ellipse fill="none" stroke="black" cx="1337.47" cy="-67.3553" rx="72.25" ry="35.2113"/>
<text text-anchor="start" x="1303.97" y="-78.1553" font-family="Times,serif" font-size="14.00">com.lihaoyi</text>
<text text-anchor="start" x="1294.47" y="-64.1553" font-family="Times,serif" font-weight="bold" font-size="14.00">fastparse_2.11</text>
<text text-anchor="start" x="1322.97" y="-50.1553" font-family="Times,serif" font-size="14.00">0.3.7</text>
</g>
<!-- com.lihaoyi:scalaparse_2.11:0.3.7&#45;&gt;com.lihaoyi:fastparse_2.11:0.3.7 -->
<g id="edge14" class="edge"><title>com.lihaoyi:scalaparse_2.11:0.3.7&#45;&gt;com.lihaoyi:fastparse_2.11:0.3.7</title>
<path fill="none" stroke="black" d="M1202.75,-46.6373C1220.78,-49.4309 1240.17,-52.4353 1258.44,-55.2657"/>
<polygon fill="black" stroke="black" points="1258.04,-58.7453 1268.46,-56.8178 1259.11,-51.8278 1258.04,-58.7453"/>
</g>
<!-- com.lihaoyi:sourcecode_2.11:0.1.1 -->
<g id="node11" class="node"><title>com.lihaoyi:sourcecode_2.11:0.1.1</title>
<ellipse fill="none" stroke="black" cx="1764.44" cy="-67.3553" rx="80.7205" ry="35.2113"/>
<text text-anchor="start" x="1730.94" y="-78.1553" font-family="Times,serif" font-size="14.00">com.lihaoyi</text>
<text text-anchor="start" x="1715.44" y="-64.1553" font-family="Times,serif" font-weight="bold" font-size="14.00">sourcecode_2.11</text>
<text text-anchor="start" x="1749.94" y="-50.1553" font-family="Times,serif" font-size="14.00">0.1.1</text>
</g>
<!-- com.lihaoyi:scalaparse_2.11:0.3.7&#45;&gt;com.lihaoyi:sourcecode_2.11:0.1.1 -->
<g id="edge18" class="edge"><title>com.lihaoyi:scalaparse_2.11:0.3.7&#45;&gt;com.lihaoyi:sourcecode_2.11:0.1.1</title>
<path fill="none" stroke="black" d="M1203.15,-24.3531C1304.16,-11.2784 1491.49,5.38979 1647.83,-23.3553 1664.87,-26.4881 1682.65,-32.0154 1699.01,-38.1172"/>
<polygon fill="black" stroke="black" points="1697.87,-41.4303 1708.46,-41.7624 1700.39,-34.899 1697.87,-41.4303"/>
</g>
<!-- com.lihaoyi:fastparse&#45;utils_2.11:0.3.7 -->
<g id="node10" class="node"><title>com.lihaoyi:fastparse&#45;utils_2.11:0.3.7</title>
<ellipse fill="none" stroke="black" cx="1553.78" cy="-67.3553" rx="94.0904" ry="35.2113"/>
<text text-anchor="start" x="1520.28" y="-78.1553" font-family="Times,serif" font-size="14.00">com.lihaoyi</text>
<text text-anchor="start" x="1495.28" y="-64.1553" font-family="Times,serif" font-weight="bold" font-size="14.00">fastparse&#45;utils_2.11</text>
<text text-anchor="start" x="1539.28" y="-50.1553" font-family="Times,serif" font-size="14.00">0.3.7</text>
</g>
<!-- com.lihaoyi:fastparse_2.11:0.3.7&#45;&gt;com.lihaoyi:fastparse&#45;utils_2.11:0.3.7 -->
<g id="edge15" class="edge"><title>com.lihaoyi:fastparse_2.11:0.3.7&#45;&gt;com.lihaoyi:fastparse&#45;utils_2.11:0.3.7</title>
<path fill="none" stroke="black" d="M1409.83,-67.3553C1422.55,-67.3553 1436.02,-67.3553 1449.41,-67.3553"/>
<polygon fill="black" stroke="black" points="1449.62,-70.8554 1459.62,-67.3553 1449.62,-63.8554 1449.62,-70.8554"/>
</g>
<!-- com.lihaoyi:fastparse_2.11:0.3.7&#45;&gt;com.lihaoyi:sourcecode_2.11:0.1.1 -->
<g id="edge17" class="edge"><title>com.lihaoyi:fastparse_2.11:0.3.7&#45;&gt;com.lihaoyi:sourcecode_2.11:0.1.1</title>
<path fill="none" stroke="black" d="M1391.4,-91.088C1412.25,-99.2271 1436.69,-107.303 1459.74,-111.355 1542.07,-125.83 1565.61,-126.472 1647.83,-111.355 1664.87,-108.223 1682.65,-102.695 1699.01,-96.5935"/>
<polygon fill="black" stroke="black" points="1700.39,-99.8117 1708.46,-92.9482 1697.87,-93.2804 1700.39,-99.8117"/>
</g>
<!-- com.lihaoyi:fastparse&#45;utils_2.11:0.3.7&#45;&gt;com.lihaoyi:sourcecode_2.11:0.1.1 -->
<g id="edge16" class="edge"><title>com.lihaoyi:fastparse&#45;utils_2.11:0.3.7&#45;&gt;com.lihaoyi:sourcecode_2.11:0.1.1</title>
<path fill="none" stroke="black" d="M1648.13,-67.3553C1656.53,-67.3553 1665.04,-67.3553 1673.42,-67.3553"/>
<polygon fill="black" stroke="black" points="1673.56,-70.8554 1683.56,-67.3553 1673.56,-63.8554 1673.56,-70.8554"/>
</g>
<!-- org.scalameta:tokens_2.11:1.1.0&#45;SNAPSHOT&#45;&gt;org.scalameta:inputs_2.11:1.1.0&#45;SNAPSHOT -->
<g id="edge22" class="edge"><title>org.scalameta:tokens_2.11:1.1.0&#45;SNAPSHOT&#45;&gt;org.scalameta:inputs_2.11:1.1.0&#45;SNAPSHOT</title>
<path fill="none" stroke="black" d="M1185.01,-416.289C1211.75,-429.362 1244.03,-445.151 1271.92,-458.787"/>
<polygon fill="black" stroke="black" points="1270.67,-462.073 1281.19,-463.322 1273.74,-455.784 1270.67,-462.073"/>
</g>
<!-- org.scalameta:tokens_2.11:1.1.0&#45;SNAPSHOT&#45;&gt;org.scalameta:dialects_2.11:1.1.0&#45;SNAPSHOT -->
<g id="edge28" class="edge"><title>org.scalameta:tokens_2.11:1.1.0&#45;SNAPSHOT&#45;&gt;org.scalameta:dialects_2.11:1.1.0&#45;SNAPSHOT</title>
<path fill="none" stroke="black" d="M1163.58,-356.451C1199.69,-321.131 1257.07,-265.014 1295.72,-227.215"/>
<polygon fill="black" stroke="black" points="1298.48,-229.405 1303.19,-219.911 1293.59,-224.401 1298.48,-229.405"/>
</g>
<!-- org.scalameta:tokens_2.11:1.1.0&#45;SNAPSHOT&#45;&gt;org.scalameta:common_2.11:1.1.0&#45;SNAPSHOT -->
<g id="edge35" class="edge"><title>org.scalameta:tokens_2.11:1.1.0&#45;SNAPSHOT&#45;&gt;org.scalameta:common_2.11:1.1.0&#45;SNAPSHOT</title>
<path fill="none" stroke="black" d="M1214.68,-393.397C1275.65,-399.184 1358.32,-413.094 1423.74,-446.355 1461.09,-465.348 1495.42,-498.372 1519.26,-524.974"/>
<polygon fill="black" stroke="black" points="1516.78,-527.448 1526.01,-532.645 1522.03,-522.824 1516.78,-527.448"/>
</g>
<!-- org.scalameta:inputs_2.11:1.1.0&#45;SNAPSHOT&#45;&gt;org.scalameta:common_2.11:1.1.0&#45;SNAPSHOT -->
<g id="edge36" class="edge"><title>org.scalameta:inputs_2.11:1.1.0&#45;SNAPSHOT&#45;&gt;org.scalameta:common_2.11:1.1.0&#45;SNAPSHOT</title>
<path fill="none" stroke="black" d="M1403.35,-513.364C1426.95,-521.734 1453.81,-531.259 1478.19,-539.903"/>
<polygon fill="black" stroke="black" points="1477.16,-543.25 1487.75,-543.294 1479.5,-536.653 1477.16,-543.25"/>
</g>
<!-- org.scalameta:dialects_2.11:1.1.0&#45;SNAPSHOT&#45;&gt;org.scalameta:common_2.11:1.1.0&#45;SNAPSHOT -->
<g id="edge38" class="edge"><title>org.scalameta:dialects_2.11:1.1.0&#45;SNAPSHOT&#45;&gt;org.scalameta:common_2.11:1.1.0&#45;SNAPSHOT</title>
<path fill="none" stroke="black" d="M1396.19,-213.306C1406.31,-219.755 1416.05,-227.429 1423.74,-236.355 1496.86,-321.259 1531.26,-452.408 1545.02,-521.009"/>
<polygon fill="black" stroke="black" points="1541.63,-521.919 1546.98,-531.065 1548.5,-520.58 1541.63,-521.919"/>
</g>
</g>
</svg>
