<?xml version="1.0" encoding="UTF-8" standalone="no"?>
<!DOCTYPE svg PUBLIC "-//W3C//DTD SVG 1.1//EN"
 "http://www.w3.org/Graphics/SVG/1.1/DTD/svg11.dtd">
<!-- Generated by graphviz version 2.38.0 (20140413.2041)
 -->
<!-- Title: dependency&#45;graph Pages: 1 -->
<svg width="2096pt" height="1105pt"
 viewBox="0.00 0.00 2095.52 1105.36" xmlns="http://www.w3.org/2000/svg" xmlns:xlink="http://www.w3.org/1999/xlink">
<g id="graph0" class="graph" transform="scale(1 1) rotate(0) translate(4 1101.36)">
<title>dependency&#45;graph</title>
<polygon fill="white" stroke="none" points="-4,4 -4,-1101.36 2091.52,-1101.36 2091.52,4 -4,4"/>
<!-- org.scalameta:scalameta_2.11:2.0.0&#45;SNAPSHOT -->
<g id="node1" class="node"><title>org.scalameta:scalameta_2.11:2.0.0&#45;SNAPSHOT</title>
<ellipse fill="none" stroke="black" cx="86.267" cy="-585.355" rx="86.0347" ry="35.2113"/>
<text text-anchor="start" x="47.267" y="-596.155" font-family="Times,serif" font-size="14.00">org.scalameta</text>
<text text-anchor="start" x="40.767" y="-582.155" font-family="Times,serif" font-weight="bold" font-size="14.00">scalameta_2.11</text>
<text text-anchor="start" x="33.267" y="-568.155" font-family="Times,serif" font-size="14.00">2.0.0&#45;SNAPSHOT</text>
</g>
<!-- org.scalameta:semantic_2.11:2.0.0&#45;SNAPSHOT -->
<g id="node2" class="node"><title>org.scalameta:semantic_2.11:2.0.0&#45;SNAPSHOT</title>
<ellipse fill="none" stroke="black" cx="294.801" cy="-844.355" rx="86.0347" ry="35.2113"/>
<text text-anchor="start" x="255.801" y="-855.155" font-family="Times,serif" font-size="14.00">org.scalameta</text>
<text text-anchor="start" x="252.301" y="-841.155" font-family="Times,serif" font-weight="bold" font-size="14.00">semantic_2.11</text>
<text text-anchor="start" x="241.801" y="-827.155" font-family="Times,serif" font-size="14.00">2.0.0&#45;SNAPSHOT</text>
</g>
<!-- org.scalameta:scalameta_2.11:2.0.0&#45;SNAPSHOT&#45;&gt;org.scalameta:semantic_2.11:2.0.0&#45;SNAPSHOT -->
<g id="edge1" class="edge"><title>org.scalameta:scalameta_2.11:2.0.0&#45;SNAPSHOT&#45;&gt;org.scalameta:semantic_2.11:2.0.0&#45;SNAPSHOT</title>
<path fill="none" stroke="black" d="M100.662,-620.263C119.293,-665.192 156.681,-743.611 208.534,-795.355 214.615,-801.423 221.598,-806.998 228.896,-812.041"/>
<polygon fill="black" stroke="black" points="227.286,-815.17 237.571,-817.712 231.116,-809.311 227.286,-815.17"/>
</g>
<!-- org.scalameta:artifacts_2.11:2.0.0&#45;SNAPSHOT -->
<g id="node3" class="node"><title>org.scalameta:artifacts_2.11:2.0.0&#45;SNAPSHOT</title>
<ellipse fill="none" stroke="black" cx="503.335" cy="-907.355" rx="86.0347" ry="35.2113"/>
<text text-anchor="start" x="464.335" y="-918.155" font-family="Times,serif" font-size="14.00">org.scalameta</text>
<text text-anchor="start" x="462.335" y="-904.155" font-family="Times,serif" font-weight="bold" font-size="14.00">artifacts_2.11</text>
<text text-anchor="start" x="450.335" y="-890.155" font-family="Times,serif" font-size="14.00">2.0.0&#45;SNAPSHOT</text>
</g>
<!-- org.scalameta:scalameta_2.11:2.0.0&#45;SNAPSHOT&#45;&gt;org.scalameta:artifacts_2.11:2.0.0&#45;SNAPSHOT -->
<g id="edge3" class="edge"><title>org.scalameta:scalameta_2.11:2.0.0&#45;SNAPSHOT&#45;&gt;org.scalameta:artifacts_2.11:2.0.0&#45;SNAPSHOT</title>
<path fill="none" stroke="black" d="M89.701,-620.726C96.2841,-685.989 120.46,-824.497 208.534,-888.355 267.847,-931.36 352.842,-932.165 416.168,-924.543"/>
<polygon fill="black" stroke="black" points="416.67,-928.008 426.138,-923.253 415.772,-921.066 416.67,-928.008"/>
</g>
<!-- org.scalameta:inline_2.11:2.0.0&#45;SNAPSHOT -->
<g id="node6" class="node"><title>org.scalameta:inline_2.11:2.0.0&#45;SNAPSHOT</title>
<ellipse fill="none" stroke="black" cx="954.344" cy="-743.355" rx="86.0347" ry="35.2113"/>
<text text-anchor="start" x="915.344" y="-754.155" font-family="Times,serif" font-size="14.00">org.scalameta</text>
<text text-anchor="start" x="921.844" y="-740.155" font-family="Times,serif" font-weight="bold" font-size="14.00">inline_2.11</text>
<text text-anchor="start" x="901.344" y="-726.155" font-family="Times,serif" font-size="14.00">2.0.0&#45;SNAPSHOT</text>
</g>
<!-- org.scalameta:scalameta_2.11:2.0.0&#45;SNAPSHOT&#45;&gt;org.scalameta:inline_2.11:2.0.0&#45;SNAPSHOT -->
<g id="edge6" class="edge"><title>org.scalameta:scalameta_2.11:2.0.0&#45;SNAPSHOT&#45;&gt;org.scalameta:inline_2.11:2.0.0&#45;SNAPSHOT</title>
<path fill="none" stroke="black" d="M135.807,-614.427C157.586,-626.772 183.879,-640.733 208.534,-651.355 387.591,-728.503 433.049,-756.754 625.602,-787.355 716.232,-801.759 741.697,-803.245 832.077,-787.355 849.687,-784.259 868.106,-778.816 885.118,-772.789"/>
<polygon fill="black" stroke="black" points="886.768,-775.912 894.955,-769.187 884.361,-769.339 886.768,-775.912"/>
</g>
<!-- org.scalameta:transversers_2.11:2.0.0&#45;SNAPSHOT -->
<g id="node7" class="node"><title>org.scalameta:transversers_2.11:2.0.0&#45;SNAPSHOT</title>
<ellipse fill="none" stroke="black" cx="728.84" cy="-743.355" rx="86.0347" ry="35.2113"/>
<text text-anchor="start" x="689.84" y="-754.155" font-family="Times,serif" font-size="14.00">org.scalameta</text>
<text text-anchor="start" x="675.84" y="-740.155" font-family="Times,serif" font-weight="bold" font-size="14.00">transversers_2.11</text>
<text text-anchor="start" x="675.84" y="-726.155" font-family="Times,serif" font-size="14.00">2.0.0&#45;SNAPSHOT</text>
</g>
<!-- org.scalameta:scalameta_2.11:2.0.0&#45;SNAPSHOT&#45;&gt;org.scalameta:transversers_2.11:2.0.0&#45;SNAPSHOT -->
<g id="edge7" class="edge"><title>org.scalameta:scalameta_2.11:2.0.0&#45;SNAPSHOT&#45;&gt;org.scalameta:transversers_2.11:2.0.0&#45;SNAPSHOT</title>
<path fill="none" stroke="black" d="M160.749,-603.48C280.735,-633.075 517.975,-691.591 644.223,-722.731"/>
<polygon fill="black" stroke="black" points="643.684,-726.203 654.231,-725.199 645.36,-719.406 643.684,-726.203"/>
</g>
<!-- org.scalameta:quasiquotes_2.11:2.0.0&#45;SNAPSHOT -->
<g id="node8" class="node"><title>org.scalameta:quasiquotes_2.11:2.0.0&#45;SNAPSHOT</title>
<ellipse fill="none" stroke="black" cx="503.335" cy="-465.355" rx="86.0347" ry="35.2113"/>
<text text-anchor="start" x="464.335" y="-476.155" font-family="Times,serif" font-size="14.00">org.scalameta</text>
<text text-anchor="start" x="451.835" y="-462.155" font-family="Times,serif" font-weight="bold" font-size="14.00">quasiquotes_2.11</text>
<text text-anchor="start" x="450.335" y="-448.155" font-family="Times,serif" font-size="14.00">2.0.0&#45;SNAPSHOT</text>
</g>
<!-- org.scalameta:scalameta_2.11:2.0.0&#45;SNAPSHOT&#45;&gt;org.scalameta:quasiquotes_2.11:2.0.0&#45;SNAPSHOT -->
<g id="edge8" class="edge"><title>org.scalameta:scalameta_2.11:2.0.0&#45;SNAPSHOT&#45;&gt;org.scalameta:quasiquotes_2.11:2.0.0&#45;SNAPSHOT</title>
<path fill="none" stroke="black" d="M130.552,-554.792C152.878,-540.413 181.123,-524.283 208.534,-514.355 272.881,-491.051 349.218,-478.747 407.95,-472.297"/>
<polygon fill="black" stroke="black" points="408.386,-475.77 417.961,-471.235 407.647,-468.809 408.386,-475.77"/>
</g>
<!-- org.scalameta:parsers_2.11:2.0.0&#45;SNAPSHOT -->
<g id="node9" class="node"><title>org.scalameta:parsers_2.11:2.0.0&#45;SNAPSHOT</title>
<ellipse fill="none" stroke="black" cx="728.84" cy="-465.355" rx="86.0347" ry="35.2113"/>
<text text-anchor="start" x="689.84" y="-476.155" font-family="Times,serif" font-size="14.00">org.scalameta</text>
<text text-anchor="start" x="690.84" y="-462.155" font-family="Times,serif" font-weight="bold" font-size="14.00">parsers_2.11</text>
<text text-anchor="start" x="675.84" y="-448.155" font-family="Times,serif" font-size="14.00">2.0.0&#45;SNAPSHOT</text>
</g>
<!-- org.scalameta:scalameta_2.11:2.0.0&#45;SNAPSHOT&#45;&gt;org.scalameta:parsers_2.11:2.0.0&#45;SNAPSHOT -->
<g id="edge10" class="edge"><title>org.scalameta:scalameta_2.11:2.0.0&#45;SNAPSHOT&#45;&gt;org.scalameta:parsers_2.11:2.0.0&#45;SNAPSHOT</title>
<path fill="none" stroke="black" d="M156.417,-564.574C173.347,-560.032 191.497,-555.615 208.534,-552.355 375.937,-520.329 422.917,-544.928 589.602,-509.355 610.866,-504.817 633.508,-498.336 654.182,-491.739"/>
<polygon fill="black" stroke="black" points="655.412,-495.02 663.843,-488.603 653.251,-488.362 655.412,-495.02"/>
</g>
<!-- org.scalameta:trees_2.11:2.0.0&#45;SNAPSHOT -->
<g id="node10" class="node"><title>org.scalameta:trees_2.11:2.0.0&#45;SNAPSHOT</title>
<ellipse fill="none" stroke="black" cx="954.344" cy="-617.355" rx="86.0347" ry="35.2113"/>
<text text-anchor="start" x="915.344" y="-628.155" font-family="Times,serif" font-size="14.00">org.scalameta</text>
<text text-anchor="start" x="923.844" y="-614.155" font-family="Times,serif" font-weight="bold" font-size="14.00">trees_2.11</text>
<text text-anchor="start" x="901.344" y="-600.155" font-family="Times,serif" font-size="14.00">2.0.0&#45;SNAPSHOT</text>
</g>
<!-- org.scalameta:scalameta_2.11:2.0.0&#45;SNAPSHOT&#45;&gt;org.scalameta:trees_2.11:2.0.0&#45;SNAPSHOT -->
<g id="edge16" class="edge"><title>org.scalameta:scalameta_2.11:2.0.0&#45;SNAPSHOT&#45;&gt;org.scalameta:trees_2.11:2.0.0&#45;SNAPSHOT</title>
<path fill="none" stroke="black" d="M172.356,-583.034C310.897,-580.11 593.715,-577.701 832.077,-598.355 842.724,-599.278 853.853,-600.568 864.867,-602.047"/>
<polygon fill="black" stroke="black" points="864.544,-605.535 874.932,-603.452 865.512,-598.603 864.544,-605.535"/>
</g>
<!-- org.scalameta:tokenizers_2.11:2.0.0&#45;SNAPSHOT -->
<g id="node11" class="node"><title>org.scalameta:tokenizers_2.11:2.0.0&#45;SNAPSHOT</title>
<ellipse fill="none" stroke="black" cx="1162.88" cy="-363.355" rx="86.0347" ry="35.2113"/>
<text text-anchor="start" x="1123.88" y="-374.155" font-family="Times,serif" font-size="14.00">org.scalameta</text>
<text text-anchor="start" x="1116.38" y="-360.155" font-family="Times,serif" font-weight="bold" font-size="14.00">tokenizers_2.11</text>
<text text-anchor="start" x="1109.88" y="-346.155" font-family="Times,serif" font-size="14.00">2.0.0&#45;SNAPSHOT</text>
</g>
<!-- org.scalameta:scalameta_2.11:2.0.0&#45;SNAPSHOT&#45;&gt;org.scalameta:tokenizers_2.11:2.0.0&#45;SNAPSHOT -->
<g id="edge20" class="edge"><title>org.scalameta:scalameta_2.11:2.0.0&#45;SNAPSHOT&#45;&gt;org.scalameta:tokenizers_2.11:2.0.0&#45;SNAPSHOT</title>
<path fill="none" stroke="black" d="M112.181,-551.543C170.962,-476.049 326.637,-300.355 502.335,-300.355 502.335,-300.355 502.335,-300.355 729.84,-300.355 851.911,-300.355 991.371,-325.287 1078.03,-343.782"/>
<polygon fill="black" stroke="black" points="1077.3,-347.205 1087.82,-345.89 1078.78,-340.362 1077.3,-347.205"/>
</g>
<!-- org.scalameta:dialects_2.11:2.0.0&#45;SNAPSHOT -->
<g id="node18" class="node"><title>org.scalameta:dialects_2.11:2.0.0&#45;SNAPSHOT</title>
<ellipse fill="none" stroke="black" cx="1579.95" cy="-313.355" rx="86.0347" ry="35.2113"/>
<text text-anchor="start" x="1540.95" y="-324.155" font-family="Times,serif" font-size="14.00">org.scalameta</text>
<text text-anchor="start" x="1541.45" y="-310.155" font-family="Times,serif" font-weight="bold" font-size="14.00">dialects_2.11</text>
<text text-anchor="start" x="1526.95" y="-296.155" font-family="Times,serif" font-size="14.00">2.0.0&#45;SNAPSHOT</text>
</g>
<!-- org.scalameta:scalameta_2.11:2.0.0&#45;SNAPSHOT&#45;&gt;org.scalameta:dialects_2.11:2.0.0&#45;SNAPSHOT -->
<g id="edge41" class="edge"><title>org.scalameta:scalameta_2.11:2.0.0&#45;SNAPSHOT&#45;&gt;org.scalameta:dialects_2.11:2.0.0&#45;SNAPSHOT</title>
<path fill="none" stroke="black" d="M94.5449,-549.932C107.716,-494.559 140.673,-387.518 208.534,-326.355 311.209,-233.815 364.111,-224.355 502.335,-224.355 502.335,-224.355 502.335,-224.355 1163.88,-224.355 1295.72,-224.355 1330.19,-231.744 1457.68,-265.355 1475.6,-270.08 1494.45,-276.689 1511.82,-283.496"/>
<polygon fill="black" stroke="black" points="1510.71,-286.822 1521.29,-287.287 1513.31,-280.323 1510.71,-286.822"/>
</g>
<!-- org.scalameta:common_2.11:2.0.0&#45;SNAPSHOT -->
<g id="node19" class="node"><title>org.scalameta:common_2.11:2.0.0&#45;SNAPSHOT</title>
<ellipse fill="none" stroke="black" cx="1796.26" cy="-647.355" rx="86.0347" ry="35.2113"/>
<text text-anchor="start" x="1757.26" y="-658.155" font-family="Times,serif" font-size="14.00">org.scalameta</text>
<text text-anchor="start" x="1754.76" y="-644.155" font-family="Times,serif" font-weight="bold" font-size="14.00">common_2.11</text>
<text text-anchor="start" x="1743.26" y="-630.155" font-family="Times,serif" font-size="14.00">2.0.0&#45;SNAPSHOT</text>
</g>
<!-- org.scalameta:scalameta_2.11:2.0.0&#45;SNAPSHOT&#45;&gt;org.scalameta:common_2.11:2.0.0&#45;SNAPSHOT -->
<g id="edge51" class="edge"><title>org.scalameta:scalameta_2.11:2.0.0&#45;SNAPSHOT&#45;&gt;org.scalameta:common_2.11:2.0.0&#45;SNAPSHOT</title>
<path fill="none" stroke="black" d="M91.9749,-620.74C102.348,-686.736 132.587,-830.242 208.534,-922.355 305.221,-1039.62 350.348,-1097.36 502.335,-1097.36 502.335,-1097.36 502.335,-1097.36 1372.41,-1097.36 1515.56,-1097.36 1569.77,-1071.14 1666.21,-965.355 1738.95,-885.573 1773.37,-759.417 1787.27,-692.505"/>
<polygon fill="black" stroke="black" points="1790.71,-693.177 1789.26,-682.682 1783.85,-691.793 1790.71,-693.177"/>
</g>
<!-- org.scalameta:semantic_2.11:2.0.0&#45;SNAPSHOT&#45;&gt;org.scalameta:artifacts_2.11:2.0.0&#45;SNAPSHOT -->
<g id="edge2" class="edge"><title>org.scalameta:semantic_2.11:2.0.0&#45;SNAPSHOT&#45;&gt;org.scalameta:artifacts_2.11:2.0.0&#45;SNAPSHOT</title>
<path fill="none" stroke="black" d="M364.574,-865.333C383.547,-871.121 404.275,-877.444 423.757,-883.386"/>
<polygon fill="black" stroke="black" points="422.925,-886.792 433.511,-886.362 424.967,-880.096 422.925,-886.792"/>
</g>
<!-- org.scalameta:semantic_2.11:2.0.0&#45;SNAPSHOT&#45;&gt;org.scalameta:trees_2.11:2.0.0&#45;SNAPSHOT -->
<g id="edge12" class="edge"><title>org.scalameta:semantic_2.11:2.0.0&#45;SNAPSHOT&#45;&gt;org.scalameta:trees_2.11:2.0.0&#45;SNAPSHOT</title>
<path fill="none" stroke="black" d="M329.266,-811.835C385.15,-760.018 503.434,-660.664 625.602,-622.355 702.816,-598.143 795.374,-599.287 862.405,-605.088"/>
<polygon fill="black" stroke="black" points="862.243,-608.587 872.521,-606.015 862.882,-601.617 862.243,-608.587"/>
</g>
<!-- org.scalameta:semantic_2.11:2.0.0&#45;SNAPSHOT&#45;&gt;org.scalameta:common_2.11:2.0.0&#45;SNAPSHOT -->
<g id="edge42" class="edge"><title>org.scalameta:semantic_2.11:2.0.0&#45;SNAPSHOT&#45;&gt;org.scalameta:common_2.11:2.0.0&#45;SNAPSHOT</title>
<path fill="none" stroke="black" d="M381.463,-844.355C468.633,-844.355 607.641,-844.355 727.84,-844.355 727.84,-844.355 727.84,-844.355 1372.41,-844.355 1506.96,-844.355 1548.43,-836.392 1666.21,-771.355 1703.72,-750.647 1738.26,-716.272 1762.15,-688.96"/>
<polygon fill="black" stroke="black" points="1765.04,-690.964 1768.9,-681.099 1759.73,-686.402 1765.04,-690.964"/>
</g>
<!-- org.scala&#45;lang.modules:scala&#45;asm:5.1.0&#45;scala&#45;1 -->
<g id="node4" class="node"><title>org.scala&#45;lang.modules:scala&#45;asm:5.1.0&#45;scala&#45;1</title>
<ellipse fill="none" stroke="black" cx="728.84" cy="-996.355" rx="103.476" ry="35.2113"/>
<text text-anchor="start" x="663.84" y="-1007.16" font-family="Times,serif" font-size="14.00">org.scala&#45;lang.modules</text>
<text text-anchor="start" x="699.34" y="-993.155" font-family="Times,serif" font-weight="bold" font-size="14.00">scala&#45;asm</text>
<text text-anchor="start" x="692.34" y="-979.155" font-family="Times,serif" font-size="14.00">5.1.0&#45;scala&#45;1</text>
</g>
<!-- org.scalameta:artifacts_2.11:2.0.0&#45;SNAPSHOT&#45;&gt;org.scala&#45;lang.modules:scala&#45;asm:5.1.0&#45;scala&#45;1 -->
<g id="edge4" class="edge"><title>org.scalameta:artifacts_2.11:2.0.0&#45;SNAPSHOT&#45;&gt;org.scala&#45;lang.modules:scala&#45;asm:5.1.0&#45;scala&#45;1</title>
<path fill="none" stroke="black" d="M565.704,-931.793C592.177,-942.334 623.419,-954.775 651.378,-965.908"/>
<polygon fill="black" stroke="black" points="650.136,-969.181 660.722,-969.629 652.726,-962.678 650.136,-969.181"/>
</g>
<!-- org.apache.ivy:ivy:2.4.0 -->
<g id="node5" class="node"><title>org.apache.ivy:ivy:2.4.0</title>
<ellipse fill="none" stroke="black" cx="728.84" cy="-907.355" rx="70.0071" ry="35.2113"/>
<text text-anchor="start" x="687.34" y="-918.155" font-family="Times,serif" font-size="14.00">org.apache.ivy</text>
<text text-anchor="start" x="719.84" y="-904.155" font-family="Times,serif" font-weight="bold" font-size="14.00">ivy</text>
<text text-anchor="start" x="714.34" y="-890.155" font-family="Times,serif" font-size="14.00">2.4.0</text>
</g>
<!-- org.scalameta:artifacts_2.11:2.0.0&#45;SNAPSHOT&#45;&gt;org.apache.ivy:ivy:2.4.0 -->
<g id="edge5" class="edge"><title>org.scalameta:artifacts_2.11:2.0.0&#45;SNAPSHOT&#45;&gt;org.apache.ivy:ivy:2.4.0</title>
<path fill="none" stroke="black" d="M589.789,-907.355C609.115,-907.355 629.552,-907.355 648.608,-907.355"/>
<polygon fill="black" stroke="black" points="648.734,-910.855 658.734,-907.355 648.734,-903.855 648.734,-910.855"/>
</g>
<!-- org.scalameta:artifacts_2.11:2.0.0&#45;SNAPSHOT&#45;&gt;org.scalameta:parsers_2.11:2.0.0&#45;SNAPSHOT -->
<g id="edge11" class="edge"><title>org.scalameta:artifacts_2.11:2.0.0&#45;SNAPSHOT&#45;&gt;org.scalameta:parsers_2.11:2.0.0&#45;SNAPSHOT</title>
<path fill="none" stroke="black" d="M521.759,-872.61C545.272,-825.749 588.494,-739.705 625.602,-666.355 652.984,-612.231 684.669,-549.999 705.42,-509.297"/>
<polygon fill="black" stroke="black" points="708.638,-510.69 710.063,-500.191 702.402,-507.51 708.638,-510.69"/>
</g>
<!-- org.scalameta:artifacts_2.11:2.0.0&#45;SNAPSHOT&#45;&gt;org.scalameta:trees_2.11:2.0.0&#45;SNAPSHOT -->
<g id="edge17" class="edge"><title>org.scalameta:artifacts_2.11:2.0.0&#45;SNAPSHOT&#45;&gt;org.scalameta:trees_2.11:2.0.0&#45;SNAPSHOT</title>
<path fill="none" stroke="black" d="M515.226,-872.055C531.516,-825.277 566.772,-743.529 625.602,-699.355 692.882,-648.836 787.666,-629.186 858.007,-621.673"/>
<polygon fill="black" stroke="black" points="858.601,-625.131 868.202,-620.651 857.902,-618.166 858.601,-625.131"/>
</g>
<!-- org.scalameta:artifacts_2.11:2.0.0&#45;SNAPSHOT&#45;&gt;org.scalameta:common_2.11:2.0.0&#45;SNAPSHOT -->
<g id="edge52" class="edge"><title>org.scalameta:artifacts_2.11:2.0.0&#45;SNAPSHOT&#45;&gt;org.scalameta:common_2.11:2.0.0&#45;SNAPSHOT</title>
<path fill="none" stroke="black" d="M524.647,-941.87C545.512,-973.721 581.174,-1019.18 625.602,-1040.36 757.318,-1103.12 807.437,-1059.36 953.344,-1059.36 953.344,-1059.36 953.344,-1059.36 1372.41,-1059.36 1581.6,-1059.36 1726,-797.5 1775.95,-691.305"/>
<polygon fill="black" stroke="black" points="1779.18,-692.671 1780.22,-682.127 1772.83,-689.721 1779.18,-692.671"/>
</g>
<!-- org.scalameta:inputs_2.11:2.0.0&#45;SNAPSHOT -->
<g id="node17" class="node"><title>org.scalameta:inputs_2.11:2.0.0&#45;SNAPSHOT</title>
<ellipse fill="none" stroke="black" cx="1579.95" cy="-647.355" rx="86.0347" ry="35.2113"/>
<text text-anchor="start" x="1540.95" y="-658.155" font-family="Times,serif" font-size="14.00">org.scalameta</text>
<text text-anchor="start" x="1545.45" y="-644.155" font-family="Times,serif" font-weight="bold" font-size="14.00">inputs_2.11</text>
<text text-anchor="start" x="1526.95" y="-630.155" font-family="Times,serif" font-size="14.00">2.0.0&#45;SNAPSHOT</text>
</g>
<!-- org.scalameta:inline_2.11:2.0.0&#45;SNAPSHOT&#45;&gt;org.scalameta:inputs_2.11:2.0.0&#45;SNAPSHOT -->
<g id="edge33" class="edge"><title>org.scalameta:inline_2.11:2.0.0&#45;SNAPSHOT&#45;&gt;org.scalameta:inputs_2.11:2.0.0&#45;SNAPSHOT</title>
<path fill="none" stroke="black" d="M1040.52,-746.761C1141.77,-748.611 1314.98,-744.8 1457.68,-706.355 1479.24,-700.545 1501.58,-690.873 1521.11,-681.024"/>
<polygon fill="black" stroke="black" points="1522.89,-684.045 1530.16,-676.345 1519.67,-677.826 1522.89,-684.045"/>
</g>
<!-- org.scalameta:transversers_2.11:2.0.0&#45;SNAPSHOT&#45;&gt;org.scalameta:trees_2.11:2.0.0&#45;SNAPSHOT -->
<g id="edge14" class="edge"><title>org.scalameta:transversers_2.11:2.0.0&#45;SNAPSHOT&#45;&gt;org.scalameta:trees_2.11:2.0.0&#45;SNAPSHOT</title>
<path fill="none" stroke="black" d="M787.231,-717.322C802.021,-710.214 817.79,-702.278 832.077,-694.355 854.888,-681.706 879.302,-666.539 900.2,-653.025"/>
<polygon fill="black" stroke="black" points="902.152,-655.931 908.625,-647.543 898.334,-650.063 902.152,-655.931"/>
</g>
<!-- org.scalameta:transversers_2.11:2.0.0&#45;SNAPSHOT&#45;&gt;org.scalameta:common_2.11:2.0.0&#45;SNAPSHOT -->
<g id="edge48" class="edge"><title>org.scalameta:transversers_2.11:2.0.0&#45;SNAPSHOT&#45;&gt;org.scalameta:common_2.11:2.0.0&#45;SNAPSHOT</title>
<path fill="none" stroke="black" d="M793.012,-767.029C816.29,-774.799 843.08,-782.642 868.077,-787.355 996.663,-811.601 1031.03,-806.355 1161.88,-806.355 1161.88,-806.355 1161.88,-806.355 1372.41,-806.355 1512.31,-806.355 1662.55,-729.161 1740.79,-682.347"/>
<polygon fill="black" stroke="black" points="1742.76,-685.244 1749.51,-677.076 1739.14,-679.253 1742.76,-685.244"/>
</g>
<!-- org.scalameta:quasiquotes_2.11:2.0.0&#45;SNAPSHOT&#45;&gt;org.scalameta:parsers_2.11:2.0.0&#45;SNAPSHOT -->
<g id="edge9" class="edge"><title>org.scalameta:quasiquotes_2.11:2.0.0&#45;SNAPSHOT&#45;&gt;org.scalameta:parsers_2.11:2.0.0&#45;SNAPSHOT</title>
<path fill="none" stroke="black" d="M589.789,-465.355C603.673,-465.355 618.13,-465.355 632.236,-465.355"/>
<polygon fill="black" stroke="black" points="632.433,-468.855 642.433,-465.355 632.433,-461.855 632.433,-468.855"/>
</g>
<!-- org.scalameta:quasiquotes_2.11:2.0.0&#45;SNAPSHOT&#45;&gt;org.scalameta:trees_2.11:2.0.0&#45;SNAPSHOT -->
<g id="edge15" class="edge"><title>org.scalameta:quasiquotes_2.11:2.0.0&#45;SNAPSHOT&#45;&gt;org.scalameta:trees_2.11:2.0.0&#45;SNAPSHOT</title>
<path fill="none" stroke="black" d="M566.093,-489.69C585.006,-496.619 605.997,-503.788 625.602,-509.355 715.772,-534.962 743.982,-520.33 832.077,-552.355 844.874,-557.007 870.321,-570.406 894.614,-583.838"/>
<polygon fill="black" stroke="black" points="893.046,-586.971 903.487,-588.773 896.448,-580.854 893.046,-586.971"/>
</g>
<!-- org.scalameta:quasiquotes_2.11:2.0.0&#45;SNAPSHOT&#45;&gt;org.scalameta:inputs_2.11:2.0.0&#45;SNAPSHOT -->
<g id="edge34" class="edge"><title>org.scalameta:quasiquotes_2.11:2.0.0&#45;SNAPSHOT&#45;&gt;org.scalameta:inputs_2.11:2.0.0&#45;SNAPSHOT</title>
<path fill="none" stroke="black" d="M544.445,-496.604C608.478,-544.154 739.708,-632.23 868.077,-661.355 1087.4,-711.116 1354.59,-682.958 1490.44,-662.585"/>
<polygon fill="black" stroke="black" points="1491.03,-666.036 1500.39,-661.071 1489.97,-659.115 1491.03,-666.036"/>
</g>
<!-- org.scalameta:quasiquotes_2.11:2.0.0&#45;SNAPSHOT&#45;&gt;org.scalameta:dialects_2.11:2.0.0&#45;SNAPSHOT -->
<g id="edge39" class="edge"><title>org.scalameta:quasiquotes_2.11:2.0.0&#45;SNAPSHOT&#45;&gt;org.scalameta:dialects_2.11:2.0.0&#45;SNAPSHOT</title>
<path fill="none" stroke="black" d="M543.403,-433.859C618.205,-376.84 788.875,-262.355 953.344,-262.355 953.344,-262.355 953.344,-262.355 1163.88,-262.355 1277.77,-262.355 1407.94,-281.506 1491.67,-296.337"/>
<polygon fill="black" stroke="black" points="1491.19,-299.806 1501.65,-298.123 1492.42,-292.916 1491.19,-299.806"/>
</g>
<!-- org.scalameta:quasiquotes_2.11:2.0.0&#45;SNAPSHOT&#45;&gt;org.scalameta:common_2.11:2.0.0&#45;SNAPSHOT -->
<g id="edge49" class="edge"><title>org.scalameta:quasiquotes_2.11:2.0.0&#45;SNAPSHOT&#45;&gt;org.scalameta:common_2.11:2.0.0&#45;SNAPSHOT</title>
<path fill="none" stroke="black" d="M518.239,-430.228C536.598,-388.359 572.886,-319.192 625.602,-280.355 747.605,-190.475 801.808,-186.355 953.344,-186.355 953.344,-186.355 953.344,-186.355 1372.41,-186.355 1426.95,-186.355 1610.57,-216.6 1666.21,-269.355 1761.33,-359.535 1786.34,-522.611 1792.91,-601.78"/>
<polygon fill="black" stroke="black" points="1789.44,-602.219 1793.69,-611.921 1796.42,-601.683 1789.44,-602.219"/>
</g>
<!-- org.scalameta:parsers_2.11:2.0.0&#45;SNAPSHOT&#45;&gt;org.scalameta:trees_2.11:2.0.0&#45;SNAPSHOT -->
<g id="edge13" class="edge"><title>org.scalameta:parsers_2.11:2.0.0&#45;SNAPSHOT&#45;&gt;org.scalameta:trees_2.11:2.0.0&#45;SNAPSHOT</title>
<path fill="none" stroke="black" d="M793.106,-489.151C806.822,-496.029 820.632,-504.42 832.077,-514.355 853.86,-533.263 847.015,-548.648 868.077,-568.355 874.439,-574.308 881.653,-579.835 889.127,-584.869"/>
<polygon fill="black" stroke="black" points="887.676,-588.096 897.983,-590.548 891.454,-582.204 887.676,-588.096"/>
</g>
<!-- org.scalameta:parsers_2.11:2.0.0&#45;SNAPSHOT&#45;&gt;org.scalameta:tokenizers_2.11:2.0.0&#45;SNAPSHOT -->
<g id="edge18" class="edge"><title>org.scalameta:parsers_2.11:2.0.0&#45;SNAPSHOT&#45;&gt;org.scalameta:tokenizers_2.11:2.0.0&#45;SNAPSHOT</title>
<path fill="none" stroke="black" d="M788.846,-439.731C813.037,-430.02 841.54,-419.577 868.077,-412.355 934.467,-394.289 1011.21,-381.766 1069.61,-373.905"/>
<polygon fill="black" stroke="black" points="1070.1,-377.37 1079.56,-372.587 1069.18,-370.431 1070.1,-377.37"/>
</g>
<!-- org.scalameta:tokens_2.11:2.0.0&#45;SNAPSHOT -->
<g id="node16" class="node"><title>org.scalameta:tokens_2.11:2.0.0&#45;SNAPSHOT</title>
<ellipse fill="none" stroke="black" cx="1371.41" cy="-477.355" rx="86.0347" ry="35.2113"/>
<text text-anchor="start" x="1332.41" y="-488.155" font-family="Times,serif" font-size="14.00">org.scalameta</text>
<text text-anchor="start" x="1335.91" y="-474.155" font-family="Times,serif" font-weight="bold" font-size="14.00">tokens_2.11</text>
<text text-anchor="start" x="1318.41" y="-460.155" font-family="Times,serif" font-size="14.00">2.0.0&#45;SNAPSHOT</text>
</g>
<!-- org.scalameta:parsers_2.11:2.0.0&#45;SNAPSHOT&#45;&gt;org.scalameta:tokens_2.11:2.0.0&#45;SNAPSHOT -->
<g id="edge27" class="edge"><title>org.scalameta:parsers_2.11:2.0.0&#45;SNAPSHOT&#45;&gt;org.scalameta:tokens_2.11:2.0.0&#45;SNAPSHOT</title>
<path fill="none" stroke="black" d="M815.234,-466.955C934.506,-469.189 1150.3,-473.232 1274.82,-475.565"/>
<polygon fill="black" stroke="black" points="1275.03,-479.069 1285.1,-475.757 1275.16,-472.07 1275.03,-479.069"/>
</g>
<!-- org.scalameta:parsers_2.11:2.0.0&#45;SNAPSHOT&#45;&gt;org.scalameta:inputs_2.11:2.0.0&#45;SNAPSHOT -->
<g id="edge30" class="edge"><title>org.scalameta:parsers_2.11:2.0.0&#45;SNAPSHOT&#45;&gt;org.scalameta:inputs_2.11:2.0.0&#45;SNAPSHOT</title>
<path fill="none" stroke="black" d="M805.566,-481.587C963.425,-515.423 1326.78,-593.306 1493.06,-628.945"/>
<polygon fill="black" stroke="black" points="1492.73,-632.454 1503.24,-631.128 1494.19,-625.61 1492.73,-632.454"/>
</g>
<!-- org.scalameta:parsers_2.11:2.0.0&#45;SNAPSHOT&#45;&gt;org.scalameta:dialects_2.11:2.0.0&#45;SNAPSHOT -->
<g id="edge36" class="edge"><title>org.scalameta:parsers_2.11:2.0.0&#45;SNAPSHOT&#45;&gt;org.scalameta:dialects_2.11:2.0.0&#45;SNAPSHOT</title>
<path fill="none" stroke="black" d="M770.226,-434.172C796.801,-414.919 833.034,-390.994 868.077,-375.355 1073.91,-283.5 1346.25,-290.895 1486.58,-302.859"/>
<polygon fill="black" stroke="black" points="1486.6,-306.374 1496.87,-303.765 1487.21,-299.401 1486.6,-306.374"/>
</g>
<!-- org.scalameta:parsers_2.11:2.0.0&#45;SNAPSHOT&#45;&gt;org.scalameta:common_2.11:2.0.0&#45;SNAPSHOT -->
<g id="edge43" class="edge"><title>org.scalameta:parsers_2.11:2.0.0&#45;SNAPSHOT&#45;&gt;org.scalameta:common_2.11:2.0.0&#45;SNAPSHOT</title>
<path fill="none" stroke="black" d="M810.684,-476.861C1030.35,-508.179 1624.61,-593.287 1666.21,-603.355 1684.92,-607.884 1704.77,-613.975 1723.14,-620.18"/>
<polygon fill="black" stroke="black" points="1722,-623.49 1732.6,-623.427 1724.28,-616.87 1722,-623.49"/>
</g>
<!-- org.scalameta:trees_2.11:2.0.0&#45;SNAPSHOT&#45;&gt;org.scalameta:tokenizers_2.11:2.0.0&#45;SNAPSHOT -->
<g id="edge19" class="edge"><title>org.scalameta:trees_2.11:2.0.0&#45;SNAPSHOT&#45;&gt;org.scalameta:tokenizers_2.11:2.0.0&#45;SNAPSHOT</title>
<path fill="none" stroke="black" d="M977.883,-583.311C1001.25,-548.768 1039.49,-494.277 1076.61,-450.355 1090.21,-434.262 1106.14,-417.518 1120.53,-403.067"/>
<polygon fill="black" stroke="black" points="1123.27,-405.271 1127.89,-395.734 1118.33,-400.312 1123.27,-405.271"/>
</g>
<!-- org.scalameta:trees_2.11:2.0.0&#45;SNAPSHOT&#45;&gt;org.scalameta:tokens_2.11:2.0.0&#45;SNAPSHOT -->
<g id="edge29" class="edge"><title>org.scalameta:trees_2.11:2.0.0&#45;SNAPSHOT&#45;&gt;org.scalameta:tokens_2.11:2.0.0&#45;SNAPSHOT</title>
<path fill="none" stroke="black" d="M1021.57,-595.017C1095.87,-569.957 1216.18,-529.377 1294.29,-503.03"/>
<polygon fill="black" stroke="black" points="1295.72,-506.242 1304.08,-499.73 1293.48,-499.609 1295.72,-506.242"/>
</g>
<!-- org.scalameta:trees_2.11:2.0.0&#45;SNAPSHOT&#45;&gt;org.scalameta:inputs_2.11:2.0.0&#45;SNAPSHOT -->
<g id="edge35" class="edge"><title>org.scalameta:trees_2.11:2.0.0&#45;SNAPSHOT&#45;&gt;org.scalameta:inputs_2.11:2.0.0&#45;SNAPSHOT</title>
<path fill="none" stroke="black" d="M1040.1,-621.432C1155.86,-627.002 1362.82,-636.958 1483.78,-642.777"/>
<polygon fill="black" stroke="black" points="1483.97,-646.29 1494.13,-643.275 1484.31,-639.299 1483.97,-646.29"/>
</g>
<!-- org.scalameta:trees_2.11:2.0.0&#45;SNAPSHOT&#45;&gt;org.scalameta:dialects_2.11:2.0.0&#45;SNAPSHOT -->
<g id="edge40" class="edge"><title>org.scalameta:trees_2.11:2.0.0&#45;SNAPSHOT&#45;&gt;org.scalameta:dialects_2.11:2.0.0&#45;SNAPSHOT</title>
<path fill="none" stroke="black" d="M988.142,-584.778C1011.37,-563.014 1044.07,-534.901 1076.61,-515.355 1151.74,-470.24 1383.9,-383.69 1504.5,-339.992"/>
<polygon fill="black" stroke="black" points="1505.83,-343.232 1514.04,-336.538 1503.45,-336.649 1505.83,-343.232"/>
</g>
<!-- org.scalameta:trees_2.11:2.0.0&#45;SNAPSHOT&#45;&gt;org.scalameta:common_2.11:2.0.0&#45;SNAPSHOT -->
<g id="edge50" class="edge"><title>org.scalameta:trees_2.11:2.0.0&#45;SNAPSHOT&#45;&gt;org.scalameta:common_2.11:2.0.0&#45;SNAPSHOT</title>
<path fill="none" stroke="black" d="M1026.1,-637.199C1154.35,-670.398 1433.48,-729.942 1666.21,-691.355 1685.99,-688.076 1706.81,-682.151 1725.81,-675.69"/>
<polygon fill="black" stroke="black" points="1726.99,-678.986 1735.27,-672.379 1724.67,-672.378 1726.99,-678.986"/>
</g>
<!-- com.lihaoyi:scalaparse_2.11:0.3.7 -->
<g id="node12" class="node"><title>com.lihaoyi:scalaparse_2.11:0.3.7</title>
<ellipse fill="none" stroke="black" cx="1371.41" cy="-123.355" rx="77.5641" ry="35.2113"/>
<text text-anchor="start" x="1337.91" y="-134.155" font-family="Times,serif" font-size="14.00">com.lihaoyi</text>
<text text-anchor="start" x="1324.41" y="-120.155" font-family="Times,serif" font-weight="bold" font-size="14.00">scalaparse_2.11</text>
<text text-anchor="start" x="1356.91" y="-106.155" font-family="Times,serif" font-size="14.00">0.3.7</text>
</g>
<!-- org.scalameta:tokenizers_2.11:2.0.0&#45;SNAPSHOT&#45;&gt;com.lihaoyi:scalaparse_2.11:0.3.7 -->
<g id="edge21" class="edge"><title>org.scalameta:tokenizers_2.11:2.0.0&#45;SNAPSHOT&#45;&gt;com.lihaoyi:scalaparse_2.11:0.3.7</title>
<path fill="none" stroke="black" d="M1192.6,-329.984C1229.9,-286.639 1294.98,-211.005 1335.22,-164.255"/>
<polygon fill="black" stroke="black" points="1338.07,-166.306 1341.94,-156.443 1332.76,-161.74 1338.07,-166.306"/>
</g>
<!-- org.scalameta:tokenizers_2.11:2.0.0&#45;SNAPSHOT&#45;&gt;org.scalameta:tokens_2.11:2.0.0&#45;SNAPSHOT -->
<g id="edge28" class="edge"><title>org.scalameta:tokenizers_2.11:2.0.0&#45;SNAPSHOT&#45;&gt;org.scalameta:tokens_2.11:2.0.0&#45;SNAPSHOT</title>
<path fill="none" stroke="black" d="M1215.2,-391.682C1243.89,-407.518 1279.81,-427.348 1309.87,-443.94"/>
<polygon fill="black" stroke="black" points="1308.55,-447.209 1319,-448.977 1311.94,-441.081 1308.55,-447.209"/>
</g>
<!-- org.scalameta:tokenizers_2.11:2.0.0&#45;SNAPSHOT&#45;&gt;org.scalameta:inputs_2.11:2.0.0&#45;SNAPSHOT -->
<g id="edge31" class="edge"><title>org.scalameta:tokenizers_2.11:2.0.0&#45;SNAPSHOT&#45;&gt;org.scalameta:inputs_2.11:2.0.0&#45;SNAPSHOT</title>
<path fill="none" stroke="black" d="M1183.23,-398.041C1204.33,-433.174 1241.05,-487.087 1285.15,-521.355 1303.75,-535.816 1426.99,-586.551 1507.84,-619.062"/>
<polygon fill="black" stroke="black" points="1506.89,-622.454 1517.48,-622.933 1509.5,-615.958 1506.89,-622.454"/>
</g>
<!-- org.scalameta:tokenizers_2.11:2.0.0&#45;SNAPSHOT&#45;&gt;org.scalameta:dialects_2.11:2.0.0&#45;SNAPSHOT -->
<g id="edge37" class="edge"><title>org.scalameta:tokenizers_2.11:2.0.0&#45;SNAPSHOT&#45;&gt;org.scalameta:dialects_2.11:2.0.0&#45;SNAPSHOT</title>
<path fill="none" stroke="black" d="M1245.88,-353.477C1315.27,-345.119 1414.64,-333.148 1486.77,-324.459"/>
<polygon fill="black" stroke="black" points="1487.25,-327.927 1496.76,-323.256 1486.41,-320.977 1487.25,-327.927"/>
</g>
<!-- org.scalameta:tokenizers_2.11:2.0.0&#45;SNAPSHOT&#45;&gt;org.scalameta:common_2.11:2.0.0&#45;SNAPSHOT -->
<g id="edge45" class="edge"><title>org.scalameta:tokenizers_2.11:2.0.0&#45;SNAPSHOT&#45;&gt;org.scalameta:common_2.11:2.0.0&#45;SNAPSHOT</title>
<path fill="none" stroke="black" d="M1247.72,-370.489C1353.06,-382.83 1535.81,-415.715 1666.21,-501.355 1707.49,-528.459 1743.64,-572.117 1767.1,-604.641"/>
<polygon fill="black" stroke="black" points="1764.44,-606.941 1773.08,-613.074 1770.15,-602.892 1764.44,-606.941"/>
</g>
<!-- com.lihaoyi:fastparse_2.11:0.3.7 -->
<g id="node13" class="node"><title>com.lihaoyi:fastparse_2.11:0.3.7</title>
<ellipse fill="none" stroke="black" cx="1579.95" cy="-73.3553" rx="72.25" ry="35.2113"/>
<text text-anchor="start" x="1546.45" y="-84.1553" font-family="Times,serif" font-size="14.00">com.lihaoyi</text>
<text text-anchor="start" x="1536.95" y="-70.1553" font-family="Times,serif" font-weight="bold" font-size="14.00">fastparse_2.11</text>
<text text-anchor="start" x="1565.45" y="-56.1553" font-family="Times,serif" font-size="14.00">0.3.7</text>
</g>
<!-- com.lihaoyi:scalaparse_2.11:0.3.7&#45;&gt;com.lihaoyi:fastparse_2.11:0.3.7 -->
<g id="edge22" class="edge"><title>com.lihaoyi:scalaparse_2.11:0.3.7&#45;&gt;com.lihaoyi:fastparse_2.11:0.3.7</title>
<path fill="none" stroke="black" d="M1440.33,-106.914C1461.03,-101.902 1483.89,-96.3669 1504.98,-91.2624"/>
<polygon fill="black" stroke="black" points="1505.95,-94.628 1514.85,-88.8733 1504.3,-87.8245 1505.95,-94.628"/>
</g>
<!-- com.lihaoyi:sourcecode_2.11:0.1.1 -->
<g id="node15" class="node"><title>com.lihaoyi:sourcecode_2.11:0.1.1</title>
<ellipse fill="none" stroke="black" cx="2006.91" cy="-98.3553" rx="80.7205" ry="35.2113"/>
<text text-anchor="start" x="1973.41" y="-109.155" font-family="Times,serif" font-size="14.00">com.lihaoyi</text>
<text text-anchor="start" x="1957.91" y="-95.1553" font-family="Times,serif" font-weight="bold" font-size="14.00">sourcecode_2.11</text>
<text text-anchor="start" x="1992.41" y="-81.1553" font-family="Times,serif" font-size="14.00">0.1.1</text>
</g>
<!-- com.lihaoyi:scalaparse_2.11:0.3.7&#45;&gt;com.lihaoyi:sourcecode_2.11:0.1.1 -->
<g id="edge26" class="edge"><title>com.lihaoyi:scalaparse_2.11:0.3.7&#45;&gt;com.lihaoyi:sourcecode_2.11:0.1.1</title>
<path fill="none" stroke="black" d="M1449.45,-122.528C1508.73,-121.711 1592.67,-120.162 1666.21,-117.355 1751.27,-114.109 1848.21,-108.497 1916.7,-104.212"/>
<polygon fill="black" stroke="black" points="1917.25,-107.684 1927.02,-103.562 1916.81,-100.697 1917.25,-107.684"/>
</g>
<!-- com.lihaoyi:fastparse&#45;utils_2.11:0.3.7 -->
<g id="node14" class="node"><title>com.lihaoyi:fastparse&#45;utils_2.11:0.3.7</title>
<ellipse fill="none" stroke="black" cx="1796.26" cy="-35.3553" rx="94.0904" ry="35.2113"/>
<text text-anchor="start" x="1762.76" y="-46.1553" font-family="Times,serif" font-size="14.00">com.lihaoyi</text>
<text text-anchor="start" x="1737.76" y="-32.1553" font-family="Times,serif" font-weight="bold" font-size="14.00">fastparse&#45;utils_2.11</text>
<text text-anchor="start" x="1781.76" y="-18.1553" font-family="Times,serif" font-size="14.00">0.3.7</text>
</g>
<!-- com.lihaoyi:fastparse_2.11:0.3.7&#45;&gt;com.lihaoyi:fastparse&#45;utils_2.11:0.3.7 -->
<g id="edge23" class="edge"><title>com.lihaoyi:fastparse_2.11:0.3.7&#45;&gt;com.lihaoyi:fastparse&#45;utils_2.11:0.3.7</title>
<path fill="none" stroke="black" d="M1648.17,-61.4362C1664.79,-58.4886 1682.91,-55.2757 1700.57,-52.144"/>
<polygon fill="black" stroke="black" points="1701.67,-55.5044 1710.91,-50.3122 1700.45,-48.6119 1701.67,-55.5044"/>
</g>
<!-- com.lihaoyi:fastparse_2.11:0.3.7&#45;&gt;com.lihaoyi:sourcecode_2.11:0.1.1 -->
<g id="edge25" class="edge"><title>com.lihaoyi:fastparse_2.11:0.3.7&#45;&gt;com.lihaoyi:sourcecode_2.11:0.1.1</title>
<path fill="none" stroke="black" d="M1651.6,-77.5116C1724.22,-81.7837 1837.51,-88.4487 1916.37,-93.0877"/>
<polygon fill="black" stroke="black" points="1916.59,-96.6065 1926.78,-93.6999 1917,-89.6186 1916.59,-96.6065"/>
</g>
<!-- com.lihaoyi:fastparse&#45;utils_2.11:0.3.7&#45;&gt;com.lihaoyi:sourcecode_2.11:0.1.1 -->
<g id="edge24" class="edge"><title>com.lihaoyi:fastparse&#45;utils_2.11:0.3.7&#45;&gt;com.lihaoyi:sourcecode_2.11:0.1.1</title>
<path fill="none" stroke="black" d="M1870.24,-57.3897C1889.64,-63.2481 1910.64,-69.5882 1930.18,-75.49"/>
<polygon fill="black" stroke="black" points="1929.37,-78.8994 1939.95,-78.4393 1931.39,-72.1982 1929.37,-78.8994"/>
</g>
<!-- org.scalameta:tokens_2.11:2.0.0&#45;SNAPSHOT&#45;&gt;org.scalameta:inputs_2.11:2.0.0&#45;SNAPSHOT -->
<g id="edge32" class="edge"><title>org.scalameta:tokens_2.11:2.0.0&#45;SNAPSHOT&#45;&gt;org.scalameta:inputs_2.11:2.0.0&#45;SNAPSHOT</title>
<path fill="none" stroke="black" d="M1425.66,-505.067C1436.59,-511.545 1447.78,-518.783 1457.68,-526.355 1488.94,-550.262 1520.28,-581.779 1543.27,-606.654"/>
<polygon fill="black" stroke="black" points="1540.79,-609.132 1550.12,-614.145 1545.95,-604.405 1540.79,-609.132"/>
</g>
<!-- org.scalameta:tokens_2.11:2.0.0&#45;SNAPSHOT&#45;&gt;org.scalameta:dialects_2.11:2.0.0&#45;SNAPSHOT -->
<g id="edge38" class="edge"><title>org.scalameta:tokens_2.11:2.0.0&#45;SNAPSHOT&#45;&gt;org.scalameta:dialects_2.11:2.0.0&#45;SNAPSHOT</title>
<path fill="none" stroke="black" d="M1425.51,-449.45C1436.46,-442.985 1447.68,-435.801 1457.68,-428.355 1487.7,-405.99 1518.27,-376.954 1541.2,-353.654"/>
<polygon fill="black" stroke="black" points="1543.89,-355.909 1548.37,-346.306 1538.88,-351.021 1543.89,-355.909"/>
</g>
<!-- org.scalameta:tokens_2.11:2.0.0&#45;SNAPSHOT&#45;&gt;org.scalameta:common_2.11:2.0.0&#45;SNAPSHOT -->
<g id="edge46" class="edge"><title>org.scalameta:tokens_2.11:2.0.0&#45;SNAPSHOT&#45;&gt;org.scalameta:common_2.11:2.0.0&#45;SNAPSHOT</title>
<path fill="none" stroke="black" d="M1448.18,-493.522C1508.8,-507.925 1595.12,-531.776 1666.21,-564.355 1693.82,-577.007 1722.43,-594.85 1745.67,-610.752"/>
<polygon fill="black" stroke="black" points="1743.77,-613.691 1753.98,-616.509 1747.76,-607.937 1743.77,-613.691"/>
</g>
<!-- org.scalameta:inputs_2.11:2.0.0&#45;SNAPSHOT&#45;&gt;org.scalameta:common_2.11:2.0.0&#45;SNAPSHOT -->
<g id="edge47" class="edge"><title>org.scalameta:inputs_2.11:2.0.0&#45;SNAPSHOT&#45;&gt;org.scalameta:common_2.11:2.0.0&#45;SNAPSHOT</title>
<path fill="none" stroke="black" d="M1666.26,-647.355C1677.26,-647.355 1688.57,-647.355 1699.71,-647.355"/>
<polygon fill="black" stroke="black" points="1699.88,-650.855 1709.88,-647.355 1699.88,-643.855 1699.88,-650.855"/>
</g>
<!-- org.scalameta:dialects_2.11:2.0.0&#45;SNAPSHOT&#45;&gt;org.scalameta:common_2.11:2.0.0&#45;SNAPSHOT -->
<g id="edge44" class="edge"><title>org.scalameta:dialects_2.11:2.0.0&#45;SNAPSHOT&#45;&gt;org.scalameta:common_2.11:2.0.0&#45;SNAPSHOT</title>
<path fill="none" stroke="black" d="M1638.29,-339.633C1648.45,-346.053 1658.29,-353.633 1666.21,-362.355 1730.54,-433.206 1767.45,-541.531 1784.21,-602.187"/>
<polygon fill="black" stroke="black" points="1780.84,-603.118 1786.82,-611.859 1787.59,-601.292 1780.84,-603.118"/>
</g>
</g>
</svg>
