<?xml version="1.0" encoding="UTF-8" standalone="no"?>
<!DOCTYPE svg PUBLIC "-//W3C//DTD SVG 1.1//EN"
 "http://www.w3.org/Graphics/SVG/1.1/DTD/svg11.dtd">
<!-- Generated by graphviz version 2.38.0 (20140413.2041)
 -->
<!-- Title: dependency&#45;graph Pages: 1 -->
<svg width="2643pt" height="1165pt"
 viewBox="0.00 0.00 2642.82 1164.57" xmlns="http://www.w3.org/2000/svg" xmlns:xlink="http://www.w3.org/1999/xlink">
<g id="graph0" class="graph" transform="scale(1 1) rotate(0) translate(4 1160.57)">
<title>dependency&#45;graph</title>
<polygon fill="white" stroke="none" points="-4,4 -4,-1160.57 2638.82,-1160.57 2638.82,4 -4,4"/>
<!-- org.scalameta:scalahost_2.11.8:2.0.0&#45;600.1485392146024 -->
<g id="node1" class="node"><title>org.scalameta:scalahost_2.11.8:2.0.0&#45;600.1485392146024</title>
<ellipse fill="none" stroke="black" cx="116.673" cy="-364.355" rx="116.845" ry="35.2113"/>
<text text-anchor="start" x="77.6726" y="-375.155" font-family="Times,serif" font-size="14.00">org.scalameta</text>
<text text-anchor="start" x="68.1726" y="-361.155" font-family="Times,serif" font-weight="bold" font-size="14.00">scalahost_2.11.8</text>
<text text-anchor="start" x="42.1726" y="-347.155" font-family="Times,serif" font-size="14.00">2.0.0&#45;600.1485392146024</text>
</g>
<!-- org.scalameta:scalameta_2.11:2.0.0&#45;600.1485392146024 -->
<g id="node2" class="node"><title>org.scalameta:scalameta_2.11:2.0.0&#45;600.1485392146024</title>
<ellipse fill="none" stroke="black" cx="386.018" cy="-541.355" rx="116.845" ry="35.2113"/>
<text text-anchor="start" x="347.018" y="-552.155" font-family="Times,serif" font-size="14.00">org.scalameta</text>
<text text-anchor="start" x="340.518" y="-538.155" font-family="Times,serif" font-weight="bold" font-size="14.00">scalameta_2.11</text>
<text text-anchor="start" x="311.518" y="-524.155" font-family="Times,serif" font-size="14.00">2.0.0&#45;600.1485392146024</text>
</g>
<!-- org.scalameta:scalahost_2.11.8:2.0.0&#45;600.1485392146024&#45;&gt;org.scalameta:scalameta_2.11:2.0.0&#45;600.1485392146024 -->
<g id="edge1" class="edge"><title>org.scalameta:scalahost_2.11.8:2.0.0&#45;600.1485392146024&#45;&gt;org.scalameta:scalameta_2.11:2.0.0&#45;600.1485392146024</title>
<path fill="none" stroke="black" d="M166.087,-396.409C211.652,-426.576 279.902,-471.762 328.064,-503.648"/>
<polygon fill="black" stroke="black" points="326.243,-506.64 336.513,-509.242 330.107,-500.803 326.243,-506.64"/>
</g>
<!-- org.scala&#45;lang:scala&#45;compiler:2.11.8 -->
<g id="node18" class="node"><title>org.scala&#45;lang:scala&#45;compiler:2.11.8</title>
<ellipse fill="none" stroke="black" cx="386.018" cy="-168.355" rx="73.5782" ry="35.2113"/>
<text text-anchor="start" x="346.518" y="-179.155" font-family="Times,serif" font-size="14.00">org.scala&#45;lang</text>
<text text-anchor="start" x="342.018" y="-165.155" font-family="Times,serif" font-weight="bold" font-size="14.00">scala&#45;compiler</text>
<text text-anchor="start" x="368.018" y="-151.155" font-family="Times,serif" font-size="14.00">2.11.8</text>
</g>
<!-- org.scalameta:scalahost_2.11.8:2.0.0&#45;600.1485392146024&#45;&gt;org.scala&#45;lang:scala&#45;compiler:2.11.8 -->
<g id="edge47" class="edge"><title>org.scalameta:scalahost_2.11.8:2.0.0&#45;600.1485392146024&#45;&gt;org.scala&#45;lang:scala&#45;compiler:2.11.8</title>
<path fill="none" stroke="black" d="M162.119,-331.77C210.262,-296.475 286.822,-240.346 336.499,-203.926"/>
<polygon fill="black" stroke="black" points="338.845,-206.546 344.84,-197.811 334.706,-200.901 338.845,-206.546"/>
</g>
<!-- org.scalameta:semantic_2.11:2.0.0&#45;600.1485392146024 -->
<g id="node3" class="node"><title>org.scalameta:semantic_2.11:2.0.0&#45;600.1485392146024</title>
<ellipse fill="none" stroke="black" cx="974.206" cy="-377.355" rx="116.845" ry="35.2113"/>
<text text-anchor="start" x="935.206" y="-388.155" font-family="Times,serif" font-size="14.00">org.scalameta</text>
<text text-anchor="start" x="931.706" y="-374.155" font-family="Times,serif" font-weight="bold" font-size="14.00">semantic_2.11</text>
<text text-anchor="start" x="899.706" y="-360.155" font-family="Times,serif" font-size="14.00">2.0.0&#45;600.1485392146024</text>
</g>
<!-- org.scalameta:scalameta_2.11:2.0.0&#45;600.1485392146024&#45;&gt;org.scalameta:semantic_2.11:2.0.0&#45;600.1485392146024 -->
<g id="edge2" class="edge"><title>org.scalameta:scalameta_2.11:2.0.0&#45;600.1485392146024&#45;&gt;org.scalameta:semantic_2.11:2.0.0&#45;600.1485392146024</title>
<path fill="none" stroke="black" d="M455.84,-512.934C481.584,-502.862 511.239,-491.915 538.69,-483.355 649.438,-448.822 778.91,-418.494 867.533,-399.225"/>
<polygon fill="black" stroke="black" points="868.292,-402.641 877.324,-397.104 866.81,-395.8 868.292,-402.641"/>
</g>
<!-- org.scalameta:inline_2.11:2.0.0&#45;600.1485392146024 -->
<g id="node4" class="node"><title>org.scalameta:inline_2.11:2.0.0&#45;600.1485392146024</title>
<ellipse fill="none" stroke="black" cx="1243.55" cy="-959.355" rx="116.845" ry="35.2113"/>
<text text-anchor="start" x="1204.55" y="-970.155" font-family="Times,serif" font-size="14.00">org.scalameta</text>
<text text-anchor="start" x="1211.05" y="-956.155" font-family="Times,serif" font-weight="bold" font-size="14.00">inline_2.11</text>
<text text-anchor="start" x="1169.05" y="-942.155" font-family="Times,serif" font-size="14.00">2.0.0&#45;600.1485392146024</text>
</g>
<!-- org.scalameta:scalameta_2.11:2.0.0&#45;600.1485392146024&#45;&gt;org.scalameta:inline_2.11:2.0.0&#45;600.1485392146024 -->
<g id="edge3" class="edge"><title>org.scalameta:scalameta_2.11:2.0.0&#45;600.1485392146024&#45;&gt;org.scalameta:inline_2.11:2.0.0&#45;600.1485392146024</title>
<path fill="none" stroke="black" d="M406.165,-576.188C431.703,-620.128 480.517,-695.906 538.69,-745.355 660.263,-848.695 705.199,-862.888 857.533,-910.355 941.881,-936.638 1040.82,-948.852 1117.28,-954.514"/>
<polygon fill="black" stroke="black" points="1117.22,-958.018 1127.44,-955.238 1117.72,-951.036 1117.22,-958.018"/>
</g>
<!-- org.scalameta:transversers_2.11:2.0.0&#45;600.1485392146024 -->
<g id="node5" class="node"><title>org.scalameta:transversers_2.11:2.0.0&#45;600.1485392146024</title>
<ellipse fill="none" stroke="black" cx="974.206" cy="-466.355" rx="116.845" ry="35.2113"/>
<text text-anchor="start" x="935.206" y="-477.155" font-family="Times,serif" font-size="14.00">org.scalameta</text>
<text text-anchor="start" x="921.206" y="-463.155" font-family="Times,serif" font-weight="bold" font-size="14.00">transversers_2.11</text>
<text text-anchor="start" x="899.706" y="-449.155" font-family="Times,serif" font-size="14.00">2.0.0&#45;600.1485392146024</text>
</g>
<!-- org.scalameta:scalameta_2.11:2.0.0&#45;600.1485392146024&#45;&gt;org.scalameta:transversers_2.11:2.0.0&#45;600.1485392146024 -->
<g id="edge4" class="edge"><title>org.scalameta:scalameta_2.11:2.0.0&#45;600.1485392146024&#45;&gt;org.scalameta:transversers_2.11:2.0.0&#45;600.1485392146024</title>
<path fill="none" stroke="black" d="M493.852,-527.686C596.223,-514.589 750.356,-494.868 856.043,-481.346"/>
<polygon fill="black" stroke="black" points="856.641,-484.798 866.116,-480.057 855.753,-477.854 856.641,-484.798"/>
</g>
<!-- org.scalameta:quasiquotes_2.11:2.0.0&#45;600.1485392146024 -->
<g id="node6" class="node"><title>org.scalameta:quasiquotes_2.11:2.0.0&#45;600.1485392146024</title>
<ellipse fill="none" stroke="black" cx="680.112" cy="-668.355" rx="116.845" ry="35.2113"/>
<text text-anchor="start" x="641.112" y="-679.155" font-family="Times,serif" font-size="14.00">org.scalameta</text>
<text text-anchor="start" x="628.612" y="-665.155" font-family="Times,serif" font-weight="bold" font-size="14.00">quasiquotes_2.11</text>
<text text-anchor="start" x="605.612" y="-651.155" font-family="Times,serif" font-size="14.00">2.0.0&#45;600.1485392146024</text>
</g>
<!-- org.scalameta:scalameta_2.11:2.0.0&#45;600.1485392146024&#45;&gt;org.scalameta:quasiquotes_2.11:2.0.0&#45;600.1485392146024 -->
<g id="edge5" class="edge"><title>org.scalameta:scalameta_2.11:2.0.0&#45;600.1485392146024&#45;&gt;org.scalameta:quasiquotes_2.11:2.0.0&#45;600.1485392146024</title>
<path fill="none" stroke="black" d="M442.663,-572.333C470.965,-587.479 506.174,-605.401 538.69,-619.355 555.007,-626.357 572.69,-633.133 589.828,-639.299"/>
<polygon fill="black" stroke="black" points="588.686,-642.608 599.28,-642.66 591.03,-636.012 588.686,-642.608"/>
</g>
<!-- org.scalameta:parsers_2.11:2.0.0&#45;600.1485392146024 -->
<g id="node7" class="node"><title>org.scalameta:parsers_2.11:2.0.0&#45;600.1485392146024</title>
<ellipse fill="none" stroke="black" cx="974.206" cy="-668.355" rx="116.845" ry="35.2113"/>
<text text-anchor="start" x="935.206" y="-679.155" font-family="Times,serif" font-size="14.00">org.scalameta</text>
<text text-anchor="start" x="936.206" y="-665.155" font-family="Times,serif" font-weight="bold" font-size="14.00">parsers_2.11</text>
<text text-anchor="start" x="899.706" y="-651.155" font-family="Times,serif" font-size="14.00">2.0.0&#45;600.1485392146024</text>
</g>
<!-- org.scalameta:scalameta_2.11:2.0.0&#45;600.1485392146024&#45;&gt;org.scalameta:parsers_2.11:2.0.0&#45;600.1485392146024 -->
<g id="edge7" class="edge"><title>org.scalameta:scalameta_2.11:2.0.0&#45;600.1485392146024&#45;&gt;org.scalameta:parsers_2.11:2.0.0&#45;600.1485392146024</title>
<path fill="none" stroke="black" d="M471.67,-565.392C493.405,-571.091 516.825,-576.823 538.69,-581.355 663.197,-607.16 697.352,-597.028 821.533,-624.355 841.553,-628.761 862.816,-634.346 882.889,-640.046"/>
<polygon fill="black" stroke="black" points="882.058,-643.449 892.636,-642.849 883.993,-636.722 882.058,-643.449"/>
</g>
<!-- org.scalameta:trees_2.11:2.0.0&#45;600.1485392146024 -->
<g id="node8" class="node"><title>org.scalameta:trees_2.11:2.0.0&#45;600.1485392146024</title>
<ellipse fill="none" stroke="black" cx="1243.55" cy="-567.355" rx="116.845" ry="35.2113"/>
<text text-anchor="start" x="1204.55" y="-578.155" font-family="Times,serif" font-size="14.00">org.scalameta</text>
<text text-anchor="start" x="1213.05" y="-564.155" font-family="Times,serif" font-weight="bold" font-size="14.00">trees_2.11</text>
<text text-anchor="start" x="1169.05" y="-550.155" font-family="Times,serif" font-size="14.00">2.0.0&#45;600.1485392146024</text>
</g>
<!-- org.scalameta:scalameta_2.11:2.0.0&#45;600.1485392146024&#45;&gt;org.scalameta:trees_2.11:2.0.0&#45;600.1485392146024 -->
<g id="edge10" class="edge"><title>org.scalameta:scalameta_2.11:2.0.0&#45;600.1485392146024&#45;&gt;org.scalameta:trees_2.11:2.0.0&#45;600.1485392146024</title>
<path fill="none" stroke="black" d="M502.399,-544.862C662.67,-549.733 951.58,-558.513 1117.06,-563.542"/>
<polygon fill="black" stroke="black" points="1117.19,-567.047 1127.29,-563.853 1117.4,-560.05 1117.19,-567.047"/>
</g>
<!-- org.scalameta:tokenizers_2.11:2.0.0&#45;600.1485392146024 -->
<g id="node9" class="node"><title>org.scalameta:tokenizers_2.11:2.0.0&#45;600.1485392146024</title>
<ellipse fill="none" stroke="black" cx="1512.9" cy="-700.355" rx="116.845" ry="35.2113"/>
<text text-anchor="start" x="1473.9" y="-711.155" font-family="Times,serif" font-size="14.00">org.scalameta</text>
<text text-anchor="start" x="1466.4" y="-697.155" font-family="Times,serif" font-weight="bold" font-size="14.00">tokenizers_2.11</text>
<text text-anchor="start" x="1438.4" y="-683.155" font-family="Times,serif" font-size="14.00">2.0.0&#45;600.1485392146024</text>
</g>
<!-- org.scalameta:scalameta_2.11:2.0.0&#45;600.1485392146024&#45;&gt;org.scalameta:tokenizers_2.11:2.0.0&#45;600.1485392146024 -->
<g id="edge13" class="edge"><title>org.scalameta:scalameta_2.11:2.0.0&#45;600.1485392146024&#45;&gt;org.scalameta:tokenizers_2.11:2.0.0&#45;600.1485392146024</title>
<path fill="none" stroke="black" d="M405.823,-576.551C430.194,-617.968 476.984,-684.605 538.69,-712.355 614.12,-746.277 1143.41,-721.294 1388.22,-707.665"/>
<polygon fill="black" stroke="black" points="1388.44,-711.158 1398.23,-707.105 1388.05,-704.169 1388.44,-711.158"/>
</g>
<!-- org.scalameta:dialects_2.11:2.0.0&#45;600.1485392146024 -->
<g id="node16" class="node"><title>org.scalameta:dialects_2.11:2.0.0&#45;600.1485392146024</title>
<ellipse fill="none" stroke="black" cx="2051.59" cy="-580.355" rx="116.845" ry="35.2113"/>
<text text-anchor="start" x="2012.59" y="-591.155" font-family="Times,serif" font-size="14.00">org.scalameta</text>
<text text-anchor="start" x="2013.09" y="-577.155" font-family="Times,serif" font-weight="bold" font-size="14.00">dialects_2.11</text>
<text text-anchor="start" x="1977.09" y="-563.155" font-family="Times,serif" font-size="14.00">2.0.0&#45;600.1485392146024</text>
</g>
<!-- org.scalameta:scalameta_2.11:2.0.0&#45;600.1485392146024&#45;&gt;org.scalameta:dialects_2.11:2.0.0&#45;600.1485392146024 -->
<g id="edge33" class="edge"><title>org.scalameta:scalameta_2.11:2.0.0&#45;600.1485392146024&#45;&gt;org.scalameta:dialects_2.11:2.0.0&#45;600.1485392146024</title>
<path fill="none" stroke="black" d="M416.335,-507.187C444.596,-476.447 490.123,-432.384 538.69,-407.355 714.243,-316.889 775.714,-314.355 973.206,-314.355 973.206,-314.355 973.206,-314.355 1244.55,-314.355 1534.45,-314.355 1854.8,-471.443 1987.59,-544.182"/>
<polygon fill="black" stroke="black" points="1986,-547.3 1996.45,-549.06 1989.38,-541.169 1986,-547.3"/>
</g>
<!-- org.scalameta:common_2.11:2.0.0&#45;600.1485392146024 -->
<g id="node17" class="node"><title>org.scalameta:common_2.11:2.0.0&#45;600.1485392146024</title>
<ellipse fill="none" stroke="black" cx="2320.93" cy="-618.355" rx="116.845" ry="35.2113"/>
<text text-anchor="start" x="2281.93" y="-629.155" font-family="Times,serif" font-size="14.00">org.scalameta</text>
<text text-anchor="start" x="2279.43" y="-615.155" font-family="Times,serif" font-weight="bold" font-size="14.00">common_2.11</text>
<text text-anchor="start" x="2246.43" y="-601.155" font-family="Times,serif" font-size="14.00">2.0.0&#45;600.1485392146024</text>
</g>
<!-- org.scalameta:scalameta_2.11:2.0.0&#45;600.1485392146024&#45;&gt;org.scalameta:common_2.11:2.0.0&#45;600.1485392146024 -->
<g id="edge41" class="edge"><title>org.scalameta:scalameta_2.11:2.0.0&#45;600.1485392146024&#45;&gt;org.scalameta:common_2.11:2.0.0&#45;600.1485392146024</title>
<path fill="none" stroke="black" d="M399.269,-506.005C419.364,-453.965 464.663,-358.178 538.69,-314.355 705.508,-215.604 779.351,-276.355 973.206,-276.355 973.206,-276.355 973.206,-276.355 1783.24,-276.355 1956.64,-276.355 2026.89,-238.957 2168.26,-339.355 2248.69,-396.474 2290.78,-510.043 2308.84,-573.249"/>
<polygon fill="black" stroke="black" points="2305.48,-574.246 2311.53,-582.944 2312.23,-572.372 2305.48,-574.246"/>
</g>
<!-- org.scalameta:semantic_2.11:2.0.0&#45;600.1485392146024&#45;&gt;org.scalameta:trees_2.11:2.0.0&#45;600.1485392146024 -->
<g id="edge12" class="edge"><title>org.scalameta:semantic_2.11:2.0.0&#45;600.1485392146024&#45;&gt;org.scalameta:trees_2.11:2.0.0&#45;600.1485392146024</title>
<path fill="none" stroke="black" d="M1054.09,-403.221C1066.81,-408.739 1079.52,-415.122 1090.88,-422.355 1135.35,-450.673 1178.02,-493.319 1206.71,-525.04"/>
<polygon fill="black" stroke="black" points="1204.42,-527.731 1213.69,-532.854 1209.64,-523.066 1204.42,-527.731"/>
</g>
<!-- org.scalameta:semantic_2.11:2.0.0&#45;600.1485392146024&#45;&gt;org.scalameta:common_2.11:2.0.0&#45;600.1485392146024 -->
<g id="edge46" class="edge"><title>org.scalameta:semantic_2.11:2.0.0&#45;600.1485392146024&#45;&gt;org.scalameta:common_2.11:2.0.0&#45;600.1485392146024</title>
<path fill="none" stroke="black" d="M1087.7,-369.065C1196.24,-361.788 1365.22,-352.355 1511.9,-352.355 1511.9,-352.355 1511.9,-352.355 1783.24,-352.355 1955.63,-352.355 2020.69,-310.24 2168.26,-399.355 2235.16,-439.756 2279.83,-522.242 2302.46,-573.651"/>
<polygon fill="black" stroke="black" points="2299.26,-575.071 2306.43,-582.871 2305.69,-572.302 2299.26,-575.071"/>
</g>
<!-- org.scalameta:inputs_2.11:2.0.0&#45;600.1485392146024 -->
<g id="node15" class="node"><title>org.scalameta:inputs_2.11:2.0.0&#45;600.1485392146024</title>
<ellipse fill="none" stroke="black" cx="2051.59" cy="-820.355" rx="116.845" ry="35.2113"/>
<text text-anchor="start" x="2012.59" y="-831.155" font-family="Times,serif" font-size="14.00">org.scalameta</text>
<text text-anchor="start" x="2017.09" y="-817.155" font-family="Times,serif" font-weight="bold" font-size="14.00">inputs_2.11</text>
<text text-anchor="start" x="1977.09" y="-803.155" font-family="Times,serif" font-size="14.00">2.0.0&#45;600.1485392146024</text>
</g>
<!-- org.scalameta:inline_2.11:2.0.0&#45;600.1485392146024&#45;&gt;org.scalameta:inputs_2.11:2.0.0&#45;600.1485392146024 -->
<g id="edge30" class="edge"><title>org.scalameta:inline_2.11:2.0.0&#45;600.1485392146024&#45;&gt;org.scalameta:inputs_2.11:2.0.0&#45;600.1485392146024</title>
<path fill="none" stroke="black" d="M1358.05,-966.328C1490.93,-970.998 1716.09,-967.94 1898.91,-910.355 1934.78,-899.06 1971.13,-877.892 1999.26,-858.923"/>
<polygon fill="black" stroke="black" points="2001.45,-861.665 2007.71,-853.12 1997.49,-855.894 2001.45,-861.665"/>
</g>
<!-- org.scalameta:transversers_2.11:2.0.0&#45;600.1485392146024&#45;&gt;org.scalameta:trees_2.11:2.0.0&#45;600.1485392146024 -->
<g id="edge8" class="edge"><title>org.scalameta:transversers_2.11:2.0.0&#45;600.1485392146024&#45;&gt;org.scalameta:trees_2.11:2.0.0&#45;600.1485392146024</title>
<path fill="none" stroke="black" d="M1047.91,-493.821C1082.68,-506.958 1124.46,-522.743 1160.38,-536.314"/>
<polygon fill="black" stroke="black" points="1159.27,-539.636 1169.87,-539.896 1161.75,-533.087 1159.27,-539.636"/>
</g>
<!-- org.scalameta:transversers_2.11:2.0.0&#45;600.1485392146024&#45;&gt;org.scalameta:common_2.11:2.0.0&#45;600.1485392146024 -->
<g id="edge38" class="edge"><title>org.scalameta:transversers_2.11:2.0.0&#45;600.1485392146024&#45;&gt;org.scalameta:common_2.11:2.0.0&#45;600.1485392146024</title>
<path fill="none" stroke="black" d="M1067.72,-445.185C1174.23,-422.697 1354.74,-390.355 1511.9,-390.355 1511.9,-390.355 1511.9,-390.355 1783.24,-390.355 1961.09,-390.355 2009.75,-418.721 2168.26,-499.355 2208.79,-519.972 2249.02,-552.222 2277.85,-577.951"/>
<polygon fill="black" stroke="black" points="2275.53,-580.573 2285.3,-584.679 2280.22,-575.378 2275.53,-580.573"/>
</g>
<!-- org.scalameta:quasiquotes_2.11:2.0.0&#45;600.1485392146024&#45;&gt;org.scalameta:parsers_2.11:2.0.0&#45;600.1485392146024 -->
<g id="edge6" class="edge"><title>org.scalameta:quasiquotes_2.11:2.0.0&#45;600.1485392146024&#45;&gt;org.scalameta:parsers_2.11:2.0.0&#45;600.1485392146024</title>
<path fill="none" stroke="black" d="M796.975,-668.355C813.462,-668.355 830.487,-668.355 847.157,-668.355"/>
<polygon fill="black" stroke="black" points="847.483,-671.855 857.483,-668.355 847.483,-664.855 847.483,-671.855"/>
</g>
<!-- org.scalameta:quasiquotes_2.11:2.0.0&#45;600.1485392146024&#45;&gt;org.scalameta:trees_2.11:2.0.0&#45;600.1485392146024 -->
<g id="edge9" class="edge"><title>org.scalameta:quasiquotes_2.11:2.0.0&#45;600.1485392146024&#45;&gt;org.scalameta:trees_2.11:2.0.0&#45;600.1485392146024</title>
<path fill="none" stroke="black" d="M767.775,-644.955C796.238,-637.749 828.117,-630.187 857.533,-624.355 946.658,-606.688 1048.38,-591.854 1124.87,-581.752"/>
<polygon fill="black" stroke="black" points="1125.56,-585.192 1135.02,-580.42 1124.65,-578.252 1125.56,-585.192"/>
</g>
<!-- org.scalameta:quasiquotes_2.11:2.0.0&#45;600.1485392146024&#45;&gt;org.scalameta:inputs_2.11:2.0.0&#45;600.1485392146024 -->
<g id="edge26" class="edge"><title>org.scalameta:quasiquotes_2.11:2.0.0&#45;600.1485392146024&#45;&gt;org.scalameta:inputs_2.11:2.0.0&#45;600.1485392146024</title>
<path fill="none" stroke="black" d="M739.854,-698.868C861.612,-760.996 1138.79,-896.355 1242.55,-896.355 1242.55,-896.355 1242.55,-896.355 1513.9,-896.355 1685.68,-896.355 1729.88,-892.96 1898.91,-862.355 1918.9,-858.737 1940.07,-853.678 1960.05,-848.322"/>
<polygon fill="black" stroke="black" points="1961.02,-851.683 1969.75,-845.673 1959.18,-844.93 1961.02,-851.683"/>
</g>
<!-- org.scalameta:quasiquotes_2.11:2.0.0&#45;600.1485392146024&#45;&gt;org.scalameta:dialects_2.11:2.0.0&#45;600.1485392146024 -->
<g id="edge32" class="edge"><title>org.scalameta:quasiquotes_2.11:2.0.0&#45;600.1485392146024&#45;&gt;org.scalameta:dialects_2.11:2.0.0&#45;600.1485392146024</title>
<path fill="none" stroke="black" d="M736.911,-637.384C770.937,-619.541 815.779,-597.848 857.533,-583.355 973.396,-543.14 1004.97,-536.769 1126.88,-523.355 1419.45,-491.163 1766.31,-534.233 1939.94,-561.335"/>
<polygon fill="black" stroke="black" points="1939.43,-564.798 1949.85,-562.895 1940.52,-557.883 1939.43,-564.798"/>
</g>
<!-- org.scalameta:quasiquotes_2.11:2.0.0&#45;600.1485392146024&#45;&gt;org.scalameta:common_2.11:2.0.0&#45;600.1485392146024 -->
<g id="edge40" class="edge"><title>org.scalameta:quasiquotes_2.11:2.0.0&#45;600.1485392146024&#45;&gt;org.scalameta:common_2.11:2.0.0&#45;600.1485392146024</title>
<path fill="none" stroke="black" d="M709.003,-702.62C784.689,-791.46 1004.31,-1022.36 1242.55,-1022.36 1242.55,-1022.36 1242.55,-1022.36 1783.24,-1022.36 1852.33,-1022.36 2101.25,-982.323 2168.26,-928.355 2253.26,-859.898 2294.08,-731.917 2310.57,-663.774"/>
<polygon fill="black" stroke="black" points="2314.04,-664.305 2312.92,-653.769 2307.22,-662.705 2314.04,-664.305"/>
</g>
<!-- org.scalameta:parsers_2.11:2.0.0&#45;600.1485392146024&#45;&gt;org.scalameta:trees_2.11:2.0.0&#45;600.1485392146024 -->
<g id="edge11" class="edge"><title>org.scalameta:parsers_2.11:2.0.0&#45;600.1485392146024&#45;&gt;org.scalameta:trees_2.11:2.0.0&#45;600.1485392146024</title>
<path fill="none" stroke="black" d="M1047.91,-640.89C1082.68,-627.753 1124.46,-611.968 1160.38,-598.397"/>
<polygon fill="black" stroke="black" points="1161.75,-601.623 1169.87,-594.815 1159.27,-595.075 1161.75,-601.623"/>
</g>
<!-- org.scalameta:parsers_2.11:2.0.0&#45;600.1485392146024&#45;&gt;org.scalameta:tokenizers_2.11:2.0.0&#45;600.1485392146024 -->
<g id="edge15" class="edge"><title>org.scalameta:parsers_2.11:2.0.0&#45;600.1485392146024&#45;&gt;org.scalameta:tokenizers_2.11:2.0.0&#45;600.1485392146024</title>
<path fill="none" stroke="black" d="M1089.02,-675.142C1176.81,-680.376 1298.07,-687.606 1388.24,-692.982"/>
<polygon fill="black" stroke="black" points="1388.05,-696.477 1398.24,-693.579 1388.47,-689.49 1388.05,-696.477"/>
</g>
<!-- org.scalameta:tokens_2.11:2.0.0&#45;600.1485392146024 -->
<g id="node14" class="node"><title>org.scalameta:tokens_2.11:2.0.0&#45;600.1485392146024</title>
<ellipse fill="none" stroke="black" cx="1782.24" cy="-719.355" rx="116.845" ry="35.2113"/>
<text text-anchor="start" x="1743.24" y="-730.155" font-family="Times,serif" font-size="14.00">org.scalameta</text>
<text text-anchor="start" x="1746.74" y="-716.155" font-family="Times,serif" font-weight="bold" font-size="14.00">tokens_2.11</text>
<text text-anchor="start" x="1707.74" y="-702.155" font-family="Times,serif" font-size="14.00">2.0.0&#45;600.1485392146024</text>
</g>
<!-- org.scalameta:parsers_2.11:2.0.0&#45;600.1485392146024&#45;&gt;org.scalameta:tokens_2.11:2.0.0&#45;600.1485392146024 -->
<g id="edge24" class="edge"><title>org.scalameta:parsers_2.11:2.0.0&#45;600.1485392146024&#45;&gt;org.scalameta:tokens_2.11:2.0.0&#45;600.1485392146024</title>
<path fill="none" stroke="black" d="M1071.82,-687.858C1090.09,-691.435 1109.06,-695.072 1126.88,-698.355 1347.52,-739.009 1405.97,-762.66 1629.57,-744.355 1643.62,-743.205 1658.32,-741.466 1672.82,-739.429"/>
<polygon fill="black" stroke="black" points="1673.42,-742.879 1682.81,-737.975 1672.41,-735.952 1673.42,-742.879"/>
</g>
<!-- org.scalameta:parsers_2.11:2.0.0&#45;600.1485392146024&#45;&gt;org.scalameta:inputs_2.11:2.0.0&#45;600.1485392146024 -->
<g id="edge29" class="edge"><title>org.scalameta:parsers_2.11:2.0.0&#45;600.1485392146024&#45;&gt;org.scalameta:inputs_2.11:2.0.0&#45;600.1485392146024</title>
<path fill="none" stroke="black" d="M1036.94,-698.237C1064.09,-710.585 1096.62,-724.325 1126.88,-734.355 1358.82,-811.246 1422.12,-823.274 1665.57,-844.355 1768.89,-853.302 1795.52,-852.485 1898.91,-844.355 1912.49,-843.288 1926.7,-841.69 1940.73,-839.816"/>
<polygon fill="black" stroke="black" points="1941.48,-843.246 1950.91,-838.407 1940.52,-836.312 1941.48,-843.246"/>
</g>
<!-- org.scalameta:parsers_2.11:2.0.0&#45;600.1485392146024&#45;&gt;org.scalameta:dialects_2.11:2.0.0&#45;600.1485392146024 -->
<g id="edge36" class="edge"><title>org.scalameta:parsers_2.11:2.0.0&#45;600.1485392146024&#45;&gt;org.scalameta:dialects_2.11:2.0.0&#45;600.1485392146024</title>
<path fill="none" stroke="black" d="M1081.73,-654.581C1217.17,-637.612 1458.32,-609.212 1665.57,-594.355 1752.09,-588.153 1849.75,-584.642 1925.06,-582.687"/>
<polygon fill="black" stroke="black" points="1925.16,-586.186 1935.07,-582.433 1924.98,-579.188 1925.16,-586.186"/>
</g>
<!-- org.scalameta:parsers_2.11:2.0.0&#45;600.1485392146024&#45;&gt;org.scalameta:common_2.11:2.0.0&#45;600.1485392146024 -->
<g id="edge45" class="edge"><title>org.scalameta:parsers_2.11:2.0.0&#45;600.1485392146024&#45;&gt;org.scalameta:common_2.11:2.0.0&#45;600.1485392146024</title>
<path fill="none" stroke="black" d="M1010.25,-702.166C1039.24,-728.244 1082.7,-763.165 1126.88,-783.355 1549.11,-976.308 1762.91,-1090.64 2168.26,-864.355 2245.08,-821.47 2287.83,-721.913 2307.13,-663.444"/>
<polygon fill="black" stroke="black" points="2310.53,-664.319 2310.25,-653.728 2303.86,-662.18 2310.53,-664.319"/>
</g>
<!-- org.scalameta:trees_2.11:2.0.0&#45;600.1485392146024&#45;&gt;org.scalameta:tokenizers_2.11:2.0.0&#45;600.1485392146024 -->
<g id="edge14" class="edge"><title>org.scalameta:trees_2.11:2.0.0&#45;600.1485392146024&#45;&gt;org.scalameta:tokenizers_2.11:2.0.0&#45;600.1485392146024</title>
<path fill="none" stroke="black" d="M1305.22,-597.535C1345.98,-617.813 1399.8,-644.592 1442.31,-665.736"/>
<polygon fill="black" stroke="black" points="1440.96,-668.974 1451.47,-670.295 1444.08,-662.707 1440.96,-668.974"/>
</g>
<!-- org.scalameta:trees_2.11:2.0.0&#45;600.1485392146024&#45;&gt;org.scalameta:tokens_2.11:2.0.0&#45;600.1485392146024 -->
<g id="edge23" class="edge"><title>org.scalameta:trees_2.11:2.0.0&#45;600.1485392146024&#45;&gt;org.scalameta:tokens_2.11:2.0.0&#45;600.1485392146024</title>
<path fill="none" stroke="black" d="M1343.89,-585.583C1422.37,-601.113 1534.19,-625.759 1629.57,-656.355 1655.57,-664.696 1683.34,-675.613 1707.92,-686.011"/>
<polygon fill="black" stroke="black" points="1706.61,-689.254 1717.18,-689.964 1709.36,-682.817 1706.61,-689.254"/>
</g>
<!-- org.scalameta:trees_2.11:2.0.0&#45;600.1485392146024&#45;&gt;org.scalameta:inputs_2.11:2.0.0&#45;600.1485392146024 -->
<g id="edge28" class="edge"><title>org.scalameta:trees_2.11:2.0.0&#45;600.1485392146024&#45;&gt;org.scalameta:inputs_2.11:2.0.0&#45;600.1485392146024</title>
<path fill="none" stroke="black" d="M1264.51,-602.481C1289.7,-643.395 1336.98,-709.78 1396.22,-744.355 1562.81,-841.583 1793.91,-843.688 1932.22,-833.806"/>
<polygon fill="black" stroke="black" points="1932.71,-837.279 1942.43,-833.043 1932.19,-830.299 1932.71,-837.279"/>
</g>
<!-- org.scalameta:trees_2.11:2.0.0&#45;600.1485392146024&#45;&gt;org.scalameta:dialects_2.11:2.0.0&#45;600.1485392146024 -->
<g id="edge35" class="edge"><title>org.scalameta:trees_2.11:2.0.0&#45;600.1485392146024&#45;&gt;org.scalameta:dialects_2.11:2.0.0&#45;600.1485392146024</title>
<path fill="none" stroke="black" d="M1359.87,-563.869C1490.66,-560.685 1710.25,-557.666 1898.91,-566.355 1909.22,-566.83 1919.91,-567.486 1930.63,-568.255"/>
<polygon fill="black" stroke="black" points="1930.67,-571.768 1940.9,-569.027 1931.19,-564.788 1930.67,-571.768"/>
</g>
<!-- org.scalameta:trees_2.11:2.0.0&#45;600.1485392146024&#45;&gt;org.scalameta:common_2.11:2.0.0&#45;600.1485392146024 -->
<g id="edge44" class="edge"><title>org.scalameta:trees_2.11:2.0.0&#45;600.1485392146024&#45;&gt;org.scalameta:common_2.11:2.0.0&#45;600.1485392146024</title>
<path fill="none" stroke="black" d="M1339.49,-547.069C1508.97,-514.594 1873.48,-461.773 2168.26,-536.355 2202.69,-545.068 2237.79,-563.32 2265.54,-580.398"/>
<polygon fill="black" stroke="black" points="2263.95,-583.533 2274.28,-585.887 2267.68,-577.605 2263.95,-583.533"/>
</g>
<!-- com.lihaoyi:scalaparse_2.11:0.4.2 -->
<g id="node10" class="node"><title>com.lihaoyi:scalaparse_2.11:0.4.2</title>
<ellipse fill="none" stroke="black" cx="1782.24" cy="-1085.36" rx="77.5641" ry="35.2113"/>
<text text-anchor="start" x="1748.74" y="-1096.16" font-family="Times,serif" font-size="14.00">com.lihaoyi</text>
<text text-anchor="start" x="1735.24" y="-1082.16" font-family="Times,serif" font-weight="bold" font-size="14.00">scalaparse_2.11</text>
<text text-anchor="start" x="1767.74" y="-1068.16" font-family="Times,serif" font-size="14.00">0.4.2</text>
</g>
<!-- org.scalameta:tokenizers_2.11:2.0.0&#45;600.1485392146024&#45;&gt;com.lihaoyi:scalaparse_2.11:0.4.2 -->
<g id="edge16" class="edge"><title>org.scalameta:tokenizers_2.11:2.0.0&#45;600.1485392146024&#45;&gt;com.lihaoyi:scalaparse_2.11:0.4.2</title>
<path fill="none" stroke="black" d="M1538.09,-735.201C1587.29,-806.047 1698.81,-966.651 1751.98,-1043.22"/>
<polygon fill="black" stroke="black" points="1749.29,-1045.47 1757.87,-1051.69 1755.04,-1041.48 1749.29,-1045.47"/>
</g>
<!-- org.scalameta:tokenizers_2.11:2.0.0&#45;600.1485392146024&#45;&gt;org.scalameta:tokens_2.11:2.0.0&#45;600.1485392146024 -->
<g id="edge22" class="edge"><title>org.scalameta:tokenizers_2.11:2.0.0&#45;600.1485392146024&#45;&gt;org.scalameta:tokens_2.11:2.0.0&#45;600.1485392146024</title>
<path fill="none" stroke="black" d="M1626.89,-708.386C1637.25,-709.122 1647.79,-709.871 1658.24,-710.614"/>
<polygon fill="black" stroke="black" points="1658,-714.106 1668.23,-711.323 1658.5,-707.123 1658,-714.106"/>
</g>
<!-- org.scalameta:tokenizers_2.11:2.0.0&#45;600.1485392146024&#45;&gt;org.scalameta:inputs_2.11:2.0.0&#45;600.1485392146024 -->
<g id="edge27" class="edge"><title>org.scalameta:tokenizers_2.11:2.0.0&#45;600.1485392146024&#45;&gt;org.scalameta:inputs_2.11:2.0.0&#45;600.1485392146024</title>
<path fill="none" stroke="black" d="M1576.13,-730.283C1603.09,-742.17 1635.34,-754.979 1665.57,-763.355 1714.42,-776.892 1838.25,-794.14 1932.4,-806.1"/>
<polygon fill="black" stroke="black" points="1932.21,-809.603 1942.57,-807.385 1933.09,-802.658 1932.21,-809.603"/>
</g>
<!-- org.scalameta:tokenizers_2.11:2.0.0&#45;600.1485392146024&#45;&gt;org.scalameta:dialects_2.11:2.0.0&#45;600.1485392146024 -->
<g id="edge34" class="edge"><title>org.scalameta:tokenizers_2.11:2.0.0&#45;600.1485392146024&#45;&gt;org.scalameta:dialects_2.11:2.0.0&#45;600.1485392146024</title>
<path fill="none" stroke="black" d="M1580.49,-671.49C1606.62,-661.067 1637.12,-649.999 1665.57,-642.355 1753.02,-618.862 1854.18,-602.994 1930.86,-593.196"/>
<polygon fill="black" stroke="black" points="1931.56,-596.636 1941.04,-591.913 1930.68,-589.691 1931.56,-596.636"/>
</g>
<!-- org.scalameta:tokenizers_2.11:2.0.0&#45;600.1485392146024&#45;&gt;org.scalameta:common_2.11:2.0.0&#45;600.1485392146024 -->
<g id="edge43" class="edge"><title>org.scalameta:tokenizers_2.11:2.0.0&#45;600.1485392146024&#45;&gt;org.scalameta:common_2.11:2.0.0&#45;600.1485392146024</title>
<path fill="none" stroke="black" d="M1614.09,-682.73C1631.23,-680.033 1648.89,-677.454 1665.57,-675.355 1849.86,-652.175 2064.54,-635.417 2196.33,-626.293"/>
<polygon fill="black" stroke="black" points="2196.73,-629.774 2206.46,-625.595 2196.24,-622.791 2196.73,-629.774"/>
</g>
<!-- com.lihaoyi:fastparse_2.11:0.4.2 -->
<g id="node11" class="node"><title>com.lihaoyi:fastparse_2.11:0.4.2</title>
<ellipse fill="none" stroke="black" cx="2051.59" cy="-1085.36" rx="72.25" ry="35.2113"/>
<text text-anchor="start" x="2018.09" y="-1096.16" font-family="Times,serif" font-size="14.00">com.lihaoyi</text>
<text text-anchor="start" x="2008.59" y="-1082.16" font-family="Times,serif" font-weight="bold" font-size="14.00">fastparse_2.11</text>
<text text-anchor="start" x="2037.09" y="-1068.16" font-family="Times,serif" font-size="14.00">0.4.2</text>
</g>
<!-- com.lihaoyi:scalaparse_2.11:0.4.2&#45;&gt;com.lihaoyi:fastparse_2.11:0.4.2 -->
<g id="edge17" class="edge"><title>com.lihaoyi:scalaparse_2.11:0.4.2&#45;&gt;com.lihaoyi:fastparse_2.11:0.4.2</title>
<path fill="none" stroke="black" d="M1860.21,-1085.36C1894.33,-1085.36 1934.49,-1085.36 1969.12,-1085.36"/>
<polygon fill="black" stroke="black" points="1969.19,-1088.86 1979.19,-1085.36 1969.19,-1081.86 1969.19,-1088.86"/>
</g>
<!-- com.lihaoyi:sourcecode_2.11:0.1.3 -->
<g id="node13" class="node"><title>com.lihaoyi:sourcecode_2.11:0.1.3</title>
<ellipse fill="none" stroke="black" cx="2554.21" cy="-1085.36" rx="80.7205" ry="35.2113"/>
<text text-anchor="start" x="2520.71" y="-1096.16" font-family="Times,serif" font-size="14.00">com.lihaoyi</text>
<text text-anchor="start" x="2505.21" y="-1082.16" font-family="Times,serif" font-weight="bold" font-size="14.00">sourcecode_2.11</text>
<text text-anchor="start" x="2539.71" y="-1068.16" font-family="Times,serif" font-size="14.00">0.1.3</text>
</g>
<!-- com.lihaoyi:scalaparse_2.11:0.4.2&#45;&gt;com.lihaoyi:sourcecode_2.11:0.1.3 -->
<g id="edge20" class="edge"><title>com.lihaoyi:scalaparse_2.11:0.4.2&#45;&gt;com.lihaoyi:sourcecode_2.11:0.1.3</title>
<path fill="none" stroke="black" d="M1843.63,-1107.12C1871.09,-1115.91 1904.24,-1125 1934.91,-1129.36 2156.11,-1160.79 2217.87,-1169.76 2437.6,-1129.36 2454.64,-1126.22 2472.42,-1120.7 2488.79,-1114.59"/>
<polygon fill="black" stroke="black" points="2490.17,-1117.81 2498.24,-1110.95 2487.65,-1111.28 2490.17,-1117.81"/>
</g>
<!-- com.lihaoyi:fastparse&#45;utils_2.11:0.4.2 -->
<g id="node12" class="node"><title>com.lihaoyi:fastparse&#45;utils_2.11:0.4.2</title>
<ellipse fill="none" stroke="black" cx="2320.93" cy="-1085.36" rx="94.0904" ry="35.2113"/>
<text text-anchor="start" x="2287.43" y="-1096.16" font-family="Times,serif" font-size="14.00">com.lihaoyi</text>
<text text-anchor="start" x="2262.43" y="-1082.16" font-family="Times,serif" font-weight="bold" font-size="14.00">fastparse&#45;utils_2.11</text>
<text text-anchor="start" x="2306.43" y="-1068.16" font-family="Times,serif" font-size="14.00">0.4.2</text>
</g>
<!-- com.lihaoyi:fastparse_2.11:0.4.2&#45;&gt;com.lihaoyi:fastparse&#45;utils_2.11:0.4.2 -->
<g id="edge18" class="edge"><title>com.lihaoyi:fastparse_2.11:0.4.2&#45;&gt;com.lihaoyi:fastparse&#45;utils_2.11:0.4.2</title>
<path fill="none" stroke="black" d="M2123.88,-1085.36C2152.23,-1085.36 2185.41,-1085.36 2216.32,-1085.36"/>
<polygon fill="black" stroke="black" points="2216.71,-1088.86 2226.71,-1085.36 2216.71,-1081.86 2216.71,-1088.86"/>
</g>
<!-- com.lihaoyi:fastparse_2.11:0.4.2&#45;&gt;com.lihaoyi:sourcecode_2.11:0.1.3 -->
<g id="edge21" class="edge"><title>com.lihaoyi:fastparse_2.11:0.4.2&#45;&gt;com.lihaoyi:sourcecode_2.11:0.1.3</title>
<path fill="none" stroke="black" d="M2110.09,-1064.52C2138.09,-1055.45 2172.5,-1045.87 2204.26,-1041.36 2306.94,-1026.76 2335.61,-1022.6 2437.6,-1041.36 2454.64,-1044.49 2472.42,-1050.02 2488.79,-1056.12"/>
<polygon fill="black" stroke="black" points="2487.65,-1059.43 2498.24,-1059.76 2490.17,-1052.9 2487.65,-1059.43"/>
</g>
<!-- com.lihaoyi:fastparse&#45;utils_2.11:0.4.2&#45;&gt;com.lihaoyi:sourcecode_2.11:0.1.3 -->
<g id="edge19" class="edge"><title>com.lihaoyi:fastparse&#45;utils_2.11:0.4.2&#45;&gt;com.lihaoyi:sourcecode_2.11:0.1.3</title>
<path fill="none" stroke="black" d="M2415,-1085.36C2430.86,-1085.36 2447.31,-1085.36 2463.09,-1085.36"/>
<polygon fill="black" stroke="black" points="2463.35,-1088.86 2473.35,-1085.36 2463.35,-1081.86 2463.35,-1088.86"/>
</g>
<!-- org.scalameta:tokens_2.11:2.0.0&#45;600.1485392146024&#45;&gt;org.scalameta:inputs_2.11:2.0.0&#45;600.1485392146024 -->
<g id="edge25" class="edge"><title>org.scalameta:tokens_2.11:2.0.0&#45;600.1485392146024&#45;&gt;org.scalameta:inputs_2.11:2.0.0&#45;600.1485392146024</title>
<path fill="none" stroke="black" d="M1855.94,-746.821C1890.72,-759.958 1932.5,-775.743 1968.42,-789.314"/>
<polygon fill="black" stroke="black" points="1967.31,-792.636 1977.9,-792.896 1969.78,-786.087 1967.31,-792.636"/>
</g>
<!-- org.scalameta:tokens_2.11:2.0.0&#45;600.1485392146024&#45;&gt;org.scalameta:dialects_2.11:2.0.0&#45;600.1485392146024 -->
<g id="edge31" class="edge"><title>org.scalameta:tokens_2.11:2.0.0&#45;600.1485392146024&#45;&gt;org.scalameta:dialects_2.11:2.0.0&#45;600.1485392146024</title>
<path fill="none" stroke="black" d="M1841.91,-688.851C1883.53,-667.215 1939.48,-638.123 1982.97,-615.51"/>
<polygon fill="black" stroke="black" points="1984.8,-618.507 1992.05,-610.788 1981.57,-612.296 1984.8,-618.507"/>
</g>
<!-- org.scalameta:tokens_2.11:2.0.0&#45;600.1485392146024&#45;&gt;org.scalameta:common_2.11:2.0.0&#45;600.1485392146024 -->
<g id="edge39" class="edge"><title>org.scalameta:tokens_2.11:2.0.0&#45;600.1485392146024&#45;&gt;org.scalameta:common_2.11:2.0.0&#45;600.1485392146024</title>
<path fill="none" stroke="black" d="M1895.93,-711.104C1973.26,-703.961 2077.85,-691.375 2168.26,-670.355 2191.63,-664.922 2216.45,-657.254 2239.11,-649.47"/>
<polygon fill="black" stroke="black" points="2240.38,-652.732 2248.67,-646.134 2238.07,-646.123 2240.38,-652.732"/>
</g>
<!-- org.scalameta:inputs_2.11:2.0.0&#45;600.1485392146024&#45;&gt;org.scalameta:common_2.11:2.0.0&#45;600.1485392146024 -->
<g id="edge37" class="edge"><title>org.scalameta:inputs_2.11:2.0.0&#45;600.1485392146024&#45;&gt;org.scalameta:common_2.11:2.0.0&#45;600.1485392146024</title>
<path fill="none" stroke="black" d="M2096.14,-787.451C2143.23,-751.869 2218.26,-695.18 2268.29,-657.377"/>
<polygon fill="black" stroke="black" points="2270.53,-660.067 2276.4,-651.246 2266.31,-654.482 2270.53,-660.067"/>
</g>
<!-- org.scalameta:dialects_2.11:2.0.0&#45;600.1485392146024&#45;&gt;org.scalameta:common_2.11:2.0.0&#45;600.1485392146024 -->
<g id="edge42" class="edge"><title>org.scalameta:dialects_2.11:2.0.0&#45;600.1485392146024&#45;&gt;org.scalameta:common_2.11:2.0.0&#45;600.1485392146024</title>
<path fill="none" stroke="black" d="M2157.48,-595.265C2172.96,-597.465 2188.98,-599.742 2204.66,-601.971"/>
<polygon fill="black" stroke="black" points="2204.51,-605.484 2214.9,-603.426 2205.49,-598.554 2204.51,-605.484"/>
</g>
<!-- org.scala&#45;lang.modules:scala&#45;parser&#45;combinators_2.11:1.0.4 -->
<g id="node19" class="node"><title>org.scala&#45;lang.modules:scala&#45;parser&#45;combinators_2.11:1.0.4</title>
<ellipse fill="none" stroke="black" cx="680.112" cy="-213.355" rx="141.343" ry="35.2113"/>
<text text-anchor="start" x="615.112" y="-224.155" font-family="Times,serif" font-size="14.00">org.scala&#45;lang.modules</text>
<text text-anchor="start" x="588.112" y="-210.155" font-family="Times,serif" font-weight="bold" font-size="14.00">scala&#45;parser&#45;combinators_2.11</text>
<text text-anchor="start" x="665.612" y="-196.155" font-family="Times,serif" font-size="14.00">1.0.4</text>
</g>
<!-- org.scala&#45;lang:scala&#45;compiler:2.11.8&#45;&gt;org.scala&#45;lang.modules:scala&#45;parser&#45;combinators_2.11:1.0.4 -->
<g id="edge48" class="edge"><title>org.scala&#45;lang:scala&#45;compiler:2.11.8&#45;&gt;org.scala&#45;lang.modules:scala&#45;parser&#45;combinators_2.11:1.0.4</title>
<path fill="none" stroke="black" d="M456.24,-179.02C484.142,-183.318 517.274,-188.423 549.345,-193.363"/>
<polygon fill="black" stroke="black" points="548.841,-196.827 559.257,-194.891 549.907,-189.909 548.841,-196.827"/>
</g>
<!-- org.scala&#45;lang.modules:scala&#45;xml_2.11:1.0.4 -->
<g id="node20" class="node"><title>org.scala&#45;lang.modules:scala&#45;xml_2.11:1.0.4</title>
<ellipse fill="none" stroke="black" cx="680.112" cy="-124.355" rx="103.476" ry="35.2113"/>
<text text-anchor="start" x="615.112" y="-135.155" font-family="Times,serif" font-size="14.00">org.scala&#45;lang.modules</text>
<text text-anchor="start" x="635.612" y="-121.155" font-family="Times,serif" font-weight="bold" font-size="14.00">scala&#45;xml_2.11</text>
<text text-anchor="start" x="665.612" y="-107.155" font-family="Times,serif" font-size="14.00">1.0.4</text>
</g>
<!-- org.scala&#45;lang:scala&#45;compiler:2.11.8&#45;&gt;org.scala&#45;lang.modules:scala&#45;xml_2.11:1.0.4 -->
<g id="edge49" class="edge"><title>org.scala&#45;lang:scala&#45;compiler:2.11.8&#45;&gt;org.scala&#45;lang.modules:scala&#45;xml_2.11:1.0.4</title>
<path fill="none" stroke="black" d="M456.611,-157.872C492.078,-152.529 535.923,-145.925 575.29,-139.995"/>
<polygon fill="black" stroke="black" points="575.827,-143.453 585.194,-138.503 574.784,-136.532 575.827,-143.453"/>
</g>
<!-- org.scala&#45;lang:scala&#45;reflect:2.11.8 -->
<g id="node21" class="node"><title>org.scala&#45;lang:scala&#45;reflect:2.11.8</title>
<ellipse fill="none" stroke="black" cx="680.112" cy="-35.3553" rx="67.3507" ry="35.2113"/>
<text text-anchor="start" x="640.612" y="-46.1553" font-family="Times,serif" font-size="14.00">org.scala&#45;lang</text>
<text text-anchor="start" x="644.112" y="-32.1553" font-family="Times,serif" font-weight="bold" font-size="14.00">scala&#45;reflect</text>
<text text-anchor="start" x="662.112" y="-18.1553" font-family="Times,serif" font-size="14.00">2.11.8</text>
</g>
<!-- org.scala&#45;lang:scala&#45;compiler:2.11.8&#45;&gt;org.scala&#45;lang:scala&#45;reflect:2.11.8 -->
<g id="edge50" class="edge"><title>org.scala&#45;lang:scala&#45;compiler:2.11.8&#45;&gt;org.scala&#45;lang:scala&#45;reflect:2.11.8</title>
<path fill="none" stroke="black" d="M430.16,-139.961C459.815,-121.295 500.573,-97.2829 538.69,-80.3553 561.414,-70.2639 587.108,-61.3524 610.247,-54.1781"/>
<polygon fill="black" stroke="black" points="611.444,-57.4723 619.991,-51.2114 609.405,-50.7758 611.444,-57.4723"/>
</g>
</g>
</svg>
