<?xml version="1.0" encoding="UTF-8" standalone="no"?>
<!DOCTYPE svg PUBLIC "-//W3C//DTD SVG 1.1//EN"
 "http://www.w3.org/Graphics/SVG/1.1/DTD/svg11.dtd">
<!-- Generated by graphviz version 2.38.0 (20140413.2041)
 -->
<!-- Title: dependency&#45;graph Pages: 1 -->
<svg width="1528pt" height="949pt"
 viewBox="0.00 0.00 1528.00 949.40" xmlns="http://www.w3.org/2000/svg" xmlns:xlink="http://www.w3.org/1999/xlink">
<g id="graph0" class="graph" transform="scale(1 1) rotate(0) translate(4 945.398)">
<title>dependency&#45;graph</title>
<polygon fill="white" stroke="none" points="-4,4 -4,-945.398 1524,-945.398 1524,4 -4,4"/>
<!-- org.scalameta:scalameta_2.11:0.1.0&#45;SNAPSHOT -->
<g id="node1" class="node"><title>org.scalameta:scalameta_2.11:0.1.0&#45;SNAPSHOT</title>
<polygon fill="none" stroke="black" points="0,-261.076 0,-311.076 122,-311.076 122,-261.076 0,-261.076"/>
<text text-anchor="start" x="22" y="-296.876" font-family="Times,serif" font-size="14.00">org.scalameta</text>
<text text-anchor="start" x="15.5" y="-282.876" font-family="Times,serif" font-weight="bold" font-size="14.00">scalameta_2.11</text>
<text text-anchor="start" x="8" y="-268.876" font-family="Times,serif" font-size="14.00">0.1.0&#45;SNAPSHOT</text>
</g>
<!-- org.scalameta:transversers_2.11:0.1.0&#45;SNAPSHOT -->
<g id="node2" class="node"><title>org.scalameta:transversers_2.11:0.1.0&#45;SNAPSHOT</title>
<polygon fill="none" stroke="black" points="316,-44.0763 316,-94.0763 438,-94.0763 438,-44.0763 316,-44.0763"/>
<text text-anchor="start" x="338" y="-79.8763" font-family="Times,serif" font-size="14.00">org.scalameta</text>
<text text-anchor="start" x="324" y="-65.8763" font-family="Times,serif" font-weight="bold" font-size="14.00">transversers_2.11</text>
<text text-anchor="start" x="324" y="-51.8763" font-family="Times,serif" font-size="14.00">0.1.0&#45;SNAPSHOT</text>
</g>
<!-- org.scalameta:scalameta_2.11:0.1.0&#45;SNAPSHOT&#45;&gt;org.scalameta:transversers_2.11:0.1.0&#45;SNAPSHOT -->
<g id="edge1" class="edge"><title>org.scalameta:scalameta_2.11:0.1.0&#45;SNAPSHOT&#45;&gt;org.scalameta:transversers_2.11:0.1.0&#45;SNAPSHOT</title>
<path fill="none" stroke="black" d="M68.1549,-260.913C79.1205,-221.762 105.937,-146.849 158,-109.076 200.565,-78.195 259.811,-68.8857 305.798,-66.9171"/>
<polygon fill="black" stroke="black" points="306.109,-70.409 315.992,-66.5902 305.885,-63.4126 306.109,-70.409"/>
</g>
<!-- org.scalameta:quasiquotes_2.11:0.1.0&#45;SNAPSHOT -->
<g id="node3" class="node"><title>org.scalameta:quasiquotes_2.11:0.1.0&#45;SNAPSHOT</title>
<polygon fill="none" stroke="black" points="158,-223.076 158,-273.076 280,-273.076 280,-223.076 158,-223.076"/>
<text text-anchor="start" x="180" y="-258.876" font-family="Times,serif" font-size="14.00">org.scalameta</text>
<text text-anchor="start" x="167.5" y="-244.876" font-family="Times,serif" font-weight="bold" font-size="14.00">quasiquotes_2.11</text>
<text text-anchor="start" x="166" y="-230.876" font-family="Times,serif" font-size="14.00">0.1.0&#45;SNAPSHOT</text>
</g>
<!-- org.scalameta:scalameta_2.11:0.1.0&#45;SNAPSHOT&#45;&gt;org.scalameta:quasiquotes_2.11:0.1.0&#45;SNAPSHOT -->
<g id="edge2" class="edge"><title>org.scalameta:scalameta_2.11:0.1.0&#45;SNAPSHOT&#45;&gt;org.scalameta:quasiquotes_2.11:0.1.0&#45;SNAPSHOT</title>
<path fill="none" stroke="black" d="M122.314,-271.385C130.695,-269.343 139.363,-267.231 147.904,-265.151"/>
<polygon fill="black" stroke="black" points="148.959,-268.496 157.847,-262.729 147.302,-261.695 148.959,-268.496"/>
</g>
<!-- org.scalameta:parsers_2.11:0.1.0&#45;SNAPSHOT -->
<g id="node4" class="node"><title>org.scalameta:parsers_2.11:0.1.0&#45;SNAPSHOT</title>
<polygon fill="none" stroke="black" points="316,-364.076 316,-414.076 438,-414.076 438,-364.076 316,-364.076"/>
<text text-anchor="start" x="338" y="-399.876" font-family="Times,serif" font-size="14.00">org.scalameta</text>
<text text-anchor="start" x="339" y="-385.876" font-family="Times,serif" font-weight="bold" font-size="14.00">parsers_2.11</text>
<text text-anchor="start" x="324" y="-371.876" font-family="Times,serif" font-size="14.00">0.1.0&#45;SNAPSHOT</text>
</g>
<!-- org.scalameta:scalameta_2.11:0.1.0&#45;SNAPSHOT&#45;&gt;org.scalameta:parsers_2.11:0.1.0&#45;SNAPSHOT -->
<g id="edge4" class="edge"><title>org.scalameta:scalameta_2.11:0.1.0&#45;SNAPSHOT&#45;&gt;org.scalameta:parsers_2.11:0.1.0&#45;SNAPSHOT</title>
<path fill="none" stroke="black" d="M117.368,-311.133C130.558,-316.708 144.675,-322.357 158,-327.076 206.691,-344.32 262.769,-360.182 305.855,-371.545"/>
<polygon fill="black" stroke="black" points="305.117,-374.97 315.678,-374.117 306.89,-368.198 305.117,-374.97"/>
</g>
<!-- org.scalameta:trees_2.11:0.1.0&#45;SNAPSHOT -->
<g id="node5" class="node"><title>org.scalameta:trees_2.11:0.1.0&#45;SNAPSHOT</title>
<polygon fill="none" stroke="black" points="474,-266.076 474,-316.076 596,-316.076 596,-266.076 474,-266.076"/>
<text text-anchor="start" x="496" y="-301.876" font-family="Times,serif" font-size="14.00">org.scalameta</text>
<text text-anchor="start" x="504.5" y="-287.876" font-family="Times,serif" font-weight="bold" font-size="14.00">trees_2.11</text>
<text text-anchor="start" x="482" y="-273.876" font-family="Times,serif" font-size="14.00">0.1.0&#45;SNAPSHOT</text>
</g>
<!-- org.scalameta:scalameta_2.11:0.1.0&#45;SNAPSHOT&#45;&gt;org.scalameta:trees_2.11:0.1.0&#45;SNAPSHOT -->
<g id="edge7" class="edge"><title>org.scalameta:scalameta_2.11:0.1.0&#45;SNAPSHOT&#45;&gt;org.scalameta:trees_2.11:0.1.0&#45;SNAPSHOT</title>
<path fill="none" stroke="black" d="M122.259,-286.715C209.573,-287.64 370.93,-289.349 463.603,-290.331"/>
<polygon fill="black" stroke="black" points="463.691,-293.832 473.728,-290.438 463.766,-286.832 463.691,-293.832"/>
</g>
<!-- org.scalameta:tokenizers_2.11:0.1.0&#45;SNAPSHOT -->
<g id="node6" class="node"><title>org.scalameta:tokenizers_2.11:0.1.0&#45;SNAPSHOT</title>
<polygon fill="none" stroke="black" points="632,-564.076 632,-614.076 754,-614.076 754,-564.076 632,-564.076"/>
<text text-anchor="start" x="654" y="-599.876" font-family="Times,serif" font-size="14.00">org.scalameta</text>
<text text-anchor="start" x="646.5" y="-585.876" font-family="Times,serif" font-weight="bold" font-size="14.00">tokenizers_2.11</text>
<text text-anchor="start" x="640" y="-571.876" font-family="Times,serif" font-size="14.00">0.1.0&#45;SNAPSHOT</text>
</g>
<!-- org.scalameta:scalameta_2.11:0.1.0&#45;SNAPSHOT&#45;&gt;org.scalameta:tokenizers_2.11:0.1.0&#45;SNAPSHOT -->
<g id="edge11" class="edge"><title>org.scalameta:scalameta_2.11:0.1.0&#45;SNAPSHOT&#45;&gt;org.scalameta:tokenizers_2.11:0.1.0&#45;SNAPSHOT</title>
<path fill="none" stroke="black" d="M85.3924,-311.282C143.82,-372.179 303.73,-526.456 474,-583.076 521.397,-598.837 577.836,-599.947 621.412,-597.321"/>
<polygon fill="black" stroke="black" points="621.895,-600.796 631.633,-596.623 621.418,-593.813 621.895,-600.796"/>
</g>
<!-- org.scalameta:dialects_2.11:0.1.0&#45;SNAPSHOT -->
<g id="node13" class="node"><title>org.scalameta:dialects_2.11:0.1.0&#45;SNAPSHOT</title>
<polygon fill="none" stroke="black" points="948,-277.076 948,-327.076 1070,-327.076 1070,-277.076 948,-277.076"/>
<text text-anchor="start" x="970" y="-312.876" font-family="Times,serif" font-size="14.00">org.scalameta</text>
<text text-anchor="start" x="970.5" y="-298.876" font-family="Times,serif" font-weight="bold" font-size="14.00">dialects_2.11</text>
<text text-anchor="start" x="956" y="-284.876" font-family="Times,serif" font-size="14.00">0.1.0&#45;SNAPSHOT</text>
</g>
<!-- org.scalameta:scalameta_2.11:0.1.0&#45;SNAPSHOT&#45;&gt;org.scalameta:dialects_2.11:0.1.0&#45;SNAPSHOT -->
<g id="edge30" class="edge"><title>org.scalameta:scalameta_2.11:0.1.0&#45;SNAPSHOT&#45;&gt;org.scalameta:dialects_2.11:0.1.0&#45;SNAPSHOT</title>
<path fill="none" stroke="black" d="M88.5502,-260.965C139.798,-215.242 257.764,-123.076 376,-123.076 376,-123.076 376,-123.076 536,-123.076 707.328,-123.076 761.531,-126.148 912,-208.076 939.671,-223.143 964.867,-248.478 982.497,-269.052"/>
<polygon fill="black" stroke="black" points="980.007,-271.531 989.106,-276.959 985.378,-267.042 980.007,-271.531"/>
</g>
<!-- org.scalameta:common_2.11:0.1.0&#45;SNAPSHOT -->
<g id="node14" class="node"><title>org.scalameta:common_2.11:0.1.0&#45;SNAPSHOT</title>
<polygon fill="none" stroke="black" points="1111.5,-245.076 1111.5,-295.076 1233.5,-295.076 1233.5,-245.076 1111.5,-245.076"/>
<text text-anchor="start" x="1133.5" y="-280.876" font-family="Times,serif" font-size="14.00">org.scalameta</text>
<text text-anchor="start" x="1131" y="-266.876" font-family="Times,serif" font-weight="bold" font-size="14.00">common_2.11</text>
<text text-anchor="start" x="1119.5" y="-252.876" font-family="Times,serif" font-size="14.00">0.1.0&#45;SNAPSHOT</text>
</g>
<!-- org.scalameta:scalameta_2.11:0.1.0&#45;SNAPSHOT&#45;&gt;org.scalameta:common_2.11:0.1.0&#45;SNAPSHOT -->
<g id="edge38" class="edge"><title>org.scalameta:scalameta_2.11:0.1.0&#45;SNAPSHOT&#45;&gt;org.scalameta:common_2.11:0.1.0&#45;SNAPSHOT</title>
<path fill="none" stroke="black" d="M65.7252,-260.735C73.8441,-214.812 97.5113,-117.81 158,-66.0763 234.107,-0.984633 275.854,-9.07629 376,-9.07629 376,-9.07629 376,-9.07629 852,-9.07629 949.576,-9.07629 991.787,23.2654 1070,-35.0763 1134.96,-83.5289 1158.87,-182.183 1167.26,-234.942"/>
<polygon fill="black" stroke="black" points="1163.8,-235.479 1168.74,-244.854 1170.72,-234.447 1163.8,-235.479"/>
</g>
<!-- org.scala&#45;lang:scala&#45;library:2.11.7 -->
<g id="node15" class="node"><title>org.scala&#45;lang:scala&#45;library:2.11.7</title>
<polygon fill="none" stroke="black" points="1425,-656.076 1425,-706.076 1520,-706.076 1520,-656.076 1425,-656.076"/>
<text text-anchor="start" x="1433" y="-691.876" font-family="Times,serif" font-size="14.00">org.scala&#45;lang</text>
<text text-anchor="start" x="1434" y="-677.876" font-family="Times,serif" font-weight="bold" font-size="14.00">scala&#45;library</text>
<text text-anchor="start" x="1454.5" y="-663.876" font-family="Times,serif" font-size="14.00">2.11.7</text>
</g>
<!-- org.scalameta:scalameta_2.11:0.1.0&#45;SNAPSHOT&#45;&gt;org.scala&#45;lang:scala&#45;library:2.11.7 -->
<g id="edge49" class="edge"><title>org.scalameta:scalameta_2.11:0.1.0&#45;SNAPSHOT&#45;&gt;org.scala&#45;lang:scala&#45;library:2.11.7</title>
<path fill="none" stroke="black" d="M62.1918,-311.352C64.5434,-431.726 91.3139,-941.076 376,-941.076 376,-941.076 376,-941.076 1173.5,-941.076 1273.04,-941.076 1314.61,-946.221 1389,-880.076 1437.51,-836.937 1458.17,-760.806 1466.44,-716.258"/>
<polygon fill="black" stroke="black" points="1469.92,-716.639 1468.2,-706.187 1463.03,-715.436 1469.92,-716.639"/>
</g>
<!-- org.scalameta:transversers_2.11:0.1.0&#45;SNAPSHOT&#45;&gt;org.scalameta:trees_2.11:0.1.0&#45;SNAPSHOT -->
<g id="edge8" class="edge"><title>org.scalameta:transversers_2.11:0.1.0&#45;SNAPSHOT&#45;&gt;org.scalameta:trees_2.11:0.1.0&#45;SNAPSHOT</title>
<path fill="none" stroke="black" d="M395.592,-94.111C423.739,-134.166 478.927,-212.703 510.447,-257.559"/>
<polygon fill="black" stroke="black" points="507.62,-259.623 516.233,-265.792 513.347,-255.598 507.62,-259.623"/>
</g>
<!-- org.scalameta:transversers_2.11:0.1.0&#45;SNAPSHOT&#45;&gt;org.scalameta:common_2.11:0.1.0&#45;SNAPSHOT -->
<g id="edge40" class="edge"><title>org.scalameta:transversers_2.11:0.1.0&#45;SNAPSHOT&#45;&gt;org.scalameta:common_2.11:0.1.0&#45;SNAPSHOT</title>
<path fill="none" stroke="black" d="M438.108,-62.356C501.245,-55.8862 603.471,-47.0763 692,-47.0763 692,-47.0763 692,-47.0763 852,-47.0763 949.474,-47.0763 989.794,-15.6851 1070,-71.0763 1126.07,-109.801 1152.99,-189.117 1164.36,-235.059"/>
<polygon fill="black" stroke="black" points="1160.97,-235.95 1166.68,-244.878 1167.78,-234.341 1160.97,-235.95"/>
</g>
<!-- org.scalameta:quasiquotes_2.11:0.1.0&#45;SNAPSHOT&#45;&gt;org.scalameta:parsers_2.11:0.1.0&#45;SNAPSHOT -->
<g id="edge3" class="edge"><title>org.scalameta:quasiquotes_2.11:0.1.0&#45;SNAPSHOT&#45;&gt;org.scalameta:parsers_2.11:0.1.0&#45;SNAPSHOT</title>
<path fill="none" stroke="black" d="M247.89,-273.284C273.764,-296.671 312.397,-331.589 340.471,-356.963"/>
<polygon fill="black" stroke="black" points="338.324,-359.74 348.089,-363.849 343.017,-354.547 338.324,-359.74"/>
</g>
<!-- org.scalameta:quasiquotes_2.11:0.1.0&#45;SNAPSHOT&#45;&gt;org.scalameta:trees_2.11:0.1.0&#45;SNAPSHOT -->
<g id="edge6" class="edge"><title>org.scalameta:quasiquotes_2.11:0.1.0&#45;SNAPSHOT&#45;&gt;org.scalameta:trees_2.11:0.1.0&#45;SNAPSHOT</title>
<path fill="none" stroke="black" d="M280.171,-256.316C332.559,-263.49 408.546,-273.896 463.717,-281.452"/>
<polygon fill="black" stroke="black" points="463.383,-284.938 473.766,-282.828 464.333,-278.003 463.383,-284.938"/>
</g>
<!-- org.scalameta:inputs_2.11:0.1.0&#45;SNAPSHOT -->
<g id="node12" class="node"><title>org.scalameta:inputs_2.11:0.1.0&#45;SNAPSHOT</title>
<polygon fill="none" stroke="black" points="948,-472.076 948,-522.076 1070,-522.076 1070,-472.076 948,-472.076"/>
<text text-anchor="start" x="970" y="-507.876" font-family="Times,serif" font-size="14.00">org.scalameta</text>
<text text-anchor="start" x="974.5" y="-493.876" font-family="Times,serif" font-weight="bold" font-size="14.00">inputs_2.11</text>
<text text-anchor="start" x="956" y="-479.876" font-family="Times,serif" font-size="14.00">0.1.0&#45;SNAPSHOT</text>
</g>
<!-- org.scalameta:quasiquotes_2.11:0.1.0&#45;SNAPSHOT&#45;&gt;org.scalameta:inputs_2.11:0.1.0&#45;SNAPSHOT -->
<g id="edge24" class="edge"><title>org.scalameta:quasiquotes_2.11:0.1.0&#45;SNAPSHOT&#45;&gt;org.scalameta:inputs_2.11:0.1.0&#45;SNAPSHOT</title>
<path fill="none" stroke="black" d="M280.258,-241.6C355.359,-235.287 487.096,-230.024 596,-256.076 747.571,-292.335 783.194,-320.341 912,-408.076 935.832,-424.309 959.621,-446.313 977.557,-464.379"/>
<polygon fill="black" stroke="black" points="975.373,-467.152 984.868,-471.853 980.377,-462.257 975.373,-467.152"/>
</g>
<!-- org.scalameta:quasiquotes_2.11:0.1.0&#45;SNAPSHOT&#45;&gt;org.scalameta:dialects_2.11:0.1.0&#45;SNAPSHOT -->
<g id="edge29" class="edge"><title>org.scalameta:quasiquotes_2.11:0.1.0&#45;SNAPSHOT&#45;&gt;org.scalameta:dialects_2.11:0.1.0&#45;SNAPSHOT</title>
<path fill="none" stroke="black" d="M280.129,-230.993C291.952,-228.038 304.313,-225.23 316,-223.076 411.861,-205.414 436.526,-199.076 534,-199.076 534,-199.076 534,-199.076 694,-199.076 788.816,-199.076 892.074,-242.003 953.359,-272.432"/>
<polygon fill="black" stroke="black" points="951.953,-275.642 962.458,-277.011 955.1,-269.389 951.953,-275.642"/>
</g>
<!-- org.scalameta:quasiquotes_2.11:0.1.0&#45;SNAPSHOT&#45;&gt;org.scalameta:common_2.11:0.1.0&#45;SNAPSHOT -->
<g id="edge37" class="edge"><title>org.scalameta:quasiquotes_2.11:0.1.0&#45;SNAPSHOT&#45;&gt;org.scalameta:common_2.11:0.1.0&#45;SNAPSHOT</title>
<path fill="none" stroke="black" d="M261.912,-222.965C342.325,-177.242 525.116,-85.0763 692,-85.0763 692,-85.0763 692,-85.0763 852,-85.0763 972.292,-85.0763 1087.92,-184.501 1141.08,-237.575"/>
<polygon fill="black" stroke="black" points="1138.64,-240.087 1148.16,-244.741 1143.62,-235.167 1138.64,-240.087"/>
</g>
<!-- org.scalameta:parsers_2.11:0.1.0&#45;SNAPSHOT&#45;&gt;org.scalameta:trees_2.11:0.1.0&#45;SNAPSHOT -->
<g id="edge5" class="edge"><title>org.scalameta:parsers_2.11:0.1.0&#45;SNAPSHOT&#45;&gt;org.scalameta:trees_2.11:0.1.0&#45;SNAPSHOT</title>
<path fill="none" stroke="black" d="M418.174,-363.839C438.645,-350.979 463.702,-335.238 485.268,-321.69"/>
<polygon fill="black" stroke="black" points="487.356,-324.511 493.962,-316.228 483.633,-318.584 487.356,-324.511"/>
</g>
<!-- org.scalameta:parsers_2.11:0.1.0&#45;SNAPSHOT&#45;&gt;org.scalameta:tokenizers_2.11:0.1.0&#45;SNAPSHOT -->
<g id="edge10" class="edge"><title>org.scalameta:parsers_2.11:0.1.0&#45;SNAPSHOT&#45;&gt;org.scalameta:tokenizers_2.11:0.1.0&#45;SNAPSHOT</title>
<path fill="none" stroke="black" d="M385.686,-414.228C398.081,-450.257 426.071,-515.868 474,-549.076 517.078,-578.924 576.025,-588.334 621.761,-590.605"/>
<polygon fill="black" stroke="black" points="621.769,-594.108 631.899,-591.003 622.044,-587.113 621.769,-594.108"/>
</g>
<!-- org.scalameta:tokens_2.11:0.1.0&#45;SNAPSHOT -->
<g id="node11" class="node"><title>org.scalameta:tokens_2.11:0.1.0&#45;SNAPSHOT</title>
<polygon fill="none" stroke="black" points="790,-418.076 790,-468.076 912,-468.076 912,-418.076 790,-418.076"/>
<text text-anchor="start" x="812" y="-453.876" font-family="Times,serif" font-size="14.00">org.scalameta</text>
<text text-anchor="start" x="815.5" y="-439.876" font-family="Times,serif" font-weight="bold" font-size="14.00">tokens_2.11</text>
<text text-anchor="start" x="798" y="-425.876" font-family="Times,serif" font-size="14.00">0.1.0&#45;SNAPSHOT</text>
</g>
<!-- org.scalameta:parsers_2.11:0.1.0&#45;SNAPSHOT&#45;&gt;org.scalameta:tokens_2.11:0.1.0&#45;SNAPSHOT -->
<g id="edge19" class="edge"><title>org.scalameta:parsers_2.11:0.1.0&#45;SNAPSHOT&#45;&gt;org.scalameta:tokens_2.11:0.1.0&#45;SNAPSHOT</title>
<path fill="none" stroke="black" d="M438.123,-398.21C450.003,-399.911 462.386,-401.612 474,-403.076 580.215,-416.466 703.689,-429.028 779.33,-436.384"/>
<polygon fill="black" stroke="black" points="779.389,-439.906 789.68,-437.387 780.064,-432.939 779.389,-439.906"/>
</g>
<!-- org.scalameta:parsers_2.11:0.1.0&#45;SNAPSHOT&#45;&gt;org.scalameta:inputs_2.11:0.1.0&#45;SNAPSHOT -->
<g id="edge22" class="edge"><title>org.scalameta:parsers_2.11:0.1.0&#45;SNAPSHOT&#45;&gt;org.scalameta:inputs_2.11:0.1.0&#45;SNAPSHOT</title>
<path fill="none" stroke="black" d="M438.094,-412.107C449.92,-416.321 462.291,-420.508 474,-424.076 612.377,-466.246 646.398,-484.615 790,-502.076 839.056,-508.041 894.764,-506.623 937.587,-503.8"/>
<polygon fill="black" stroke="black" points="937.896,-507.287 947.627,-503.097 937.407,-500.304 937.896,-507.287"/>
</g>
<!-- org.scalameta:parsers_2.11:0.1.0&#45;SNAPSHOT&#45;&gt;org.scalameta:dialects_2.11:0.1.0&#45;SNAPSHOT -->
<g id="edge27" class="edge"><title>org.scalameta:parsers_2.11:0.1.0&#45;SNAPSHOT&#45;&gt;org.scalameta:dialects_2.11:0.1.0&#45;SNAPSHOT</title>
<path fill="none" stroke="black" d="M438.172,-380.987C481.962,-375.054 542.679,-366.73 596,-359.076 682.296,-346.689 703.649,-342.074 790,-330.076 839.336,-323.221 895.039,-316.077 937.788,-310.721"/>
<polygon fill="black" stroke="black" points="938.322,-314.181 947.81,-309.468 937.453,-307.235 938.322,-314.181"/>
</g>
<!-- org.scalameta:parsers_2.11:0.1.0&#45;SNAPSHOT&#45;&gt;org.scalameta:common_2.11:0.1.0&#45;SNAPSHOT -->
<g id="edge34" class="edge"><title>org.scalameta:parsers_2.11:0.1.0&#45;SNAPSHOT&#45;&gt;org.scalameta:common_2.11:0.1.0&#45;SNAPSHOT</title>
<path fill="none" stroke="black" d="M438.137,-369.161C449.959,-365.564 462.318,-362.026 474,-359.076 682.07,-306.546 734.387,-287.615 948,-267.076 999.066,-262.166 1056.99,-263.128 1101.08,-265.205"/>
<polygon fill="black" stroke="black" points="1100.95,-268.704 1111.12,-265.709 1101.31,-261.712 1100.95,-268.704"/>
</g>
<!-- org.scalameta:parsers_2.11:0.1.0&#45;SNAPSHOT&#45;&gt;org.scala&#45;lang:scala&#45;library:2.11.7 -->
<g id="edge42" class="edge"><title>org.scalameta:parsers_2.11:0.1.0&#45;SNAPSHOT&#45;&gt;org.scala&#45;lang:scala&#45;library:2.11.7</title>
<path fill="none" stroke="black" d="M380.906,-414.216C394.352,-517.411 460.116,-903.076 692,-903.076 692,-903.076 692,-903.076 1173.5,-903.076 1273.67,-903.076 1311.79,-900.897 1389,-837.076 1427.15,-805.541 1450,-751.682 1461.68,-716.232"/>
<polygon fill="black" stroke="black" points="1465.13,-716.902 1464.81,-706.312 1458.46,-714.794 1465.13,-716.902"/>
</g>
<!-- org.scalameta:trees_2.11:0.1.0&#45;SNAPSHOT&#45;&gt;org.scalameta:tokenizers_2.11:0.1.0&#45;SNAPSHOT -->
<g id="edge9" class="edge"><title>org.scalameta:trees_2.11:0.1.0&#45;SNAPSHOT&#45;&gt;org.scalameta:tokenizers_2.11:0.1.0&#45;SNAPSHOT</title>
<path fill="none" stroke="black" d="M549.166,-316.227C577.056,-369.505 642.131,-493.813 673.901,-554.503"/>
<polygon fill="black" stroke="black" points="670.965,-556.441 678.704,-563.677 677.167,-553.194 670.965,-556.441"/>
</g>
<!-- org.scalameta:trees_2.11:0.1.0&#45;SNAPSHOT&#45;&gt;org.scalameta:tokens_2.11:0.1.0&#45;SNAPSHOT -->
<g id="edge18" class="edge"><title>org.scalameta:trees_2.11:0.1.0&#45;SNAPSHOT&#45;&gt;org.scalameta:tokens_2.11:0.1.0&#45;SNAPSHOT</title>
<path fill="none" stroke="black" d="M587.851,-316.176C643.158,-342.949 730.685,-385.319 789.201,-413.645"/>
<polygon fill="black" stroke="black" points="787.808,-416.859 798.333,-418.066 790.858,-410.558 787.808,-416.859"/>
</g>
<!-- org.scalameta:trees_2.11:0.1.0&#45;SNAPSHOT&#45;&gt;org.scalameta:inputs_2.11:0.1.0&#45;SNAPSHOT -->
<g id="edge21" class="edge"><title>org.scalameta:trees_2.11:0.1.0&#45;SNAPSHOT&#45;&gt;org.scalameta:inputs_2.11:0.1.0&#45;SNAPSHOT</title>
<path fill="none" stroke="black" d="M559.258,-316.317C600.692,-359.206 692.162,-444.791 790,-477.076 837.614,-492.788 894.047,-497.618 937.565,-498.609"/>
<polygon fill="black" stroke="black" points="937.715,-502.111 947.771,-498.776 937.83,-495.112 937.715,-502.111"/>
</g>
<!-- org.scalameta:trees_2.11:0.1.0&#45;SNAPSHOT&#45;&gt;org.scalameta:dialects_2.11:0.1.0&#45;SNAPSHOT -->
<g id="edge26" class="edge"><title>org.scalameta:trees_2.11:0.1.0&#45;SNAPSHOT&#45;&gt;org.scalameta:dialects_2.11:0.1.0&#45;SNAPSHOT</title>
<path fill="none" stroke="black" d="M596.241,-292.173C670.499,-293.568 800.551,-296.149 912,-299.076 920.327,-299.295 929.059,-299.543 937.722,-299.799"/>
<polygon fill="black" stroke="black" points="937.73,-303.301 947.831,-300.104 937.941,-296.304 937.73,-303.301"/>
</g>
<!-- org.scalameta:trees_2.11:0.1.0&#45;SNAPSHOT&#45;&gt;org.scalameta:common_2.11:0.1.0&#45;SNAPSHOT -->
<g id="edge32" class="edge"><title>org.scalameta:trees_2.11:0.1.0&#45;SNAPSHOT&#45;&gt;org.scalameta:common_2.11:0.1.0&#45;SNAPSHOT</title>
<path fill="none" stroke="black" d="M596.171,-270.183C647.078,-253.672 722.336,-231.977 790,-223.076 913.382,-206.846 948.469,-196.304 1070,-223.076 1086.49,-226.709 1103.49,-233.296 1118.75,-240.412"/>
<polygon fill="black" stroke="black" points="1117.48,-243.685 1128,-244.889 1120.52,-237.384 1117.48,-243.685"/>
</g>
<!-- com.lihaoyi:scalaparse_2.11:0.3.7 -->
<g id="node7" class="node"><title>com.lihaoyi:scalaparse_2.11:0.3.7</title>
<polygon fill="none" stroke="black" points="796,-689.076 796,-739.076 906,-739.076 906,-689.076 796,-689.076"/>
<text text-anchor="start" x="817.5" y="-724.876" font-family="Times,serif" font-size="14.00">com.lihaoyi</text>
<text text-anchor="start" x="804" y="-710.876" font-family="Times,serif" font-weight="bold" font-size="14.00">scalaparse_2.11</text>
<text text-anchor="start" x="836.5" y="-696.876" font-family="Times,serif" font-size="14.00">0.3.7</text>
</g>
<!-- org.scalameta:tokenizers_2.11:0.1.0&#45;SNAPSHOT&#45;&gt;com.lihaoyi:scalaparse_2.11:0.3.7 -->
<g id="edge12" class="edge"><title>org.scalameta:tokenizers_2.11:0.1.0&#45;SNAPSHOT&#45;&gt;com.lihaoyi:scalaparse_2.11:0.3.7</title>
<path fill="none" stroke="black" d="M725.569,-614.372C750.178,-634.09 784.481,-661.577 810.839,-682.697"/>
<polygon fill="black" stroke="black" points="808.752,-685.51 818.745,-689.032 813.129,-680.047 808.752,-685.51"/>
</g>
<!-- org.scalameta:tokenizers_2.11:0.1.0&#45;SNAPSHOT&#45;&gt;org.scalameta:tokens_2.11:0.1.0&#45;SNAPSHOT -->
<g id="edge20" class="edge"><title>org.scalameta:tokenizers_2.11:0.1.0&#45;SNAPSHOT&#45;&gt;org.scalameta:tokens_2.11:0.1.0&#45;SNAPSHOT</title>
<path fill="none" stroke="black" d="M720.817,-563.978C747.127,-539.355 787.346,-501.714 815.912,-474.98"/>
<polygon fill="black" stroke="black" points="818.362,-477.48 823.272,-468.091 813.579,-472.369 818.362,-477.48"/>
</g>
<!-- org.scalameta:tokenizers_2.11:0.1.0&#45;SNAPSHOT&#45;&gt;org.scalameta:inputs_2.11:0.1.0&#45;SNAPSHOT -->
<g id="edge25" class="edge"><title>org.scalameta:tokenizers_2.11:0.1.0&#45;SNAPSHOT&#45;&gt;org.scalameta:inputs_2.11:0.1.0&#45;SNAPSHOT</title>
<path fill="none" stroke="black" d="M754.062,-583.211C798.598,-577.636 860.287,-567.308 912,-549.076 927.988,-543.44 944.522,-535.395 959.269,-527.312"/>
<polygon fill="black" stroke="black" points="961.195,-530.245 968.2,-522.296 957.767,-524.142 961.195,-530.245"/>
</g>
<!-- org.scalameta:tokenizers_2.11:0.1.0&#45;SNAPSHOT&#45;&gt;org.scalameta:dialects_2.11:0.1.0&#45;SNAPSHOT -->
<g id="edge31" class="edge"><title>org.scalameta:tokenizers_2.11:0.1.0&#45;SNAPSHOT&#45;&gt;org.scalameta:dialects_2.11:0.1.0&#45;SNAPSHOT</title>
<path fill="none" stroke="black" d="M701.648,-564.034C714.396,-525.954 743.3,-453.166 790,-408.076 831.691,-367.823 891.607,-340.204 938.079,-323.275"/>
<polygon fill="black" stroke="black" points="939.532,-326.473 947.78,-319.824 937.186,-319.878 939.532,-326.473"/>
</g>
<!-- org.scalameta:tokenizers_2.11:0.1.0&#45;SNAPSHOT&#45;&gt;org.scalameta:common_2.11:0.1.0&#45;SNAPSHOT -->
<g id="edge39" class="edge"><title>org.scalameta:tokenizers_2.11:0.1.0&#45;SNAPSHOT&#45;&gt;org.scalameta:common_2.11:0.1.0&#45;SNAPSHOT</title>
<path fill="none" stroke="black" d="M754.061,-598.47C836.363,-607.68 983.781,-610.519 1070,-531.076 1136,-470.26 1159.6,-361.436 1167.62,-305.465"/>
<polygon fill="black" stroke="black" points="1171.12,-305.706 1168.99,-295.329 1164.18,-304.772 1171.12,-305.706"/>
</g>
<!-- org.scalameta:tokenizers_2.11:0.1.0&#45;SNAPSHOT&#45;&gt;org.scala&#45;lang:scala&#45;library:2.11.7 -->
<g id="edge50" class="edge"><title>org.scalameta:tokenizers_2.11:0.1.0&#45;SNAPSHOT&#45;&gt;org.scala&#45;lang:scala&#45;library:2.11.7</title>
<path fill="none" stroke="black" d="M754.075,-607.004C765.903,-610.062 778.279,-612.937 790,-615.076 1019.29,-656.923 1297.15,-673.386 1414.66,-678.799"/>
<polygon fill="black" stroke="black" points="1414.71,-682.305 1424.85,-679.26 1415.02,-675.312 1414.71,-682.305"/>
</g>
<!-- com.lihaoyi:fastparse_2.11:0.3.7 -->
<g id="node8" class="node"><title>com.lihaoyi:fastparse_2.11:0.3.7</title>
<polygon fill="none" stroke="black" points="958,-767.076 958,-817.076 1060,-817.076 1060,-767.076 958,-767.076"/>
<text text-anchor="start" x="975.5" y="-802.876" font-family="Times,serif" font-size="14.00">com.lihaoyi</text>
<text text-anchor="start" x="966" y="-788.876" font-family="Times,serif" font-weight="bold" font-size="14.00">fastparse_2.11</text>
<text text-anchor="start" x="994.5" y="-774.876" font-family="Times,serif" font-size="14.00">0.3.7</text>
</g>
<!-- com.lihaoyi:scalaparse_2.11:0.3.7&#45;&gt;com.lihaoyi:fastparse_2.11:0.3.7 -->
<g id="edge13" class="edge"><title>com.lihaoyi:scalaparse_2.11:0.3.7&#45;&gt;com.lihaoyi:fastparse_2.11:0.3.7</title>
<path fill="none" stroke="black" d="M902.218,-739.185C916.97,-746.561 933.248,-754.7 948.52,-762.336"/>
<polygon fill="black" stroke="black" points="947.366,-765.673 957.876,-767.014 950.497,-759.412 947.366,-765.673"/>
</g>
<!-- com.lihaoyi:sourcecode_2.11:0.1.1 -->
<g id="node10" class="node"><title>com.lihaoyi:sourcecode_2.11:0.1.1</title>
<polygon fill="none" stroke="black" points="1275,-715.076 1275,-765.076 1389,-765.076 1389,-715.076 1275,-715.076"/>
<text text-anchor="start" x="1298.5" y="-750.876" font-family="Times,serif" font-size="14.00">com.lihaoyi</text>
<text text-anchor="start" x="1283" y="-736.876" font-family="Times,serif" font-weight="bold" font-size="14.00">sourcecode_2.11</text>
<text text-anchor="start" x="1317.5" y="-722.876" font-family="Times,serif" font-size="14.00">0.1.1</text>
</g>
<!-- com.lihaoyi:scalaparse_2.11:0.3.7&#45;&gt;com.lihaoyi:sourcecode_2.11:0.1.1 -->
<g id="edge17" class="edge"><title>com.lihaoyi:scalaparse_2.11:0.3.7&#45;&gt;com.lihaoyi:sourcecode_2.11:0.1.1</title>
<path fill="none" stroke="black" d="M906.016,-717.008C994.306,-721.801 1169.25,-731.296 1264.84,-736.485"/>
<polygon fill="black" stroke="black" points="1264.79,-739.987 1274.96,-737.035 1265.17,-732.998 1264.79,-739.987"/>
</g>
<!-- com.lihaoyi:scalaparse_2.11:0.3.7&#45;&gt;org.scala&#45;lang:scala&#45;library:2.11.7 -->
<g id="edge51" class="edge"><title>com.lihaoyi:scalaparse_2.11:0.3.7&#45;&gt;org.scala&#45;lang:scala&#45;library:2.11.7</title>
<path fill="none" stroke="black" d="M906.163,-711.191C1022.61,-704.988 1295.85,-690.433 1414.66,-684.104"/>
<polygon fill="black" stroke="black" points="1414.85,-687.599 1424.65,-683.572 1414.47,-680.609 1414.85,-687.599"/>
</g>
<!-- com.lihaoyi:fastparse&#45;utils_2.11:0.3.7 -->
<g id="node9" class="node"><title>com.lihaoyi:fastparse&#45;utils_2.11:0.3.7</title>
<polygon fill="none" stroke="black" points="1106,-786.076 1106,-836.076 1239,-836.076 1239,-786.076 1106,-786.076"/>
<text text-anchor="start" x="1139" y="-821.876" font-family="Times,serif" font-size="14.00">com.lihaoyi</text>
<text text-anchor="start" x="1114" y="-807.876" font-family="Times,serif" font-weight="bold" font-size="14.00">fastparse&#45;utils_2.11</text>
<text text-anchor="start" x="1158" y="-793.876" font-family="Times,serif" font-size="14.00">0.3.7</text>
</g>
<!-- com.lihaoyi:fastparse_2.11:0.3.7&#45;&gt;com.lihaoyi:fastparse&#45;utils_2.11:0.3.7 -->
<g id="edge14" class="edge"><title>com.lihaoyi:fastparse_2.11:0.3.7&#45;&gt;com.lihaoyi:fastparse&#45;utils_2.11:0.3.7</title>
<path fill="none" stroke="black" d="M1060.21,-797.984C1071.5,-799.312 1083.72,-800.749 1095.79,-802.169"/>
<polygon fill="black" stroke="black" points="1095.52,-805.662 1105.86,-803.354 1096.34,-798.71 1095.52,-805.662"/>
</g>
<!-- com.lihaoyi:fastparse_2.11:0.3.7&#45;&gt;com.lihaoyi:sourcecode_2.11:0.1.1 -->
<g id="edge16" class="edge"><title>com.lihaoyi:fastparse_2.11:0.3.7&#45;&gt;com.lihaoyi:sourcecode_2.11:0.1.1</title>
<path fill="none" stroke="black" d="M1060.31,-783.628C1075.03,-781.173 1091.16,-778.5 1106,-776.076 1159.36,-767.362 1219.87,-757.692 1264.69,-750.57"/>
<polygon fill="black" stroke="black" points="1265.25,-754.025 1274.58,-749 1264.15,-747.111 1265.25,-754.025"/>
</g>
<!-- com.lihaoyi:fastparse_2.11:0.3.7&#45;&gt;org.scala&#45;lang:scala&#45;library:2.11.7 -->
<g id="edge47" class="edge"><title>com.lihaoyi:fastparse_2.11:0.3.7&#45;&gt;org.scala&#45;lang:scala&#45;library:2.11.7</title>
<path fill="none" stroke="black" d="M1044.58,-817.249C1062.07,-828.439 1084.17,-840.358 1106,-846.076 1163.18,-861.055 1180.41,-853.939 1239,-846.076 1307.5,-836.883 1332.96,-845.529 1389,-805.076 1420.55,-782.3 1443.52,-743.452 1457.09,-715.298"/>
<polygon fill="black" stroke="black" points="1460.28,-716.742 1461.33,-706.199 1453.93,-713.784 1460.28,-716.742"/>
</g>
<!-- com.lihaoyi:fastparse&#45;utils_2.11:0.3.7&#45;&gt;com.lihaoyi:sourcecode_2.11:0.1.1 -->
<g id="edge15" class="edge"><title>com.lihaoyi:fastparse&#45;utils_2.11:0.3.7&#45;&gt;com.lihaoyi:sourcecode_2.11:0.1.1</title>
<path fill="none" stroke="black" d="M1229.03,-786.044C1241.03,-780.636 1253.81,-774.871 1266.13,-769.318"/>
<polygon fill="black" stroke="black" points="1267.76,-772.422 1275.44,-765.122 1264.89,-766.04 1267.76,-772.422"/>
</g>
<!-- com.lihaoyi:fastparse&#45;utils_2.11:0.3.7&#45;&gt;org.scala&#45;lang:scala&#45;library:2.11.7 -->
<g id="edge43" class="edge"><title>com.lihaoyi:fastparse&#45;utils_2.11:0.3.7&#45;&gt;org.scala&#45;lang:scala&#45;library:2.11.7</title>
<path fill="none" stroke="black" d="M1239.47,-810.97C1284.17,-808.302 1343.22,-799.54 1389,-774.076 1414.25,-760.031 1435.65,-735.243 1450.33,-714.788"/>
<polygon fill="black" stroke="black" points="1453.37,-716.542 1456.2,-706.331 1447.62,-712.552 1453.37,-716.542"/>
</g>
<!-- com.lihaoyi:sourcecode_2.11:0.1.1&#45;&gt;org.scala&#45;lang:scala&#45;library:2.11.7 -->
<g id="edge48" class="edge"><title>com.lihaoyi:sourcecode_2.11:0.1.1&#45;&gt;org.scala&#45;lang:scala&#45;library:2.11.7</title>
<path fill="none" stroke="black" d="M1389.33,-716.079C1398.02,-712.377 1406.99,-708.555 1415.67,-704.858"/>
<polygon fill="black" stroke="black" points="1417.12,-708.046 1424.95,-700.907 1414.38,-701.606 1417.12,-708.046"/>
</g>
<!-- org.scalameta:tokens_2.11:0.1.0&#45;SNAPSHOT&#45;&gt;org.scalameta:inputs_2.11:0.1.0&#45;SNAPSHOT -->
<g id="edge23" class="edge"><title>org.scalameta:tokens_2.11:0.1.0&#45;SNAPSHOT&#45;&gt;org.scalameta:inputs_2.11:0.1.0&#45;SNAPSHOT</title>
<path fill="none" stroke="black" d="M912.314,-463.954C920.786,-466.887 929.552,-469.921 938.183,-472.909"/>
<polygon fill="black" stroke="black" points="937.252,-476.29 947.847,-476.254 939.542,-469.675 937.252,-476.29"/>
</g>
<!-- org.scalameta:tokens_2.11:0.1.0&#45;SNAPSHOT&#45;&gt;org.scalameta:dialects_2.11:0.1.0&#45;SNAPSHOT -->
<g id="edge28" class="edge"><title>org.scalameta:tokens_2.11:0.1.0&#45;SNAPSHOT&#45;&gt;org.scalameta:dialects_2.11:0.1.0&#45;SNAPSHOT</title>
<path fill="none" stroke="black" d="M892.278,-418.03C899.053,-413.313 905.869,-408.234 912,-403.076 936.787,-382.224 961.907,-355.555 980.231,-334.859"/>
<polygon fill="black" stroke="black" points="982.946,-337.07 986.906,-327.243 977.682,-332.456 982.946,-337.07"/>
</g>
<!-- org.scalameta:tokens_2.11:0.1.0&#45;SNAPSHOT&#45;&gt;org.scalameta:common_2.11:0.1.0&#45;SNAPSHOT -->
<g id="edge35" class="edge"><title>org.scalameta:tokens_2.11:0.1.0&#45;SNAPSHOT&#45;&gt;org.scalameta:common_2.11:0.1.0&#45;SNAPSHOT</title>
<path fill="none" stroke="black" d="M907.598,-418.044C952.226,-397.416 1016.11,-366.678 1070,-336.076 1088.83,-325.382 1108.95,-312.605 1126.26,-301.153"/>
<polygon fill="black" stroke="black" points="1128.66,-303.762 1135.04,-295.304 1124.78,-297.937 1128.66,-303.762"/>
</g>
<!-- org.scalameta:tokens_2.11:0.1.0&#45;SNAPSHOT&#45;&gt;org.scala&#45;lang:scala&#45;library:2.11.7 -->
<g id="edge45" class="edge"><title>org.scalameta:tokens_2.11:0.1.0&#45;SNAPSHOT&#45;&gt;org.scala&#45;lang:scala&#45;library:2.11.7</title>
<path fill="none" stroke="black" d="M912.067,-444.109C1018.24,-448.787 1241.72,-471.732 1389,-579.076 1414.19,-597.433 1436.02,-625.308 1450.89,-647.281"/>
<polygon fill="black" stroke="black" points="1448,-649.264 1456.43,-655.683 1453.84,-645.409 1448,-649.264"/>
</g>
<!-- org.scalameta:inputs_2.11:0.1.0&#45;SNAPSHOT&#45;&gt;org.scalameta:common_2.11:0.1.0&#45;SNAPSHOT -->
<g id="edge33" class="edge"><title>org.scalameta:inputs_2.11:0.1.0&#45;SNAPSHOT&#45;&gt;org.scalameta:common_2.11:0.1.0&#45;SNAPSHOT</title>
<path fill="none" stroke="black" d="M1027.9,-471.916C1057.06,-430.924 1114.85,-349.699 1147.53,-303.769"/>
<polygon fill="black" stroke="black" points="1150.57,-305.527 1153.52,-295.349 1144.87,-301.469 1150.57,-305.527"/>
</g>
<!-- org.scalameta:inputs_2.11:0.1.0&#45;SNAPSHOT&#45;&gt;org.scala&#45;lang:scala&#45;library:2.11.7 -->
<g id="edge41" class="edge"><title>org.scalameta:inputs_2.11:0.1.0&#45;SNAPSHOT&#45;&gt;org.scala&#45;lang:scala&#45;library:2.11.7</title>
<path fill="none" stroke="black" d="M1070.1,-513.402C1146.28,-535.125 1280.71,-576.931 1389,-629.076 1401.77,-635.224 1415,-642.909 1427.04,-650.469"/>
<polygon fill="black" stroke="black" points="1425.25,-653.484 1435.56,-655.929 1429.03,-647.589 1425.25,-653.484"/>
</g>
<!-- org.scalameta:dialects_2.11:0.1.0&#45;SNAPSHOT&#45;&gt;org.scalameta:common_2.11:0.1.0&#45;SNAPSHOT -->
<g id="edge36" class="edge"><title>org.scalameta:dialects_2.11:0.1.0&#45;SNAPSHOT&#45;&gt;org.scalameta:common_2.11:0.1.0&#45;SNAPSHOT</title>
<path fill="none" stroke="black" d="M1070.14,-290.161C1080.33,-288.141 1090.99,-286.028 1101.42,-283.963"/>
<polygon fill="black" stroke="black" points="1102.18,-287.379 1111.31,-282.002 1100.82,-280.512 1102.18,-287.379"/>
</g>
<!-- org.scalameta:dialects_2.11:0.1.0&#45;SNAPSHOT&#45;&gt;org.scala&#45;lang:scala&#45;library:2.11.7 -->
<g id="edge44" class="edge"><title>org.scalameta:dialects_2.11:0.1.0&#45;SNAPSHOT&#45;&gt;org.scala&#45;lang:scala&#45;library:2.11.7</title>
<path fill="none" stroke="black" d="M1070.22,-305.887C1153.15,-314.344 1302.08,-341.553 1389,-429.076 1448.3,-488.791 1464.98,-591.728 1469.67,-645.705"/>
<polygon fill="black" stroke="black" points="1466.19,-646.122 1470.45,-655.82 1473.17,-645.579 1466.19,-646.122"/>
</g>
<!-- org.scalameta:common_2.11:0.1.0&#45;SNAPSHOT&#45;&gt;org.scala&#45;lang:scala&#45;library:2.11.7 -->
<g id="edge46" class="edge"><title>org.scalameta:common_2.11:0.1.0&#45;SNAPSHOT&#45;&gt;org.scala&#45;lang:scala&#45;library:2.11.7</title>
<path fill="none" stroke="black" d="M1233.78,-282.163C1282.54,-295.041 1349.37,-320.257 1389,-367.076 1458.19,-448.823 1470.12,-582.201 1471.67,-645.533"/>
<polygon fill="black" stroke="black" points="1468.18,-645.859 1471.85,-655.798 1475.18,-645.74 1468.18,-645.859"/>
</g>
</g>
</svg>
