<?xml version="1.0" encoding="UTF-8" standalone="no"?>
<!DOCTYPE svg PUBLIC "-//W3C//DTD SVG 1.1//EN"
 "http://www.w3.org/Graphics/SVG/1.1/DTD/svg11.dtd">
<!-- Generated by graphviz version 2.38.0 (20140413.2041)
 -->
<!-- Title: dependency&#45;graph Pages: 1 -->
<svg width="1853pt" height="940pt"
 viewBox="0.00 0.00 1853.05 940.36" xmlns="http://www.w3.org/2000/svg" xmlns:xlink="http://www.w3.org/1999/xlink">
<g id="graph0" class="graph" transform="scale(1 1) rotate(0) translate(4 936.355)">
<title>dependency&#45;graph</title>
<polygon fill="white" stroke="none" points="-4,4 -4,-936.355 1849.05,-936.355 1849.05,4 -4,4"/>
<!-- org.scalameta:scalameta_2.11:2.0.0&#45;SNAPSHOT -->
<g id="node1" class="node"><title>org.scalameta:scalameta_2.11:2.0.0&#45;SNAPSHOT</title>
<ellipse fill="none" stroke="black" cx="86.267" cy="-642.355" rx="86.0347" ry="35.2113"/>
<text text-anchor="start" x="47.267" y="-653.155" font-family="Times,serif" font-size="14.00">org.scalameta</text>
<text text-anchor="start" x="40.767" y="-639.155" font-family="Times,serif" font-weight="bold" font-size="14.00">scalameta_2.11</text>
<text text-anchor="start" x="33.267" y="-625.155" font-family="Times,serif" font-size="14.00">2.0.0&#45;SNAPSHOT</text>
</g>
<!-- org.scalameta:semantic_2.11:2.0.0&#45;SNAPSHOT -->
<g id="node2" class="node"><title>org.scalameta:semantic_2.11:2.0.0&#45;SNAPSHOT</title>
<ellipse fill="none" stroke="black" cx="503.335" cy="-831.355" rx="86.0347" ry="35.2113"/>
<text text-anchor="start" x="464.335" y="-842.155" font-family="Times,serif" font-size="14.00">org.scalameta</text>
<text text-anchor="start" x="460.835" y="-828.155" font-family="Times,serif" font-weight="bold" font-size="14.00">semantic_2.11</text>
<text text-anchor="start" x="450.335" y="-814.155" font-family="Times,serif" font-size="14.00">2.0.0&#45;SNAPSHOT</text>
</g>
<!-- org.scalameta:scalameta_2.11:2.0.0&#45;SNAPSHOT&#45;&gt;org.scalameta:semantic_2.11:2.0.0&#45;SNAPSHOT -->
<g id="edge1" class="edge"><title>org.scalameta:scalameta_2.11:2.0.0&#45;SNAPSHOT&#45;&gt;org.scalameta:semantic_2.11:2.0.0&#45;SNAPSHOT</title>
<path fill="none" stroke="black" d="M144.545,-668.437C220.623,-703.079 354.765,-764.16 435.416,-800.884"/>
<polygon fill="black" stroke="black" points="434.428,-804.28 444.979,-805.239 437.329,-797.909 434.428,-804.28"/>
</g>
<!-- org.scalameta:inline_2.11:2.0.0&#45;SNAPSHOT -->
<g id="node3" class="node"><title>org.scalameta:inline_2.11:2.0.0&#45;SNAPSHOT</title>
<ellipse fill="none" stroke="black" cx="711.869" cy="-249.355" rx="86.0347" ry="35.2113"/>
<text text-anchor="start" x="672.869" y="-260.155" font-family="Times,serif" font-size="14.00">org.scalameta</text>
<text text-anchor="start" x="679.369" y="-246.155" font-family="Times,serif" font-weight="bold" font-size="14.00">inline_2.11</text>
<text text-anchor="start" x="658.869" y="-232.155" font-family="Times,serif" font-size="14.00">2.0.0&#45;SNAPSHOT</text>
</g>
<!-- org.scalameta:scalameta_2.11:2.0.0&#45;SNAPSHOT&#45;&gt;org.scalameta:inline_2.11:2.0.0&#45;SNAPSHOT -->
<g id="edge2" class="edge"><title>org.scalameta:scalameta_2.11:2.0.0&#45;SNAPSHOT&#45;&gt;org.scalameta:inline_2.11:2.0.0&#45;SNAPSHOT</title>
<path fill="none" stroke="black" d="M88.0417,-606.865C91.7004,-535.471 110.956,-374.801 208.534,-298.355 327.931,-204.816 515.528,-215.369 624.51,-232.014"/>
<polygon fill="black" stroke="black" points="624.059,-235.486 634.482,-233.587 625.15,-228.571 624.059,-235.486"/>
</g>
<!-- org.scalameta:transversers_2.11:2.0.0&#45;SNAPSHOT -->
<g id="node4" class="node"><title>org.scalameta:transversers_2.11:2.0.0&#45;SNAPSHOT</title>
<ellipse fill="none" stroke="black" cx="503.335" cy="-705.355" rx="86.0347" ry="35.2113"/>
<text text-anchor="start" x="464.335" y="-716.155" font-family="Times,serif" font-size="14.00">org.scalameta</text>
<text text-anchor="start" x="450.335" y="-702.155" font-family="Times,serif" font-weight="bold" font-size="14.00">transversers_2.11</text>
<text text-anchor="start" x="450.335" y="-688.155" font-family="Times,serif" font-size="14.00">2.0.0&#45;SNAPSHOT</text>
</g>
<!-- org.scalameta:scalameta_2.11:2.0.0&#45;SNAPSHOT&#45;&gt;org.scalameta:transversers_2.11:2.0.0&#45;SNAPSHOT -->
<g id="edge3" class="edge"><title>org.scalameta:scalameta_2.11:2.0.0&#45;SNAPSHOT&#45;&gt;org.scalameta:transversers_2.11:2.0.0&#45;SNAPSHOT</title>
<path fill="none" stroke="black" d="M167.296,-654.502C237.381,-665.14 339.14,-680.585 412.101,-691.659"/>
<polygon fill="black" stroke="black" points="411.786,-695.152 422.198,-693.192 412.837,-688.231 411.786,-695.152"/>
</g>
<!-- org.scalameta:quasiquotes_2.11:2.0.0&#45;SNAPSHOT -->
<g id="node5" class="node"><title>org.scalameta:quasiquotes_2.11:2.0.0&#45;SNAPSHOT</title>
<ellipse fill="none" stroke="black" cx="294.801" cy="-573.355" rx="86.0347" ry="35.2113"/>
<text text-anchor="start" x="255.801" y="-584.155" font-family="Times,serif" font-size="14.00">org.scalameta</text>
<text text-anchor="start" x="243.301" y="-570.155" font-family="Times,serif" font-weight="bold" font-size="14.00">quasiquotes_2.11</text>
<text text-anchor="start" x="241.801" y="-556.155" font-family="Times,serif" font-size="14.00">2.0.0&#45;SNAPSHOT</text>
</g>
<!-- org.scalameta:scalameta_2.11:2.0.0&#45;SNAPSHOT&#45;&gt;org.scalameta:quasiquotes_2.11:2.0.0&#45;SNAPSHOT -->
<g id="edge4" class="edge"><title>org.scalameta:scalameta_2.11:2.0.0&#45;SNAPSHOT&#45;&gt;org.scalameta:quasiquotes_2.11:2.0.0&#45;SNAPSHOT</title>
<path fill="none" stroke="black" d="M153.753,-620.143C174.205,-613.311 196.871,-605.738 217.905,-598.711"/>
<polygon fill="black" stroke="black" points="219.064,-602.014 227.44,-595.526 216.846,-595.375 219.064,-602.014"/>
</g>
<!-- org.scalameta:parsers_2.11:2.0.0&#45;SNAPSHOT -->
<g id="node6" class="node"><title>org.scalameta:parsers_2.11:2.0.0&#45;SNAPSHOT</title>
<ellipse fill="none" stroke="black" cx="503.335" cy="-459.355" rx="86.0347" ry="35.2113"/>
<text text-anchor="start" x="464.335" y="-470.155" font-family="Times,serif" font-size="14.00">org.scalameta</text>
<text text-anchor="start" x="465.335" y="-456.155" font-family="Times,serif" font-weight="bold" font-size="14.00">parsers_2.11</text>
<text text-anchor="start" x="450.335" y="-442.155" font-family="Times,serif" font-size="14.00">2.0.0&#45;SNAPSHOT</text>
</g>
<!-- org.scalameta:scalameta_2.11:2.0.0&#45;SNAPSHOT&#45;&gt;org.scalameta:parsers_2.11:2.0.0&#45;SNAPSHOT -->
<g id="edge5" class="edge"><title>org.scalameta:scalameta_2.11:2.0.0&#45;SNAPSHOT&#45;&gt;org.scalameta:parsers_2.11:2.0.0&#45;SNAPSHOT</title>
<path fill="none" stroke="black" d="M114.684,-608.688C137.268,-583.166 171.503,-549.203 208.534,-529.355 270.789,-495.988 348.877,-478.355 408.897,-469.135"/>
<polygon fill="black" stroke="black" points="409.747,-472.548 419.125,-467.619 408.72,-465.623 409.747,-472.548"/>
</g>
<!-- org.scalameta:trees_2.11:2.0.0&#45;SNAPSHOT -->
<g id="node7" class="node"><title>org.scalameta:trees_2.11:2.0.0&#45;SNAPSHOT</title>
<ellipse fill="none" stroke="black" cx="711.869" cy="-637.355" rx="86.0347" ry="35.2113"/>
<text text-anchor="start" x="672.869" y="-648.155" font-family="Times,serif" font-size="14.00">org.scalameta</text>
<text text-anchor="start" x="681.369" y="-634.155" font-family="Times,serif" font-weight="bold" font-size="14.00">trees_2.11</text>
<text text-anchor="start" x="658.869" y="-620.155" font-family="Times,serif" font-size="14.00">2.0.0&#45;SNAPSHOT</text>
</g>
<!-- org.scalameta:scalameta_2.11:2.0.0&#45;SNAPSHOT&#45;&gt;org.scalameta:trees_2.11:2.0.0&#45;SNAPSHOT -->
<g id="edge10" class="edge"><title>org.scalameta:scalameta_2.11:2.0.0&#45;SNAPSHOT&#45;&gt;org.scalameta:trees_2.11:2.0.0&#45;SNAPSHOT</title>
<path fill="none" stroke="black" d="M172.669,-641.671C288.381,-640.743 494.35,-639.091 615.159,-638.123"/>
<polygon fill="black" stroke="black" points="615.529,-641.62 625.501,-638.04 615.473,-634.62 615.529,-641.62"/>
</g>
<!-- org.scalameta:tokenizers_2.11:2.0.0&#45;SNAPSHOT -->
<g id="node8" class="node"><title>org.scalameta:tokenizers_2.11:2.0.0&#45;SNAPSHOT</title>
<ellipse fill="none" stroke="black" cx="920.403" cy="-312.355" rx="86.0347" ry="35.2113"/>
<text text-anchor="start" x="881.403" y="-323.155" font-family="Times,serif" font-size="14.00">org.scalameta</text>
<text text-anchor="start" x="873.903" y="-309.155" font-family="Times,serif" font-weight="bold" font-size="14.00">tokenizers_2.11</text>
<text text-anchor="start" x="867.403" y="-295.155" font-family="Times,serif" font-size="14.00">2.0.0&#45;SNAPSHOT</text>
</g>
<!-- org.scalameta:scalameta_2.11:2.0.0&#45;SNAPSHOT&#45;&gt;org.scalameta:tokenizers_2.11:2.0.0&#45;SNAPSHOT -->
<g id="edge14" class="edge"><title>org.scalameta:scalameta_2.11:2.0.0&#45;SNAPSHOT&#45;&gt;org.scalameta:tokenizers_2.11:2.0.0&#45;SNAPSHOT</title>
<path fill="none" stroke="black" d="M103.604,-607.613C123.36,-569.138 160.084,-507.751 208.534,-471.355 393.431,-332.461 676.888,-310.865 823.763,-309.863"/>
<polygon fill="black" stroke="black" points="824.111,-313.362 834.098,-309.825 824.086,-306.362 824.111,-313.362"/>
</g>
<!-- org.scalameta:dialects_2.11:2.0.0&#45;SNAPSHOT -->
<g id="node15" class="node"><title>org.scalameta:dialects_2.11:2.0.0&#45;SNAPSHOT</title>
<ellipse fill="none" stroke="black" cx="1337.47" cy="-616.355" rx="86.0347" ry="35.2113"/>
<text text-anchor="start" x="1298.47" y="-627.155" font-family="Times,serif" font-size="14.00">org.scalameta</text>
<text text-anchor="start" x="1298.97" y="-613.155" font-family="Times,serif" font-weight="bold" font-size="14.00">dialects_2.11</text>
<text text-anchor="start" x="1284.47" y="-599.155" font-family="Times,serif" font-size="14.00">2.0.0&#45;SNAPSHOT</text>
</g>
<!-- org.scalameta:scalameta_2.11:2.0.0&#45;SNAPSHOT&#45;&gt;org.scalameta:dialects_2.11:2.0.0&#45;SNAPSHOT -->
<g id="edge33" class="edge"><title>org.scalameta:scalameta_2.11:2.0.0&#45;SNAPSHOT&#45;&gt;org.scalameta:dialects_2.11:2.0.0&#45;SNAPSHOT</title>
<path fill="none" stroke="black" d="M117.827,-675.5C171.724,-731.021 290.046,-840.201 417.068,-875.355 746.988,-966.662 1142.65,-742.311 1283.51,-652"/>
<polygon fill="black" stroke="black" points="1285.52,-654.872 1292.02,-646.508 1281.72,-648.99 1285.52,-654.872"/>
</g>
<!-- org.scalameta:common_2.11:2.0.0&#45;SNAPSHOT -->
<g id="node16" class="node"><title>org.scalameta:common_2.11:2.0.0&#45;SNAPSHOT</title>
<ellipse fill="none" stroke="black" cx="1553.78" cy="-654.355" rx="86.0347" ry="35.2113"/>
<text text-anchor="start" x="1514.78" y="-665.155" font-family="Times,serif" font-size="14.00">org.scalameta</text>
<text text-anchor="start" x="1512.28" y="-651.155" font-family="Times,serif" font-weight="bold" font-size="14.00">common_2.11</text>
<text text-anchor="start" x="1500.78" y="-637.155" font-family="Times,serif" font-size="14.00">2.0.0&#45;SNAPSHOT</text>
</g>
<!-- org.scalameta:scalameta_2.11:2.0.0&#45;SNAPSHOT&#45;&gt;org.scalameta:common_2.11:2.0.0&#45;SNAPSHOT -->
<g id="edge41" class="edge"><title>org.scalameta:scalameta_2.11:2.0.0&#45;SNAPSHOT&#45;&gt;org.scalameta:common_2.11:2.0.0&#45;SNAPSHOT</title>
<path fill="none" stroke="black" d="M102.067,-677.22C121.083,-718.108 157.794,-785.369 208.534,-825.355 317.683,-911.371 363.367,-932.355 502.335,-932.355 502.335,-932.355 502.335,-932.355 1129.94,-932.355 1265.39,-932.355 1314.29,-931.149 1423.74,-851.355 1477.25,-812.341 1514.71,-743.83 1535.01,-698.768"/>
<polygon fill="black" stroke="black" points="1538.25,-700.089 1539.07,-689.527 1531.84,-697.268 1538.25,-700.089"/>
</g>
<!-- org.scalameta:semantic_2.11:2.0.0&#45;SNAPSHOT&#45;&gt;org.scalameta:trees_2.11:2.0.0&#45;SNAPSHOT -->
<g id="edge9" class="edge"><title>org.scalameta:semantic_2.11:2.0.0&#45;SNAPSHOT&#45;&gt;org.scalameta:trees_2.11:2.0.0&#45;SNAPSHOT</title>
<path fill="none" stroke="black" d="M538.904,-798.884C574.754,-765.21 630.82,-712.547 669.12,-676.571"/>
<polygon fill="black" stroke="black" points="671.639,-679.007 676.532,-669.609 666.846,-673.905 671.639,-679.007"/>
</g>
<!-- org.scalameta:semantic_2.11:2.0.0&#45;SNAPSHOT&#45;&gt;org.scalameta:common_2.11:2.0.0&#45;SNAPSHOT -->
<g id="edge39" class="edge"><title>org.scalameta:semantic_2.11:2.0.0&#45;SNAPSHOT&#45;&gt;org.scalameta:common_2.11:2.0.0&#45;SNAPSHOT</title>
<path fill="none" stroke="black" d="M589.369,-835.576C673.25,-839.372 805.131,-844.355 919.403,-844.355 919.403,-844.355 919.403,-844.355 1129.94,-844.355 1260.95,-844.355 1308.5,-882.678 1423.74,-820.355 1473.83,-793.268 1510.79,-737.555 1532.02,-698.16"/>
<polygon fill="black" stroke="black" points="1535.27,-699.503 1536.82,-689.023 1529.07,-696.246 1535.27,-699.503"/>
</g>
<!-- org.scalameta:inputs_2.11:2.0.0&#45;SNAPSHOT -->
<g id="node14" class="node"><title>org.scalameta:inputs_2.11:2.0.0&#45;SNAPSHOT</title>
<ellipse fill="none" stroke="black" cx="1337.47" cy="-414.355" rx="86.0347" ry="35.2113"/>
<text text-anchor="start" x="1298.47" y="-425.155" font-family="Times,serif" font-size="14.00">org.scalameta</text>
<text text-anchor="start" x="1302.97" y="-411.155" font-family="Times,serif" font-weight="bold" font-size="14.00">inputs_2.11</text>
<text text-anchor="start" x="1284.47" y="-397.155" font-family="Times,serif" font-size="14.00">2.0.0&#45;SNAPSHOT</text>
</g>
<!-- org.scalameta:inline_2.11:2.0.0&#45;SNAPSHOT&#45;&gt;org.scalameta:inputs_2.11:2.0.0&#45;SNAPSHOT -->
<g id="edge27" class="edge"><title>org.scalameta:inline_2.11:2.0.0&#45;SNAPSHOT&#45;&gt;org.scalameta:inputs_2.11:2.0.0&#45;SNAPSHOT</title>
<path fill="none" stroke="black" d="M795.412,-240.207C898.997,-232.425 1079.51,-231.332 1215.2,-297.355 1250.85,-314.697 1282.73,-346.453 1304.85,-372.51"/>
<polygon fill="black" stroke="black" points="1302.31,-374.934 1311.39,-380.391 1307.69,-370.462 1302.31,-374.934"/>
</g>
<!-- org.scalameta:transversers_2.11:2.0.0&#45;SNAPSHOT&#45;&gt;org.scalameta:trees_2.11:2.0.0&#45;SNAPSHOT -->
<g id="edge7" class="edge"><title>org.scalameta:transversers_2.11:2.0.0&#45;SNAPSHOT&#45;&gt;org.scalameta:trees_2.11:2.0.0&#45;SNAPSHOT</title>
<path fill="none" stroke="black" d="M571.106,-683.372C591.251,-676.739 613.522,-669.406 634.255,-662.58"/>
<polygon fill="black" stroke="black" points="635.571,-665.832 643.975,-659.38 633.382,-659.183 635.571,-665.832"/>
</g>
<!-- org.scalameta:transversers_2.11:2.0.0&#45;SNAPSHOT&#45;&gt;org.scalameta:common_2.11:2.0.0&#45;SNAPSHOT -->
<g id="edge37" class="edge"><title>org.scalameta:transversers_2.11:2.0.0&#45;SNAPSHOT&#45;&gt;org.scalameta:common_2.11:2.0.0&#45;SNAPSHOT</title>
<path fill="none" stroke="black" d="M587.722,-713.334C671.471,-720.651 804.259,-730.355 919.403,-730.355 919.403,-730.355 919.403,-730.355 1129.94,-730.355 1251.19,-730.355 1388.96,-699.709 1473.37,-677.338"/>
<polygon fill="black" stroke="black" points="1474.39,-680.689 1483.14,-674.722 1472.58,-673.927 1474.39,-680.689"/>
</g>
<!-- org.scalameta:quasiquotes_2.11:2.0.0&#45;SNAPSHOT&#45;&gt;org.scalameta:parsers_2.11:2.0.0&#45;SNAPSHOT -->
<g id="edge6" class="edge"><title>org.scalameta:quasiquotes_2.11:2.0.0&#45;SNAPSHOT&#45;&gt;org.scalameta:parsers_2.11:2.0.0&#45;SNAPSHOT</title>
<path fill="none" stroke="black" d="M347.12,-545.029C375.811,-529.193 411.736,-509.363 441.796,-492.771"/>
<polygon fill="black" stroke="black" points="443.859,-495.63 450.923,-487.733 440.476,-489.502 443.859,-495.63"/>
</g>
<!-- org.scalameta:quasiquotes_2.11:2.0.0&#45;SNAPSHOT&#45;&gt;org.scalameta:trees_2.11:2.0.0&#45;SNAPSHOT -->
<g id="edge11" class="edge"><title>org.scalameta:quasiquotes_2.11:2.0.0&#45;SNAPSHOT&#45;&gt;org.scalameta:trees_2.11:2.0.0&#45;SNAPSHOT</title>
<path fill="none" stroke="black" d="M375.83,-585.695C445.915,-596.502 547.675,-612.192 620.635,-623.442"/>
<polygon fill="black" stroke="black" points="620.316,-626.934 630.732,-624.999 621.383,-620.016 620.316,-626.934"/>
</g>
<!-- org.scalameta:quasiquotes_2.11:2.0.0&#45;SNAPSHOT&#45;&gt;org.scalameta:inputs_2.11:2.0.0&#45;SNAPSHOT -->
<g id="edge29" class="edge"><title>org.scalameta:quasiquotes_2.11:2.0.0&#45;SNAPSHOT&#45;&gt;org.scalameta:inputs_2.11:2.0.0&#45;SNAPSHOT</title>
<path fill="none" stroke="black" d="M369.447,-555.387C502.786,-523.678 793.503,-458.321 1042.67,-428.355 1108.55,-420.432 1183.25,-416.945 1240.84,-415.433"/>
<polygon fill="black" stroke="black" points="1241.12,-418.927 1251.03,-415.181 1240.94,-411.929 1241.12,-418.927"/>
</g>
<!-- org.scalameta:quasiquotes_2.11:2.0.0&#45;SNAPSHOT&#45;&gt;org.scalameta:dialects_2.11:2.0.0&#45;SNAPSHOT -->
<g id="edge35" class="edge"><title>org.scalameta:quasiquotes_2.11:2.0.0&#45;SNAPSHOT&#45;&gt;org.scalameta:dialects_2.11:2.0.0&#45;SNAPSHOT</title>
<path fill="none" stroke="black" d="M381.131,-576.677C481.076,-580.585 651.63,-587.309 798.136,-593.355 953.422,-599.764 1133.89,-607.542 1241.45,-612.212"/>
<polygon fill="black" stroke="black" points="1241.48,-615.717 1251.63,-612.654 1241.79,-608.723 1241.48,-615.717"/>
</g>
<!-- org.scalameta:quasiquotes_2.11:2.0.0&#45;SNAPSHOT&#45;&gt;org.scalameta:common_2.11:2.0.0&#45;SNAPSHOT -->
<g id="edge45" class="edge"><title>org.scalameta:quasiquotes_2.11:2.0.0&#45;SNAPSHOT&#45;&gt;org.scalameta:common_2.11:2.0.0&#45;SNAPSHOT</title>
<path fill="none" stroke="black" d="M320.483,-607.199C337.741,-631.078 361.169,-663.927 381.068,-693.355 397.642,-717.866 391.098,-735.177 417.068,-749.355 447.22,-765.817 392.943,-796.766 1215.2,-744.355 1308.36,-738.418 1334.37,-746.312 1423.74,-719.355 1448.43,-711.906 1474.11,-699.953 1496,-688.317"/>
<polygon fill="black" stroke="black" points="1497.69,-691.38 1504.82,-683.538 1494.36,-685.226 1497.69,-691.38"/>
</g>
<!-- org.scalameta:parsers_2.11:2.0.0&#45;SNAPSHOT&#45;&gt;org.scalameta:trees_2.11:2.0.0&#45;SNAPSHOT -->
<g id="edge8" class="edge"><title>org.scalameta:parsers_2.11:2.0.0&#45;SNAPSHOT&#45;&gt;org.scalameta:trees_2.11:2.0.0&#45;SNAPSHOT</title>
<path fill="none" stroke="black" d="M541.259,-491.178C576.248,-521.333 628.857,-566.673 666.193,-598.852"/>
<polygon fill="black" stroke="black" points="664.057,-601.631 673.917,-605.508 668.627,-596.329 664.057,-601.631"/>
</g>
<!-- org.scalameta:parsers_2.11:2.0.0&#45;SNAPSHOT&#45;&gt;org.scalameta:tokenizers_2.11:2.0.0&#45;SNAPSHOT -->
<g id="edge12" class="edge"><title>org.scalameta:parsers_2.11:2.0.0&#45;SNAPSHOT&#45;&gt;org.scalameta:tokenizers_2.11:2.0.0&#45;SNAPSHOT</title>
<path fill="none" stroke="black" d="M541.267,-427.526C564.152,-409.379 594.945,-387.668 625.602,-374.355 689.676,-346.532 767.169,-330.85 826.478,-322.221"/>
<polygon fill="black" stroke="black" points="827.171,-325.658 836.582,-320.793 826.191,-318.726 827.171,-325.658"/>
</g>
<!-- org.scalameta:tokens_2.11:2.0.0&#45;SNAPSHOT -->
<g id="node13" class="node"><title>org.scalameta:tokens_2.11:2.0.0&#45;SNAPSHOT</title>
<ellipse fill="none" stroke="black" cx="1128.94" cy="-515.355" rx="86.0347" ry="35.2113"/>
<text text-anchor="start" x="1089.94" y="-526.155" font-family="Times,serif" font-size="14.00">org.scalameta</text>
<text text-anchor="start" x="1093.44" y="-512.155" font-family="Times,serif" font-weight="bold" font-size="14.00">tokens_2.11</text>
<text text-anchor="start" x="1075.94" y="-498.155" font-family="Times,serif" font-size="14.00">2.0.0&#45;SNAPSHOT</text>
</g>
<!-- org.scalameta:parsers_2.11:2.0.0&#45;SNAPSHOT&#45;&gt;org.scalameta:tokens_2.11:2.0.0&#45;SNAPSHOT -->
<g id="edge22" class="edge"><title>org.scalameta:parsers_2.11:2.0.0&#45;SNAPSHOT&#45;&gt;org.scalameta:tokens_2.11:2.0.0&#45;SNAPSHOT</title>
<path fill="none" stroke="black" d="M589.06,-455.126C689.513,-451.741 861.603,-451.081 1006.67,-476.355 1022.64,-479.137 1039.4,-483.523 1055.2,-488.366"/>
<polygon fill="black" stroke="black" points="1054.3,-491.753 1064.89,-491.43 1056.41,-485.079 1054.3,-491.753"/>
</g>
<!-- org.scalameta:parsers_2.11:2.0.0&#45;SNAPSHOT&#45;&gt;org.scalameta:inputs_2.11:2.0.0&#45;SNAPSHOT -->
<g id="edge25" class="edge"><title>org.scalameta:parsers_2.11:2.0.0&#45;SNAPSHOT&#45;&gt;org.scalameta:inputs_2.11:2.0.0&#45;SNAPSHOT</title>
<path fill="none" stroke="black" d="M578.816,-442.138C645.33,-427.696 745.635,-408.209 834.136,-400.355 1002.84,-385.384 1046.12,-390.627 1215.2,-400.355 1224.88,-400.912 1234.98,-401.717 1245.03,-402.664"/>
<polygon fill="black" stroke="black" points="1244.75,-406.153 1255.04,-403.654 1245.44,-399.187 1244.75,-406.153"/>
</g>
<!-- org.scalameta:parsers_2.11:2.0.0&#45;SNAPSHOT&#45;&gt;org.scalameta:dialects_2.11:2.0.0&#45;SNAPSHOT -->
<g id="edge31" class="edge"><title>org.scalameta:parsers_2.11:2.0.0&#45;SNAPSHOT&#45;&gt;org.scalameta:dialects_2.11:2.0.0&#45;SNAPSHOT</title>
<path fill="none" stroke="black" d="M581.873,-473.985C737.186,-503.288 1085.5,-569.005 1248.82,-599.817"/>
<polygon fill="black" stroke="black" points="1248.35,-603.291 1258.83,-601.706 1249.65,-596.413 1248.35,-603.291"/>
</g>
<!-- org.scalameta:parsers_2.11:2.0.0&#45;SNAPSHOT&#45;&gt;org.scalameta:common_2.11:2.0.0&#45;SNAPSHOT -->
<g id="edge38" class="edge"><title>org.scalameta:parsers_2.11:2.0.0&#45;SNAPSHOT&#45;&gt;org.scalameta:common_2.11:2.0.0&#45;SNAPSHOT</title>
<path fill="none" stroke="black" d="M509.781,-423.734C520.583,-366.703 550.533,-256.161 625.602,-205.355 733.968,-132.015 788.552,-186.355 919.403,-186.355 919.403,-186.355 919.403,-186.355 1129.94,-186.355 1268.31,-186.355 1325.77,-191.642 1423.74,-289.355 1512.82,-378.204 1540.62,-532.28 1549.13,-608.684"/>
<polygon fill="black" stroke="black" points="1545.69,-609.355 1550.21,-618.934 1552.65,-608.623 1545.69,-609.355"/>
</g>
<!-- org.scalameta:trees_2.11:2.0.0&#45;SNAPSHOT&#45;&gt;org.scalameta:tokenizers_2.11:2.0.0&#45;SNAPSHOT -->
<g id="edge13" class="edge"><title>org.scalameta:trees_2.11:2.0.0&#45;SNAPSHOT&#45;&gt;org.scalameta:tokenizers_2.11:2.0.0&#45;SNAPSHOT</title>
<path fill="none" stroke="black" d="M734.582,-603.189C772.466,-543.574 850.556,-420.692 892.066,-355.374"/>
<polygon fill="black" stroke="black" points="895.262,-356.869 897.672,-346.552 889.354,-353.114 895.262,-356.869"/>
</g>
<!-- org.scalameta:trees_2.11:2.0.0&#45;SNAPSHOT&#45;&gt;org.scalameta:tokens_2.11:2.0.0&#45;SNAPSHOT -->
<g id="edge23" class="edge"><title>org.scalameta:trees_2.11:2.0.0&#45;SNAPSHOT&#45;&gt;org.scalameta:tokens_2.11:2.0.0&#45;SNAPSHOT</title>
<path fill="none" stroke="black" d="M782.342,-616.935C855.819,-595.338 971.551,-561.322 1048.57,-538.683"/>
<polygon fill="black" stroke="black" points="1049.63,-542.02 1058.24,-535.842 1047.66,-535.304 1049.63,-542.02"/>
</g>
<!-- org.scalameta:trees_2.11:2.0.0&#45;SNAPSHOT&#45;&gt;org.scalameta:inputs_2.11:2.0.0&#45;SNAPSHOT -->
<g id="edge26" class="edge"><title>org.scalameta:trees_2.11:2.0.0&#45;SNAPSHOT&#45;&gt;org.scalameta:inputs_2.11:2.0.0&#45;SNAPSHOT</title>
<path fill="none" stroke="black" d="M749.742,-605.585C772.851,-586.825 803.897,-563.64 834.136,-547.355 966.68,-475.979 1139.86,-441.144 1244.39,-425.539"/>
<polygon fill="black" stroke="black" points="1244.9,-429.002 1254.29,-424.089 1243.89,-422.076 1244.9,-429.002"/>
</g>
<!-- org.scalameta:trees_2.11:2.0.0&#45;SNAPSHOT&#45;&gt;org.scalameta:dialects_2.11:2.0.0&#45;SNAPSHOT -->
<g id="edge32" class="edge"><title>org.scalameta:trees_2.11:2.0.0&#45;SNAPSHOT&#45;&gt;org.scalameta:dialects_2.11:2.0.0&#45;SNAPSHOT</title>
<path fill="none" stroke="black" d="M798.299,-638.787C898.337,-639.857 1068.98,-639.791 1215.2,-630.355 1224.88,-629.731 1234.97,-628.883 1245.02,-627.91"/>
<polygon fill="black" stroke="black" points="1245.44,-631.386 1255.03,-626.9 1244.73,-624.421 1245.44,-631.386"/>
</g>
<!-- org.scalameta:trees_2.11:2.0.0&#45;SNAPSHOT&#45;&gt;org.scalameta:common_2.11:2.0.0&#45;SNAPSHOT -->
<g id="edge40" class="edge"><title>org.scalameta:trees_2.11:2.0.0&#45;SNAPSHOT&#45;&gt;org.scalameta:common_2.11:2.0.0&#45;SNAPSHOT</title>
<path fill="none" stroke="black" d="M793.967,-648.569C807.363,-650.081 821.123,-651.428 834.136,-652.355 1095.54,-670.979 1161.74,-666.443 1423.74,-660.355 1434.84,-660.097 1446.47,-659.715 1458.01,-659.266"/>
<polygon fill="black" stroke="black" points="1458.27,-662.758 1468.12,-658.855 1457.98,-655.764 1458.27,-662.758"/>
</g>
<!-- com.lihaoyi:scalaparse_2.11:0.4.2 -->
<g id="node9" class="node"><title>com.lihaoyi:scalaparse_2.11:0.4.2</title>
<ellipse fill="none" stroke="black" cx="1128.94" cy="-123.355" rx="77.5641" ry="35.2113"/>
<text text-anchor="start" x="1095.44" y="-134.155" font-family="Times,serif" font-size="14.00">com.lihaoyi</text>
<text text-anchor="start" x="1081.94" y="-120.155" font-family="Times,serif" font-weight="bold" font-size="14.00">scalaparse_2.11</text>
<text text-anchor="start" x="1114.44" y="-106.155" font-family="Times,serif" font-size="14.00">0.4.2</text>
</g>
<!-- org.scalameta:tokenizers_2.11:2.0.0&#45;SNAPSHOT&#45;&gt;com.lihaoyi:scalaparse_2.11:0.4.2 -->
<g id="edge15" class="edge"><title>org.scalameta:tokenizers_2.11:2.0.0&#45;SNAPSHOT&#45;&gt;com.lihaoyi:scalaparse_2.11:0.4.2</title>
<path fill="none" stroke="black" d="M956.908,-279.865C992.548,-247.25 1047.47,-196.992 1085.41,-162.269"/>
<polygon fill="black" stroke="black" points="1088.23,-164.44 1093.24,-155.107 1083.5,-159.276 1088.23,-164.44"/>
</g>
<!-- org.scalameta:tokenizers_2.11:2.0.0&#45;SNAPSHOT&#45;&gt;org.scalameta:tokens_2.11:2.0.0&#45;SNAPSHOT -->
<g id="edge21" class="edge"><title>org.scalameta:tokenizers_2.11:2.0.0&#45;SNAPSHOT&#45;&gt;org.scalameta:tokens_2.11:2.0.0&#45;SNAPSHOT</title>
<path fill="none" stroke="black" d="M954.587,-344.971C990.719,-380.485 1048.53,-437.303 1087.34,-475.452"/>
<polygon fill="black" stroke="black" points="1085.25,-478.307 1094.84,-482.821 1090.16,-473.315 1085.25,-478.307"/>
</g>
<!-- org.scalameta:tokenizers_2.11:2.0.0&#45;SNAPSHOT&#45;&gt;org.scalameta:inputs_2.11:2.0.0&#45;SNAPSHOT -->
<g id="edge24" class="edge"><title>org.scalameta:tokenizers_2.11:2.0.0&#45;SNAPSHOT&#45;&gt;org.scalameta:inputs_2.11:2.0.0&#45;SNAPSHOT</title>
<path fill="none" stroke="black" d="M1003.64,-303.008C1063.93,-299.154 1146.85,-300.205 1215.2,-324.355 1245.15,-334.935 1273.9,-355.651 1295.89,-374.543"/>
<polygon fill="black" stroke="black" points="1293.86,-377.417 1303.68,-381.399 1298.48,-372.163 1293.86,-377.417"/>
</g>
<!-- org.scalameta:tokenizers_2.11:2.0.0&#45;SNAPSHOT&#45;&gt;org.scalameta:dialects_2.11:2.0.0&#45;SNAPSHOT -->
<g id="edge30" class="edge"><title>org.scalameta:tokenizers_2.11:2.0.0&#45;SNAPSHOT&#45;&gt;org.scalameta:dialects_2.11:2.0.0&#45;SNAPSHOT</title>
<path fill="none" stroke="black" d="M982.302,-337.128C1044.73,-364.316 1142.68,-412.083 1215.2,-471.355 1251.44,-500.967 1284.93,-542.578 1307.49,-573.634"/>
<polygon fill="black" stroke="black" points="1304.89,-576.008 1313.56,-582.095 1310.58,-571.929 1304.89,-576.008"/>
</g>
<!-- org.scalameta:tokenizers_2.11:2.0.0&#45;SNAPSHOT&#45;&gt;org.scalameta:common_2.11:2.0.0&#45;SNAPSHOT -->
<g id="edge36" class="edge"><title>org.scalameta:tokenizers_2.11:2.0.0&#45;SNAPSHOT&#45;&gt;org.scalameta:common_2.11:2.0.0&#45;SNAPSHOT</title>
<path fill="none" stroke="black" d="M997.55,-296.391C1106.69,-278.339 1307.26,-263.89 1423.74,-370.355 1494.74,-435.251 1529.34,-546.803 1543.87,-609.033"/>
<polygon fill="black" stroke="black" points="1540.49,-609.969 1546.11,-618.951 1547.32,-608.425 1540.49,-609.969"/>
</g>
<!-- com.lihaoyi:fastparse_2.11:0.4.2 -->
<g id="node10" class="node"><title>com.lihaoyi:fastparse_2.11:0.4.2</title>
<ellipse fill="none" stroke="black" cx="1337.47" cy="-73.3553" rx="72.25" ry="35.2113"/>
<text text-anchor="start" x="1303.97" y="-84.1553" font-family="Times,serif" font-size="14.00">com.lihaoyi</text>
<text text-anchor="start" x="1294.47" y="-70.1553" font-family="Times,serif" font-weight="bold" font-size="14.00">fastparse_2.11</text>
<text text-anchor="start" x="1322.97" y="-56.1553" font-family="Times,serif" font-size="14.00">0.4.2</text>
</g>
<!-- com.lihaoyi:scalaparse_2.11:0.4.2&#45;&gt;com.lihaoyi:fastparse_2.11:0.4.2 -->
<g id="edge16" class="edge"><title>com.lihaoyi:scalaparse_2.11:0.4.2&#45;&gt;com.lihaoyi:fastparse_2.11:0.4.2</title>
<path fill="none" stroke="black" d="M1197.85,-106.914C1218.56,-101.902 1241.42,-96.3669 1262.5,-91.2624"/>
<polygon fill="black" stroke="black" points="1263.48,-94.628 1272.37,-88.8733 1261.83,-87.8245 1263.48,-94.628"/>
</g>
<!-- com.lihaoyi:sourcecode_2.11:0.1.3 -->
<g id="node12" class="node"><title>com.lihaoyi:sourcecode_2.11:0.1.3</title>
<ellipse fill="none" stroke="black" cx="1764.44" cy="-98.3553" rx="80.7205" ry="35.2113"/>
<text text-anchor="start" x="1730.94" y="-109.155" font-family="Times,serif" font-size="14.00">com.lihaoyi</text>
<text text-anchor="start" x="1715.44" y="-95.1553" font-family="Times,serif" font-weight="bold" font-size="14.00">sourcecode_2.11</text>
<text text-anchor="start" x="1749.94" y="-81.1553" font-family="Times,serif" font-size="14.00">0.1.3</text>
</g>
<!-- com.lihaoyi:scalaparse_2.11:0.4.2&#45;&gt;com.lihaoyi:sourcecode_2.11:0.1.3 -->
<g id="edge19" class="edge"><title>com.lihaoyi:scalaparse_2.11:0.4.2&#45;&gt;com.lihaoyi:sourcecode_2.11:0.1.3</title>
<path fill="none" stroke="black" d="M1206.97,-122.528C1266.25,-121.711 1350.2,-120.162 1423.74,-117.355 1508.79,-114.109 1605.73,-108.497 1674.22,-104.212"/>
<polygon fill="black" stroke="black" points="1674.78,-107.684 1684.54,-103.562 1674.34,-100.697 1674.78,-107.684"/>
</g>
<!-- com.lihaoyi:fastparse&#45;utils_2.11:0.4.2 -->
<g id="node11" class="node"><title>com.lihaoyi:fastparse&#45;utils_2.11:0.4.2</title>
<ellipse fill="none" stroke="black" cx="1553.78" cy="-35.3553" rx="94.0904" ry="35.2113"/>
<text text-anchor="start" x="1520.28" y="-46.1553" font-family="Times,serif" font-size="14.00">com.lihaoyi</text>
<text text-anchor="start" x="1495.28" y="-32.1553" font-family="Times,serif" font-weight="bold" font-size="14.00">fastparse&#45;utils_2.11</text>
<text text-anchor="start" x="1539.28" y="-18.1553" font-family="Times,serif" font-size="14.00">0.4.2</text>
</g>
<!-- com.lihaoyi:fastparse_2.11:0.4.2&#45;&gt;com.lihaoyi:fastparse&#45;utils_2.11:0.4.2 -->
<g id="edge17" class="edge"><title>com.lihaoyi:fastparse_2.11:0.4.2&#45;&gt;com.lihaoyi:fastparse&#45;utils_2.11:0.4.2</title>
<path fill="none" stroke="black" d="M1405.69,-61.4362C1422.32,-58.4886 1440.44,-55.2757 1458.1,-52.144"/>
<polygon fill="black" stroke="black" points="1459.19,-55.5044 1468.43,-50.3122 1457.97,-48.6119 1459.19,-55.5044"/>
</g>
<!-- com.lihaoyi:fastparse_2.11:0.4.2&#45;&gt;com.lihaoyi:sourcecode_2.11:0.1.3 -->
<g id="edge20" class="edge"><title>com.lihaoyi:fastparse_2.11:0.4.2&#45;&gt;com.lihaoyi:sourcecode_2.11:0.1.3</title>
<path fill="none" stroke="black" d="M1409.12,-77.5116C1481.74,-81.7837 1595.04,-88.4487 1673.9,-93.0877"/>
<polygon fill="black" stroke="black" points="1674.11,-96.6065 1684.3,-93.6999 1674.53,-89.6186 1674.11,-96.6065"/>
</g>
<!-- com.lihaoyi:fastparse&#45;utils_2.11:0.4.2&#45;&gt;com.lihaoyi:sourcecode_2.11:0.1.3 -->
<g id="edge18" class="edge"><title>com.lihaoyi:fastparse&#45;utils_2.11:0.4.2&#45;&gt;com.lihaoyi:sourcecode_2.11:0.1.3</title>
<path fill="none" stroke="black" d="M1627.76,-57.3897C1647.16,-63.2481 1668.16,-69.5882 1687.71,-75.49"/>
<polygon fill="black" stroke="black" points="1686.89,-78.8994 1697.48,-78.4393 1688.92,-72.1982 1686.89,-78.8994"/>
</g>
<!-- org.scalameta:tokens_2.11:2.0.0&#45;SNAPSHOT&#45;&gt;org.scalameta:inputs_2.11:2.0.0&#45;SNAPSHOT -->
<g id="edge28" class="edge"><title>org.scalameta:tokens_2.11:2.0.0&#45;SNAPSHOT&#45;&gt;org.scalameta:inputs_2.11:2.0.0&#45;SNAPSHOT</title>
<path fill="none" stroke="black" d="M1185.01,-488.422C1211.75,-475.349 1244.03,-459.56 1271.92,-445.924"/>
<polygon fill="black" stroke="black" points="1273.74,-448.926 1281.19,-441.389 1270.67,-442.638 1273.74,-448.926"/>
</g>
<!-- org.scalameta:tokens_2.11:2.0.0&#45;SNAPSHOT&#45;&gt;org.scalameta:dialects_2.11:2.0.0&#45;SNAPSHOT -->
<g id="edge34" class="edge"><title>org.scalameta:tokens_2.11:2.0.0&#45;SNAPSHOT&#45;&gt;org.scalameta:dialects_2.11:2.0.0&#45;SNAPSHOT</title>
<path fill="none" stroke="black" d="M1185.01,-542.289C1211.75,-555.362 1244.03,-571.151 1271.92,-584.787"/>
<polygon fill="black" stroke="black" points="1270.67,-588.073 1281.19,-589.322 1273.74,-581.784 1270.67,-588.073"/>
</g>
<!-- org.scalameta:tokens_2.11:2.0.0&#45;SNAPSHOT&#45;&gt;org.scalameta:common_2.11:2.0.0&#45;SNAPSHOT -->
<g id="edge44" class="edge"><title>org.scalameta:tokens_2.11:2.0.0&#45;SNAPSHOT&#45;&gt;org.scalameta:common_2.11:2.0.0&#45;SNAPSHOT</title>
<path fill="none" stroke="black" d="M1213.33,-523.125C1273.46,-530.72 1355.67,-545.26 1423.74,-572.355 1452.07,-583.635 1480.97,-601.306 1504.21,-617.36"/>
<polygon fill="black" stroke="black" points="1502.31,-620.303 1512.51,-623.186 1506.33,-614.575 1502.31,-620.303"/>
</g>
<!-- org.scalameta:inputs_2.11:2.0.0&#45;SNAPSHOT&#45;&gt;org.scalameta:common_2.11:2.0.0&#45;SNAPSHOT -->
<g id="edge43" class="edge"><title>org.scalameta:inputs_2.11:2.0.0&#45;SNAPSHOT&#45;&gt;org.scalameta:common_2.11:2.0.0&#45;SNAPSHOT</title>
<path fill="none" stroke="black" d="M1368.05,-447.474C1406.77,-490.838 1474.62,-566.827 1516.44,-613.653"/>
<polygon fill="black" stroke="black" points="1513.9,-616.063 1523.17,-621.191 1519.12,-611.401 1513.9,-616.063"/>
</g>
<!-- org.scalameta:dialects_2.11:2.0.0&#45;SNAPSHOT&#45;&gt;org.scalameta:common_2.11:2.0.0&#45;SNAPSHOT -->
<g id="edge42" class="edge"><title>org.scalameta:dialects_2.11:2.0.0&#45;SNAPSHOT&#45;&gt;org.scalameta:common_2.11:2.0.0&#45;SNAPSHOT</title>
<path fill="none" stroke="black" d="M1417.06,-630.289C1432.34,-633 1448.47,-635.859 1464.06,-638.623"/>
<polygon fill="black" stroke="black" points="1463.75,-642.123 1474.21,-640.423 1464.97,-635.231 1463.75,-642.123"/>
</g>
</g>
</svg>
