<?xml version="1.0" encoding="UTF-8" standalone="no"?>
<!DOCTYPE svg PUBLIC "-//W3C//DTD SVG 1.1//EN"
 "http://www.w3.org/Graphics/SVG/1.1/DTD/svg11.dtd">
<!-- Generated by graphviz version 2.38.0 (20140413.2041)
 -->
<!-- Title: dependency&#45;graph Pages: 1 -->
<svg width="2994pt" height="943pt"
 viewBox="0.00 0.00 2993.55 943.42" xmlns="http://www.w3.org/2000/svg" xmlns:xlink="http://www.w3.org/1999/xlink">
<g id="graph0" class="graph" transform="scale(1 1) rotate(0) translate(4 939.424)">
<title>dependency&#45;graph</title>
<polygon fill="white" stroke="none" points="-4,4 -4,-939.424 2989.55,-939.424 2989.55,4 -4,4"/>
<!-- org.scalameta:scalahost_2.11.8:1.6.0&#45;unknown.1485391871242 -->
<g id="node1" class="node"><title>org.scalameta:scalahost_2.11.8:1.6.0&#45;unknown.1485391871242</title>
<ellipse fill="none" stroke="black" cx="138.593" cy="-387.355" rx="138.686" ry="35.2113"/>
<text text-anchor="start" x="99.5929" y="-398.155" font-family="Times,serif" font-size="14.00">org.scalameta</text>
<text text-anchor="start" x="90.0929" y="-384.155" font-family="Times,serif" font-weight="bold" font-size="14.00">scalahost_2.11.8</text>
<text text-anchor="start" x="48.5929" y="-370.155" font-family="Times,serif" font-size="14.00">1.6.0&#45;unknown.1485391871242</text>
</g>
<!-- org.scalameta:scalameta_2.11:1.6.0&#45;unknown.1485391871242 -->
<g id="node2" class="node"><title>org.scalameta:scalameta_2.11:1.6.0&#45;unknown.1485391871242</title>
<ellipse fill="none" stroke="black" cx="451.779" cy="-586.355" rx="138.686" ry="35.2113"/>
<text text-anchor="start" x="412.779" y="-597.155" font-family="Times,serif" font-size="14.00">org.scalameta</text>
<text text-anchor="start" x="406.279" y="-583.155" font-family="Times,serif" font-weight="bold" font-size="14.00">scalameta_2.11</text>
<text text-anchor="start" x="361.779" y="-569.155" font-family="Times,serif" font-size="14.00">1.6.0&#45;unknown.1485391871242</text>
</g>
<!-- org.scalameta:scalahost_2.11.8:1.6.0&#45;unknown.1485391871242&#45;&gt;org.scalameta:scalameta_2.11:1.6.0&#45;unknown.1485391871242 -->
<g id="edge1" class="edge"><title>org.scalameta:scalahost_2.11.8:1.6.0&#45;unknown.1485391871242&#45;&gt;org.scalameta:scalameta_2.11:1.6.0&#45;unknown.1485391871242</title>
<path fill="none" stroke="black" d="M190.979,-420.216C245.821,-455.287 332.631,-510.801 390.622,-547.885"/>
<polygon fill="black" stroke="black" points="389.006,-551.007 399.316,-553.446 392.777,-545.11 389.006,-551.007"/>
</g>
<!-- org.scala&#45;lang:scala&#45;compiler:2.11.8 -->
<g id="node17" class="node"><title>org.scala&#45;lang:scala&#45;compiler:2.11.8</title>
<ellipse fill="none" stroke="black" cx="451.779" cy="-169.355" rx="73.5782" ry="35.2113"/>
<text text-anchor="start" x="412.279" y="-180.155" font-family="Times,serif" font-size="14.00">org.scala&#45;lang</text>
<text text-anchor="start" x="407.779" y="-166.155" font-family="Times,serif" font-weight="bold" font-size="14.00">scala&#45;compiler</text>
<text text-anchor="start" x="433.779" y="-152.155" font-family="Times,serif" font-size="14.00">2.11.8</text>
</g>
<!-- org.scalameta:scalahost_2.11.8:1.6.0&#45;unknown.1485391871242&#45;&gt;org.scala&#45;lang:scala&#45;compiler:2.11.8 -->
<g id="edge44" class="edge"><title>org.scalameta:scalahost_2.11.8:1.6.0&#45;unknown.1485391871242&#45;&gt;org.scala&#45;lang:scala&#45;compiler:2.11.8</title>
<path fill="none" stroke="black" d="M187.194,-354.009C244.965,-313.537 341.93,-245.609 400.767,-204.391"/>
<polygon fill="black" stroke="black" points="402.979,-207.114 409.161,-198.51 398.963,-201.381 402.979,-207.114"/>
</g>
<!-- org.scalameta:inline_2.11:1.6.0&#45;unknown.1485391871242 -->
<g id="node3" class="node"><title>org.scalameta:inline_2.11:1.6.0&#45;unknown.1485391871242</title>
<ellipse fill="none" stroke="black" cx="1396.99" cy="-251.355" rx="138.686" ry="35.2113"/>
<text text-anchor="start" x="1357.99" y="-262.155" font-family="Times,serif" font-size="14.00">org.scalameta</text>
<text text-anchor="start" x="1364.49" y="-248.155" font-family="Times,serif" font-weight="bold" font-size="14.00">inline_2.11</text>
<text text-anchor="start" x="1306.99" y="-234.155" font-family="Times,serif" font-size="14.00">1.6.0&#45;unknown.1485391871242</text>
</g>
<!-- org.scalameta:scalameta_2.11:1.6.0&#45;unknown.1485391871242&#45;&gt;org.scalameta:inline_2.11:1.6.0&#45;unknown.1485391871242 -->
<g id="edge2" class="edge"><title>org.scalameta:scalameta_2.11:1.6.0&#45;unknown.1485391871242&#45;&gt;org.scalameta:inline_2.11:1.6.0&#45;unknown.1485391871242</title>
<path fill="none" stroke="black" d="M495.906,-552.77C578.044,-490.836 764.864,-359.566 945.214,-300.355 1042.98,-268.258 1158.43,-256.164 1248.02,-252.013"/>
<polygon fill="black" stroke="black" points="1248.42,-255.499 1258.26,-251.568 1248.11,-248.506 1248.42,-255.499"/>
</g>
<!-- org.scalameta:transversers_2.11:1.6.0&#45;unknown.1485391871242 -->
<g id="node4" class="node"><title>org.scalameta:transversers_2.11:1.6.0&#45;unknown.1485391871242</title>
<ellipse fill="none" stroke="black" cx="1083.81" cy="-833.355" rx="138.686" ry="35.2113"/>
<text text-anchor="start" x="1044.81" y="-844.155" font-family="Times,serif" font-size="14.00">org.scalameta</text>
<text text-anchor="start" x="1030.81" y="-830.155" font-family="Times,serif" font-weight="bold" font-size="14.00">transversers_2.11</text>
<text text-anchor="start" x="993.807" y="-816.155" font-family="Times,serif" font-size="14.00">1.6.0&#45;unknown.1485391871242</text>
</g>
<!-- org.scalameta:scalameta_2.11:1.6.0&#45;unknown.1485391871242&#45;&gt;org.scalameta:transversers_2.11:1.6.0&#45;unknown.1485391871242 -->
<g id="edge3" class="edge"><title>org.scalameta:scalameta_2.11:1.6.0&#45;unknown.1485391871242&#45;&gt;org.scalameta:transversers_2.11:1.6.0&#45;unknown.1485391871242</title>
<path fill="none" stroke="black" d="M499.591,-619.766C533.533,-642.834 581.217,-672.919 626.372,-693.355 739.233,-744.434 875.891,-783.59 970.089,-807.335"/>
<polygon fill="black" stroke="black" points="969.376,-810.765 979.927,-809.798 971.076,-803.974 969.376,-810.765"/>
</g>
<!-- org.scalameta:quasiquotes_2.11:1.6.0&#45;unknown.1485391871242 -->
<g id="node5" class="node"><title>org.scalameta:quasiquotes_2.11:1.6.0&#45;unknown.1485391871242</title>
<ellipse fill="none" stroke="black" cx="767.793" cy="-649.355" rx="138.686" ry="35.2113"/>
<text text-anchor="start" x="728.793" y="-660.155" font-family="Times,serif" font-size="14.00">org.scalameta</text>
<text text-anchor="start" x="716.293" y="-646.155" font-family="Times,serif" font-weight="bold" font-size="14.00">quasiquotes_2.11</text>
<text text-anchor="start" x="677.793" y="-632.155" font-family="Times,serif" font-size="14.00">1.6.0&#45;unknown.1485391871242</text>
</g>
<!-- org.scalameta:scalameta_2.11:1.6.0&#45;unknown.1485391871242&#45;&gt;org.scalameta:quasiquotes_2.11:1.6.0&#45;unknown.1485391871242 -->
<g id="edge4" class="edge"><title>org.scalameta:scalameta_2.11:1.6.0&#45;unknown.1485391871242&#45;&gt;org.scalameta:quasiquotes_2.11:1.6.0&#45;unknown.1485391871242</title>
<path fill="none" stroke="black" d="M561.284,-608.125C589.353,-613.756 619.714,-619.847 648.266,-625.576"/>
<polygon fill="black" stroke="black" points="647.79,-629.05 658.283,-627.585 649.167,-622.186 647.79,-629.05"/>
</g>
<!-- org.scalameta:parsers_2.11:1.6.0&#45;unknown.1485391871242 -->
<g id="node6" class="node"><title>org.scalameta:parsers_2.11:1.6.0&#45;unknown.1485391871242</title>
<ellipse fill="none" stroke="black" cx="1083.81" cy="-485.355" rx="138.686" ry="35.2113"/>
<text text-anchor="start" x="1044.81" y="-496.155" font-family="Times,serif" font-size="14.00">org.scalameta</text>
<text text-anchor="start" x="1045.81" y="-482.155" font-family="Times,serif" font-weight="bold" font-size="14.00">parsers_2.11</text>
<text text-anchor="start" x="993.807" y="-468.155" font-family="Times,serif" font-size="14.00">1.6.0&#45;unknown.1485391871242</text>
</g>
<!-- org.scalameta:scalameta_2.11:1.6.0&#45;unknown.1485391871242&#45;&gt;org.scalameta:parsers_2.11:1.6.0&#45;unknown.1485391871242 -->
<g id="edge6" class="edge"><title>org.scalameta:scalameta_2.11:1.6.0&#45;unknown.1485391871242&#45;&gt;org.scalameta:parsers_2.11:1.6.0&#45;unknown.1485391871242</title>
<path fill="none" stroke="black" d="M535.871,-558.076C564.289,-549.315 596.457,-540.388 626.372,-534.355 729.724,-513.513 848.147,-501.127 938.465,-494.023"/>
<polygon fill="black" stroke="black" points="938.801,-497.507 948.502,-493.246 938.261,-490.528 938.801,-497.507"/>
</g>
<!-- org.scalameta:trees_2.11:1.6.0&#45;unknown.1485391871242 -->
<g id="node7" class="node"><title>org.scalameta:trees_2.11:1.6.0&#45;unknown.1485391871242</title>
<ellipse fill="none" stroke="black" cx="1396.99" cy="-611.355" rx="138.686" ry="35.2113"/>
<text text-anchor="start" x="1357.99" y="-622.155" font-family="Times,serif" font-size="14.00">org.scalameta</text>
<text text-anchor="start" x="1366.49" y="-608.155" font-family="Times,serif" font-weight="bold" font-size="14.00">trees_2.11</text>
<text text-anchor="start" x="1306.99" y="-594.155" font-family="Times,serif" font-size="14.00">1.6.0&#45;unknown.1485391871242</text>
</g>
<!-- org.scalameta:scalameta_2.11:1.6.0&#45;unknown.1485391871242&#45;&gt;org.scalameta:trees_2.11:1.6.0&#45;unknown.1485391871242 -->
<g id="edge8" class="edge"><title>org.scalameta:scalameta_2.11:1.6.0&#45;unknown.1485391871242&#45;&gt;org.scalameta:trees_2.11:1.6.0&#45;unknown.1485391871242</title>
<path fill="none" stroke="black" d="M589.678,-589.984C765.247,-594.637 1068.52,-602.676 1248.88,-607.456"/>
<polygon fill="black" stroke="black" points="1248.89,-610.957 1258.98,-607.724 1249.08,-603.96 1248.89,-610.957"/>
</g>
<!-- org.scalameta:tokenizers_2.11:1.6.0&#45;unknown.1485391871242 -->
<g id="node8" class="node"><title>org.scalameta:tokenizers_2.11:1.6.0&#45;unknown.1485391871242</title>
<ellipse fill="none" stroke="black" cx="1710.18" cy="-529.355" rx="138.686" ry="35.2113"/>
<text text-anchor="start" x="1671.18" y="-540.155" font-family="Times,serif" font-size="14.00">org.scalameta</text>
<text text-anchor="start" x="1663.68" y="-526.155" font-family="Times,serif" font-weight="bold" font-size="14.00">tokenizers_2.11</text>
<text text-anchor="start" x="1620.18" y="-512.155" font-family="Times,serif" font-size="14.00">1.6.0&#45;unknown.1485391871242</text>
</g>
<!-- org.scalameta:scalameta_2.11:1.6.0&#45;unknown.1485391871242&#45;&gt;org.scalameta:tokenizers_2.11:1.6.0&#45;unknown.1485391871242 -->
<g id="edge12" class="edge"><title>org.scalameta:scalameta_2.11:1.6.0&#45;unknown.1485391871242&#45;&gt;org.scalameta:tokenizers_2.11:1.6.0&#45;unknown.1485391871242</title>
<path fill="none" stroke="black" d="M588.429,-580.201C826.722,-569.39 1318.41,-547.084 1563.57,-535.961"/>
<polygon fill="black" stroke="black" points="1563.79,-539.455 1573.62,-535.505 1563.47,-532.462 1563.79,-539.455"/>
</g>
<!-- org.scalameta:dialects_2.11:1.6.0&#45;unknown.1485391871242 -->
<g id="node15" class="node"><title>org.scalameta:dialects_2.11:1.6.0&#45;unknown.1485391871242</title>
<ellipse fill="none" stroke="black" cx="2336.55" cy="-693.355" rx="138.686" ry="35.2113"/>
<text text-anchor="start" x="2297.55" y="-704.155" font-family="Times,serif" font-size="14.00">org.scalameta</text>
<text text-anchor="start" x="2298.05" y="-690.155" font-family="Times,serif" font-weight="bold" font-size="14.00">dialects_2.11</text>
<text text-anchor="start" x="2246.55" y="-676.155" font-family="Times,serif" font-size="14.00">1.6.0&#45;unknown.1485391871242</text>
</g>
<!-- org.scalameta:scalameta_2.11:1.6.0&#45;unknown.1485391871242&#45;&gt;org.scalameta:dialects_2.11:1.6.0&#45;unknown.1485391871242 -->
<g id="edge33" class="edge"><title>org.scalameta:scalameta_2.11:1.6.0&#45;unknown.1485391871242&#45;&gt;org.scalameta:dialects_2.11:1.6.0&#45;unknown.1485391871242</title>
<path fill="none" stroke="black" d="M480.471,-620.972C512.233,-658.718 567.553,-718.752 626.372,-756.355 805.148,-870.649 870.619,-896.355 1082.81,-896.355 1082.81,-896.355 1082.81,-896.355 1397.99,-896.355 1716.61,-896.355 2082.62,-782.982 2247.25,-725.688"/>
<polygon fill="black" stroke="black" points="2248.56,-728.937 2256.85,-722.332 2246.25,-722.33 2248.56,-728.937"/>
</g>
<!-- org.scalameta:common_2.11:1.6.0&#45;unknown.1485391871242 -->
<g id="node16" class="node"><title>org.scalameta:common_2.11:1.6.0&#45;unknown.1485391871242</title>
<ellipse fill="none" stroke="black" cx="2649.74" cy="-630.355" rx="138.686" ry="35.2113"/>
<text text-anchor="start" x="2610.74" y="-641.155" font-family="Times,serif" font-size="14.00">org.scalameta</text>
<text text-anchor="start" x="2608.24" y="-627.155" font-family="Times,serif" font-weight="bold" font-size="14.00">common_2.11</text>
<text text-anchor="start" x="2559.74" y="-613.155" font-family="Times,serif" font-size="14.00">1.6.0&#45;unknown.1485391871242</text>
</g>
<!-- org.scalameta:scalameta_2.11:1.6.0&#45;unknown.1485391871242&#45;&gt;org.scalameta:common_2.11:1.6.0&#45;unknown.1485391871242 -->
<g id="edge40" class="edge"><title>org.scalameta:scalameta_2.11:1.6.0&#45;unknown.1485391871242&#45;&gt;org.scalameta:common_2.11:1.6.0&#45;unknown.1485391871242</title>
<path fill="none" stroke="black" d="M467.175,-621.496C491.479,-676.217 545.991,-781.125 626.372,-835.355 798.448,-951.451 875.23,-934.355 1082.81,-934.355 1082.81,-934.355 1082.81,-934.355 2024.36,-934.355 2228.75,-934.355 2300.16,-948.979 2475.14,-843.355 2543.58,-802.044 2596.8,-723.553 2625.4,-674.255"/>
<polygon fill="black" stroke="black" points="2628.54,-675.825 2630.46,-665.406 2622.46,-672.355 2628.54,-675.825"/>
</g>
<!-- org.scalameta:inputs_2.11:1.6.0&#45;unknown.1485391871242 -->
<g id="node14" class="node"><title>org.scalameta:inputs_2.11:1.6.0&#45;unknown.1485391871242</title>
<ellipse fill="none" stroke="black" cx="2336.55" cy="-390.355" rx="138.686" ry="35.2113"/>
<text text-anchor="start" x="2297.55" y="-401.155" font-family="Times,serif" font-size="14.00">org.scalameta</text>
<text text-anchor="start" x="2302.05" y="-387.155" font-family="Times,serif" font-weight="bold" font-size="14.00">inputs_2.11</text>
<text text-anchor="start" x="2246.55" y="-373.155" font-family="Times,serif" font-size="14.00">1.6.0&#45;unknown.1485391871242</text>
</g>
<!-- org.scalameta:inline_2.11:1.6.0&#45;unknown.1485391871242&#45;&gt;org.scalameta:inputs_2.11:1.6.0&#45;unknown.1485391871242 -->
<g id="edge28" class="edge"><title>org.scalameta:inline_2.11:1.6.0&#45;unknown.1485391871242&#45;&gt;org.scalameta:inputs_2.11:1.6.0&#45;unknown.1485391871242</title>
<path fill="none" stroke="black" d="M1532.22,-243.483C1687,-238.153 1947.64,-240.769 2161.96,-300.355 2202.32,-311.576 2244.1,-332.891 2276.56,-351.961"/>
<polygon fill="black" stroke="black" points="2275.08,-355.153 2285.46,-357.271 2278.67,-349.141 2275.08,-355.153"/>
</g>
<!-- org.scalameta:transversers_2.11:1.6.0&#45;unknown.1485391871242&#45;&gt;org.scalameta:trees_2.11:1.6.0&#45;unknown.1485391871242 -->
<g id="edge10" class="edge"><title>org.scalameta:transversers_2.11:1.6.0&#45;unknown.1485391871242&#45;&gt;org.scalameta:trees_2.11:1.6.0&#45;unknown.1485391871242</title>
<path fill="none" stroke="black" d="M1131.4,-800.12C1187.51,-760.09 1281.62,-692.946 1341.18,-650.462"/>
<polygon fill="black" stroke="black" points="1343.23,-653.293 1349.34,-644.636 1339.17,-647.595 1343.23,-653.293"/>
</g>
<!-- org.scalameta:transversers_2.11:1.6.0&#45;unknown.1485391871242&#45;&gt;org.scalameta:common_2.11:1.6.0&#45;unknown.1485391871242 -->
<g id="edge43" class="edge"><title>org.scalameta:transversers_2.11:1.6.0&#45;unknown.1485391871242&#45;&gt;org.scalameta:common_2.11:1.6.0&#45;unknown.1485391871242</title>
<path fill="none" stroke="black" d="M1218.42,-841.802C1344.8,-849.057 1539.81,-858.355 1709.18,-858.355 1709.18,-858.355 1709.18,-858.355 2024.36,-858.355 2226.6,-858.355 2293.03,-884.294 2475.14,-796.355 2533.86,-768 2585.62,-712.346 2617.01,-673.324"/>
<polygon fill="black" stroke="black" points="2619.93,-675.277 2623.39,-665.266 2614.44,-670.931 2619.93,-675.277"/>
</g>
<!-- org.scalameta:quasiquotes_2.11:1.6.0&#45;unknown.1485391871242&#45;&gt;org.scalameta:parsers_2.11:1.6.0&#45;unknown.1485391871242 -->
<g id="edge5" class="edge"><title>org.scalameta:quasiquotes_2.11:1.6.0&#45;unknown.1485391871242&#45;&gt;org.scalameta:parsers_2.11:1.6.0&#45;unknown.1485391871242</title>
<path fill="none" stroke="black" d="M829.711,-617.54C882.253,-590.098 958.125,-550.473 1013.08,-521.77"/>
<polygon fill="black" stroke="black" points="1014.82,-524.814 1022.06,-517.082 1011.58,-518.609 1014.82,-524.814"/>
</g>
<!-- org.scalameta:quasiquotes_2.11:1.6.0&#45;unknown.1485391871242&#45;&gt;org.scalameta:trees_2.11:1.6.0&#45;unknown.1485391871242 -->
<g id="edge7" class="edge"><title>org.scalameta:quasiquotes_2.11:1.6.0&#45;unknown.1485391871242&#45;&gt;org.scalameta:trees_2.11:1.6.0&#45;unknown.1485391871242</title>
<path fill="none" stroke="black" d="M902.958,-641.227C1005.62,-635.006 1146.96,-626.443 1251.99,-620.08"/>
<polygon fill="black" stroke="black" points="1252.27,-623.569 1262.04,-619.471 1251.85,-616.582 1252.27,-623.569"/>
</g>
<!-- org.scalameta:quasiquotes_2.11:1.6.0&#45;unknown.1485391871242&#45;&gt;org.scalameta:inputs_2.11:1.6.0&#45;unknown.1485391871242 -->
<g id="edge25" class="edge"><title>org.scalameta:quasiquotes_2.11:1.6.0&#45;unknown.1485391871242&#45;&gt;org.scalameta:inputs_2.11:1.6.0&#45;unknown.1485391871242</title>
<path fill="none" stroke="black" d="M789.169,-614.309C818.004,-567.819 875.097,-486.397 945.214,-441.355 1120.34,-328.86 1187.85,-314.355 1395.99,-314.355 1395.99,-314.355 1395.99,-314.355 1711.18,-314.355 1887.93,-314.355 2090.79,-344.74 2216.07,-367.085"/>
<polygon fill="black" stroke="black" points="2215.61,-370.559 2226.07,-368.882 2216.85,-363.669 2215.61,-370.559"/>
</g>
<!-- org.scalameta:quasiquotes_2.11:1.6.0&#45;unknown.1485391871242&#45;&gt;org.scalameta:dialects_2.11:1.6.0&#45;unknown.1485391871242 -->
<g id="edge31" class="edge"><title>org.scalameta:quasiquotes_2.11:1.6.0&#45;unknown.1485391871242&#45;&gt;org.scalameta:dialects_2.11:1.6.0&#45;unknown.1485391871242</title>
<path fill="none" stroke="black" d="M893.702,-664.252C1051.39,-682.242 1331.12,-711.445 1571.59,-722.355 1694.65,-727.939 1725.58,-722.552 1848.77,-722.355 1987.97,-722.133 2023.23,-732.695 2161.96,-721.355 2178.74,-719.983 2196.36,-717.902 2213.66,-715.481"/>
<polygon fill="black" stroke="black" points="2214.41,-718.91 2223.81,-714.019 2213.41,-711.981 2214.41,-718.91"/>
</g>
<!-- org.scalameta:quasiquotes_2.11:1.6.0&#45;unknown.1485391871242&#45;&gt;org.scalameta:common_2.11:1.6.0&#45;unknown.1485391871242 -->
<g id="edge38" class="edge"><title>org.scalameta:quasiquotes_2.11:1.6.0&#45;unknown.1485391871242&#45;&gt;org.scalameta:common_2.11:1.6.0&#45;unknown.1485391871242</title>
<path fill="none" stroke="black" d="M860.761,-675.589C898.77,-686.3 936.123,-696.605 945.214,-698.355 1280.64,-762.939 1367.59,-782.355 1709.18,-782.355 1709.18,-782.355 1709.18,-782.355 2024.36,-782.355 2225.71,-782.355 2284.4,-801.825 2475.14,-737.355 2519.98,-722.202 2565.32,-693.701 2598.42,-669.922"/>
<polygon fill="black" stroke="black" points="2600.54,-672.707 2606.56,-663.989 2596.42,-667.049 2600.54,-672.707"/>
</g>
<!-- org.scalameta:parsers_2.11:1.6.0&#45;unknown.1485391871242&#45;&gt;org.scalameta:trees_2.11:1.6.0&#45;unknown.1485391871242 -->
<g id="edge9" class="edge"><title>org.scalameta:parsers_2.11:1.6.0&#45;unknown.1485391871242&#45;&gt;org.scalameta:trees_2.11:1.6.0&#45;unknown.1485391871242</title>
<path fill="none" stroke="black" d="M1158.55,-515.216C1204.89,-533.977 1264.77,-558.221 1312.8,-577.669"/>
<polygon fill="black" stroke="black" points="1311.65,-580.982 1322.24,-581.491 1314.28,-574.494 1311.65,-580.982"/>
</g>
<!-- org.scalameta:parsers_2.11:1.6.0&#45;unknown.1485391871242&#45;&gt;org.scalameta:tokenizers_2.11:1.6.0&#45;unknown.1485391871242 -->
<g id="edge13" class="edge"><title>org.scalameta:parsers_2.11:1.6.0&#45;unknown.1485391871242&#45;&gt;org.scalameta:tokenizers_2.11:1.6.0&#45;unknown.1485391871242</title>
<path fill="none" stroke="black" d="M1217.6,-494.714C1320.02,-501.931 1461.41,-511.895 1566.28,-519.285"/>
<polygon fill="black" stroke="black" points="1566.09,-522.78 1576.31,-519.992 1566.58,-515.798 1566.09,-522.78"/>
</g>
<!-- org.scalameta:tokens_2.11:1.6.0&#45;unknown.1485391871242 -->
<g id="node13" class="node"><title>org.scalameta:tokens_2.11:1.6.0&#45;unknown.1485391871242</title>
<ellipse fill="none" stroke="black" cx="2023.36" cy="-491.355" rx="138.686" ry="35.2113"/>
<text text-anchor="start" x="1984.36" y="-502.155" font-family="Times,serif" font-size="14.00">org.scalameta</text>
<text text-anchor="start" x="1987.86" y="-488.155" font-family="Times,serif" font-weight="bold" font-size="14.00">tokens_2.11</text>
<text text-anchor="start" x="1933.36" y="-474.155" font-family="Times,serif" font-size="14.00">1.6.0&#45;unknown.1485391871242</text>
</g>
<!-- org.scalameta:parsers_2.11:1.6.0&#45;unknown.1485391871242&#45;&gt;org.scalameta:tokens_2.11:1.6.0&#45;unknown.1485391871242 -->
<g id="edge22" class="edge"><title>org.scalameta:parsers_2.11:1.6.0&#45;unknown.1485391871242&#45;&gt;org.scalameta:tokens_2.11:1.6.0&#45;unknown.1485391871242</title>
<path fill="none" stroke="black" d="M1222.48,-483.925C1375.46,-482.669 1629.79,-481.572 1848.77,-485.355 1857.53,-485.507 1866.55,-485.701 1875.63,-485.927"/>
<polygon fill="black" stroke="black" points="1875.83,-489.433 1885.92,-486.194 1876.01,-482.435 1875.83,-489.433"/>
</g>
<!-- org.scalameta:parsers_2.11:1.6.0&#45;unknown.1485391871242&#45;&gt;org.scalameta:inputs_2.11:1.6.0&#45;unknown.1485391871242 -->
<g id="edge27" class="edge"><title>org.scalameta:parsers_2.11:1.6.0&#45;unknown.1485391871242&#45;&gt;org.scalameta:inputs_2.11:1.6.0&#45;unknown.1485391871242</title>
<path fill="none" stroke="black" d="M1198.26,-465.338C1352.87,-439.169 1638.71,-394.739 1884.77,-378.355 2007.69,-370.171 2038.84,-374.105 2161.96,-378.355 2172.14,-378.707 2182.65,-379.174 2193.23,-379.72"/>
<polygon fill="black" stroke="black" points="2193.21,-383.224 2203.38,-380.267 2193.58,-376.234 2193.21,-383.224"/>
</g>
<!-- org.scalameta:parsers_2.11:1.6.0&#45;unknown.1485391871242&#45;&gt;org.scalameta:dialects_2.11:1.6.0&#45;unknown.1485391871242 -->
<g id="edge34" class="edge"><title>org.scalameta:parsers_2.11:1.6.0&#45;unknown.1485391871242&#45;&gt;org.scalameta:dialects_2.11:1.6.0&#45;unknown.1485391871242</title>
<path fill="none" stroke="black" d="M1108.22,-520.188C1137.8,-560.876 1192.83,-626.313 1258.4,-655.355 1421.11,-727.428 1936.68,-713.378 2190.93,-701.397"/>
<polygon fill="black" stroke="black" points="2191.16,-704.89 2200.98,-700.918 2190.82,-697.898 2191.16,-704.89"/>
</g>
<!-- org.scalameta:parsers_2.11:1.6.0&#45;unknown.1485391871242&#45;&gt;org.scalameta:common_2.11:1.6.0&#45;unknown.1485391871242 -->
<g id="edge42" class="edge"><title>org.scalameta:parsers_2.11:1.6.0&#45;unknown.1485391871242&#45;&gt;org.scalameta:common_2.11:1.6.0&#45;unknown.1485391871242</title>
<path fill="none" stroke="black" d="M1149.69,-454.189C1358.13,-358.924 2023.41,-93.0371 2475.14,-346.355 2566.47,-397.57 2615.48,-518.565 2636.33,-584.901"/>
<polygon fill="black" stroke="black" points="2633.04,-586.13 2639.32,-594.668 2639.74,-584.082 2633.04,-586.13"/>
</g>
<!-- org.scalameta:trees_2.11:1.6.0&#45;unknown.1485391871242&#45;&gt;org.scalameta:tokenizers_2.11:1.6.0&#45;unknown.1485391871242 -->
<g id="edge11" class="edge"><title>org.scalameta:trees_2.11:1.6.0&#45;unknown.1485391871242&#45;&gt;org.scalameta:tokenizers_2.11:1.6.0&#45;unknown.1485391871242</title>
<path fill="none" stroke="black" d="M1494.32,-585.972C1528.83,-576.878 1567.91,-566.58 1603.19,-557.284"/>
<polygon fill="black" stroke="black" points="1604.26,-560.622 1613.04,-554.69 1602.47,-553.853 1604.26,-560.622"/>
</g>
<!-- org.scalameta:trees_2.11:1.6.0&#45;unknown.1485391871242&#45;&gt;org.scalameta:tokens_2.11:1.6.0&#45;unknown.1485391871242 -->
<g id="edge20" class="edge"><title>org.scalameta:trees_2.11:1.6.0&#45;unknown.1485391871242&#45;&gt;org.scalameta:tokens_2.11:1.6.0&#45;unknown.1485391871242</title>
<path fill="none" stroke="black" d="M1535.54,-612.386C1625.96,-610.001 1746.1,-600.966 1848.77,-573.355 1886.42,-563.232 1925.9,-545.244 1957.68,-528.69"/>
<polygon fill="black" stroke="black" points="1959.65,-531.606 1966.86,-523.838 1956.38,-525.417 1959.65,-531.606"/>
</g>
<!-- org.scalameta:trees_2.11:1.6.0&#45;unknown.1485391871242&#45;&gt;org.scalameta:inputs_2.11:1.6.0&#45;unknown.1485391871242 -->
<g id="edge23" class="edge"><title>org.scalameta:trees_2.11:1.6.0&#45;unknown.1485391871242&#45;&gt;org.scalameta:inputs_2.11:1.6.0&#45;unknown.1485391871242</title>
<path fill="none" stroke="black" d="M1435.98,-577.253C1469.47,-548.86 1520.72,-509.331 1571.59,-485.355 1771.36,-391.188 2031.55,-379.007 2190.91,-382.205"/>
<polygon fill="black" stroke="black" points="2191.19,-385.712 2201.26,-382.437 2191.34,-378.713 2191.19,-385.712"/>
</g>
<!-- org.scalameta:trees_2.11:1.6.0&#45;unknown.1485391871242&#45;&gt;org.scalameta:dialects_2.11:1.6.0&#45;unknown.1485391871242 -->
<g id="edge29" class="edge"><title>org.scalameta:trees_2.11:1.6.0&#45;unknown.1485391871242&#45;&gt;org.scalameta:dialects_2.11:1.6.0&#45;unknown.1485391871242</title>
<path fill="none" stroke="black" d="M1504.62,-633.777C1526.68,-637.809 1549.83,-641.6 1571.59,-644.355 1785.11,-671.393 2034.21,-683.832 2188.42,-689.322"/>
<polygon fill="black" stroke="black" points="2188.33,-692.821 2198.44,-689.674 2188.57,-685.825 2188.33,-692.821"/>
</g>
<!-- org.scalameta:trees_2.11:1.6.0&#45;unknown.1485391871242&#45;&gt;org.scalameta:common_2.11:1.6.0&#45;unknown.1485391871242 -->
<g id="edge35" class="edge"><title>org.scalameta:trees_2.11:1.6.0&#45;unknown.1485391871242&#45;&gt;org.scalameta:common_2.11:1.6.0&#45;unknown.1485391871242</title>
<path fill="none" stroke="black" d="M1535.42,-613.443C1772.64,-617.047 2256.94,-624.404 2501.07,-628.112"/>
<polygon fill="black" stroke="black" points="2501.03,-631.612 2511.08,-628.264 2501.13,-624.613 2501.03,-631.612"/>
</g>
<!-- com.lihaoyi:scalaparse_2.11:0.4.2 -->
<g id="node9" class="node"><title>com.lihaoyi:scalaparse_2.11:0.4.2</title>
<ellipse fill="none" stroke="black" cx="2023.36" cy="-175.355" rx="77.5641" ry="35.2113"/>
<text text-anchor="start" x="1989.86" y="-186.155" font-family="Times,serif" font-size="14.00">com.lihaoyi</text>
<text text-anchor="start" x="1976.36" y="-172.155" font-family="Times,serif" font-weight="bold" font-size="14.00">scalaparse_2.11</text>
<text text-anchor="start" x="2008.86" y="-158.155" font-family="Times,serif" font-size="14.00">0.4.2</text>
</g>
<!-- org.scalameta:tokenizers_2.11:1.6.0&#45;unknown.1485391871242&#45;&gt;com.lihaoyi:scalaparse_2.11:0.4.2 -->
<g id="edge14" class="edge"><title>org.scalameta:tokenizers_2.11:1.6.0&#45;unknown.1485391871242&#45;&gt;com.lihaoyi:scalaparse_2.11:0.4.2</title>
<path fill="none" stroke="black" d="M1741.58,-494.768C1799.38,-429.016 1924.84,-286.296 1986.58,-216.062"/>
<polygon fill="black" stroke="black" points="1989.45,-218.095 1993.43,-208.273 1984.2,-213.473 1989.45,-218.095"/>
</g>
<!-- org.scalameta:tokenizers_2.11:1.6.0&#45;unknown.1485391871242&#45;&gt;org.scalameta:tokens_2.11:1.6.0&#45;unknown.1485391871242 -->
<g id="edge21" class="edge"><title>org.scalameta:tokenizers_2.11:1.6.0&#45;unknown.1485391871242&#45;&gt;org.scalameta:tokens_2.11:1.6.0&#45;unknown.1485391871242</title>
<path fill="none" stroke="black" d="M1835.51,-514.173C1852.7,-512.073 1870.43,-509.909 1887.8,-507.788"/>
<polygon fill="black" stroke="black" points="1888.48,-511.231 1897.98,-506.545 1887.63,-504.283 1888.48,-511.231"/>
</g>
<!-- org.scalameta:tokenizers_2.11:1.6.0&#45;unknown.1485391871242&#45;&gt;org.scalameta:inputs_2.11:1.6.0&#45;unknown.1485391871242 -->
<g id="edge26" class="edge"><title>org.scalameta:tokenizers_2.11:1.6.0&#45;unknown.1485391871242&#45;&gt;org.scalameta:inputs_2.11:1.6.0&#45;unknown.1485391871242</title>
<path fill="none" stroke="black" d="M1802,-502.857C1818.1,-496.54 1834.33,-489.054 1848.77,-480.355 1867.37,-469.158 1865.08,-456.48 1884.77,-447.355 1912.73,-434.403 2074.45,-416.031 2196.26,-403.677"/>
<polygon fill="black" stroke="black" points="2196.84,-407.137 2206.44,-402.65 2196.13,-400.173 2196.84,-407.137"/>
</g>
<!-- org.scalameta:tokenizers_2.11:1.6.0&#45;unknown.1485391871242&#45;&gt;org.scalameta:dialects_2.11:1.6.0&#45;unknown.1485391871242 -->
<g id="edge32" class="edge"><title>org.scalameta:tokenizers_2.11:1.6.0&#45;unknown.1485391871242&#45;&gt;org.scalameta:dialects_2.11:1.6.0&#45;unknown.1485391871242</title>
<path fill="none" stroke="black" d="M1807.37,-554.621C1921.49,-584.597 2111.15,-634.413 2229.45,-665.486"/>
<polygon fill="black" stroke="black" points="2228.69,-668.906 2239.25,-668.061 2230.47,-662.135 2228.69,-668.906"/>
</g>
<!-- org.scalameta:tokenizers_2.11:1.6.0&#45;unknown.1485391871242&#45;&gt;org.scalameta:common_2.11:1.6.0&#45;unknown.1485391871242 -->
<g id="edge39" class="edge"><title>org.scalameta:tokenizers_2.11:1.6.0&#45;unknown.1485391871242&#45;&gt;org.scalameta:common_2.11:1.6.0&#45;unknown.1485391871242</title>
<path fill="none" stroke="black" d="M1840.45,-541.74C1930.59,-550.503 2053.65,-562.72 2161.96,-574.355 2280.92,-587.135 2416.1,-602.776 2513.76,-614.276"/>
<polygon fill="black" stroke="black" points="2513.65,-617.787 2523.99,-615.481 2514.47,-610.835 2513.65,-617.787"/>
</g>
<!-- com.lihaoyi:fastparse_2.11:0.4.2 -->
<g id="node10" class="node"><title>com.lihaoyi:fastparse_2.11:0.4.2</title>
<ellipse fill="none" stroke="black" cx="2336.55" cy="-125.355" rx="72.25" ry="35.2113"/>
<text text-anchor="start" x="2303.05" y="-136.155" font-family="Times,serif" font-size="14.00">com.lihaoyi</text>
<text text-anchor="start" x="2293.55" y="-122.155" font-family="Times,serif" font-weight="bold" font-size="14.00">fastparse_2.11</text>
<text text-anchor="start" x="2322.05" y="-108.155" font-family="Times,serif" font-size="14.00">0.4.2</text>
</g>
<!-- com.lihaoyi:scalaparse_2.11:0.4.2&#45;&gt;com.lihaoyi:fastparse_2.11:0.4.2 -->
<g id="edge15" class="edge"><title>com.lihaoyi:scalaparse_2.11:0.4.2&#45;&gt;com.lihaoyi:fastparse_2.11:0.4.2</title>
<path fill="none" stroke="black" d="M2096.93,-163.696C2145.15,-155.948 2208.42,-145.782 2257.69,-137.865"/>
<polygon fill="black" stroke="black" points="2258.35,-141.304 2267.67,-136.262 2257.24,-134.393 2258.35,-141.304"/>
</g>
<!-- com.lihaoyi:sourcecode_2.11:0.1.3 -->
<g id="node12" class="node"><title>com.lihaoyi:sourcecode_2.11:0.1.3</title>
<ellipse fill="none" stroke="black" cx="2904.94" cy="-150.355" rx="80.7205" ry="35.2113"/>
<text text-anchor="start" x="2871.44" y="-161.155" font-family="Times,serif" font-size="14.00">com.lihaoyi</text>
<text text-anchor="start" x="2855.94" y="-147.155" font-family="Times,serif" font-weight="bold" font-size="14.00">sourcecode_2.11</text>
<text text-anchor="start" x="2890.44" y="-133.155" font-family="Times,serif" font-size="14.00">0.1.3</text>
</g>
<!-- com.lihaoyi:scalaparse_2.11:0.4.2&#45;&gt;com.lihaoyi:sourcecode_2.11:0.1.3 -->
<g id="edge18" class="edge"><title>com.lihaoyi:scalaparse_2.11:0.4.2&#45;&gt;com.lihaoyi:sourcecode_2.11:0.1.3</title>
<path fill="none" stroke="black" d="M2101.35,-175.056C2191.1,-174.538 2343.91,-173.135 2475.14,-169.355 2592.47,-165.976 2727.75,-159.562 2814.47,-155.127"/>
<polygon fill="black" stroke="black" points="2814.73,-158.619 2824.54,-154.61 2814.38,-151.628 2814.73,-158.619"/>
</g>
<!-- com.lihaoyi:fastparse&#45;utils_2.11:0.4.2 -->
<g id="node11" class="node"><title>com.lihaoyi:fastparse&#45;utils_2.11:0.4.2</title>
<ellipse fill="none" stroke="black" cx="2649.74" cy="-87.3553" rx="94.0904" ry="35.2113"/>
<text text-anchor="start" x="2616.24" y="-98.1553" font-family="Times,serif" font-size="14.00">com.lihaoyi</text>
<text text-anchor="start" x="2591.24" y="-84.1553" font-family="Times,serif" font-weight="bold" font-size="14.00">fastparse&#45;utils_2.11</text>
<text text-anchor="start" x="2635.24" y="-70.1553" font-family="Times,serif" font-size="14.00">0.4.2</text>
</g>
<!-- com.lihaoyi:fastparse_2.11:0.4.2&#45;&gt;com.lihaoyi:fastparse&#45;utils_2.11:0.4.2 -->
<g id="edge16" class="edge"><title>com.lihaoyi:fastparse_2.11:0.4.2&#45;&gt;com.lihaoyi:fastparse&#45;utils_2.11:0.4.2</title>
<path fill="none" stroke="black" d="M2406.61,-116.922C2448.73,-111.778 2503.26,-105.12 2549.9,-99.4242"/>
<polygon fill="black" stroke="black" points="2550.53,-102.873 2560.03,-98.187 2549.68,-95.925 2550.53,-102.873"/>
</g>
<!-- com.lihaoyi:fastparse_2.11:0.4.2&#45;&gt;com.lihaoyi:sourcecode_2.11:0.1.3 -->
<g id="edge19" class="edge"><title>com.lihaoyi:fastparse_2.11:0.4.2&#45;&gt;com.lihaoyi:sourcecode_2.11:0.1.3</title>
<path fill="none" stroke="black" d="M2408.42,-128.484C2511.18,-133.019 2701.52,-141.421 2814.03,-146.387"/>
<polygon fill="black" stroke="black" points="2814.19,-149.897 2824.33,-146.842 2814.5,-142.904 2814.19,-149.897"/>
</g>
<!-- com.lihaoyi:fastparse&#45;utils_2.11:0.4.2&#45;&gt;com.lihaoyi:sourcecode_2.11:0.1.3 -->
<g id="edge17" class="edge"><title>com.lihaoyi:fastparse&#45;utils_2.11:0.4.2&#45;&gt;com.lihaoyi:sourcecode_2.11:0.1.3</title>
<path fill="none" stroke="black" d="M2728.77,-106.771C2759.19,-114.34 2794.02,-123.006 2824.57,-130.606"/>
<polygon fill="black" stroke="black" points="2823.77,-134.015 2834.32,-133.034 2825.46,-127.222 2823.77,-134.015"/>
</g>
<!-- org.scalameta:tokens_2.11:1.6.0&#45;unknown.1485391871242&#45;&gt;org.scalameta:inputs_2.11:1.6.0&#45;unknown.1485391871242 -->
<g id="edge24" class="edge"><title>org.scalameta:tokens_2.11:1.6.0&#45;unknown.1485391871242&#45;&gt;org.scalameta:inputs_2.11:1.6.0&#45;unknown.1485391871242</title>
<path fill="none" stroke="black" d="M2109.81,-463.623C2150.29,-450.485 2198.78,-434.746 2240.43,-421.229"/>
<polygon fill="black" stroke="black" points="2241.6,-424.53 2250.03,-418.113 2239.43,-417.871 2241.6,-424.53"/>
</g>
<!-- org.scalameta:tokens_2.11:1.6.0&#45;unknown.1485391871242&#45;&gt;org.scalameta:dialects_2.11:1.6.0&#45;unknown.1485391871242 -->
<g id="edge30" class="edge"><title>org.scalameta:tokens_2.11:1.6.0&#45;unknown.1485391871242&#45;&gt;org.scalameta:dialects_2.11:1.6.0&#45;unknown.1485391871242</title>
<path fill="none" stroke="black" d="M2076.8,-524.145C2102.54,-540.334 2133.96,-560.234 2161.96,-578.355 2200.85,-603.527 2244.3,-632.313 2278,-654.787"/>
<polygon fill="black" stroke="black" points="2276.09,-657.72 2286.35,-660.359 2279.97,-651.897 2276.09,-657.72"/>
</g>
<!-- org.scalameta:tokens_2.11:1.6.0&#45;unknown.1485391871242&#45;&gt;org.scalameta:common_2.11:1.6.0&#45;unknown.1485391871242 -->
<g id="edge37" class="edge"><title>org.scalameta:tokens_2.11:1.6.0&#45;unknown.1485391871242&#45;&gt;org.scalameta:common_2.11:1.6.0&#45;unknown.1485391871242</title>
<path fill="none" stroke="black" d="M2161.84,-493.195C2252.5,-497.575 2372.94,-509.489 2475.14,-540.355 2514.95,-552.376 2556.4,-573.497 2588.82,-592.258"/>
<polygon fill="black" stroke="black" points="2587.31,-595.434 2597.71,-597.477 2590.86,-589.397 2587.31,-595.434"/>
</g>
<!-- org.scalameta:inputs_2.11:1.6.0&#45;unknown.1485391871242&#45;&gt;org.scalameta:common_2.11:1.6.0&#45;unknown.1485391871242 -->
<g id="edge36" class="edge"><title>org.scalameta:inputs_2.11:1.6.0&#45;unknown.1485391871242&#45;&gt;org.scalameta:common_2.11:1.6.0&#45;unknown.1485391871242</title>
<path fill="none" stroke="black" d="M2384.47,-423.571C2411.27,-442.763 2445.37,-467.552 2475.14,-490.355 2517.83,-523.047 2565.29,-561.466 2599.78,-589.78"/>
<polygon fill="black" stroke="black" points="2597.86,-592.74 2607.81,-596.387 2602.31,-587.333 2597.86,-592.74"/>
</g>
<!-- org.scalameta:dialects_2.11:1.6.0&#45;unknown.1485391871242&#45;&gt;org.scalameta:common_2.11:1.6.0&#45;unknown.1485391871242 -->
<g id="edge41" class="edge"><title>org.scalameta:dialects_2.11:1.6.0&#45;unknown.1485391871242&#45;&gt;org.scalameta:common_2.11:1.6.0&#45;unknown.1485391871242</title>
<path fill="none" stroke="black" d="M2445.52,-671.498C2473.07,-665.919 2502.84,-659.893 2530.87,-654.219"/>
<polygon fill="black" stroke="black" points="2531.59,-657.642 2540.7,-652.228 2530.2,-650.781 2531.59,-657.642"/>
</g>
<!-- org.scala&#45;lang.modules:scala&#45;parser&#45;combinators_2.11:1.0.4 -->
<g id="node18" class="node"><title>org.scala&#45;lang.modules:scala&#45;parser&#45;combinators_2.11:1.0.4</title>
<ellipse fill="none" stroke="black" cx="767.793" cy="-35.3553" rx="141.343" ry="35.2113"/>
<text text-anchor="start" x="702.793" y="-46.1553" font-family="Times,serif" font-size="14.00">org.scala&#45;lang.modules</text>
<text text-anchor="start" x="675.793" y="-32.1553" font-family="Times,serif" font-weight="bold" font-size="14.00">scala&#45;parser&#45;combinators_2.11</text>
<text text-anchor="start" x="753.293" y="-18.1553" font-family="Times,serif" font-size="14.00">1.0.4</text>
</g>
<!-- org.scala&#45;lang:scala&#45;compiler:2.11.8&#45;&gt;org.scala&#45;lang.modules:scala&#45;parser&#45;combinators_2.11:1.0.4 -->
<g id="edge45" class="edge"><title>org.scala&#45;lang:scala&#45;compiler:2.11.8&#45;&gt;org.scala&#45;lang.modules:scala&#45;parser&#45;combinators_2.11:1.0.4</title>
<path fill="none" stroke="black" d="M500.047,-142.453C534.402,-123.564 582.396,-98.5315 626.372,-80.3553 638.937,-75.162 652.332,-70.1866 665.672,-65.5624"/>
<polygon fill="black" stroke="black" points="667.027,-68.7983 675.363,-62.2592 664.769,-62.1726 667.027,-68.7983"/>
</g>
<!-- org.scala&#45;lang.modules:scala&#45;xml_2.11:1.0.4 -->
<g id="node19" class="node"><title>org.scala&#45;lang.modules:scala&#45;xml_2.11:1.0.4</title>
<ellipse fill="none" stroke="black" cx="767.793" cy="-213.355" rx="103.476" ry="35.2113"/>
<text text-anchor="start" x="702.793" y="-224.155" font-family="Times,serif" font-size="14.00">org.scala&#45;lang.modules</text>
<text text-anchor="start" x="723.293" y="-210.155" font-family="Times,serif" font-weight="bold" font-size="14.00">scala&#45;xml_2.11</text>
<text text-anchor="start" x="753.293" y="-196.155" font-family="Times,serif" font-size="14.00">1.0.4</text>
</g>
<!-- org.scala&#45;lang:scala&#45;compiler:2.11.8&#45;&gt;org.scala&#45;lang.modules:scala&#45;xml_2.11:1.0.4 -->
<g id="edge46" class="edge"><title>org.scala&#45;lang:scala&#45;compiler:2.11.8&#45;&gt;org.scala&#45;lang.modules:scala&#45;xml_2.11:1.0.4</title>
<path fill="none" stroke="black" d="M522.469,-179.12C563.458,-184.864 616.089,-192.239 661.999,-198.672"/>
<polygon fill="black" stroke="black" points="661.6,-202.15 671.989,-200.071 662.572,-195.217 661.6,-202.15"/>
</g>
<!-- org.scala&#45;lang:scala&#45;reflect:2.11.8 -->
<g id="node20" class="node"><title>org.scala&#45;lang:scala&#45;reflect:2.11.8</title>
<ellipse fill="none" stroke="black" cx="767.793" cy="-124.355" rx="67.3507" ry="35.2113"/>
<text text-anchor="start" x="728.293" y="-135.155" font-family="Times,serif" font-size="14.00">org.scala&#45;lang</text>
<text text-anchor="start" x="731.793" y="-121.155" font-family="Times,serif" font-weight="bold" font-size="14.00">scala&#45;reflect</text>
<text text-anchor="start" x="749.793" y="-107.155" font-family="Times,serif" font-size="14.00">2.11.8</text>
</g>
<!-- org.scala&#45;lang:scala&#45;compiler:2.11.8&#45;&gt;org.scala&#45;lang:scala&#45;reflect:2.11.8 -->
<g id="edge47" class="edge"><title>org.scala&#45;lang:scala&#45;compiler:2.11.8&#45;&gt;org.scala&#45;lang:scala&#45;reflect:2.11.8</title>
<path fill="none" stroke="black" d="M522.469,-159.368C573.033,-152.122 641.312,-142.337 692.836,-134.954"/>
<polygon fill="black" stroke="black" points="693.505,-138.394 702.908,-133.51 692.512,-131.465 693.505,-138.394"/>
</g>
</g>
</svg>
