<?xml version="1.0" encoding="UTF-8" standalone="no"?>
<!DOCTYPE svg PUBLIC "-//W3C//DTD SVG 1.1//EN"
 "http://www.w3.org/Graphics/SVG/1.1/DTD/svg11.dtd">
<!-- Generated by graphviz version 2.38.0 (20140413.2041)
 -->
<!-- Title: dependency&#45;graph Pages: 1 -->
<svg width="1539pt" height="911pt"
 viewBox="0.00 0.00 1539.00 911.47" xmlns="http://www.w3.org/2000/svg" xmlns:xlink="http://www.w3.org/1999/xlink">
<g id="graph0" class="graph" transform="scale(1 1) rotate(0) translate(4 907.47)">
<title>dependency&#45;graph</title>
<polygon fill="white" stroke="none" points="-4,4 -4,-907.47 1535,-907.47 1535,4 -4,4"/>
<!-- org.scalameta:scalameta_2.11:0.1.0&#45;SNAPSHOT -->
<g id="node1" class="node"><title>org.scalameta:scalameta_2.11:0.1.0&#45;SNAPSHOT</title>
<polygon fill="none" stroke="black" points="0,-551.73 0,-601.73 122,-601.73 122,-551.73 0,-551.73"/>
<text text-anchor="start" x="22" y="-587.53" font-family="Times,serif" font-size="14.00">org.scalameta</text>
<text text-anchor="start" x="15.5" y="-573.53" font-family="Times,serif" font-weight="bold" font-size="14.00">scalameta_2.11</text>
<text text-anchor="start" x="8" y="-559.53" font-family="Times,serif" font-size="14.00">0.1.0&#45;SNAPSHOT</text>
</g>
<!-- org.scalameta:transversers_2.11:0.1.0&#45;SNAPSHOT -->
<g id="node2" class="node"><title>org.scalameta:transversers_2.11:0.1.0&#45;SNAPSHOT</title>
<polygon fill="none" stroke="black" points="316,-497.73 316,-547.73 438,-547.73 438,-497.73 316,-497.73"/>
<text text-anchor="start" x="338" y="-533.53" font-family="Times,serif" font-size="14.00">org.scalameta</text>
<text text-anchor="start" x="324" y="-519.53" font-family="Times,serif" font-weight="bold" font-size="14.00">transversers_2.11</text>
<text text-anchor="start" x="324" y="-505.53" font-family="Times,serif" font-size="14.00">0.1.0&#45;SNAPSHOT</text>
</g>
<!-- org.scalameta:scalameta_2.11:0.1.0&#45;SNAPSHOT&#45;&gt;org.scalameta:transversers_2.11:0.1.0&#45;SNAPSHOT -->
<g id="edge1" class="edge"><title>org.scalameta:scalameta_2.11:0.1.0&#45;SNAPSHOT&#45;&gt;org.scalameta:transversers_2.11:0.1.0&#45;SNAPSHOT</title>
<path fill="none" stroke="black" d="M122.171,-566.382C174.559,-557.373 250.546,-544.305 305.717,-534.817"/>
<polygon fill="black" stroke="black" points="306.504,-538.233 315.766,-533.089 305.317,-531.335 306.504,-538.233"/>
</g>
<!-- org.scalameta:quasiquotes_2.11:0.1.0&#45;SNAPSHOT -->
<g id="node3" class="node"><title>org.scalameta:quasiquotes_2.11:0.1.0&#45;SNAPSHOT</title>
<polygon fill="none" stroke="black" points="158,-643.73 158,-693.73 280,-693.73 280,-643.73 158,-643.73"/>
<text text-anchor="start" x="180" y="-679.53" font-family="Times,serif" font-size="14.00">org.scalameta</text>
<text text-anchor="start" x="167.5" y="-665.53" font-family="Times,serif" font-weight="bold" font-size="14.00">quasiquotes_2.11</text>
<text text-anchor="start" x="166" y="-651.53" font-family="Times,serif" font-size="14.00">0.1.0&#45;SNAPSHOT</text>
</g>
<!-- org.scalameta:scalameta_2.11:0.1.0&#45;SNAPSHOT&#45;&gt;org.scalameta:quasiquotes_2.11:0.1.0&#45;SNAPSHOT -->
<g id="edge2" class="edge"><title>org.scalameta:scalameta_2.11:0.1.0&#45;SNAPSHOT&#45;&gt;org.scalameta:quasiquotes_2.11:0.1.0&#45;SNAPSHOT</title>
<path fill="none" stroke="black" d="M104.628,-601.87C123.802,-613.178 146.595,-626.619 166.697,-638.475"/>
<polygon fill="black" stroke="black" points="165.032,-641.556 175.424,-643.621 168.588,-635.527 165.032,-641.556"/>
</g>
<!-- org.scalameta:parsers_2.11:0.1.0&#45;SNAPSHOT -->
<g id="node4" class="node"><title>org.scalameta:parsers_2.11:0.1.0&#45;SNAPSHOT</title>
<polygon fill="none" stroke="black" points="316,-643.73 316,-693.73 438,-693.73 438,-643.73 316,-643.73"/>
<text text-anchor="start" x="338" y="-679.53" font-family="Times,serif" font-size="14.00">org.scalameta</text>
<text text-anchor="start" x="339" y="-665.53" font-family="Times,serif" font-weight="bold" font-size="14.00">parsers_2.11</text>
<text text-anchor="start" x="324" y="-651.53" font-family="Times,serif" font-size="14.00">0.1.0&#45;SNAPSHOT</text>
</g>
<!-- org.scalameta:scalameta_2.11:0.1.0&#45;SNAPSHOT&#45;&gt;org.scalameta:parsers_2.11:0.1.0&#45;SNAPSHOT -->
<g id="edge4" class="edge"><title>org.scalameta:scalameta_2.11:0.1.0&#45;SNAPSHOT&#45;&gt;org.scalameta:parsers_2.11:0.1.0&#45;SNAPSHOT</title>
<path fill="none" stroke="black" d="M122.11,-590.836C166.132,-601.556 227.162,-617.231 280,-633.73 288.58,-636.41 297.525,-639.4 306.354,-642.472"/>
<polygon fill="black" stroke="black" points="305.271,-645.802 315.866,-645.828 307.6,-639.2 305.271,-645.802"/>
</g>
<!-- org.scalameta:trees_2.11:0.1.0&#45;SNAPSHOT -->
<g id="node5" class="node"><title>org.scalameta:trees_2.11:0.1.0&#45;SNAPSHOT</title>
<polygon fill="none" stroke="black" points="474,-551.73 474,-601.73 596,-601.73 596,-551.73 474,-551.73"/>
<text text-anchor="start" x="496" y="-587.53" font-family="Times,serif" font-size="14.00">org.scalameta</text>
<text text-anchor="start" x="504.5" y="-573.53" font-family="Times,serif" font-weight="bold" font-size="14.00">trees_2.11</text>
<text text-anchor="start" x="482" y="-559.53" font-family="Times,serif" font-size="14.00">0.1.0&#45;SNAPSHOT</text>
</g>
<!-- org.scalameta:scalameta_2.11:0.1.0&#45;SNAPSHOT&#45;&gt;org.scalameta:trees_2.11:0.1.0&#45;SNAPSHOT -->
<g id="edge7" class="edge"><title>org.scalameta:scalameta_2.11:0.1.0&#45;SNAPSHOT&#45;&gt;org.scalameta:trees_2.11:0.1.0&#45;SNAPSHOT</title>
<path fill="none" stroke="black" d="M122.259,-576.73C209.573,-576.73 370.93,-576.73 463.603,-576.73"/>
<polygon fill="black" stroke="black" points="463.728,-580.23 473.728,-576.73 463.728,-573.23 463.728,-580.23"/>
</g>
<!-- org.scalameta:tokenizers_2.11:0.1.0&#45;SNAPSHOT -->
<g id="node6" class="node"><title>org.scalameta:tokenizers_2.11:0.1.0&#45;SNAPSHOT</title>
<polygon fill="none" stroke="black" points="632,-313.73 632,-363.73 754,-363.73 754,-313.73 632,-313.73"/>
<text text-anchor="start" x="654" y="-349.53" font-family="Times,serif" font-size="14.00">org.scalameta</text>
<text text-anchor="start" x="646.5" y="-335.53" font-family="Times,serif" font-weight="bold" font-size="14.00">tokenizers_2.11</text>
<text text-anchor="start" x="640" y="-321.53" font-family="Times,serif" font-size="14.00">0.1.0&#45;SNAPSHOT</text>
</g>
<!-- org.scalameta:scalameta_2.11:0.1.0&#45;SNAPSHOT&#45;&gt;org.scalameta:tokenizers_2.11:0.1.0&#45;SNAPSHOT -->
<g id="edge10" class="edge"><title>org.scalameta:scalameta_2.11:0.1.0&#45;SNAPSHOT&#45;&gt;org.scalameta:tokenizers_2.11:0.1.0&#45;SNAPSHOT</title>
<path fill="none" stroke="black" d="M120.998,-551.715C133.196,-546.665 145.987,-541.458 158,-536.73 323.34,-471.661 519.686,-400.379 622.035,-363.67"/>
<polygon fill="black" stroke="black" points="623.409,-366.895 631.642,-360.226 621.047,-360.306 623.409,-366.895"/>
</g>
<!-- org.scalameta:prettyprinters_2.11:0.1.0&#45;SNAPSHOT -->
<g id="node12" class="node"><title>org.scalameta:prettyprinters_2.11:0.1.0&#45;SNAPSHOT</title>
<polygon fill="none" stroke="black" points="948,-329.73 948,-379.73 1081,-379.73 1081,-329.73 948,-329.73"/>
<text text-anchor="start" x="975.5" y="-365.53" font-family="Times,serif" font-size="14.00">org.scalameta</text>
<text text-anchor="start" x="956" y="-351.53" font-family="Times,serif" font-weight="bold" font-size="14.00">prettyprinters_2.11</text>
<text text-anchor="start" x="961.5" y="-337.53" font-family="Times,serif" font-size="14.00">0.1.0&#45;SNAPSHOT</text>
</g>
<!-- org.scalameta:scalameta_2.11:0.1.0&#45;SNAPSHOT&#45;&gt;org.scalameta:prettyprinters_2.11:0.1.0&#45;SNAPSHOT -->
<g id="edge21" class="edge"><title>org.scalameta:scalameta_2.11:0.1.0&#45;SNAPSHOT&#45;&gt;org.scalameta:prettyprinters_2.11:0.1.0&#45;SNAPSHOT</title>
<path fill="none" stroke="black" d="M70.3307,-551.698C98.8383,-471.28 200.546,-224.73 376,-224.73 376,-224.73 376,-224.73 694,-224.73 799.023,-224.73 910.095,-285.74 969.641,-324.169"/>
<polygon fill="black" stroke="black" points="967.76,-327.121 978.045,-329.665 971.591,-321.263 967.76,-327.121"/>
</g>
<!-- org.scalameta:dialects_2.11:0.1.0&#45;SNAPSHOT -->
<g id="node14" class="node"><title>org.scalameta:dialects_2.11:0.1.0&#45;SNAPSHOT</title>
<polygon fill="none" stroke="black" points="953.5,-665.73 953.5,-715.73 1075.5,-715.73 1075.5,-665.73 953.5,-665.73"/>
<text text-anchor="start" x="975.5" y="-701.53" font-family="Times,serif" font-size="14.00">org.scalameta</text>
<text text-anchor="start" x="976" y="-687.53" font-family="Times,serif" font-weight="bold" font-size="14.00">dialects_2.11</text>
<text text-anchor="start" x="961.5" y="-673.53" font-family="Times,serif" font-size="14.00">0.1.0&#45;SNAPSHOT</text>
</g>
<!-- org.scalameta:scalameta_2.11:0.1.0&#45;SNAPSHOT&#45;&gt;org.scalameta:dialects_2.11:0.1.0&#45;SNAPSHOT -->
<g id="edge28" class="edge"><title>org.scalameta:scalameta_2.11:0.1.0&#45;SNAPSHOT&#45;&gt;org.scalameta:dialects_2.11:0.1.0&#45;SNAPSHOT</title>
<path fill="none" stroke="black" d="M73.9772,-601.785C109.413,-671.853 221.03,-864.73 376,-864.73 376,-864.73 376,-864.73 694,-864.73 811.09,-864.73 926.142,-773.486 980.707,-723.146"/>
<polygon fill="black" stroke="black" points="983.4,-725.419 988.312,-716.031 978.618,-720.307 983.4,-725.419"/>
</g>
<!-- org.scalameta:foundation_2.11:0.1.0&#45;SNAPSHOT -->
<g id="node15" class="node"><title>org.scalameta:foundation_2.11:0.1.0&#45;SNAPSHOT</title>
<polygon fill="none" stroke="black" points="1122.5,-573.73 1122.5,-623.73 1244.5,-623.73 1244.5,-573.73 1122.5,-573.73"/>
<text text-anchor="start" x="1144.5" y="-609.53" font-family="Times,serif" font-size="14.00">org.scalameta</text>
<text text-anchor="start" x="1135" y="-595.53" font-family="Times,serif" font-weight="bold" font-size="14.00">foundation_2.11</text>
<text text-anchor="start" x="1130.5" y="-581.53" font-family="Times,serif" font-size="14.00">0.1.0&#45;SNAPSHOT</text>
</g>
<!-- org.scalameta:scalameta_2.11:0.1.0&#45;SNAPSHOT&#45;&gt;org.scalameta:foundation_2.11:0.1.0&#45;SNAPSHOT -->
<g id="edge37" class="edge"><title>org.scalameta:scalameta_2.11:0.1.0&#45;SNAPSHOT&#45;&gt;org.scalameta:foundation_2.11:0.1.0&#45;SNAPSHOT</title>
<path fill="none" stroke="black" d="M66.6316,-601.842C76.163,-647.048 101.959,-742.801 158,-800.73 232.376,-877.612 269.03,-902.73 376,-902.73 376,-902.73 376,-902.73 694,-902.73 871.649,-902.73 942.975,-914.572 1081,-802.73 1134.86,-759.086 1162.55,-679.598 1174.65,-633.793"/>
<polygon fill="black" stroke="black" points="1178.07,-634.562 1177.13,-624.008 1171.28,-632.839 1178.07,-634.562"/>
</g>
<!-- org.scala&#45;lang:scala&#45;library:2.11.7 -->
<g id="node16" class="node"><title>org.scala&#45;lang:scala&#45;library:2.11.7</title>
<polygon fill="none" stroke="black" points="1436,-279.73 1436,-329.73 1531,-329.73 1531,-279.73 1436,-279.73"/>
<text text-anchor="start" x="1444" y="-315.53" font-family="Times,serif" font-size="14.00">org.scala&#45;lang</text>
<text text-anchor="start" x="1445" y="-301.53" font-family="Times,serif" font-weight="bold" font-size="14.00">scala&#45;library</text>
<text text-anchor="start" x="1465.5" y="-287.53" font-family="Times,serif" font-size="14.00">2.11.7</text>
</g>
<!-- org.scalameta:scalameta_2.11:0.1.0&#45;SNAPSHOT&#45;&gt;org.scala&#45;lang:scala&#45;library:2.11.7 -->
<g id="edge51" class="edge"><title>org.scalameta:scalameta_2.11:0.1.0&#45;SNAPSHOT&#45;&gt;org.scala&#45;lang:scala&#45;library:2.11.7</title>
<path fill="none" stroke="black" d="M63.6881,-551.503C72.5518,-441.191 123.489,-6.73034 376,-6.73034 376,-6.73034 376,-6.73034 1184.5,-6.73034 1281.53,-6.73034 1326.66,21.8067 1400,-41.7303 1467.25,-99.9898 1480.33,-212.352 1482.46,-269.498"/>
<polygon fill="black" stroke="black" points="1478.96,-269.603 1482.73,-279.501 1485.95,-269.407 1478.96,-269.603"/>
</g>
<!-- org.scalameta:transversers_2.11:0.1.0&#45;SNAPSHOT&#45;&gt;org.scalameta:trees_2.11:0.1.0&#45;SNAPSHOT -->
<g id="edge8" class="edge"><title>org.scalameta:transversers_2.11:0.1.0&#45;SNAPSHOT&#45;&gt;org.scalameta:trees_2.11:0.1.0&#45;SNAPSHOT</title>
<path fill="none" stroke="black" d="M438.314,-543.608C446.786,-546.541 455.552,-549.575 464.183,-552.563"/>
<polygon fill="black" stroke="black" points="463.252,-555.944 473.847,-555.908 465.542,-549.329 463.252,-555.944"/>
</g>
<!-- org.scalameta:transversers_2.11:0.1.0&#45;SNAPSHOT&#45;&gt;org.scalameta:foundation_2.11:0.1.0&#45;SNAPSHOT -->
<g id="edge39" class="edge"><title>org.scalameta:transversers_2.11:0.1.0&#45;SNAPSHOT&#45;&gt;org.scalameta:foundation_2.11:0.1.0&#45;SNAPSHOT</title>
<path fill="none" stroke="black" d="M438.16,-527.812C481.944,-531.549 542.659,-536.814 596,-541.73 782.46,-558.916 1002.11,-580.665 1112.17,-591.667"/>
<polygon fill="black" stroke="black" points="1111.85,-595.153 1122.15,-592.665 1112.55,-588.188 1111.85,-595.153"/>
</g>
<!-- org.scalameta:quasiquotes_2.11:0.1.0&#45;SNAPSHOT&#45;&gt;org.scalameta:parsers_2.11:0.1.0&#45;SNAPSHOT -->
<g id="edge3" class="edge"><title>org.scalameta:quasiquotes_2.11:0.1.0&#45;SNAPSHOT&#45;&gt;org.scalameta:parsers_2.11:0.1.0&#45;SNAPSHOT</title>
<path fill="none" stroke="black" d="M280.314,-668.73C288.604,-668.73 297.175,-668.73 305.626,-668.73"/>
<polygon fill="black" stroke="black" points="305.847,-672.23 315.847,-668.73 305.847,-665.23 305.847,-672.23"/>
</g>
<!-- org.scalameta:quasiquotes_2.11:0.1.0&#45;SNAPSHOT&#45;&gt;org.scalameta:trees_2.11:0.1.0&#45;SNAPSHOT -->
<g id="edge6" class="edge"><title>org.scalameta:quasiquotes_2.11:0.1.0&#45;SNAPSHOT&#45;&gt;org.scalameta:trees_2.11:0.1.0&#45;SNAPSHOT</title>
<path fill="none" stroke="black" d="M280.134,-645.828C291.956,-641.603 304.316,-637.379 316,-633.73 365.02,-618.423 421.09,-603.826 464.089,-593.236"/>
<polygon fill="black" stroke="black" points="465.01,-596.614 473.89,-590.836 463.345,-589.815 465.01,-596.614"/>
</g>
<!-- org.scalameta:quasiquotes_2.11:0.1.0&#45;SNAPSHOT&#45;&gt;org.scalameta:foundation_2.11:0.1.0&#45;SNAPSHOT -->
<g id="edge36" class="edge"><title>org.scalameta:quasiquotes_2.11:0.1.0&#45;SNAPSHOT&#45;&gt;org.scalameta:foundation_2.11:0.1.0&#45;SNAPSHOT</title>
<path fill="none" stroke="black" d="M247.498,-693.766C299.405,-738.318 417.135,-826.73 534,-826.73 534,-826.73 534,-826.73 852,-826.73 958.69,-826.73 996.021,-819.238 1081,-754.73 1122.76,-723.033 1152.35,-668.853 1168.43,-633.42"/>
<polygon fill="black" stroke="black" points="1171.77,-634.52 1172.61,-623.958 1165.37,-631.694 1171.77,-634.52"/>
</g>
<!-- org.scalameta:parsers_2.11:0.1.0&#45;SNAPSHOT&#45;&gt;org.scalameta:trees_2.11:0.1.0&#45;SNAPSHOT -->
<g id="edge5" class="edge"><title>org.scalameta:parsers_2.11:0.1.0&#45;SNAPSHOT&#45;&gt;org.scalameta:trees_2.11:0.1.0&#45;SNAPSHOT</title>
<path fill="none" stroke="black" d="M420.628,-643.591C439.802,-632.283 462.595,-618.841 482.697,-606.986"/>
<polygon fill="black" stroke="black" points="484.588,-609.934 491.424,-601.839 481.032,-603.904 484.588,-609.934"/>
</g>
<!-- org.scalameta:inputs_2.11:0.1.0&#45;SNAPSHOT -->
<g id="node13" class="node"><title>org.scalameta:inputs_2.11:0.1.0&#45;SNAPSHOT</title>
<polygon fill="none" stroke="black" points="953.5,-475.73 953.5,-525.73 1075.5,-525.73 1075.5,-475.73 953.5,-475.73"/>
<text text-anchor="start" x="975.5" y="-511.53" font-family="Times,serif" font-size="14.00">org.scalameta</text>
<text text-anchor="start" x="980" y="-497.53" font-family="Times,serif" font-weight="bold" font-size="14.00">inputs_2.11</text>
<text text-anchor="start" x="961.5" y="-483.53" font-family="Times,serif" font-size="14.00">0.1.0&#45;SNAPSHOT</text>
</g>
<!-- org.scalameta:parsers_2.11:0.1.0&#45;SNAPSHOT&#45;&gt;org.scalameta:inputs_2.11:0.1.0&#45;SNAPSHOT -->
<g id="edge22" class="edge"><title>org.scalameta:parsers_2.11:0.1.0&#45;SNAPSHOT&#45;&gt;org.scalameta:inputs_2.11:0.1.0&#45;SNAPSHOT</title>
<path fill="none" stroke="black" d="M438.072,-652.85C556.161,-621.632 817.946,-552.427 943.575,-519.216"/>
<polygon fill="black" stroke="black" points="944.703,-522.538 953.477,-516.598 942.914,-515.77 944.703,-522.538"/>
</g>
<!-- org.scalameta:parsers_2.11:0.1.0&#45;SNAPSHOT&#45;&gt;org.scalameta:dialects_2.11:0.1.0&#45;SNAPSHOT -->
<g id="edge26" class="edge"><title>org.scalameta:parsers_2.11:0.1.0&#45;SNAPSHOT&#45;&gt;org.scalameta:dialects_2.11:0.1.0&#45;SNAPSHOT</title>
<path fill="none" stroke="black" d="M438.072,-670.81C556.043,-674.894 817.421,-683.942 943.197,-688.297"/>
<polygon fill="black" stroke="black" points="943.362,-691.804 953.477,-688.652 943.604,-684.808 943.362,-691.804"/>
</g>
<!-- org.scalameta:parsers_2.11:0.1.0&#45;SNAPSHOT&#45;&gt;org.scalameta:foundation_2.11:0.1.0&#45;SNAPSHOT -->
<g id="edge33" class="edge"><title>org.scalameta:parsers_2.11:0.1.0&#45;SNAPSHOT&#45;&gt;org.scalameta:foundation_2.11:0.1.0&#45;SNAPSHOT</title>
<path fill="none" stroke="black" d="M436.998,-693.779C499.229,-717.893 600.726,-750.73 692,-750.73 692,-750.73 692,-750.73 852,-750.73 954.432,-750.73 991.249,-774.096 1081,-724.73 1119.03,-703.813 1148.13,-662.244 1165.22,-632.573"/>
<polygon fill="black" stroke="black" points="1168.31,-634.219 1170.14,-623.783 1162.2,-630.802 1168.31,-634.219"/>
</g>
<!-- org.scalameta:parsers_2.11:0.1.0&#45;SNAPSHOT&#45;&gt;org.scala&#45;lang:scala&#45;library:2.11.7 -->
<g id="edge49" class="edge"><title>org.scalameta:parsers_2.11:0.1.0&#45;SNAPSHOT&#45;&gt;org.scala&#45;lang:scala&#45;library:2.11.7</title>
<path fill="none" stroke="black" d="M404.344,-693.776C422.499,-709.552 447.965,-728.914 474,-739.73 723.207,-843.269 819.409,-821.021 1081,-754.73 1234.37,-715.865 1300.43,-719.685 1400,-596.73 1462.08,-520.07 1477.48,-399.325 1481.28,-340.005"/>
<polygon fill="black" stroke="black" points="1484.77,-340.189 1481.84,-330.007 1477.78,-339.794 1484.77,-340.189"/>
</g>
<!-- org.scalameta:trees_2.11:0.1.0&#45;SNAPSHOT&#45;&gt;org.scalameta:tokenizers_2.11:0.1.0&#45;SNAPSHOT -->
<g id="edge9" class="edge"><title>org.scalameta:trees_2.11:0.1.0&#45;SNAPSHOT&#45;&gt;org.scalameta:tokenizers_2.11:0.1.0&#45;SNAPSHOT</title>
<path fill="none" stroke="black" d="M543.442,-551.454C556.261,-511.248 585.677,-431.854 632,-378.73 634.565,-375.789 637.395,-372.971 640.387,-370.29"/>
<polygon fill="black" stroke="black" points="642.622,-372.983 648.101,-363.914 638.163,-367.587 642.622,-372.983"/>
</g>
<!-- org.scalameta:tokens_2.11:0.1.0&#45;SNAPSHOT -->
<g id="node11" class="node"><title>org.scalameta:tokens_2.11:0.1.0&#45;SNAPSHOT</title>
<polygon fill="none" stroke="black" points="790,-443.73 790,-493.73 912,-493.73 912,-443.73 790,-443.73"/>
<text text-anchor="start" x="812" y="-479.53" font-family="Times,serif" font-size="14.00">org.scalameta</text>
<text text-anchor="start" x="815.5" y="-465.53" font-family="Times,serif" font-weight="bold" font-size="14.00">tokens_2.11</text>
<text text-anchor="start" x="798" y="-451.53" font-family="Times,serif" font-size="14.00">0.1.0&#45;SNAPSHOT</text>
</g>
<!-- org.scalameta:trees_2.11:0.1.0&#45;SNAPSHOT&#45;&gt;org.scalameta:tokens_2.11:0.1.0&#45;SNAPSHOT -->
<g id="edge17" class="edge"><title>org.scalameta:trees_2.11:0.1.0&#45;SNAPSHOT&#45;&gt;org.scalameta:tokens_2.11:0.1.0&#45;SNAPSHOT</title>
<path fill="none" stroke="black" d="M596.171,-556.035C648.668,-537.978 724.862,-511.772 780.06,-492.786"/>
<polygon fill="black" stroke="black" points="781.448,-496.01 789.766,-489.448 779.171,-489.391 781.448,-496.01"/>
</g>
<!-- org.scalameta:trees_2.11:0.1.0&#45;SNAPSHOT&#45;&gt;org.scalameta:prettyprinters_2.11:0.1.0&#45;SNAPSHOT -->
<g id="edge19" class="edge"><title>org.scalameta:trees_2.11:0.1.0&#45;SNAPSHOT&#45;&gt;org.scalameta:prettyprinters_2.11:0.1.0&#45;SNAPSHOT</title>
<path fill="none" stroke="black" d="M563.037,-551.614C581.484,-535.37 607.016,-514.566 632,-499.73 731.177,-440.839 858.484,-398.213 938.043,-374.979"/>
<polygon fill="black" stroke="black" points="939.35,-378.245 947.984,-372.105 937.405,-371.521 939.35,-378.245"/>
</g>
<!-- org.scalameta:trees_2.11:0.1.0&#45;SNAPSHOT&#45;&gt;org.scalameta:dialects_2.11:0.1.0&#45;SNAPSHOT -->
<g id="edge25" class="edge"><title>org.scalameta:trees_2.11:0.1.0&#45;SNAPSHOT&#45;&gt;org.scalameta:dialects_2.11:0.1.0&#45;SNAPSHOT</title>
<path fill="none" stroke="black" d="M596.04,-600.533C607.87,-604.857 620.257,-609.131 632,-612.73 738.55,-645.387 866.069,-668.329 943.369,-680.526"/>
<polygon fill="black" stroke="black" points="943.05,-684.019 953.471,-682.104 944.131,-677.103 943.05,-684.019"/>
</g>
<!-- org.scalameta:trees_2.11:0.1.0&#45;SNAPSHOT&#45;&gt;org.scalameta:foundation_2.11:0.1.0&#45;SNAPSHOT -->
<g id="edge30" class="edge"><title>org.scalameta:trees_2.11:0.1.0&#45;SNAPSHOT&#45;&gt;org.scalameta:foundation_2.11:0.1.0&#45;SNAPSHOT</title>
<path fill="none" stroke="black" d="M596.047,-587.675C647.356,-596.441 723.248,-608.023 790,-612.73 919.013,-621.828 951.97,-621.587 1081,-612.73 1091.15,-612.033 1101.84,-610.949 1112.31,-609.684"/>
<polygon fill="black" stroke="black" points="1112.78,-613.153 1122.26,-608.424 1111.9,-606.208 1112.78,-613.153"/>
</g>
<!-- org.scalameta:trees_2.11:0.1.0&#45;SNAPSHOT&#45;&gt;org.scala&#45;lang:scala&#45;library:2.11.7 -->
<g id="edge48" class="edge"><title>org.scalameta:trees_2.11:0.1.0&#45;SNAPSHOT&#45;&gt;org.scala&#45;lang:scala&#45;library:2.11.7</title>
<path fill="none" stroke="black" d="M536.007,-551.602C537.553,-495.795 550.051,-361.876 632,-303.73 759.38,-213.351 1257.04,-273.03 1426.01,-296.477"/>
<polygon fill="black" stroke="black" points="1425.56,-299.948 1435.95,-297.867 1426.53,-293.016 1425.56,-299.948"/>
</g>
<!-- com.lihaoyi:scalaparse_2.11:0.3.7 -->
<g id="node7" class="node"><title>com.lihaoyi:scalaparse_2.11:0.3.7</title>
<polygon fill="none" stroke="black" points="796,-107.73 796,-157.73 906,-157.73 906,-107.73 796,-107.73"/>
<text text-anchor="start" x="817.5" y="-143.53" font-family="Times,serif" font-size="14.00">com.lihaoyi</text>
<text text-anchor="start" x="804" y="-129.53" font-family="Times,serif" font-weight="bold" font-size="14.00">scalaparse_2.11</text>
<text text-anchor="start" x="836.5" y="-115.53" font-family="Times,serif" font-size="14.00">0.3.7</text>
</g>
<!-- org.scalameta:tokenizers_2.11:0.1.0&#45;SNAPSHOT&#45;&gt;com.lihaoyi:scalaparse_2.11:0.3.7 -->
<g id="edge11" class="edge"><title>org.scalameta:tokenizers_2.11:0.1.0&#45;SNAPSHOT&#45;&gt;com.lihaoyi:scalaparse_2.11:0.3.7</title>
<path fill="none" stroke="black" d="M713.129,-313.471C741.216,-276.382 793.651,-207.14 824.832,-165.965"/>
<polygon fill="black" stroke="black" points="827.712,-167.959 830.959,-157.874 822.132,-163.733 827.712,-167.959"/>
</g>
<!-- org.scalameta:tokenizers_2.11:0.1.0&#45;SNAPSHOT&#45;&gt;org.scalameta:tokens_2.11:0.1.0&#45;SNAPSHOT -->
<g id="edge18" class="edge"><title>org.scalameta:tokenizers_2.11:0.1.0&#45;SNAPSHOT&#45;&gt;org.scalameta:tokens_2.11:0.1.0&#45;SNAPSHOT</title>
<path fill="none" stroke="black" d="M718.64,-363.99C737.45,-382.725 764.405,-408.429 790,-428.73 793.785,-431.733 797.793,-434.739 801.87,-437.68"/>
<polygon fill="black" stroke="black" points="800.094,-440.71 810.287,-443.602 804.122,-434.985 800.094,-440.71"/>
</g>
<!-- org.scalameta:tokenizers_2.11:0.1.0&#45;SNAPSHOT&#45;&gt;org.scalameta:inputs_2.11:0.1.0&#45;SNAPSHOT -->
<g id="edge24" class="edge"><title>org.scalameta:tokenizers_2.11:0.1.0&#45;SNAPSHOT&#45;&gt;org.scalameta:inputs_2.11:0.1.0&#45;SNAPSHOT</title>
<path fill="none" stroke="black" d="M754.105,-360.556C798.937,-377.864 860.98,-404.026 912,-433.73 929.284,-443.793 931.447,-449.506 948,-460.73 952.618,-463.862 957.478,-467.039 962.377,-470.163"/>
<polygon fill="black" stroke="black" points="960.865,-473.347 971.193,-475.708 964.592,-467.422 960.865,-473.347"/>
</g>
<!-- org.scalameta:tokenizers_2.11:0.1.0&#45;SNAPSHOT&#45;&gt;org.scalameta:dialects_2.11:0.1.0&#45;SNAPSHOT -->
<g id="edge29" class="edge"><title>org.scalameta:tokenizers_2.11:0.1.0&#45;SNAPSHOT&#45;&gt;org.scalameta:dialects_2.11:0.1.0&#45;SNAPSHOT</title>
<path fill="none" stroke="black" d="M705.3,-363.762C721.231,-397.47 752.57,-458.339 790,-502.73 843.496,-566.176 919.946,-625.342 968.131,-659.766"/>
<polygon fill="black" stroke="black" points="966.312,-662.766 976.494,-665.695 970.36,-657.056 966.312,-662.766"/>
</g>
<!-- org.scalameta:tokenizers_2.11:0.1.0&#45;SNAPSHOT&#45;&gt;org.scalameta:foundation_2.11:0.1.0&#45;SNAPSHOT -->
<g id="edge38" class="edge"><title>org.scalameta:tokenizers_2.11:0.1.0&#45;SNAPSHOT&#45;&gt;org.scalameta:foundation_2.11:0.1.0&#45;SNAPSHOT</title>
<path fill="none" stroke="black" d="M754.116,-342.048C798.678,-345.882 860.377,-354.111 912,-371.73 932.335,-378.671 1064.75,-451.671 1081,-465.73 1114.44,-494.666 1144.01,-536.226 1162.48,-565.16"/>
<polygon fill="black" stroke="black" points="1159.56,-567.1 1167.85,-573.706 1165.49,-563.376 1159.56,-567.1"/>
</g>
<!-- org.scalameta:tokenizers_2.11:0.1.0&#45;SNAPSHOT&#45;&gt;org.scala&#45;lang:scala&#45;library:2.11.7 -->
<g id="edge47" class="edge"><title>org.scalameta:tokenizers_2.11:0.1.0&#45;SNAPSHOT&#45;&gt;org.scala&#45;lang:scala&#45;library:2.11.7</title>
<path fill="none" stroke="black" d="M754.252,-333.429C805.686,-329.093 881.646,-323.141 948,-319.73 1121.98,-310.787 1328.11,-306.895 1425.76,-305.454"/>
<polygon fill="black" stroke="black" points="1426.05,-308.951 1436,-305.307 1425.95,-301.951 1426.05,-308.951"/>
</g>
<!-- com.lihaoyi:fastparse_2.11:0.3.7 -->
<g id="node8" class="node"><title>com.lihaoyi:fastparse_2.11:0.3.7</title>
<polygon fill="none" stroke="black" points="963.5,-130.73 963.5,-180.73 1065.5,-180.73 1065.5,-130.73 963.5,-130.73"/>
<text text-anchor="start" x="981" y="-166.53" font-family="Times,serif" font-size="14.00">com.lihaoyi</text>
<text text-anchor="start" x="971.5" y="-152.53" font-family="Times,serif" font-weight="bold" font-size="14.00">fastparse_2.11</text>
<text text-anchor="start" x="1000" y="-138.53" font-family="Times,serif" font-size="14.00">0.3.7</text>
</g>
<!-- com.lihaoyi:scalaparse_2.11:0.3.7&#45;&gt;com.lihaoyi:fastparse_2.11:0.3.7 -->
<g id="edge12" class="edge"><title>com.lihaoyi:scalaparse_2.11:0.3.7&#45;&gt;com.lihaoyi:fastparse_2.11:0.3.7</title>
<path fill="none" stroke="black" d="M906.226,-140.453C921.336,-142.605 937.838,-144.955 953.27,-147.153"/>
<polygon fill="black" stroke="black" points="952.838,-150.626 963.231,-148.571 953.825,-143.696 952.838,-150.626"/>
</g>
<!-- com.lihaoyi:sourcecode_2.11:0.1.1 -->
<g id="node10" class="node"><title>com.lihaoyi:sourcecode_2.11:0.1.1</title>
<polygon fill="none" stroke="black" points="1286,-99.7303 1286,-149.73 1400,-149.73 1400,-99.7303 1286,-99.7303"/>
<text text-anchor="start" x="1309.5" y="-135.53" font-family="Times,serif" font-size="14.00">com.lihaoyi</text>
<text text-anchor="start" x="1294" y="-121.53" font-family="Times,serif" font-weight="bold" font-size="14.00">sourcecode_2.11</text>
<text text-anchor="start" x="1328.5" y="-107.53" font-family="Times,serif" font-size="14.00">0.1.1</text>
</g>
<!-- com.lihaoyi:scalaparse_2.11:0.3.7&#45;&gt;com.lihaoyi:sourcecode_2.11:0.1.1 -->
<g id="edge16" class="edge"><title>com.lihaoyi:scalaparse_2.11:0.3.7&#45;&gt;com.lihaoyi:sourcecode_2.11:0.1.1</title>
<path fill="none" stroke="black" d="M906.213,-124.759C919.824,-123.087 934.421,-121.576 948,-120.73 1063,-113.571 1197.24,-117.564 1275.61,-121.134"/>
<polygon fill="black" stroke="black" points="1275.67,-124.64 1285.82,-121.611 1276,-117.648 1275.67,-124.64"/>
</g>
<!-- com.lihaoyi:scalaparse_2.11:0.3.7&#45;&gt;org.scala&#45;lang:scala&#45;library:2.11.7 -->
<g id="edge52" class="edge"><title>com.lihaoyi:scalaparse_2.11:0.3.7&#45;&gt;org.scala&#45;lang:scala&#45;library:2.11.7</title>
<path fill="none" stroke="black" d="M906.012,-107.932C1011.39,-63.6269 1247.43,15.1418 1400,-89.7303 1459.21,-130.431 1475.95,-219.945 1480.66,-269.678"/>
<polygon fill="black" stroke="black" points="1477.18,-269.981 1481.5,-279.655 1484.15,-269.398 1477.18,-269.981"/>
</g>
<!-- com.lihaoyi:fastparse&#45;utils_2.11:0.3.7 -->
<g id="node9" class="node"><title>com.lihaoyi:fastparse&#45;utils_2.11:0.3.7</title>
<polygon fill="none" stroke="black" points="1117,-149.73 1117,-199.73 1250,-199.73 1250,-149.73 1117,-149.73"/>
<text text-anchor="start" x="1150" y="-185.53" font-family="Times,serif" font-size="14.00">com.lihaoyi</text>
<text text-anchor="start" x="1125" y="-171.53" font-family="Times,serif" font-weight="bold" font-size="14.00">fastparse&#45;utils_2.11</text>
<text text-anchor="start" x="1169" y="-157.53" font-family="Times,serif" font-size="14.00">0.3.7</text>
</g>
<!-- com.lihaoyi:fastparse_2.11:0.3.7&#45;&gt;com.lihaoyi:fastparse&#45;utils_2.11:0.3.7 -->
<g id="edge13" class="edge"><title>com.lihaoyi:fastparse_2.11:0.3.7&#45;&gt;com.lihaoyi:fastparse&#45;utils_2.11:0.3.7</title>
<path fill="none" stroke="black" d="M1065.61,-161.431C1078.59,-162.909 1092.87,-164.533 1106.86,-166.124"/>
<polygon fill="black" stroke="black" points="1106.63,-169.621 1116.96,-167.274 1107.42,-162.666 1106.63,-169.621"/>
</g>
<!-- com.lihaoyi:fastparse_2.11:0.3.7&#45;&gt;com.lihaoyi:sourcecode_2.11:0.1.1 -->
<g id="edge15" class="edge"><title>com.lihaoyi:fastparse_2.11:0.3.7&#45;&gt;com.lihaoyi:sourcecode_2.11:0.1.1</title>
<path fill="none" stroke="black" d="M1065.72,-146.9C1082.03,-144.276 1100.25,-141.605 1117,-139.73 1170.24,-133.772 1230.85,-129.897 1275.74,-127.582"/>
<polygon fill="black" stroke="black" points="1276.12,-131.067 1285.93,-127.069 1275.77,-124.076 1276.12,-131.067"/>
</g>
<!-- com.lihaoyi:fastparse_2.11:0.3.7&#45;&gt;org.scala&#45;lang:scala&#45;library:2.11.7 -->
<g id="edge50" class="edge"><title>com.lihaoyi:fastparse_2.11:0.3.7&#45;&gt;org.scala&#45;lang:scala&#45;library:2.11.7</title>
<path fill="none" stroke="black" d="M1056.13,-180.844C1074.17,-190.957 1096.04,-201.837 1117,-208.73 1237.92,-248.497 1280.8,-208.09 1400,-252.73 1414.17,-258.037 1428.5,-265.977 1441.16,-274.064"/>
<polygon fill="black" stroke="black" points="1439.35,-277.066 1449.62,-279.655 1443.21,-271.225 1439.35,-277.066"/>
</g>
<!-- com.lihaoyi:fastparse&#45;utils_2.11:0.3.7&#45;&gt;com.lihaoyi:sourcecode_2.11:0.1.1 -->
<g id="edge14" class="edge"><title>com.lihaoyi:fastparse&#45;utils_2.11:0.3.7&#45;&gt;com.lihaoyi:sourcecode_2.11:0.1.1</title>
<path fill="none" stroke="black" d="M1250.38,-153.816C1258.96,-151.094 1267.74,-148.305 1276.31,-145.584"/>
<polygon fill="black" stroke="black" points="1277.4,-148.909 1285.88,-142.548 1275.29,-142.238 1277.4,-148.909"/>
</g>
<!-- com.lihaoyi:fastparse&#45;utils_2.11:0.3.7&#45;&gt;org.scala&#45;lang:scala&#45;library:2.11.7 -->
<g id="edge42" class="edge"><title>com.lihaoyi:fastparse&#45;utils_2.11:0.3.7&#45;&gt;org.scala&#45;lang:scala&#45;library:2.11.7</title>
<path fill="none" stroke="black" d="M1250.38,-176.163C1295.04,-179.636 1354.07,-189.27 1400,-214.73 1424.49,-228.309 1445.68,-251.845 1460.45,-271.443"/>
<polygon fill="black" stroke="black" points="1457.65,-273.548 1466.38,-279.561 1463.31,-269.42 1457.65,-273.548"/>
</g>
<!-- com.lihaoyi:sourcecode_2.11:0.1.1&#45;&gt;org.scala&#45;lang:scala&#45;library:2.11.7 -->
<g id="edge46" class="edge"><title>com.lihaoyi:sourcecode_2.11:0.1.1&#45;&gt;org.scala&#45;lang:scala&#45;library:2.11.7</title>
<path fill="none" stroke="black" d="M1380.05,-149.92C1387.08,-155.672 1394.1,-162.067 1400,-168.73 1427.56,-199.835 1451.23,-241.367 1466.05,-270.318"/>
<polygon fill="black" stroke="black" points="1463.11,-272.262 1470.74,-279.621 1469.37,-269.115 1463.11,-272.262"/>
</g>
<!-- org.scalameta:tokens_2.11:0.1.0&#45;SNAPSHOT&#45;&gt;org.scalameta:prettyprinters_2.11:0.1.0&#45;SNAPSHOT -->
<g id="edge20" class="edge"><title>org.scalameta:tokens_2.11:0.1.0&#45;SNAPSHOT&#45;&gt;org.scalameta:prettyprinters_2.11:0.1.0&#45;SNAPSHOT</title>
<path fill="none" stroke="black" d="M882.924,-443.522C901.432,-428.784 925.633,-410.114 948,-394.73 952.529,-391.616 957.298,-388.466 962.114,-385.374"/>
<polygon fill="black" stroke="black" points="964.207,-388.192 970.79,-379.89 960.467,-382.275 964.207,-388.192"/>
</g>
<!-- org.scalameta:tokens_2.11:0.1.0&#45;SNAPSHOT&#45;&gt;org.scalameta:inputs_2.11:0.1.0&#45;SNAPSHOT -->
<g id="edge23" class="edge"><title>org.scalameta:tokens_2.11:0.1.0&#45;SNAPSHOT&#45;&gt;org.scalameta:inputs_2.11:0.1.0&#45;SNAPSHOT</title>
<path fill="none" stroke="black" d="M912.137,-480.646C922.331,-482.666 932.995,-484.779 943.417,-486.844"/>
<polygon fill="black" stroke="black" points="942.824,-490.294 953.313,-488.805 944.184,-483.428 942.824,-490.294"/>
</g>
<!-- org.scalameta:tokens_2.11:0.1.0&#45;SNAPSHOT&#45;&gt;org.scalameta:dialects_2.11:0.1.0&#45;SNAPSHOT -->
<g id="edge27" class="edge"><title>org.scalameta:tokens_2.11:0.1.0&#45;SNAPSHOT&#45;&gt;org.scalameta:dialects_2.11:0.1.0&#45;SNAPSHOT</title>
<path fill="none" stroke="black" d="M895.314,-493.929C901.299,-498.426 907.073,-503.396 912,-508.73 914.83,-511.794 966.261,-604.901 994.798,-656.725"/>
<polygon fill="black" stroke="black" points="991.787,-658.512 999.675,-665.584 997.919,-655.136 991.787,-658.512"/>
</g>
<!-- org.scalameta:tokens_2.11:0.1.0&#45;SNAPSHOT&#45;&gt;org.scalameta:foundation_2.11:0.1.0&#45;SNAPSHOT -->
<g id="edge34" class="edge"><title>org.scalameta:tokens_2.11:0.1.0&#45;SNAPSHOT&#45;&gt;org.scalameta:foundation_2.11:0.1.0&#45;SNAPSHOT</title>
<path fill="none" stroke="black" d="M890.234,-493.909C897.495,-498.779 905.006,-503.876 912,-508.73 928.214,-519.984 930.194,-526.218 948,-534.73 1000.43,-559.796 1064.31,-576.413 1112.14,-586.419"/>
<polygon fill="black" stroke="black" points="1111.6,-589.88 1122.1,-588.455 1113,-583.022 1111.6,-589.88"/>
</g>
<!-- org.scalameta:tokens_2.11:0.1.0&#45;SNAPSHOT&#45;&gt;org.scala&#45;lang:scala&#45;library:2.11.7 -->
<g id="edge44" class="edge"><title>org.scalameta:tokens_2.11:0.1.0&#45;SNAPSHOT&#45;&gt;org.scala&#45;lang:scala&#45;library:2.11.7</title>
<path fill="none" stroke="black" d="M912.113,-458.055C1013.95,-439.201 1226.29,-396.567 1400,-339.73 1408.69,-336.888 1417.73,-333.507 1426.51,-329.984"/>
<polygon fill="black" stroke="black" points="1427.99,-333.162 1435.91,-326.124 1425.33,-326.687 1427.99,-333.162"/>
</g>
<!-- org.scalameta:prettyprinters_2.11:0.1.0&#45;SNAPSHOT&#45;&gt;org.scalameta:foundation_2.11:0.1.0&#45;SNAPSHOT -->
<g id="edge32" class="edge"><title>org.scalameta:prettyprinters_2.11:0.1.0&#45;SNAPSHOT&#45;&gt;org.scalameta:foundation_2.11:0.1.0&#45;SNAPSHOT</title>
<path fill="none" stroke="black" d="M1038.34,-379.95C1051.41,-394.857 1067.78,-414.357 1081,-432.73 1112.47,-476.468 1144.12,-530.145 1163.52,-564.397"/>
<polygon fill="black" stroke="black" points="1160.7,-566.521 1168.66,-573.518 1166.8,-563.087 1160.7,-566.521"/>
</g>
<!-- org.scalameta:prettyprinters_2.11:0.1.0&#45;SNAPSHOT&#45;&gt;org.scala&#45;lang:scala&#45;library:2.11.7 -->
<g id="edge41" class="edge"><title>org.scalameta:prettyprinters_2.11:0.1.0&#45;SNAPSHOT&#45;&gt;org.scala&#45;lang:scala&#45;library:2.11.7</title>
<path fill="none" stroke="black" d="M1081.32,-350.072C1158.02,-344.296 1288.49,-333.391 1400,-318.73 1408.39,-317.628 1417.22,-316.303 1425.88,-314.913"/>
<polygon fill="black" stroke="black" points="1426.61,-318.34 1435.91,-313.262 1425.47,-311.433 1426.61,-318.34"/>
</g>
<!-- org.scalameta:inputs_2.11:0.1.0&#45;SNAPSHOT&#45;&gt;org.scalameta:foundation_2.11:0.1.0&#45;SNAPSHOT -->
<g id="edge31" class="edge"><title>org.scalameta:inputs_2.11:0.1.0&#45;SNAPSHOT&#45;&gt;org.scalameta:foundation_2.11:0.1.0&#45;SNAPSHOT</title>
<path fill="none" stroke="black" d="M1058.51,-525.968C1080.62,-538.942 1107.72,-554.849 1130.95,-568.478"/>
<polygon fill="black" stroke="black" points="1129.24,-571.536 1139.64,-573.578 1132.79,-565.499 1129.24,-571.536"/>
</g>
<!-- org.scalameta:inputs_2.11:0.1.0&#45;SNAPSHOT&#45;&gt;org.scala&#45;lang:scala&#45;library:2.11.7 -->
<g id="edge40" class="edge"><title>org.scalameta:inputs_2.11:0.1.0&#45;SNAPSHOT&#45;&gt;org.scala&#45;lang:scala&#45;library:2.11.7</title>
<path fill="none" stroke="black" d="M1075.65,-501.893C1156.02,-500.648 1299.89,-488.373 1400,-422.73 1431.04,-402.377 1453.83,-365.933 1467.49,-338.914"/>
<polygon fill="black" stroke="black" points="1470.71,-340.314 1471.95,-329.792 1464.41,-337.244 1470.71,-340.314"/>
</g>
<!-- org.scalameta:dialects_2.11:0.1.0&#45;SNAPSHOT&#45;&gt;org.scalameta:foundation_2.11:0.1.0&#45;SNAPSHOT -->
<g id="edge35" class="edge"><title>org.scalameta:dialects_2.11:0.1.0&#45;SNAPSHOT&#45;&gt;org.scalameta:foundation_2.11:0.1.0&#45;SNAPSHOT</title>
<path fill="none" stroke="black" d="M1061.13,-665.591C1081.84,-654.182 1106.5,-640.6 1128.16,-628.668"/>
<polygon fill="black" stroke="black" points="1129.85,-631.73 1136.92,-623.839 1126.47,-625.599 1129.85,-631.73"/>
</g>
<!-- org.scalameta:dialects_2.11:0.1.0&#45;SNAPSHOT&#45;&gt;org.scala&#45;lang:scala&#45;library:2.11.7 -->
<g id="edge45" class="edge"><title>org.scalameta:dialects_2.11:0.1.0&#45;SNAPSHOT&#45;&gt;org.scala&#45;lang:scala&#45;library:2.11.7</title>
<path fill="none" stroke="black" d="M1075.67,-685.318C1161.91,-674.139 1319.16,-640.373 1400,-539.73 1448.28,-479.618 1469.33,-389.231 1477.66,-339.91"/>
<polygon fill="black" stroke="black" points="1481.11,-340.463 1479.25,-330.034 1474.2,-339.351 1481.11,-340.463"/>
</g>
<!-- org.scalameta:foundation_2.11:0.1.0&#45;SNAPSHOT&#45;&gt;org.scala&#45;lang:scala&#45;library:2.11.7 -->
<g id="edge43" class="edge"><title>org.scalameta:foundation_2.11:0.1.0&#45;SNAPSHOT&#45;&gt;org.scala&#45;lang:scala&#45;library:2.11.7</title>
<path fill="none" stroke="black" d="M1244.79,-580.077C1292.23,-562.743 1357.26,-532.752 1400,-487.73 1440.28,-445.295 1463.21,-379.814 1474.22,-339.764"/>
<polygon fill="black" stroke="black" points="1477.65,-340.479 1476.83,-329.916 1470.89,-338.686 1477.65,-340.479"/>
</g>
</g>
</svg>
