<?xml version="1.0" encoding="UTF-8" standalone="no"?>
<!DOCTYPE svg PUBLIC "-//W3C//DTD SVG 1.1//EN"
 "http://www.w3.org/Graphics/SVG/1.1/DTD/svg11.dtd">
<!-- Generated by graphviz version 2.38.0 (20140413.2041)
 -->
<!-- Title: dependency&#45;graph Pages: 1 -->
<svg width="1539pt" height="802pt"
 viewBox="0.00 0.00 1539.00 802.22" xmlns="http://www.w3.org/2000/svg" xmlns:xlink="http://www.w3.org/1999/xlink">
<g id="graph0" class="graph" transform="scale(1 1) rotate(0) translate(4 798.219)">
<title>dependency&#45;graph</title>
<polygon fill="white" stroke="none" points="-4,4 -4,-798.219 1535,-798.219 1535,4 -4,4"/>
<!-- org.scalameta:scalameta_2.11:0.1.0&#45;SNAPSHOT -->
<g id="node1" class="node"><title>org.scalameta:scalameta_2.11:0.1.0&#45;SNAPSHOT</title>
<polygon fill="none" stroke="black" points="0,-335.219 0,-385.219 122,-385.219 122,-335.219 0,-335.219"/>
<text text-anchor="start" x="22" y="-371.019" font-family="Times,serif" font-size="14.00">org.scalameta</text>
<text text-anchor="start" x="15.5" y="-357.019" font-family="Times,serif" font-weight="bold" font-size="14.00">scalameta_2.11</text>
<text text-anchor="start" x="8" y="-343.019" font-family="Times,serif" font-size="14.00">0.1.0&#45;SNAPSHOT</text>
</g>
<!-- org.scalameta:quasiquotes_2.11:0.1.0&#45;SNAPSHOT -->
<g id="node2" class="node"><title>org.scalameta:quasiquotes_2.11:0.1.0&#45;SNAPSHOT</title>
<polygon fill="none" stroke="black" points="158,-465.219 158,-515.219 280,-515.219 280,-465.219 158,-465.219"/>
<text text-anchor="start" x="180" y="-501.019" font-family="Times,serif" font-size="14.00">org.scalameta</text>
<text text-anchor="start" x="167.5" y="-487.019" font-family="Times,serif" font-weight="bold" font-size="14.00">quasiquotes_2.11</text>
<text text-anchor="start" x="166" y="-473.019" font-family="Times,serif" font-size="14.00">0.1.0&#45;SNAPSHOT</text>
</g>
<!-- org.scalameta:scalameta_2.11:0.1.0&#45;SNAPSHOT&#45;&gt;org.scalameta:quasiquotes_2.11:0.1.0&#45;SNAPSHOT -->
<g id="edge1" class="edge"><title>org.scalameta:scalameta_2.11:0.1.0&#45;SNAPSHOT&#45;&gt;org.scalameta:quasiquotes_2.11:0.1.0&#45;SNAPSHOT</title>
<path fill="none" stroke="black" d="M92.0784,-385.284C117.14,-406.169 152.978,-436.034 180.017,-458.567"/>
<polygon fill="black" stroke="black" points="177.825,-461.296 187.748,-465.009 182.307,-455.919 177.825,-461.296"/>
</g>
<!-- org.scalameta:parsers_2.11:0.1.0&#45;SNAPSHOT -->
<g id="node3" class="node"><title>org.scalameta:parsers_2.11:0.1.0&#45;SNAPSHOT</title>
<polygon fill="none" stroke="black" points="316,-665.219 316,-715.219 438,-715.219 438,-665.219 316,-665.219"/>
<text text-anchor="start" x="338" y="-701.019" font-family="Times,serif" font-size="14.00">org.scalameta</text>
<text text-anchor="start" x="339" y="-687.019" font-family="Times,serif" font-weight="bold" font-size="14.00">parsers_2.11</text>
<text text-anchor="start" x="324" y="-673.019" font-family="Times,serif" font-size="14.00">0.1.0&#45;SNAPSHOT</text>
</g>
<!-- org.scalameta:scalameta_2.11:0.1.0&#45;SNAPSHOT&#45;&gt;org.scalameta:parsers_2.11:0.1.0&#45;SNAPSHOT -->
<g id="edge3" class="edge"><title>org.scalameta:scalameta_2.11:0.1.0&#45;SNAPSHOT&#45;&gt;org.scalameta:parsers_2.11:0.1.0&#45;SNAPSHOT</title>
<path fill="none" stroke="black" d="M67.0844,-385.427C77.208,-429.862 103.741,-522.842 158,-580.219 198.466,-623.011 259.215,-651.754 306.314,-669.093"/>
<polygon fill="black" stroke="black" points="305.249,-672.43 315.843,-672.516 307.615,-665.842 305.249,-672.43"/>
</g>
<!-- org.scalameta:tql_2.11:0.1.0&#45;SNAPSHOT -->
<g id="node4" class="node"><title>org.scalameta:tql_2.11:0.1.0&#45;SNAPSHOT</title>
<polygon fill="none" stroke="black" points="316,-335.219 316,-385.219 438,-385.219 438,-335.219 316,-335.219"/>
<text text-anchor="start" x="338" y="-371.019" font-family="Times,serif" font-size="14.00">org.scalameta</text>
<text text-anchor="start" x="353" y="-357.019" font-family="Times,serif" font-weight="bold" font-size="14.00">tql_2.11</text>
<text text-anchor="start" x="324" y="-343.019" font-family="Times,serif" font-size="14.00">0.1.0&#45;SNAPSHOT</text>
</g>
<!-- org.scalameta:scalameta_2.11:0.1.0&#45;SNAPSHOT&#45;&gt;org.scalameta:tql_2.11:0.1.0&#45;SNAPSHOT -->
<g id="edge4" class="edge"><title>org.scalameta:scalameta_2.11:0.1.0&#45;SNAPSHOT&#45;&gt;org.scalameta:tql_2.11:0.1.0&#45;SNAPSHOT</title>
<path fill="none" stroke="black" d="M122.171,-360.219C174.559,-360.219 250.546,-360.219 305.717,-360.219"/>
<polygon fill="black" stroke="black" points="305.766,-363.719 315.766,-360.219 305.766,-356.719 305.766,-363.719"/>
</g>
<!-- org.scalameta:trees_2.11:0.1.0&#45;SNAPSHOT -->
<g id="node5" class="node"><title>org.scalameta:trees_2.11:0.1.0&#45;SNAPSHOT</title>
<polygon fill="none" stroke="black" points="474,-541.219 474,-591.219 596,-591.219 596,-541.219 474,-541.219"/>
<text text-anchor="start" x="496" y="-577.019" font-family="Times,serif" font-size="14.00">org.scalameta</text>
<text text-anchor="start" x="504.5" y="-563.019" font-family="Times,serif" font-weight="bold" font-size="14.00">trees_2.11</text>
<text text-anchor="start" x="482" y="-549.019" font-family="Times,serif" font-size="14.00">0.1.0&#45;SNAPSHOT</text>
</g>
<!-- org.scalameta:scalameta_2.11:0.1.0&#45;SNAPSHOT&#45;&gt;org.scalameta:trees_2.11:0.1.0&#45;SNAPSHOT -->
<g id="edge8" class="edge"><title>org.scalameta:scalameta_2.11:0.1.0&#45;SNAPSHOT&#45;&gt;org.scalameta:trees_2.11:0.1.0&#45;SNAPSHOT</title>
<path fill="none" stroke="black" d="M68.9107,-385.499C80.5414,-422.762 107.825,-491.538 158,-524.219 250.366,-584.382 383.217,-583.714 463.778,-576.116"/>
<polygon fill="black" stroke="black" points="464.221,-579.59 473.821,-575.108 463.521,-572.625 464.221,-579.59"/>
</g>
<!-- org.scalameta:tokenizers_2.11:0.1.0&#45;SNAPSHOT -->
<g id="node6" class="node"><title>org.scalameta:tokenizers_2.11:0.1.0&#45;SNAPSHOT</title>
<polygon fill="none" stroke="black" points="632,-297.219 632,-347.219 754,-347.219 754,-297.219 632,-297.219"/>
<text text-anchor="start" x="654" y="-333.019" font-family="Times,serif" font-size="14.00">org.scalameta</text>
<text text-anchor="start" x="646.5" y="-319.019" font-family="Times,serif" font-weight="bold" font-size="14.00">tokenizers_2.11</text>
<text text-anchor="start" x="640" y="-305.019" font-family="Times,serif" font-size="14.00">0.1.0&#45;SNAPSHOT</text>
</g>
<!-- org.scalameta:scalameta_2.11:0.1.0&#45;SNAPSHOT&#45;&gt;org.scalameta:tokenizers_2.11:0.1.0&#45;SNAPSHOT -->
<g id="edge10" class="edge"><title>org.scalameta:scalameta_2.11:0.1.0&#45;SNAPSHOT&#45;&gt;org.scalameta:tokenizers_2.11:0.1.0&#45;SNAPSHOT</title>
<path fill="none" stroke="black" d="M122.071,-349.715C173.394,-341.276 249.293,-330.061 316,-325.219 422.334,-317.501 546.024,-318.41 621.648,-320.079"/>
<polygon fill="black" stroke="black" points="621.915,-323.586 631.993,-320.319 622.077,-316.588 621.915,-323.586"/>
</g>
<!-- org.scalameta:prettyprinters_2.11:0.1.0&#45;SNAPSHOT -->
<g id="node13" class="node"><title>org.scalameta:prettyprinters_2.11:0.1.0&#45;SNAPSHOT</title>
<polygon fill="none" stroke="black" points="948,-481.219 948,-531.219 1081,-531.219 1081,-481.219 948,-481.219"/>
<text text-anchor="start" x="975.5" y="-517.019" font-family="Times,serif" font-size="14.00">org.scalameta</text>
<text text-anchor="start" x="956" y="-503.019" font-family="Times,serif" font-weight="bold" font-size="14.00">prettyprinters_2.11</text>
<text text-anchor="start" x="961.5" y="-489.019" font-family="Times,serif" font-size="14.00">0.1.0&#45;SNAPSHOT</text>
</g>
<!-- org.scalameta:scalameta_2.11:0.1.0&#45;SNAPSHOT&#45;&gt;org.scalameta:prettyprinters_2.11:0.1.0&#45;SNAPSHOT -->
<g id="edge25" class="edge"><title>org.scalameta:scalameta_2.11:0.1.0&#45;SNAPSHOT&#45;&gt;org.scalameta:prettyprinters_2.11:0.1.0&#45;SNAPSHOT</title>
<path fill="none" stroke="black" d="M122.254,-376.862C185.081,-392.728 286.668,-414.219 376,-414.219 376,-414.219 376,-414.219 536,-414.219 705.02,-414.219 747.875,-430.837 912,-471.219 920.64,-473.345 929.587,-475.895 938.426,-478.637"/>
<polygon fill="black" stroke="black" points="937.364,-481.972 947.955,-481.677 939.491,-475.303 937.364,-481.972"/>
</g>
<!-- org.scalameta:dialects_2.11:0.1.0&#45;SNAPSHOT -->
<g id="node14" class="node"><title>org.scalameta:dialects_2.11:0.1.0&#45;SNAPSHOT</title>
<polygon fill="none" stroke="black" points="953.5,-259.219 953.5,-309.219 1075.5,-309.219 1075.5,-259.219 953.5,-259.219"/>
<text text-anchor="start" x="975.5" y="-295.019" font-family="Times,serif" font-size="14.00">org.scalameta</text>
<text text-anchor="start" x="976" y="-281.019" font-family="Times,serif" font-weight="bold" font-size="14.00">dialects_2.11</text>
<text text-anchor="start" x="961.5" y="-267.019" font-family="Times,serif" font-size="14.00">0.1.0&#45;SNAPSHOT</text>
</g>
<!-- org.scalameta:scalameta_2.11:0.1.0&#45;SNAPSHOT&#45;&gt;org.scalameta:dialects_2.11:0.1.0&#45;SNAPSHOT -->
<g id="edge27" class="edge"><title>org.scalameta:scalameta_2.11:0.1.0&#45;SNAPSHOT&#45;&gt;org.scalameta:dialects_2.11:0.1.0&#45;SNAPSHOT</title>
<path fill="none" stroke="black" d="M113.699,-335.201C174.847,-307.958 280.425,-268.219 376,-268.219 376,-268.219 376,-268.219 694,-268.219 779.93,-268.219 878.698,-274.064 943.397,-278.688"/>
<polygon fill="black" stroke="black" points="943.254,-282.187 953.481,-279.419 943.76,-275.205 943.254,-282.187"/>
</g>
<!-- org.scalameta:foundation_2.11:0.1.0&#45;SNAPSHOT -->
<g id="node15" class="node"><title>org.scalameta:foundation_2.11:0.1.0&#45;SNAPSHOT</title>
<polygon fill="none" stroke="black" points="1122.5,-389.219 1122.5,-439.219 1244.5,-439.219 1244.5,-389.219 1122.5,-389.219"/>
<text text-anchor="start" x="1144.5" y="-425.019" font-family="Times,serif" font-size="14.00">org.scalameta</text>
<text text-anchor="start" x="1135" y="-411.019" font-family="Times,serif" font-weight="bold" font-size="14.00">foundation_2.11</text>
<text text-anchor="start" x="1130.5" y="-397.019" font-family="Times,serif" font-size="14.00">0.1.0&#45;SNAPSHOT</text>
</g>
<!-- org.scalameta:scalameta_2.11:0.1.0&#45;SNAPSHOT&#45;&gt;org.scalameta:foundation_2.11:0.1.0&#45;SNAPSHOT -->
<g id="edge36" class="edge"><title>org.scalameta:scalameta_2.11:0.1.0&#45;SNAPSHOT&#45;&gt;org.scalameta:foundation_2.11:0.1.0&#45;SNAPSHOT</title>
<path fill="none" stroke="black" d="M83.9212,-335.025C101.919,-315.961 129.077,-290.672 158,-276.219 246.58,-231.957 276.978,-230.219 376,-230.219 376,-230.219 376,-230.219 852,-230.219 954.127,-230.219 993.99,-195.747 1081,-249.219 1106.09,-264.64 1144.36,-336.195 1166.03,-379.855"/>
<polygon fill="black" stroke="black" points="1162.97,-381.554 1170.52,-388.982 1169.25,-378.464 1162.97,-381.554"/>
</g>
<!-- org.scala&#45;lang:scala&#45;library:2.11.7 -->
<g id="node16" class="node"><title>org.scala&#45;lang:scala&#45;library:2.11.7</title>
<polygon fill="none" stroke="black" points="1436,-289.219 1436,-339.219 1531,-339.219 1531,-289.219 1436,-289.219"/>
<text text-anchor="start" x="1444" y="-325.019" font-family="Times,serif" font-size="14.00">org.scala&#45;lang</text>
<text text-anchor="start" x="1445" y="-311.019" font-family="Times,serif" font-weight="bold" font-size="14.00">scala&#45;library</text>
<text text-anchor="start" x="1465.5" y="-297.019" font-family="Times,serif" font-size="14.00">2.11.7</text>
</g>
<!-- org.scalameta:scalameta_2.11:0.1.0&#45;SNAPSHOT&#45;&gt;org.scala&#45;lang:scala&#45;library:2.11.7 -->
<g id="edge49" class="edge"><title>org.scalameta:scalameta_2.11:0.1.0&#45;SNAPSHOT&#45;&gt;org.scala&#45;lang:scala&#45;library:2.11.7</title>
<path fill="none" stroke="black" d="M70.3307,-335.186C98.8383,-254.769 200.546,-8.21919 376,-8.21919 376,-8.21919 376,-8.21919 1184.5,-8.21919 1281.26,-8.21919 1326.69,23.9357 1400,-39.2192 1470.9,-100.292 1482.18,-219.675 1483.15,-279.007"/>
<polygon fill="black" stroke="black" points="1479.65,-279.045 1483.23,-289.019 1486.65,-278.993 1479.65,-279.045"/>
</g>
<!-- org.scalameta:quasiquotes_2.11:0.1.0&#45;SNAPSHOT&#45;&gt;org.scalameta:parsers_2.11:0.1.0&#45;SNAPSHOT -->
<g id="edge2" class="edge"><title>org.scalameta:quasiquotes_2.11:0.1.0&#45;SNAPSHOT&#45;&gt;org.scalameta:parsers_2.11:0.1.0&#45;SNAPSHOT</title>
<path fill="none" stroke="black" d="M239.758,-515.549C267.772,-551.466 319.075,-617.238 350.105,-657.02"/>
<polygon fill="black" stroke="black" points="347.493,-659.362 356.403,-665.095 353.012,-655.057 347.493,-659.362"/>
</g>
<!-- org.scalameta:quasiquotes_2.11:0.1.0&#45;SNAPSHOT&#45;&gt;org.scalameta:trees_2.11:0.1.0&#45;SNAPSHOT -->
<g id="edge7" class="edge"><title>org.scalameta:quasiquotes_2.11:0.1.0&#45;SNAPSHOT&#45;&gt;org.scalameta:trees_2.11:0.1.0&#45;SNAPSHOT</title>
<path fill="none" stroke="black" d="M280.171,-504.783C332.559,-517.463 408.546,-535.855 463.717,-549.208"/>
<polygon fill="black" stroke="black" points="463.223,-552.689 473.766,-551.64 464.87,-545.886 463.223,-552.689"/>
</g>
<!-- org.scalameta:tokens_2.11:0.1.0&#45;SNAPSHOT -->
<g id="node11" class="node"><title>org.scalameta:tokens_2.11:0.1.0&#45;SNAPSHOT</title>
<polygon fill="none" stroke="black" points="790,-481.219 790,-531.219 912,-531.219 912,-481.219 790,-481.219"/>
<text text-anchor="start" x="812" y="-517.019" font-family="Times,serif" font-size="14.00">org.scalameta</text>
<text text-anchor="start" x="815.5" y="-503.019" font-family="Times,serif" font-weight="bold" font-size="14.00">tokens_2.11</text>
<text text-anchor="start" x="798" y="-489.019" font-family="Times,serif" font-size="14.00">0.1.0&#45;SNAPSHOT</text>
</g>
<!-- org.scalameta:quasiquotes_2.11:0.1.0&#45;SNAPSHOT&#45;&gt;org.scalameta:tokens_2.11:0.1.0&#45;SNAPSHOT -->
<g id="edge19" class="edge"><title>org.scalameta:quasiquotes_2.11:0.1.0&#45;SNAPSHOT&#45;&gt;org.scalameta:tokens_2.11:0.1.0&#45;SNAPSHOT</title>
<path fill="none" stroke="black" d="M280.122,-491.746C397.09,-494.717 654.716,-501.26 779.505,-504.429"/>
<polygon fill="black" stroke="black" points="779.623,-507.933 789.708,-504.688 779.801,-500.935 779.623,-507.933"/>
</g>
<!-- org.scalameta:quasiquotes_2.11:0.1.0&#45;SNAPSHOT&#45;&gt;org.scalameta:foundation_2.11:0.1.0&#45;SNAPSHOT -->
<g id="edge35" class="edge"><title>org.scalameta:quasiquotes_2.11:0.1.0&#45;SNAPSHOT&#45;&gt;org.scalameta:foundation_2.11:0.1.0&#45;SNAPSHOT</title>
<path fill="none" stroke="black" d="M280.209,-485.465C449.769,-472.076 930.701,-434.102 1112.09,-419.779"/>
<polygon fill="black" stroke="black" points="1112.62,-423.248 1122.31,-418.972 1112.07,-416.27 1112.62,-423.248"/>
</g>
<!-- org.scalameta:parsers_2.11:0.1.0&#45;SNAPSHOT&#45;&gt;org.scalameta:trees_2.11:0.1.0&#45;SNAPSHOT -->
<g id="edge6" class="edge"><title>org.scalameta:parsers_2.11:0.1.0&#45;SNAPSHOT&#45;&gt;org.scalameta:trees_2.11:0.1.0&#45;SNAPSHOT</title>
<path fill="none" stroke="black" d="M409.569,-665.126C434.097,-645.629 468.256,-618.477 494.58,-597.553"/>
<polygon fill="black" stroke="black" points="496.828,-600.237 502.478,-591.275 492.472,-594.758 496.828,-600.237"/>
</g>
<!-- org.scalameta:parsers_2.11:0.1.0&#45;SNAPSHOT&#45;&gt;org.scalameta:tokens_2.11:0.1.0&#45;SNAPSHOT -->
<g id="edge18" class="edge"><title>org.scalameta:parsers_2.11:0.1.0&#45;SNAPSHOT&#45;&gt;org.scalameta:tokens_2.11:0.1.0&#45;SNAPSHOT</title>
<path fill="none" stroke="black" d="M438.112,-669.371C512.788,-643.121 643.813,-595.912 754,-550.219 765.048,-545.638 776.699,-540.534 787.928,-535.472"/>
<polygon fill="black" stroke="black" points="789.583,-538.565 797.239,-531.242 786.687,-532.192 789.583,-538.565"/>
</g>
<!-- org.scalameta:parsers_2.11:0.1.0&#45;SNAPSHOT&#45;&gt;org.scalameta:foundation_2.11:0.1.0&#45;SNAPSHOT -->
<g id="edge32" class="edge"><title>org.scalameta:parsers_2.11:0.1.0&#45;SNAPSHOT&#45;&gt;org.scalameta:foundation_2.11:0.1.0&#45;SNAPSHOT</title>
<path fill="none" stroke="black" d="M438.405,-710.7C569.11,-750.941 882.377,-824.941 1081,-686.219 1158.96,-631.768 1177.14,-509.836 1181.31,-449.466"/>
<polygon fill="black" stroke="black" points="1184.81,-449.477 1181.92,-439.286 1177.83,-449.059 1184.81,-449.477"/>
</g>
<!-- org.scalameta:parsers_2.11:0.1.0&#45;SNAPSHOT&#45;&gt;org.scala&#45;lang:scala&#45;library:2.11.7 -->
<g id="edge47" class="edge"><title>org.scalameta:parsers_2.11:0.1.0&#45;SNAPSHOT&#45;&gt;org.scala&#45;lang:scala&#45;library:2.11.7</title>
<path fill="none" stroke="black" d="M411.5,-715.339C429.25,-727.538 451.905,-741.423 474,-750.219 565.833,-786.779 593.157,-794.219 692,-794.219 692,-794.219 692,-794.219 1184.5,-794.219 1291.43,-794.219 1334.12,-771.446 1400,-687.219 1441.35,-634.359 1468.88,-431.966 1478.6,-349.5"/>
<polygon fill="black" stroke="black" points="1482.1,-349.706 1479.78,-339.369 1475.15,-348.899 1482.1,-349.706"/>
</g>
<!-- org.scalameta:tql_2.11:0.1.0&#45;SNAPSHOT&#45;&gt;org.scalameta:trees_2.11:0.1.0&#45;SNAPSHOT -->
<g id="edge5" class="edge"><title>org.scalameta:tql_2.11:0.1.0&#45;SNAPSHOT&#45;&gt;org.scalameta:trees_2.11:0.1.0&#45;SNAPSHOT</title>
<path fill="none" stroke="black" d="M397.129,-385.479C425.216,-422.568 477.651,-491.81 508.832,-532.985"/>
<polygon fill="black" stroke="black" points="506.132,-535.216 514.959,-541.075 511.712,-530.99 506.132,-535.216"/>
</g>
<!-- org.scalameta:tql_2.11:0.1.0&#45;SNAPSHOT&#45;&gt;org.scalameta:foundation_2.11:0.1.0&#45;SNAPSHOT -->
<g id="edge28" class="edge"><title>org.scalameta:tql_2.11:0.1.0&#45;SNAPSHOT&#45;&gt;org.scalameta:foundation_2.11:0.1.0&#45;SNAPSHOT</title>
<path fill="none" stroke="black" d="M438.15,-365.107C501.32,-369.812 603.573,-376.219 692,-376.219 692,-376.219 692,-376.219 852,-376.219 942.37,-376.219 1045.74,-390.415 1112.45,-401.453"/>
<polygon fill="black" stroke="black" points="1111.99,-404.924 1122.43,-403.126 1113.15,-398.021 1111.99,-404.924"/>
</g>
<!-- org.scalameta:trees_2.11:0.1.0&#45;SNAPSHOT&#45;&gt;org.scalameta:tokenizers_2.11:0.1.0&#45;SNAPSHOT -->
<g id="edge9" class="edge"><title>org.scalameta:trees_2.11:0.1.0&#45;SNAPSHOT&#45;&gt;org.scalameta:tokenizers_2.11:0.1.0&#45;SNAPSHOT</title>
<path fill="none" stroke="black" d="M552.107,-541.026C580.381,-496.803 638.935,-405.218 670.583,-355.717"/>
<polygon fill="black" stroke="black" points="673.543,-357.586 675.98,-347.275 667.645,-353.815 673.543,-357.586"/>
</g>
<!-- org.scalameta:trees_2.11:0.1.0&#45;SNAPSHOT&#45;&gt;org.scalameta:tokens_2.11:0.1.0&#45;SNAPSHOT -->
<g id="edge17" class="edge"><title>org.scalameta:trees_2.11:0.1.0&#45;SNAPSHOT&#45;&gt;org.scalameta:tokens_2.11:0.1.0&#45;SNAPSHOT</title>
<path fill="none" stroke="black" d="M596.171,-554.722C648.559,-544.711 724.546,-530.191 779.717,-519.649"/>
<polygon fill="black" stroke="black" points="780.6,-523.044 789.766,-517.729 779.287,-516.168 780.6,-523.044"/>
</g>
<!-- org.scalameta:inputs_2.11:0.1.0&#45;SNAPSHOT -->
<g id="node12" class="node"><title>org.scalameta:inputs_2.11:0.1.0&#45;SNAPSHOT</title>
<polygon fill="none" stroke="black" points="953.5,-627.219 953.5,-677.219 1075.5,-677.219 1075.5,-627.219 953.5,-627.219"/>
<text text-anchor="start" x="975.5" y="-663.019" font-family="Times,serif" font-size="14.00">org.scalameta</text>
<text text-anchor="start" x="980" y="-649.019" font-family="Times,serif" font-weight="bold" font-size="14.00">inputs_2.11</text>
<text text-anchor="start" x="961.5" y="-635.019" font-family="Times,serif" font-size="14.00">0.1.0&#45;SNAPSHOT</text>
</g>
<!-- org.scalameta:trees_2.11:0.1.0&#45;SNAPSHOT&#45;&gt;org.scalameta:inputs_2.11:0.1.0&#45;SNAPSHOT -->
<g id="edge21" class="edge"><title>org.scalameta:trees_2.11:0.1.0&#45;SNAPSHOT&#45;&gt;org.scalameta:inputs_2.11:0.1.0&#45;SNAPSHOT</title>
<path fill="none" stroke="black" d="M573.659,-591.255C590.758,-601.376 611.673,-612.095 632,-618.219 737.108,-649.889 865.305,-654.852 943.101,-654.383"/>
<polygon fill="black" stroke="black" points="943.301,-657.881 953.268,-654.289 943.236,-650.882 943.301,-657.881"/>
</g>
<!-- org.scalameta:trees_2.11:0.1.0&#45;SNAPSHOT&#45;&gt;org.scalameta:prettyprinters_2.11:0.1.0&#45;SNAPSHOT -->
<g id="edge23" class="edge"><title>org.scalameta:trees_2.11:0.1.0&#45;SNAPSHOT&#45;&gt;org.scalameta:prettyprinters_2.11:0.1.0&#45;SNAPSHOT</title>
<path fill="none" stroke="black" d="M596.205,-566.737C670.974,-566.312 802.093,-562.056 912,-540.219 920.542,-538.522 929.358,-536.307 938.061,-533.82"/>
<polygon fill="black" stroke="black" points="939.237,-537.122 947.819,-530.91 937.236,-530.414 939.237,-537.122"/>
</g>
<!-- org.scalameta:trees_2.11:0.1.0&#45;SNAPSHOT&#45;&gt;org.scalameta:foundation_2.11:0.1.0&#45;SNAPSHOT -->
<g id="edge30" class="edge"><title>org.scalameta:trees_2.11:0.1.0&#45;SNAPSHOT&#45;&gt;org.scalameta:foundation_2.11:0.1.0&#45;SNAPSHOT</title>
<path fill="none" stroke="black" d="M596.416,-579.896C702.339,-600.463 925.099,-628.238 1081,-540.219 1118.68,-518.943 1147.77,-477.642 1164.96,-448.123"/>
<polygon fill="black" stroke="black" points="1168.03,-449.803 1169.91,-439.376 1161.94,-446.356 1168.03,-449.803"/>
</g>
<!-- org.scalameta:trees_2.11:0.1.0&#45;SNAPSHOT&#45;&gt;org.scala&#45;lang:scala&#45;library:2.11.7 -->
<g id="edge46" class="edge"><title>org.scalameta:trees_2.11:0.1.0&#45;SNAPSHOT&#45;&gt;org.scala&#45;lang:scala&#45;library:2.11.7</title>
<path fill="none" stroke="black" d="M560.296,-591.358C578.514,-608.84 604.883,-631.403 632,-645.219 788.08,-724.744 838.328,-744.219 1013.5,-744.219 1013.5,-744.219 1013.5,-744.219 1184.5,-744.219 1295.22,-744.219 1332.58,-707.051 1400,-619.219 1462.86,-537.328 1477.88,-411.003 1481.43,-349.835"/>
<polygon fill="black" stroke="black" points="1484.94,-349.71 1481.96,-339.546 1477.95,-349.355 1484.94,-349.71"/>
</g>
<!-- com.lihaoyi:scalaparse_2.11:0.3.7 -->
<g id="node7" class="node"><title>com.lihaoyi:scalaparse_2.11:0.3.7</title>
<polygon fill="none" stroke="black" points="796,-124.219 796,-174.219 906,-174.219 906,-124.219 796,-124.219"/>
<text text-anchor="start" x="817.5" y="-160.019" font-family="Times,serif" font-size="14.00">com.lihaoyi</text>
<text text-anchor="start" x="804" y="-146.019" font-family="Times,serif" font-weight="bold" font-size="14.00">scalaparse_2.11</text>
<text text-anchor="start" x="836.5" y="-132.019" font-family="Times,serif" font-size="14.00">0.3.7</text>
</g>
<!-- org.scalameta:tokenizers_2.11:0.1.0&#45;SNAPSHOT&#45;&gt;com.lihaoyi:scalaparse_2.11:0.3.7 -->
<g id="edge11" class="edge"><title>org.scalameta:tokenizers_2.11:0.1.0&#45;SNAPSHOT&#45;&gt;com.lihaoyi:scalaparse_2.11:0.3.7</title>
<path fill="none" stroke="black" d="M716.684,-297.063C744.065,-266.698 790.184,-215.554 820.357,-182.092"/>
<polygon fill="black" stroke="black" points="823.191,-184.176 827.289,-174.405 817.993,-179.488 823.191,-184.176"/>
</g>
<!-- org.scalameta:tokenizers_2.11:0.1.0&#45;SNAPSHOT&#45;&gt;org.scalameta:tokens_2.11:0.1.0&#45;SNAPSHOT -->
<g id="edge20" class="edge"><title>org.scalameta:tokenizers_2.11:0.1.0&#45;SNAPSHOT&#45;&gt;org.scalameta:tokens_2.11:0.1.0&#45;SNAPSHOT</title>
<path fill="none" stroke="black" d="M715.364,-347.418C743.06,-380.084 791.424,-437.13 822.023,-473.221"/>
<polygon fill="black" stroke="black" points="819.508,-475.666 828.644,-481.03 824.847,-471.139 819.508,-475.666"/>
</g>
<!-- org.scalameta:tokenizers_2.11:0.1.0&#45;SNAPSHOT&#45;&gt;org.scalameta:foundation_2.11:0.1.0&#45;SNAPSHOT -->
<g id="edge37" class="edge"><title>org.scalameta:tokenizers_2.11:0.1.0&#45;SNAPSHOT&#45;&gt;org.scalameta:foundation_2.11:0.1.0&#45;SNAPSHOT</title>
<path fill="none" stroke="black" d="M754.333,-321.632C831.618,-322.414 968.967,-329.004 1081,-362.219 1098.61,-367.441 1116.79,-375.709 1132.82,-384.129"/>
<polygon fill="black" stroke="black" points="1131.52,-387.406 1141.98,-389.082 1134.85,-381.248 1131.52,-387.406"/>
</g>
<!-- org.scalameta:tokenizers_2.11:0.1.0&#45;SNAPSHOT&#45;&gt;org.scala&#45;lang:scala&#45;library:2.11.7 -->
<g id="edge45" class="edge"><title>org.scalameta:tokenizers_2.11:0.1.0&#45;SNAPSHOT&#45;&gt;org.scala&#45;lang:scala&#45;library:2.11.7</title>
<path fill="none" stroke="black" d="M698.641,-297.084C708.013,-253.443 733.333,-163.607 790,-114.219 868.273,-46.0005 909.671,-46.2192 1013.5,-46.2192 1013.5,-46.2192 1013.5,-46.2192 1184.5,-46.2192 1282.17,-46.2192 1325.82,-25.6944 1400,-89.2192 1456.79,-137.853 1474.51,-229.09 1480.02,-279.145"/>
<polygon fill="black" stroke="black" points="1476.54,-279.569 1481.02,-289.172 1483.51,-278.873 1476.54,-279.569"/>
</g>
<!-- com.lihaoyi:fastparse_2.11:0.3.7 -->
<g id="node8" class="node"><title>com.lihaoyi:fastparse_2.11:0.3.7</title>
<polygon fill="none" stroke="black" points="963.5,-151.219 963.5,-201.219 1065.5,-201.219 1065.5,-151.219 963.5,-151.219"/>
<text text-anchor="start" x="981" y="-187.019" font-family="Times,serif" font-size="14.00">com.lihaoyi</text>
<text text-anchor="start" x="971.5" y="-173.019" font-family="Times,serif" font-weight="bold" font-size="14.00">fastparse_2.11</text>
<text text-anchor="start" x="1000" y="-159.019" font-family="Times,serif" font-size="14.00">0.3.7</text>
</g>
<!-- com.lihaoyi:scalaparse_2.11:0.3.7&#45;&gt;com.lihaoyi:fastparse_2.11:0.3.7 -->
<g id="edge12" class="edge"><title>com.lihaoyi:scalaparse_2.11:0.3.7&#45;&gt;com.lihaoyi:fastparse_2.11:0.3.7</title>
<path fill="none" stroke="black" d="M906.226,-158.285C921.336,-160.811 937.838,-163.57 953.27,-166.15"/>
<polygon fill="black" stroke="black" points="952.791,-169.618 963.231,-167.815 953.945,-162.714 952.791,-169.618"/>
</g>
<!-- com.lihaoyi:sourcecode_2.11:0.1.1 -->
<g id="node10" class="node"><title>com.lihaoyi:sourcecode_2.11:0.1.1</title>
<polygon fill="none" stroke="black" points="1286,-147.219 1286,-197.219 1400,-197.219 1400,-147.219 1286,-147.219"/>
<text text-anchor="start" x="1309.5" y="-183.019" font-family="Times,serif" font-size="14.00">com.lihaoyi</text>
<text text-anchor="start" x="1294" y="-169.019" font-family="Times,serif" font-weight="bold" font-size="14.00">sourcecode_2.11</text>
<text text-anchor="start" x="1328.5" y="-155.019" font-family="Times,serif" font-size="14.00">0.1.1</text>
</g>
<!-- com.lihaoyi:scalaparse_2.11:0.3.7&#45;&gt;com.lihaoyi:sourcecode_2.11:0.1.1 -->
<g id="edge16" class="edge"><title>com.lihaoyi:scalaparse_2.11:0.3.7&#45;&gt;com.lihaoyi:sourcecode_2.11:0.1.1</title>
<path fill="none" stroke="black" d="M906.023,-143.925C919.704,-142.802 934.381,-141.786 948,-141.219 1007.06,-138.763 1021.99,-137.727 1081,-141.219 1147.51,-145.155 1223.06,-154.686 1275.7,-162.15"/>
<polygon fill="black" stroke="black" points="1275.52,-165.659 1285.91,-163.612 1276.51,-158.73 1275.52,-165.659"/>
</g>
<!-- com.lihaoyi:scalaparse_2.11:0.3.7&#45;&gt;org.scala&#45;lang:scala&#45;library:2.11.7 -->
<g id="edge50" class="edge"><title>com.lihaoyi:scalaparse_2.11:0.3.7&#45;&gt;org.scala&#45;lang:scala&#45;library:2.11.7</title>
<path fill="none" stroke="black" d="M906.328,-129.642C1011.24,-95.522 1245.02,-37.7825 1400,-137.219 1448.8,-168.528 1469.21,-236.989 1477.39,-278.997"/>
<polygon fill="black" stroke="black" points="1473.99,-279.853 1479.22,-289.069 1480.88,-278.605 1473.99,-279.853"/>
</g>
<!-- com.lihaoyi:fastparse&#45;utils_2.11:0.3.7 -->
<g id="node9" class="node"><title>com.lihaoyi:fastparse&#45;utils_2.11:0.3.7</title>
<polygon fill="none" stroke="black" points="1117,-197.219 1117,-247.219 1250,-247.219 1250,-197.219 1117,-197.219"/>
<text text-anchor="start" x="1150" y="-233.019" font-family="Times,serif" font-size="14.00">com.lihaoyi</text>
<text text-anchor="start" x="1125" y="-219.019" font-family="Times,serif" font-weight="bold" font-size="14.00">fastparse&#45;utils_2.11</text>
<text text-anchor="start" x="1169" y="-205.019" font-family="Times,serif" font-size="14.00">0.3.7</text>
</g>
<!-- com.lihaoyi:fastparse_2.11:0.3.7&#45;&gt;com.lihaoyi:fastparse&#45;utils_2.11:0.3.7 -->
<g id="edge13" class="edge"><title>com.lihaoyi:fastparse_2.11:0.3.7&#45;&gt;com.lihaoyi:fastparse&#45;utils_2.11:0.3.7</title>
<path fill="none" stroke="black" d="M1065.61,-190.021C1078.72,-193.633 1093.15,-197.608 1107.26,-201.495"/>
<polygon fill="black" stroke="black" points="1106.39,-204.885 1116.96,-204.167 1108.25,-198.137 1106.39,-204.885"/>
</g>
<!-- com.lihaoyi:fastparse_2.11:0.3.7&#45;&gt;com.lihaoyi:sourcecode_2.11:0.1.1 -->
<g id="edge15" class="edge"><title>com.lihaoyi:fastparse_2.11:0.3.7&#45;&gt;com.lihaoyi:sourcecode_2.11:0.1.1</title>
<path fill="none" stroke="black" d="M1065.8,-175.603C1122.14,-174.913 1213.69,-173.791 1275.8,-173.03"/>
<polygon fill="black" stroke="black" points="1275.93,-176.529 1285.89,-172.907 1275.85,-169.529 1275.93,-176.529"/>
</g>
<!-- com.lihaoyi:fastparse_2.11:0.3.7&#45;&gt;org.scala&#45;lang:scala&#45;library:2.11.7 -->
<g id="edge48" class="edge"><title>com.lihaoyi:fastparse_2.11:0.3.7&#45;&gt;org.scala&#45;lang:scala&#45;library:2.11.7</title>
<path fill="none" stroke="black" d="M1060.39,-201.223C1067.53,-205.873 1074.65,-210.941 1081,-216.219 1099.4,-231.501 1095.93,-244.907 1117,-256.219 1173.02,-286.289 1337.33,-287.498 1400,-298.219 1408.37,-299.652 1417.2,-301.26 1425.85,-302.89"/>
<polygon fill="black" stroke="black" points="1425.4,-306.368 1435.88,-304.805 1426.72,-299.492 1425.4,-306.368"/>
</g>
<!-- com.lihaoyi:fastparse&#45;utils_2.11:0.3.7&#45;&gt;com.lihaoyi:sourcecode_2.11:0.1.1 -->
<g id="edge14" class="edge"><title>com.lihaoyi:fastparse&#45;utils_2.11:0.3.7&#45;&gt;com.lihaoyi:sourcecode_2.11:0.1.1</title>
<path fill="none" stroke="black" d="M1250.38,-201.304C1258.96,-198.582 1267.74,-195.794 1276.31,-193.073"/>
<polygon fill="black" stroke="black" points="1277.4,-196.398 1285.88,-190.037 1275.29,-189.726 1277.4,-196.398"/>
</g>
<!-- com.lihaoyi:fastparse&#45;utils_2.11:0.3.7&#45;&gt;org.scala&#45;lang:scala&#45;library:2.11.7 -->
<g id="edge40" class="edge"><title>com.lihaoyi:fastparse&#45;utils_2.11:0.3.7&#45;&gt;org.scala&#45;lang:scala&#45;library:2.11.7</title>
<path fill="none" stroke="black" d="M1250.39,-227.917C1294,-233.252 1351.81,-243.362 1400,-262.219 1413.96,-267.683 1428.14,-275.589 1440.71,-283.595"/>
<polygon fill="black" stroke="black" points="1438.85,-286.563 1449.13,-289.124 1442.69,-280.711 1438.85,-286.563"/>
</g>
<!-- com.lihaoyi:sourcecode_2.11:0.1.1&#45;&gt;org.scala&#45;lang:scala&#45;library:2.11.7 -->
<g id="edge44" class="edge"><title>com.lihaoyi:sourcecode_2.11:0.1.1&#45;&gt;org.scala&#45;lang:scala&#45;library:2.11.7</title>
<path fill="none" stroke="black" d="M1378.4,-197.436C1385.77,-203.328 1393.33,-209.774 1400,-216.219 1420.71,-236.238 1441.57,-261.081 1457.14,-280.745"/>
<polygon fill="black" stroke="black" points="1454.55,-283.113 1463.47,-288.826 1460.06,-278.795 1454.55,-283.113"/>
</g>
<!-- org.scalameta:tokens_2.11:0.1.0&#45;SNAPSHOT&#45;&gt;org.scalameta:inputs_2.11:0.1.0&#45;SNAPSHOT -->
<g id="edge22" class="edge"><title>org.scalameta:tokens_2.11:0.1.0&#45;SNAPSHOT&#45;&gt;org.scalameta:inputs_2.11:0.1.0&#45;SNAPSHOT</title>
<path fill="none" stroke="black" d="M879.763,-531.317C907,-555.941 948.637,-593.582 978.21,-620.316"/>
<polygon fill="black" stroke="black" points="976.064,-623.095 985.83,-627.205 980.759,-617.902 976.064,-623.095"/>
</g>
<!-- org.scalameta:tokens_2.11:0.1.0&#45;SNAPSHOT&#45;&gt;org.scalameta:prettyprinters_2.11:0.1.0&#45;SNAPSHOT -->
<g id="edge24" class="edge"><title>org.scalameta:tokens_2.11:0.1.0&#45;SNAPSHOT&#45;&gt;org.scalameta:prettyprinters_2.11:0.1.0&#45;SNAPSHOT</title>
<path fill="none" stroke="black" d="M912.137,-506.219C920.516,-506.219 929.213,-506.219 937.833,-506.219"/>
<polygon fill="black" stroke="black" points="937.892,-509.719 947.892,-506.219 937.892,-502.719 937.892,-509.719"/>
</g>
<!-- org.scalameta:tokens_2.11:0.1.0&#45;SNAPSHOT&#45;&gt;org.scalameta:dialects_2.11:0.1.0&#45;SNAPSHOT -->
<g id="edge26" class="edge"><title>org.scalameta:tokens_2.11:0.1.0&#45;SNAPSHOT&#45;&gt;org.scalameta:dialects_2.11:0.1.0&#45;SNAPSHOT</title>
<path fill="none" stroke="black" d="M870.212,-481.185C899.351,-441.129 956.485,-362.592 989.117,-317.737"/>
<polygon fill="black" stroke="black" points="992.054,-319.649 995.107,-309.503 986.393,-315.531 992.054,-319.649"/>
</g>
<!-- org.scalameta:tokens_2.11:0.1.0&#45;SNAPSHOT&#45;&gt;org.scalameta:foundation_2.11:0.1.0&#45;SNAPSHOT -->
<g id="edge33" class="edge"><title>org.scalameta:tokens_2.11:0.1.0&#45;SNAPSHOT&#45;&gt;org.scalameta:foundation_2.11:0.1.0&#45;SNAPSHOT</title>
<path fill="none" stroke="black" d="M912.084,-483.155C923.911,-478.944 936.285,-474.767 948,-471.219 1002.54,-454.703 1065.33,-439.647 1112.2,-429.161"/>
<polygon fill="black" stroke="black" points="1113.24,-432.514 1122.25,-426.928 1111.73,-425.68 1113.24,-432.514"/>
</g>
<!-- org.scalameta:tokens_2.11:0.1.0&#45;SNAPSHOT&#45;&gt;org.scala&#45;lang:scala&#45;library:2.11.7 -->
<g id="edge42" class="edge"><title>org.scalameta:tokens_2.11:0.1.0&#45;SNAPSHOT&#45;&gt;org.scala&#45;lang:scala&#45;library:2.11.7</title>
<path fill="none" stroke="black" d="M912.107,-531.002C923.823,-534.829 936.151,-538.183 948,-540.219 1006.26,-550.231 1022.72,-550.1 1081,-540.219 1230.35,-514.899 1279.21,-511.63 1400,-420.219 1425.77,-400.714 1447.82,-371.258 1462.62,-348.344"/>
<polygon fill="black" stroke="black" points="1465.76,-349.93 1468.13,-339.603 1459.84,-346.201 1465.76,-349.93"/>
</g>
<!-- org.scalameta:inputs_2.11:0.1.0&#45;SNAPSHOT&#45;&gt;org.scalameta:foundation_2.11:0.1.0&#45;SNAPSHOT -->
<g id="edge29" class="edge"><title>org.scalameta:inputs_2.11:0.1.0&#45;SNAPSHOT&#45;&gt;org.scalameta:foundation_2.11:0.1.0&#45;SNAPSHOT</title>
<path fill="none" stroke="black" d="M1063.67,-627.138C1069.93,-622.679 1075.92,-617.688 1081,-612.219 1126.01,-563.727 1156.22,-491.497 1171.29,-448.995"/>
<polygon fill="black" stroke="black" points="1174.66,-449.969 1174.63,-439.374 1168.05,-447.678 1174.66,-449.969"/>
</g>
<!-- org.scalameta:inputs_2.11:0.1.0&#45;SNAPSHOT&#45;&gt;org.scala&#45;lang:scala&#45;library:2.11.7 -->
<g id="edge38" class="edge"><title>org.scalameta:inputs_2.11:0.1.0&#45;SNAPSHOT&#45;&gt;org.scala&#45;lang:scala&#45;library:2.11.7</title>
<path fill="none" stroke="black" d="M1075.71,-657.472C1159.15,-661.3 1309.8,-655.238 1400,-574.219 1465.2,-515.652 1479.25,-405.879 1482.03,-349.548"/>
<polygon fill="black" stroke="black" points="1485.53,-349.482 1482.43,-339.35 1478.54,-349.202 1485.53,-349.482"/>
</g>
<!-- org.scalameta:prettyprinters_2.11:0.1.0&#45;SNAPSHOT&#45;&gt;org.scalameta:foundation_2.11:0.1.0&#45;SNAPSHOT -->
<g id="edge31" class="edge"><title>org.scalameta:prettyprinters_2.11:0.1.0&#45;SNAPSHOT&#45;&gt;org.scalameta:foundation_2.11:0.1.0&#45;SNAPSHOT</title>
<path fill="none" stroke="black" d="M1061.13,-481.08C1081.84,-469.67 1106.5,-456.089 1128.16,-444.156"/>
<polygon fill="black" stroke="black" points="1129.85,-447.219 1136.92,-439.328 1126.47,-441.088 1129.85,-447.219"/>
</g>
<!-- org.scalameta:prettyprinters_2.11:0.1.0&#45;SNAPSHOT&#45;&gt;org.scala&#45;lang:scala&#45;library:2.11.7 -->
<g id="edge39" class="edge"><title>org.scalameta:prettyprinters_2.11:0.1.0&#45;SNAPSHOT&#45;&gt;org.scala&#45;lang:scala&#45;library:2.11.7</title>
<path fill="none" stroke="black" d="M1081.01,-493.782C1128.63,-483.837 1194.25,-468.253 1250,-448.219 1319.59,-423.21 1336.8,-414.619 1400,-376.219 1414.96,-367.128 1430.52,-355.943 1444.04,-345.588"/>
<polygon fill="black" stroke="black" points="1446.42,-348.172 1452.18,-339.274 1442.13,-342.643 1446.42,-348.172"/>
</g>
<!-- org.scalameta:dialects_2.11:0.1.0&#45;SNAPSHOT&#45;&gt;org.scalameta:foundation_2.11:0.1.0&#45;SNAPSHOT -->
<g id="edge34" class="edge"><title>org.scalameta:dialects_2.11:0.1.0&#45;SNAPSHOT&#45;&gt;org.scalameta:foundation_2.11:0.1.0&#45;SNAPSHOT</title>
<path fill="none" stroke="black" d="M1059.2,-309.412C1066.62,-314.113 1074.14,-319.148 1081,-324.219 1105.07,-342.023 1130.26,-364.338 1149.53,-382.294"/>
<polygon fill="black" stroke="black" points="1147.19,-384.896 1156.87,-389.193 1151.98,-379.794 1147.19,-384.896"/>
</g>
<!-- org.scalameta:dialects_2.11:0.1.0&#45;SNAPSHOT&#45;&gt;org.scala&#45;lang:scala&#45;library:2.11.7 -->
<g id="edge43" class="edge"><title>org.scalameta:dialects_2.11:0.1.0&#45;SNAPSHOT&#45;&gt;org.scala&#45;lang:scala&#45;library:2.11.7</title>
<path fill="none" stroke="black" d="M1075.6,-288.08C1166.35,-293.91 1337.18,-304.884 1425.86,-310.58"/>
<polygon fill="black" stroke="black" points="1425.79,-314.083 1435.99,-311.232 1426.24,-307.098 1425.79,-314.083"/>
</g>
<!-- org.scalameta:foundation_2.11:0.1.0&#45;SNAPSHOT&#45;&gt;org.scala&#45;lang:scala&#45;library:2.11.7 -->
<g id="edge41" class="edge"><title>org.scalameta:foundation_2.11:0.1.0&#45;SNAPSHOT&#45;&gt;org.scala&#45;lang:scala&#45;library:2.11.7</title>
<path fill="none" stroke="black" d="M1244.8,-393.983C1297.85,-376.182 1374.47,-350.469 1426.27,-333.089"/>
<polygon fill="black" stroke="black" points="1427.59,-336.337 1435.96,-329.837 1425.36,-329.701 1427.59,-336.337"/>
</g>
</g>
</svg>
