<?xml version="1.0" encoding="UTF-8" standalone="no"?>
<!DOCTYPE svg PUBLIC "-//W3C//DTD SVG 1.1//EN"
 "http://www.w3.org/Graphics/SVG/1.1/DTD/svg11.dtd">
<!-- Generated by graphviz version 2.38.0 (20140413.2041)
 -->
<!-- Title: dependency&#45;graph Pages: 1 -->
<svg width="1539pt" height="863pt"
 viewBox="0.00 0.00 1539.00 863.04" xmlns="http://www.w3.org/2000/svg" xmlns:xlink="http://www.w3.org/1999/xlink">
<g id="graph0" class="graph" transform="scale(1 1) rotate(0) translate(4 859.04)">
<title>dependency&#45;graph</title>
<polygon fill="white" stroke="none" points="-4,4 -4,-859.04 1535,-859.04 1535,4 -4,4"/>
<!-- org.scalameta:scalameta_2.11:0.1.0&#45;SNAPSHOT -->
<g id="node1" class="node"><title>org.scalameta:scalameta_2.11:0.1.0&#45;SNAPSHOT</title>
<polygon fill="none" stroke="black" points="0,-522.994 0,-572.994 122,-572.994 122,-522.994 0,-522.994"/>
<text text-anchor="start" x="22" y="-558.794" font-family="Times,serif" font-size="14.00">org.scalameta</text>
<text text-anchor="start" x="15.5" y="-544.794" font-family="Times,serif" font-weight="bold" font-size="14.00">scalameta_2.11</text>
<text text-anchor="start" x="8" y="-530.794" font-family="Times,serif" font-size="14.00">0.1.0&#45;SNAPSHOT</text>
</g>
<!-- org.scalameta:transversers_2.11:0.1.0&#45;SNAPSHOT -->
<g id="node2" class="node"><title>org.scalameta:transversers_2.11:0.1.0&#45;SNAPSHOT</title>
<polygon fill="none" stroke="black" points="316,-731.994 316,-781.994 438,-781.994 438,-731.994 316,-731.994"/>
<text text-anchor="start" x="338" y="-767.794" font-family="Times,serif" font-size="14.00">org.scalameta</text>
<text text-anchor="start" x="324" y="-753.794" font-family="Times,serif" font-weight="bold" font-size="14.00">transversers_2.11</text>
<text text-anchor="start" x="324" y="-739.794" font-family="Times,serif" font-size="14.00">0.1.0&#45;SNAPSHOT</text>
</g>
<!-- org.scalameta:scalameta_2.11:0.1.0&#45;SNAPSHOT&#45;&gt;org.scalameta:transversers_2.11:0.1.0&#45;SNAPSHOT -->
<g id="edge1" class="edge"><title>org.scalameta:scalameta_2.11:0.1.0&#45;SNAPSHOT&#45;&gt;org.scalameta:transversers_2.11:0.1.0&#45;SNAPSHOT</title>
<path fill="none" stroke="black" d="M79.8513,-573.145C97.5596,-596.686 126.539,-631.639 158,-654.994 203.262,-688.593 261.358,-715.106 306.194,-732.671"/>
<polygon fill="black" stroke="black" points="304.961,-735.946 315.55,-736.282 307.481,-729.416 304.961,-735.946"/>
</g>
<!-- org.scalameta:quasiquotes_2.11:0.1.0&#45;SNAPSHOT -->
<g id="node3" class="node"><title>org.scalameta:quasiquotes_2.11:0.1.0&#45;SNAPSHOT</title>
<polygon fill="none" stroke="black" points="158,-595.994 158,-645.994 280,-645.994 280,-595.994 158,-595.994"/>
<text text-anchor="start" x="180" y="-631.794" font-family="Times,serif" font-size="14.00">org.scalameta</text>
<text text-anchor="start" x="167.5" y="-617.794" font-family="Times,serif" font-weight="bold" font-size="14.00">quasiquotes_2.11</text>
<text text-anchor="start" x="166" y="-603.794" font-family="Times,serif" font-size="14.00">0.1.0&#45;SNAPSHOT</text>
</g>
<!-- org.scalameta:scalameta_2.11:0.1.0&#45;SNAPSHOT&#45;&gt;org.scalameta:quasiquotes_2.11:0.1.0&#45;SNAPSHOT -->
<g id="edge2" class="edge"><title>org.scalameta:scalameta_2.11:0.1.0&#45;SNAPSHOT&#45;&gt;org.scalameta:quasiquotes_2.11:0.1.0&#45;SNAPSHOT</title>
<path fill="none" stroke="black" d="M115.686,-573.116C128.381,-579.057 142.031,-585.444 155.093,-591.557"/>
<polygon fill="black" stroke="black" points="153.938,-594.88 164.479,-595.949 156.905,-588.54 153.938,-594.88"/>
</g>
<!-- org.scalameta:parsers_2.11:0.1.0&#45;SNAPSHOT -->
<g id="node4" class="node"><title>org.scalameta:parsers_2.11:0.1.0&#45;SNAPSHOT</title>
<polygon fill="none" stroke="black" points="316,-487.994 316,-537.994 438,-537.994 438,-487.994 316,-487.994"/>
<text text-anchor="start" x="338" y="-523.794" font-family="Times,serif" font-size="14.00">org.scalameta</text>
<text text-anchor="start" x="339" y="-509.794" font-family="Times,serif" font-weight="bold" font-size="14.00">parsers_2.11</text>
<text text-anchor="start" x="324" y="-495.794" font-family="Times,serif" font-size="14.00">0.1.0&#45;SNAPSHOT</text>
</g>
<!-- org.scalameta:scalameta_2.11:0.1.0&#45;SNAPSHOT&#45;&gt;org.scalameta:parsers_2.11:0.1.0&#45;SNAPSHOT -->
<g id="edge4" class="edge"><title>org.scalameta:scalameta_2.11:0.1.0&#45;SNAPSHOT&#45;&gt;org.scalameta:parsers_2.11:0.1.0&#45;SNAPSHOT</title>
<path fill="none" stroke="black" d="M122.171,-541.287C174.559,-535.447 250.546,-526.977 305.717,-520.828"/>
<polygon fill="black" stroke="black" points="306.215,-524.294 315.766,-519.708 305.44,-517.337 306.215,-524.294"/>
</g>
<!-- org.scalameta:trees_2.11:0.1.0&#45;SNAPSHOT -->
<g id="node5" class="node"><title>org.scalameta:trees_2.11:0.1.0&#45;SNAPSHOT</title>
<polygon fill="none" stroke="black" points="474,-583.994 474,-633.994 596,-633.994 596,-583.994 474,-583.994"/>
<text text-anchor="start" x="496" y="-619.794" font-family="Times,serif" font-size="14.00">org.scalameta</text>
<text text-anchor="start" x="504.5" y="-605.794" font-family="Times,serif" font-weight="bold" font-size="14.00">trees_2.11</text>
<text text-anchor="start" x="482" y="-591.794" font-family="Times,serif" font-size="14.00">0.1.0&#45;SNAPSHOT</text>
</g>
<!-- org.scalameta:scalameta_2.11:0.1.0&#45;SNAPSHOT&#45;&gt;org.scalameta:trees_2.11:0.1.0&#45;SNAPSHOT -->
<g id="edge7" class="edge"><title>org.scalameta:scalameta_2.11:0.1.0&#45;SNAPSHOT&#45;&gt;org.scalameta:trees_2.11:0.1.0&#45;SNAPSHOT</title>
<path fill="none" stroke="black" d="M122.259,-555.781C209.573,-567.066 370.93,-587.919 463.603,-599.896"/>
<polygon fill="black" stroke="black" points="463.362,-603.394 473.728,-601.204 464.259,-596.451 463.362,-603.394"/>
</g>
<!-- org.scalameta:tokenizers_2.11:0.1.0&#45;SNAPSHOT -->
<g id="node6" class="node"><title>org.scalameta:tokenizers_2.11:0.1.0&#45;SNAPSHOT</title>
<polygon fill="none" stroke="black" points="632,-311.994 632,-361.994 754,-361.994 754,-311.994 632,-311.994"/>
<text text-anchor="start" x="654" y="-347.794" font-family="Times,serif" font-size="14.00">org.scalameta</text>
<text text-anchor="start" x="646.5" y="-333.794" font-family="Times,serif" font-weight="bold" font-size="14.00">tokenizers_2.11</text>
<text text-anchor="start" x="640" y="-319.794" font-family="Times,serif" font-size="14.00">0.1.0&#45;SNAPSHOT</text>
</g>
<!-- org.scalameta:scalameta_2.11:0.1.0&#45;SNAPSHOT&#45;&gt;org.scalameta:tokenizers_2.11:0.1.0&#45;SNAPSHOT -->
<g id="edge10" class="edge"><title>org.scalameta:scalameta_2.11:0.1.0&#45;SNAPSHOT&#45;&gt;org.scalameta:tokenizers_2.11:0.1.0&#45;SNAPSHOT</title>
<path fill="none" stroke="black" d="M122.122,-527.858C239.208,-488.643 497.233,-402.225 621.88,-360.478"/>
<polygon fill="black" stroke="black" points="623.338,-363.681 631.708,-357.187 621.115,-357.044 623.338,-363.681"/>
</g>
<!-- org.scalameta:prettyprinters_2.11:0.1.0&#45;SNAPSHOT -->
<g id="node12" class="node"><title>org.scalameta:prettyprinters_2.11:0.1.0&#45;SNAPSHOT</title>
<polygon fill="none" stroke="black" points="948,-693.994 948,-743.994 1081,-743.994 1081,-693.994 948,-693.994"/>
<text text-anchor="start" x="975.5" y="-729.794" font-family="Times,serif" font-size="14.00">org.scalameta</text>
<text text-anchor="start" x="956" y="-715.794" font-family="Times,serif" font-weight="bold" font-size="14.00">prettyprinters_2.11</text>
<text text-anchor="start" x="961.5" y="-701.794" font-family="Times,serif" font-size="14.00">0.1.0&#45;SNAPSHOT</text>
</g>
<!-- org.scalameta:scalameta_2.11:0.1.0&#45;SNAPSHOT&#45;&gt;org.scalameta:prettyprinters_2.11:0.1.0&#45;SNAPSHOT -->
<g id="edge21" class="edge"><title>org.scalameta:scalameta_2.11:0.1.0&#45;SNAPSHOT&#45;&gt;org.scalameta:prettyprinters_2.11:0.1.0&#45;SNAPSHOT</title>
<path fill="none" stroke="black" d="M72.7844,-573.044C87.9262,-605.913 118.157,-663.883 158,-701.994 237.161,-777.713 266.456,-816.994 376,-816.994 376,-816.994 376,-816.994 694,-816.994 788.507,-816.994 892.099,-777.318 954.953,-748.456"/>
<polygon fill="black" stroke="black" points="956.715,-751.497 964.304,-744.104 953.761,-745.151 956.715,-751.497"/>
</g>
<!-- org.scalameta:dialects_2.11:0.1.0&#45;SNAPSHOT -->
<g id="node14" class="node"><title>org.scalameta:dialects_2.11:0.1.0&#45;SNAPSHOT</title>
<polygon fill="none" stroke="black" points="953.5,-287.994 953.5,-337.994 1075.5,-337.994 1075.5,-287.994 953.5,-287.994"/>
<text text-anchor="start" x="975.5" y="-323.794" font-family="Times,serif" font-size="14.00">org.scalameta</text>
<text text-anchor="start" x="976" y="-309.794" font-family="Times,serif" font-weight="bold" font-size="14.00">dialects_2.11</text>
<text text-anchor="start" x="961.5" y="-295.794" font-family="Times,serif" font-size="14.00">0.1.0&#45;SNAPSHOT</text>
</g>
<!-- org.scalameta:scalameta_2.11:0.1.0&#45;SNAPSHOT&#45;&gt;org.scalameta:dialects_2.11:0.1.0&#45;SNAPSHOT -->
<g id="edge28" class="edge"><title>org.scalameta:scalameta_2.11:0.1.0&#45;SNAPSHOT&#45;&gt;org.scalameta:dialects_2.11:0.1.0&#45;SNAPSHOT</title>
<path fill="none" stroke="black" d="M71.2755,-522.965C101.767,-445.522 206.748,-214.994 376,-214.994 376,-214.994 376,-214.994 694,-214.994 788.507,-214.994 892.099,-254.669 954.953,-283.531"/>
<polygon fill="black" stroke="black" points="953.761,-286.837 964.304,-287.884 956.715,-280.491 953.761,-286.837"/>
</g>
<!-- org.scalameta:classifiers_2.11:0.1.0&#45;SNAPSHOT -->
<g id="node15" class="node"><title>org.scalameta:classifiers_2.11:0.1.0&#45;SNAPSHOT</title>
<polygon fill="none" stroke="black" points="953.5,-34.9937 953.5,-84.9937 1075.5,-84.9937 1075.5,-34.9937 953.5,-34.9937"/>
<text text-anchor="start" x="975.5" y="-70.7937" font-family="Times,serif" font-size="14.00">org.scalameta</text>
<text text-anchor="start" x="969.5" y="-56.7937" font-family="Times,serif" font-weight="bold" font-size="14.00">classifiers_2.11</text>
<text text-anchor="start" x="961.5" y="-42.7937" font-family="Times,serif" font-size="14.00">0.1.0&#45;SNAPSHOT</text>
</g>
<!-- org.scalameta:scalameta_2.11:0.1.0&#45;SNAPSHOT&#45;&gt;org.scalameta:classifiers_2.11:0.1.0&#45;SNAPSHOT -->
<g id="edge30" class="edge"><title>org.scalameta:scalameta_2.11:0.1.0&#45;SNAPSHOT&#45;&gt;org.scalameta:classifiers_2.11:0.1.0&#45;SNAPSHOT</title>
<path fill="none" stroke="black" d="M65.6442,-522.991C81.6282,-423.881 154.892,-63.9937 376,-63.9937 376,-63.9937 376,-63.9937 694,-63.9937 779.829,-63.9937 878.618,-62.5326 943.35,-61.3765"/>
<polygon fill="black" stroke="black" points="943.504,-64.8744 953.439,-61.1938 943.377,-57.8755 943.504,-64.8744"/>
</g>
<!-- org.scalameta:foundation_2.11:0.1.0&#45;SNAPSHOT -->
<g id="node16" class="node"><title>org.scalameta:foundation_2.11:0.1.0&#45;SNAPSHOT</title>
<polygon fill="none" stroke="black" points="1122.5,-514.994 1122.5,-564.994 1244.5,-564.994 1244.5,-514.994 1122.5,-514.994"/>
<text text-anchor="start" x="1144.5" y="-550.794" font-family="Times,serif" font-size="14.00">org.scalameta</text>
<text text-anchor="start" x="1135" y="-536.794" font-family="Times,serif" font-weight="bold" font-size="14.00">foundation_2.11</text>
<text text-anchor="start" x="1130.5" y="-522.794" font-family="Times,serif" font-size="14.00">0.1.0&#45;SNAPSHOT</text>
</g>
<!-- org.scalameta:scalameta_2.11:0.1.0&#45;SNAPSHOT&#45;&gt;org.scalameta:foundation_2.11:0.1.0&#45;SNAPSHOT -->
<g id="edge38" class="edge"><title>org.scalameta:scalameta_2.11:0.1.0&#45;SNAPSHOT&#45;&gt;org.scalameta:foundation_2.11:0.1.0&#45;SNAPSHOT</title>
<path fill="none" stroke="black" d="M66.624,-573.065C76.084,-617.654 101.689,-711.195 158,-765.994 233,-838.98 271.348,-854.994 376,-854.994 376,-854.994 376,-854.994 852,-854.994 958.557,-854.994 1002.21,-855.735 1081,-783.994 1142.86,-727.669 1168.09,-627.79 1177.49,-574.979"/>
<polygon fill="black" stroke="black" points="1180.95,-575.515 1179.16,-565.071 1174.05,-574.348 1180.95,-575.515"/>
</g>
<!-- org.scala&#45;lang:scala&#45;library:2.11.7 -->
<g id="node17" class="node"><title>org.scala&#45;lang:scala&#45;library:2.11.7</title>
<polygon fill="none" stroke="black" points="1436,-329.994 1436,-379.994 1531,-379.994 1531,-329.994 1436,-329.994"/>
<text text-anchor="start" x="1444" y="-365.794" font-family="Times,serif" font-size="14.00">org.scala&#45;lang</text>
<text text-anchor="start" x="1445" y="-351.794" font-family="Times,serif" font-weight="bold" font-size="14.00">scala&#45;library</text>
<text text-anchor="start" x="1465.5" y="-337.794" font-family="Times,serif" font-size="14.00">2.11.7</text>
</g>
<!-- org.scalameta:scalameta_2.11:0.1.0&#45;SNAPSHOT&#45;&gt;org.scala&#45;lang:scala&#45;library:2.11.7 -->
<g id="edge54" class="edge"><title>org.scalameta:scalameta_2.11:0.1.0&#45;SNAPSHOT&#45;&gt;org.scala&#45;lang:scala&#45;library:2.11.7</title>
<path fill="none" stroke="black" d="M64.0391,-522.887C71.5264,-436.485 100.129,-153.053 158,-85.9937 225.429,-7.85888 272.793,-5.99371 376,-5.99371 376,-5.99371 376,-5.99371 1184.5,-5.99371 1281.83,-5.99371 1328.44,20.9862 1400,-44.9937 1440.39,-82.2361 1467.53,-246.203 1477.85,-319.443"/>
<polygon fill="black" stroke="black" points="1474.41,-320.138 1479.25,-329.564 1481.34,-319.179 1474.41,-320.138"/>
</g>
<!-- org.scalameta:transversers_2.11:0.1.0&#45;SNAPSHOT&#45;&gt;org.scalameta:trees_2.11:0.1.0&#45;SNAPSHOT -->
<g id="edge8" class="edge"><title>org.scalameta:transversers_2.11:0.1.0&#45;SNAPSHOT&#45;&gt;org.scalameta:trees_2.11:0.1.0&#45;SNAPSHOT</title>
<path fill="none" stroke="black" d="M404.463,-731.888C430.797,-706.905 471.315,-668.464 500.015,-641.236"/>
<polygon fill="black" stroke="black" points="502.561,-643.645 507.407,-634.223 497.743,-638.567 502.561,-643.645"/>
</g>
<!-- org.scalameta:transversers_2.11:0.1.0&#45;SNAPSHOT&#45;&gt;org.scalameta:foundation_2.11:0.1.0&#45;SNAPSHOT -->
<g id="edge41" class="edge"><title>org.scalameta:transversers_2.11:0.1.0&#45;SNAPSHOT&#45;&gt;org.scalameta:foundation_2.11:0.1.0&#45;SNAPSHOT</title>
<path fill="none" stroke="black" d="M438.012,-764.567C588.126,-782.284 975.401,-820.07 1081,-752.994 1143.14,-713.522 1168.06,-624.497 1177.39,-574.947"/>
<polygon fill="black" stroke="black" points="1180.85,-575.462 1179.15,-565.004 1173.96,-574.24 1180.85,-575.462"/>
</g>
<!-- org.scalameta:quasiquotes_2.11:0.1.0&#45;SNAPSHOT&#45;&gt;org.scalameta:parsers_2.11:0.1.0&#45;SNAPSHOT -->
<g id="edge3" class="edge"><title>org.scalameta:quasiquotes_2.11:0.1.0&#45;SNAPSHOT&#45;&gt;org.scalameta:parsers_2.11:0.1.0&#45;SNAPSHOT</title>
<path fill="none" stroke="black" d="M256.182,-595.945C278.547,-580.461 307.425,-560.468 331.227,-543.99"/>
<polygon fill="black" stroke="black" points="333.515,-546.663 339.745,-538.094 329.531,-540.908 333.515,-546.663"/>
</g>
<!-- org.scalameta:quasiquotes_2.11:0.1.0&#45;SNAPSHOT&#45;&gt;org.scalameta:trees_2.11:0.1.0&#45;SNAPSHOT -->
<g id="edge6" class="edge"><title>org.scalameta:quasiquotes_2.11:0.1.0&#45;SNAPSHOT&#45;&gt;org.scalameta:trees_2.11:0.1.0&#45;SNAPSHOT</title>
<path fill="none" stroke="black" d="M280.171,-618.694C332.559,-616.692 408.546,-613.788 463.717,-611.68"/>
<polygon fill="black" stroke="black" points="463.907,-615.175 473.766,-611.296 463.639,-608.18 463.907,-615.175"/>
</g>
<!-- org.scalameta:quasiquotes_2.11:0.1.0&#45;SNAPSHOT&#45;&gt;org.scalameta:foundation_2.11:0.1.0&#45;SNAPSHOT -->
<g id="edge37" class="edge"><title>org.scalameta:quasiquotes_2.11:0.1.0&#45;SNAPSHOT&#45;&gt;org.scalameta:foundation_2.11:0.1.0&#45;SNAPSHOT</title>
<path fill="none" stroke="black" d="M278.998,-646.042C341.229,-670.157 442.726,-702.994 534,-702.994 534,-702.994 534,-702.994 694,-702.994 860.223,-702.994 1042.66,-617.021 1130.09,-569.951"/>
<polygon fill="black" stroke="black" points="1131.89,-572.954 1139.01,-565.105 1128.55,-566.803 1131.89,-572.954"/>
</g>
<!-- org.scalameta:parsers_2.11:0.1.0&#45;SNAPSHOT&#45;&gt;org.scalameta:trees_2.11:0.1.0&#45;SNAPSHOT -->
<g id="edge5" class="edge"><title>org.scalameta:parsers_2.11:0.1.0&#45;SNAPSHOT&#45;&gt;org.scalameta:trees_2.11:0.1.0&#45;SNAPSHOT</title>
<path fill="none" stroke="black" d="M418.987,-538.217C439.14,-550.618 463.584,-565.661 484.746,-578.684"/>
<polygon fill="black" stroke="black" points="482.936,-581.679 493.287,-583.939 486.604,-575.717 482.936,-581.679"/>
</g>
<!-- org.scalameta:inputs_2.11:0.1.0&#45;SNAPSHOT -->
<g id="node13" class="node"><title>org.scalameta:inputs_2.11:0.1.0&#45;SNAPSHOT</title>
<polygon fill="none" stroke="black" points="953.5,-395.994 953.5,-445.994 1075.5,-445.994 1075.5,-395.994 953.5,-395.994"/>
<text text-anchor="start" x="975.5" y="-431.794" font-family="Times,serif" font-size="14.00">org.scalameta</text>
<text text-anchor="start" x="980" y="-417.794" font-family="Times,serif" font-weight="bold" font-size="14.00">inputs_2.11</text>
<text text-anchor="start" x="961.5" y="-403.794" font-family="Times,serif" font-size="14.00">0.1.0&#45;SNAPSHOT</text>
</g>
<!-- org.scalameta:parsers_2.11:0.1.0&#45;SNAPSHOT&#45;&gt;org.scalameta:inputs_2.11:0.1.0&#45;SNAPSHOT -->
<g id="edge22" class="edge"><title>org.scalameta:parsers_2.11:0.1.0&#45;SNAPSHOT&#45;&gt;org.scalameta:inputs_2.11:0.1.0&#45;SNAPSHOT</title>
<path fill="none" stroke="black" d="M438.17,-504.207C450.046,-502.476 462.416,-500.676 474,-498.994 642.358,-474.547 840.294,-445.973 943.254,-431.122"/>
<polygon fill="black" stroke="black" points="943.821,-434.576 953.219,-429.684 942.821,-427.648 943.821,-434.576"/>
</g>
<!-- org.scalameta:parsers_2.11:0.1.0&#45;SNAPSHOT&#45;&gt;org.scalameta:dialects_2.11:0.1.0&#45;SNAPSHOT -->
<g id="edge26" class="edge"><title>org.scalameta:parsers_2.11:0.1.0&#45;SNAPSHOT&#45;&gt;org.scalameta:dialects_2.11:0.1.0&#45;SNAPSHOT</title>
<path fill="none" stroke="black" d="M397.67,-487.776C436.414,-440.42 527.937,-339.579 632,-301.994 735.181,-264.728 864.472,-280.266 942.941,-295.894"/>
<polygon fill="black" stroke="black" points="942.697,-299.417 953.196,-297.995 944.102,-292.559 942.697,-299.417"/>
</g>
<!-- org.scalameta:parsers_2.11:0.1.0&#45;SNAPSHOT&#45;&gt;org.scalameta:foundation_2.11:0.1.0&#45;SNAPSHOT -->
<g id="edge34" class="edge"><title>org.scalameta:parsers_2.11:0.1.0&#45;SNAPSHOT&#45;&gt;org.scalameta:foundation_2.11:0.1.0&#45;SNAPSHOT</title>
<path fill="none" stroke="black" d="M438.029,-516.007C518.229,-519.943 664.776,-526.823 790,-530.994 902.625,-534.745 1033.48,-537.405 1112.05,-538.818"/>
<polygon fill="black" stroke="black" points="1112.25,-542.322 1122.31,-539.001 1112.37,-535.323 1112.25,-542.322"/>
</g>
<!-- org.scalameta:parsers_2.11:0.1.0&#45;SNAPSHOT&#45;&gt;org.scala&#45;lang:scala&#45;library:2.11.7 -->
<g id="edge52" class="edge"><title>org.scalameta:parsers_2.11:0.1.0&#45;SNAPSHOT&#45;&gt;org.scala&#45;lang:scala&#45;library:2.11.7</title>
<path fill="none" stroke="black" d="M438.144,-528.37C449.965,-530.94 462.322,-533.313 474,-534.994 815.803,-584.182 908.97,-628.284 1250,-573.994 1319.26,-562.968 1347.15,-571.099 1400,-524.994 1441.07,-489.161 1463.58,-428.23 1474.32,-389.874"/>
<polygon fill="black" stroke="black" points="1477.72,-390.732 1476.93,-380.167 1470.96,-388.919 1477.72,-390.732"/>
</g>
<!-- org.scalameta:trees_2.11:0.1.0&#45;SNAPSHOT&#45;&gt;org.scalameta:tokenizers_2.11:0.1.0&#45;SNAPSHOT -->
<g id="edge9" class="edge"><title>org.scalameta:trees_2.11:0.1.0&#45;SNAPSHOT&#45;&gt;org.scalameta:tokenizers_2.11:0.1.0&#45;SNAPSHOT</title>
<path fill="none" stroke="black" d="M550.396,-583.892C578.548,-534.808 640.901,-426.089 672.634,-370.759"/>
<polygon fill="black" stroke="black" points="675.699,-372.45 677.638,-362.035 669.627,-368.968 675.699,-372.45"/>
</g>
<!-- org.scalameta:tokens_2.11:0.1.0&#45;SNAPSHOT -->
<g id="node11" class="node"><title>org.scalameta:tokens_2.11:0.1.0&#45;SNAPSHOT</title>
<polygon fill="none" stroke="black" points="790,-471.994 790,-521.994 912,-521.994 912,-471.994 790,-471.994"/>
<text text-anchor="start" x="812" y="-507.794" font-family="Times,serif" font-size="14.00">org.scalameta</text>
<text text-anchor="start" x="815.5" y="-493.794" font-family="Times,serif" font-weight="bold" font-size="14.00">tokens_2.11</text>
<text text-anchor="start" x="798" y="-479.794" font-family="Times,serif" font-size="14.00">0.1.0&#45;SNAPSHOT</text>
</g>
<!-- org.scalameta:trees_2.11:0.1.0&#45;SNAPSHOT&#45;&gt;org.scalameta:tokens_2.11:0.1.0&#45;SNAPSHOT -->
<g id="edge17" class="edge"><title>org.scalameta:trees_2.11:0.1.0&#45;SNAPSHOT&#45;&gt;org.scalameta:tokens_2.11:0.1.0&#45;SNAPSHOT</title>
<path fill="none" stroke="black" d="M596.171,-587.531C648.668,-568.806 724.862,-541.629 780.06,-521.94"/>
<polygon fill="black" stroke="black" points="781.523,-525.135 789.766,-518.479 779.171,-518.542 781.523,-525.135"/>
</g>
<!-- org.scalameta:trees_2.11:0.1.0&#45;SNAPSHOT&#45;&gt;org.scalameta:prettyprinters_2.11:0.1.0&#45;SNAPSHOT -->
<g id="edge19" class="edge"><title>org.scalameta:trees_2.11:0.1.0&#45;SNAPSHOT&#45;&gt;org.scalameta:prettyprinters_2.11:0.1.0&#45;SNAPSHOT</title>
<path fill="none" stroke="black" d="M596.093,-630.252C607.919,-634.087 620.291,-637.857 632,-640.994 736.835,-669.075 860.217,-692.611 937.655,-706.259"/>
<polygon fill="black" stroke="black" points="937.348,-709.759 947.802,-708.037 938.556,-702.864 937.348,-709.759"/>
</g>
<!-- org.scalameta:trees_2.11:0.1.0&#45;SNAPSHOT&#45;&gt;org.scalameta:dialects_2.11:0.1.0&#45;SNAPSHOT -->
<g id="edge25" class="edge"><title>org.scalameta:trees_2.11:0.1.0&#45;SNAPSHOT&#45;&gt;org.scalameta:dialects_2.11:0.1.0&#45;SNAPSHOT</title>
<path fill="none" stroke="black" d="M563.98,-583.804C582.614,-567.581 607.998,-546.516 632,-529.994 740.866,-455.056 877.34,-382.049 954.036,-342.758"/>
<polygon fill="black" stroke="black" points="955.773,-345.801 963.087,-338.135 952.589,-339.567 955.773,-345.801"/>
</g>
<!-- org.scalameta:trees_2.11:0.1.0&#45;SNAPSHOT&#45;&gt;org.scalameta:foundation_2.11:0.1.0&#45;SNAPSHOT -->
<g id="edge31" class="edge"><title>org.scalameta:trees_2.11:0.1.0&#45;SNAPSHOT&#45;&gt;org.scalameta:foundation_2.11:0.1.0&#45;SNAPSHOT</title>
<path fill="none" stroke="black" d="M596.057,-607.302C696.868,-603.758 906.254,-593.379 1081,-564.994 1091.25,-563.329 1101.99,-561.159 1112.48,-558.794"/>
<polygon fill="black" stroke="black" points="1113.5,-562.151 1122.45,-556.476 1111.92,-555.333 1113.5,-562.151"/>
</g>
<!-- org.scalameta:trees_2.11:0.1.0&#45;SNAPSHOT&#45;&gt;org.scala&#45;lang:scala&#45;library:2.11.7 -->
<g id="edge51" class="edge"><title>org.scalameta:trees_2.11:0.1.0&#45;SNAPSHOT&#45;&gt;org.scala&#45;lang:scala&#45;library:2.11.7</title>
<path fill="none" stroke="black" d="M569.664,-634.021C587.456,-646.287 610.101,-660.438 632,-669.994 945.508,-806.797 1158.2,-961.937 1400,-719.994 1446.47,-673.495 1471.03,-472.405 1479.27,-390.205"/>
<polygon fill="black" stroke="black" points="1482.77,-390.399 1480.27,-380.105 1475.81,-389.715 1482.77,-390.399"/>
</g>
<!-- com.lihaoyi:scalaparse_2.11:0.3.7 -->
<g id="node7" class="node"><title>com.lihaoyi:scalaparse_2.11:0.3.7</title>
<polygon fill="none" stroke="black" points="796,-135.994 796,-185.994 906,-185.994 906,-135.994 796,-135.994"/>
<text text-anchor="start" x="817.5" y="-171.794" font-family="Times,serif" font-size="14.00">com.lihaoyi</text>
<text text-anchor="start" x="804" y="-157.794" font-family="Times,serif" font-weight="bold" font-size="14.00">scalaparse_2.11</text>
<text text-anchor="start" x="836.5" y="-143.794" font-family="Times,serif" font-size="14.00">0.3.7</text>
</g>
<!-- org.scalameta:tokenizers_2.11:0.1.0&#45;SNAPSHOT&#45;&gt;com.lihaoyi:scalaparse_2.11:0.3.7 -->
<g id="edge11" class="edge"><title>org.scalameta:tokenizers_2.11:0.1.0&#45;SNAPSHOT&#45;&gt;com.lihaoyi:scalaparse_2.11:0.3.7</title>
<path fill="none" stroke="black" d="M716.351,-311.777C743.806,-280.803 790.453,-228.175 820.74,-194.005"/>
<polygon fill="black" stroke="black" points="823.677,-195.969 827.69,-186.163 818.438,-191.325 823.677,-195.969"/>
</g>
<!-- org.scalameta:tokenizers_2.11:0.1.0&#45;SNAPSHOT&#45;&gt;org.scalameta:tokens_2.11:0.1.0&#45;SNAPSHOT -->
<g id="edge18" class="edge"><title>org.scalameta:tokenizers_2.11:0.1.0&#45;SNAPSHOT&#45;&gt;org.scalameta:tokens_2.11:0.1.0&#45;SNAPSHOT</title>
<path fill="none" stroke="black" d="M718.719,-362.346C745.647,-389.965 788.805,-434.23 818.23,-464.409"/>
<polygon fill="black" stroke="black" points="815.91,-467.043 825.397,-471.76 820.922,-462.156 815.91,-467.043"/>
</g>
<!-- org.scalameta:tokenizers_2.11:0.1.0&#45;SNAPSHOT&#45;&gt;org.scalameta:inputs_2.11:0.1.0&#45;SNAPSHOT -->
<g id="edge24" class="edge"><title>org.scalameta:tokenizers_2.11:0.1.0&#45;SNAPSHOT&#45;&gt;org.scalameta:inputs_2.11:0.1.0&#45;SNAPSHOT</title>
<path fill="none" stroke="black" d="M742.39,-362.054C757.346,-369.008 774.078,-376.009 790,-380.994 840.081,-396.674 898.517,-406.863 943.075,-413.032"/>
<polygon fill="black" stroke="black" points="942.846,-416.532 953.224,-414.401 943.781,-409.595 942.846,-416.532"/>
</g>
<!-- org.scalameta:tokenizers_2.11:0.1.0&#45;SNAPSHOT&#45;&gt;org.scalameta:dialects_2.11:0.1.0&#45;SNAPSHOT -->
<g id="edge29" class="edge"><title>org.scalameta:tokenizers_2.11:0.1.0&#45;SNAPSHOT&#45;&gt;org.scalameta:dialects_2.11:0.1.0&#45;SNAPSHOT</title>
<path fill="none" stroke="black" d="M754.081,-321.134C765.908,-318.606 778.283,-316.372 790,-314.994 840.948,-309 898.879,-308.663 942.994,-309.739"/>
<polygon fill="black" stroke="black" points="942.95,-313.239 953.042,-310.014 943.142,-306.242 942.95,-313.239"/>
</g>
<!-- org.scalameta:tokenizers_2.11:0.1.0&#45;SNAPSHOT&#45;&gt;org.scalameta:foundation_2.11:0.1.0&#45;SNAPSHOT -->
<g id="edge39" class="edge"><title>org.scalameta:tokenizers_2.11:0.1.0&#45;SNAPSHOT&#45;&gt;org.scalameta:foundation_2.11:0.1.0&#45;SNAPSHOT</title>
<path fill="none" stroke="black" d="M754.137,-338.554C848.918,-342.006 1027.75,-352.832 1081,-385.994 1125.47,-413.69 1154.56,-468.89 1169.76,-505.124"/>
<polygon fill="black" stroke="black" points="1166.68,-506.848 1173.68,-514.802 1173.17,-504.219 1166.68,-506.848"/>
</g>
<!-- org.scalameta:tokenizers_2.11:0.1.0&#45;SNAPSHOT&#45;&gt;org.scala&#45;lang:scala&#45;library:2.11.7 -->
<g id="edge49" class="edge"><title>org.scalameta:tokenizers_2.11:0.1.0&#45;SNAPSHOT&#45;&gt;org.scala&#45;lang:scala&#45;library:2.11.7</title>
<path fill="none" stroke="black" d="M696.817,-311.867C703.513,-265.592 725.025,-167.815 790,-125.994 835.594,-96.6467 857.815,-123.998 912,-125.994 1129.33,-133.999 1223.03,-35.5887 1400,-161.994 1451.61,-198.857 1471.18,-274.805 1478.42,-319.653"/>
<polygon fill="black" stroke="black" points="1474.99,-320.43 1479.93,-329.804 1481.92,-319.397 1474.99,-320.43"/>
</g>
<!-- com.lihaoyi:fastparse_2.11:0.3.7 -->
<g id="node8" class="node"><title>com.lihaoyi:fastparse_2.11:0.3.7</title>
<polygon fill="none" stroke="black" points="963.5,-218.994 963.5,-268.994 1065.5,-268.994 1065.5,-218.994 963.5,-218.994"/>
<text text-anchor="start" x="981" y="-254.794" font-family="Times,serif" font-size="14.00">com.lihaoyi</text>
<text text-anchor="start" x="971.5" y="-240.794" font-family="Times,serif" font-weight="bold" font-size="14.00">fastparse_2.11</text>
<text text-anchor="start" x="1000" y="-226.794" font-family="Times,serif" font-size="14.00">0.3.7</text>
</g>
<!-- com.lihaoyi:scalaparse_2.11:0.3.7&#45;&gt;com.lihaoyi:fastparse_2.11:0.3.7 -->
<g id="edge12" class="edge"><title>com.lihaoyi:scalaparse_2.11:0.3.7&#45;&gt;com.lihaoyi:fastparse_2.11:0.3.7</title>
<path fill="none" stroke="black" d="M900.894,-186.122C918.128,-194.979 937.669,-205.022 955.577,-214.225"/>
<polygon fill="black" stroke="black" points="954.279,-217.493 964.773,-218.951 957.478,-211.267 954.279,-217.493"/>
</g>
<!-- com.lihaoyi:sourcecode_2.11:0.1.1 -->
<g id="node10" class="node"><title>com.lihaoyi:sourcecode_2.11:0.1.1</title>
<polygon fill="none" stroke="black" points="1286,-206.994 1286,-256.994 1400,-256.994 1400,-206.994 1286,-206.994"/>
<text text-anchor="start" x="1309.5" y="-242.794" font-family="Times,serif" font-size="14.00">com.lihaoyi</text>
<text text-anchor="start" x="1294" y="-228.794" font-family="Times,serif" font-weight="bold" font-size="14.00">sourcecode_2.11</text>
<text text-anchor="start" x="1328.5" y="-214.794" font-family="Times,serif" font-size="14.00">0.1.1</text>
</g>
<!-- com.lihaoyi:scalaparse_2.11:0.3.7&#45;&gt;com.lihaoyi:sourcecode_2.11:0.1.1 -->
<g id="edge16" class="edge"><title>com.lihaoyi:scalaparse_2.11:0.3.7&#45;&gt;com.lihaoyi:sourcecode_2.11:0.1.1</title>
<path fill="none" stroke="black" d="M906.311,-168.863C996.798,-181.975 1178.11,-208.246 1275.88,-222.413"/>
<polygon fill="black" stroke="black" points="1275.54,-225.9 1285.94,-223.871 1276.55,-218.973 1275.54,-225.9"/>
</g>
<!-- com.lihaoyi:scalaparse_2.11:0.3.7&#45;&gt;org.scala&#45;lang:scala&#45;library:2.11.7 -->
<g id="edge55" class="edge"><title>com.lihaoyi:scalaparse_2.11:0.3.7&#45;&gt;org.scala&#45;lang:scala&#45;library:2.11.7</title>
<path fill="none" stroke="black" d="M906.4,-157.928C1028.55,-152.083 1320.15,-144.235 1400,-196.994 1442.6,-225.139 1464.55,-282.633 1474.78,-319.956"/>
<polygon fill="black" stroke="black" points="1471.47,-321.106 1477.37,-329.906 1478.24,-319.348 1471.47,-321.106"/>
</g>
<!-- com.lihaoyi:fastparse&#45;utils_2.11:0.3.7 -->
<g id="node9" class="node"><title>com.lihaoyi:fastparse&#45;utils_2.11:0.3.7</title>
<polygon fill="none" stroke="black" points="1117,-256.994 1117,-306.994 1250,-306.994 1250,-256.994 1117,-256.994"/>
<text text-anchor="start" x="1150" y="-292.794" font-family="Times,serif" font-size="14.00">com.lihaoyi</text>
<text text-anchor="start" x="1125" y="-278.794" font-family="Times,serif" font-weight="bold" font-size="14.00">fastparse&#45;utils_2.11</text>
<text text-anchor="start" x="1169" y="-264.794" font-family="Times,serif" font-size="14.00">0.3.7</text>
</g>
<!-- com.lihaoyi:fastparse_2.11:0.3.7&#45;&gt;com.lihaoyi:fastparse&#45;utils_2.11:0.3.7 -->
<g id="edge13" class="edge"><title>com.lihaoyi:fastparse_2.11:0.3.7&#45;&gt;com.lihaoyi:fastparse&#45;utils_2.11:0.3.7</title>
<path fill="none" stroke="black" d="M1065.61,-255.395C1078.59,-258.35 1092.87,-261.599 1106.86,-264.781"/>
<polygon fill="black" stroke="black" points="1106.43,-268.275 1116.96,-267.081 1107.99,-261.449 1106.43,-268.275"/>
</g>
<!-- com.lihaoyi:fastparse_2.11:0.3.7&#45;&gt;com.lihaoyi:sourcecode_2.11:0.1.1 -->
<g id="edge15" class="edge"><title>com.lihaoyi:fastparse_2.11:0.3.7&#45;&gt;com.lihaoyi:sourcecode_2.11:0.1.1</title>
<path fill="none" stroke="black" d="M1065.8,-242.145C1122.14,-240.074 1213.69,-236.71 1275.8,-234.427"/>
<polygon fill="black" stroke="black" points="1276.03,-237.921 1285.89,-234.056 1275.77,-230.926 1276.03,-237.921"/>
</g>
<!-- com.lihaoyi:fastparse_2.11:0.3.7&#45;&gt;org.scala&#45;lang:scala&#45;library:2.11.7 -->
<g id="edge53" class="edge"><title>com.lihaoyi:fastparse_2.11:0.3.7&#45;&gt;org.scala&#45;lang:scala&#45;library:2.11.7</title>
<path fill="none" stroke="black" d="M1065.57,-267.732C1070.94,-270.932 1076.19,-274.371 1081,-277.994 1099.58,-291.992 1096.15,-305.679 1117,-315.994 1169.82,-342.121 1336.66,-350.849 1425.51,-353.683"/>
<polygon fill="black" stroke="black" points="1425.58,-357.187 1435.69,-353.993 1425.8,-350.19 1425.58,-357.187"/>
</g>
<!-- com.lihaoyi:fastparse&#45;utils_2.11:0.3.7&#45;&gt;com.lihaoyi:sourcecode_2.11:0.1.1 -->
<g id="edge14" class="edge"><title>com.lihaoyi:fastparse&#45;utils_2.11:0.3.7&#45;&gt;com.lihaoyi:sourcecode_2.11:0.1.1</title>
<path fill="none" stroke="black" d="M1250.38,-261.079C1258.96,-258.357 1267.74,-255.568 1276.31,-252.847"/>
<polygon fill="black" stroke="black" points="1277.4,-256.173 1285.88,-249.811 1275.29,-249.501 1277.4,-256.173"/>
</g>
<!-- com.lihaoyi:fastparse&#45;utils_2.11:0.3.7&#45;&gt;org.scala&#45;lang:scala&#45;library:2.11.7 -->
<g id="edge44" class="edge"><title>com.lihaoyi:fastparse&#45;utils_2.11:0.3.7&#45;&gt;org.scala&#45;lang:scala&#45;library:2.11.7</title>
<path fill="none" stroke="black" d="M1250.35,-290.773C1293.43,-297.356 1350.66,-307.698 1400,-321.994 1408.7,-324.516 1417.76,-327.618 1426.54,-330.902"/>
<polygon fill="black" stroke="black" points="1425.35,-334.193 1435.94,-334.517 1427.87,-327.66 1425.35,-334.193"/>
</g>
<!-- com.lihaoyi:sourcecode_2.11:0.1.1&#45;&gt;org.scala&#45;lang:scala&#45;library:2.11.7 -->
<g id="edge48" class="edge"><title>com.lihaoyi:sourcecode_2.11:0.1.1&#45;&gt;org.scala&#45;lang:scala&#45;library:2.11.7</title>
<path fill="none" stroke="black" d="M1377.01,-257.06C1384.67,-263.118 1392.72,-269.672 1400,-275.994 1416.96,-290.716 1435.06,-307.874 1449.98,-322.432"/>
<polygon fill="black" stroke="black" points="1447.87,-325.272 1457.46,-329.78 1452.78,-320.277 1447.87,-325.272"/>
</g>
<!-- org.scalameta:tokens_2.11:0.1.0&#45;SNAPSHOT&#45;&gt;org.scalameta:prettyprinters_2.11:0.1.0&#45;SNAPSHOT -->
<g id="edge20" class="edge"><title>org.scalameta:tokens_2.11:0.1.0&#45;SNAPSHOT&#45;&gt;org.scalameta:prettyprinters_2.11:0.1.0&#45;SNAPSHOT</title>
<path fill="none" stroke="black" d="M870.212,-522.028C899.351,-562.084 956.485,-640.621 989.117,-685.476"/>
<polygon fill="black" stroke="black" points="986.393,-687.682 995.107,-693.71 992.054,-683.564 986.393,-687.682"/>
</g>
<!-- org.scalameta:tokens_2.11:0.1.0&#45;SNAPSHOT&#45;&gt;org.scalameta:inputs_2.11:0.1.0&#45;SNAPSHOT -->
<g id="edge23" class="edge"><title>org.scalameta:tokens_2.11:0.1.0&#45;SNAPSHOT&#45;&gt;org.scalameta:inputs_2.11:0.1.0&#45;SNAPSHOT</title>
<path fill="none" stroke="black" d="M905.329,-471.898C919.937,-465.023 935.905,-457.509 950.978,-450.416"/>
<polygon fill="black" stroke="black" points="952.669,-453.488 960.227,-446.063 949.689,-447.154 952.669,-453.488"/>
</g>
<!-- org.scalameta:tokens_2.11:0.1.0&#45;SNAPSHOT&#45;&gt;org.scalameta:dialects_2.11:0.1.0&#45;SNAPSHOT -->
<g id="edge27" class="edge"><title>org.scalameta:tokens_2.11:0.1.0&#45;SNAPSHOT&#45;&gt;org.scalameta:dialects_2.11:0.1.0&#45;SNAPSHOT</title>
<path fill="none" stroke="black" d="M873.602,-471.752C892.974,-449.18 922.232,-415.244 948,-385.994 959.651,-372.768 972.589,-358.302 983.869,-345.761"/>
<polygon fill="black" stroke="black" points="986.56,-348.003 990.651,-338.23 981.358,-343.319 986.56,-348.003"/>
</g>
<!-- org.scalameta:tokens_2.11:0.1.0&#45;SNAPSHOT&#45;&gt;org.scalameta:foundation_2.11:0.1.0&#45;SNAPSHOT -->
<g id="edge35" class="edge"><title>org.scalameta:tokens_2.11:0.1.0&#45;SNAPSHOT&#45;&gt;org.scalameta:foundation_2.11:0.1.0&#45;SNAPSHOT</title>
<path fill="none" stroke="black" d="M912.234,-504.831C968.644,-512.17 1052.93,-523.136 1112.35,-530.867"/>
<polygon fill="black" stroke="black" points="1112.03,-534.355 1122.4,-532.174 1112.94,-527.413 1112.03,-534.355"/>
</g>
<!-- org.scalameta:tokens_2.11:0.1.0&#45;SNAPSHOT&#45;&gt;org.scala&#45;lang:scala&#45;library:2.11.7 -->
<g id="edge46" class="edge"><title>org.scalameta:tokens_2.11:0.1.0&#45;SNAPSHOT&#45;&gt;org.scala&#45;lang:scala&#45;library:2.11.7</title>
<path fill="none" stroke="black" d="M912.11,-493.371C1014.84,-485.7 1229.61,-463.18 1400,-401.994 1412.12,-397.642 1424.52,-391.57 1435.91,-385.232"/>
<polygon fill="black" stroke="black" points="1437.88,-388.139 1444.8,-380.12 1434.39,-382.071 1437.88,-388.139"/>
</g>
<!-- org.scalameta:prettyprinters_2.11:0.1.0&#45;SNAPSHOT&#45;&gt;org.scalameta:foundation_2.11:0.1.0&#45;SNAPSHOT -->
<g id="edge33" class="edge"><title>org.scalameta:prettyprinters_2.11:0.1.0&#45;SNAPSHOT&#45;&gt;org.scalameta:foundation_2.11:0.1.0&#45;SNAPSHOT</title>
<path fill="none" stroke="black" d="M1039.07,-693.727C1068.66,-662.011 1119.47,-607.549 1152,-572.687"/>
<polygon fill="black" stroke="black" points="1154.78,-574.831 1159.05,-565.132 1149.67,-570.056 1154.78,-574.831"/>
</g>
<!-- org.scalameta:prettyprinters_2.11:0.1.0&#45;SNAPSHOT&#45;&gt;org.scala&#45;lang:scala&#45;library:2.11.7 -->
<g id="edge43" class="edge"><title>org.scalameta:prettyprinters_2.11:0.1.0&#45;SNAPSHOT&#45;&gt;org.scala&#45;lang:scala&#45;library:2.11.7</title>
<path fill="none" stroke="black" d="M1081.01,-732.752C1165.34,-746.356 1311.51,-755.45 1400,-678.994 1443.73,-641.21 1469.35,-466.163 1478.57,-390.26"/>
<polygon fill="black" stroke="black" points="1482.06,-390.575 1479.76,-380.232 1475.11,-389.749 1482.06,-390.575"/>
</g>
<!-- org.scalameta:inputs_2.11:0.1.0&#45;SNAPSHOT&#45;&gt;org.scalameta:foundation_2.11:0.1.0&#45;SNAPSHOT -->
<g id="edge32" class="edge"><title>org.scalameta:inputs_2.11:0.1.0&#45;SNAPSHOT&#45;&gt;org.scalameta:foundation_2.11:0.1.0&#45;SNAPSHOT</title>
<path fill="none" stroke="black" d="M1050.92,-446.231C1076.6,-464.532 1111.49,-489.394 1138.89,-508.918"/>
<polygon fill="black" stroke="black" points="1136.96,-511.84 1147.13,-514.793 1141.02,-506.14 1136.96,-511.84"/>
</g>
<!-- org.scalameta:inputs_2.11:0.1.0&#45;SNAPSHOT&#45;&gt;org.scala&#45;lang:scala&#45;library:2.11.7 -->
<g id="edge42" class="edge"><title>org.scalameta:inputs_2.11:0.1.0&#45;SNAPSHOT&#45;&gt;org.scala&#45;lang:scala&#45;library:2.11.7</title>
<path fill="none" stroke="black" d="M1075.56,-417.274C1151.61,-411.879 1286.42,-400.03 1400,-377.994 1408.39,-376.365 1417.18,-374.308 1425.76,-372.097"/>
<polygon fill="black" stroke="black" points="1426.93,-375.405 1435.69,-369.447 1425.13,-368.642 1426.93,-375.405"/>
</g>
<!-- org.scalameta:dialects_2.11:0.1.0&#45;SNAPSHOT&#45;&gt;org.scalameta:foundation_2.11:0.1.0&#45;SNAPSHOT -->
<g id="edge36" class="edge"><title>org.scalameta:dialects_2.11:0.1.0&#45;SNAPSHOT&#45;&gt;org.scalameta:foundation_2.11:0.1.0&#45;SNAPSHOT</title>
<path fill="none" stroke="black" d="M1063.56,-338.185C1069.83,-342.628 1075.86,-347.585 1081,-352.994 1123.9,-398.139 1154.32,-464.929 1170.09,-505.273"/>
<polygon fill="black" stroke="black" points="1166.85,-506.596 1173.69,-514.686 1173.38,-504.095 1166.85,-506.596"/>
</g>
<!-- org.scalameta:dialects_2.11:0.1.0&#45;SNAPSHOT&#45;&gt;org.scala&#45;lang:scala&#45;library:2.11.7 -->
<g id="edge47" class="edge"><title>org.scalameta:dialects_2.11:0.1.0&#45;SNAPSHOT&#45;&gt;org.scala&#45;lang:scala&#45;library:2.11.7</title>
<path fill="none" stroke="black" d="M1073.87,-338.045C1087.76,-342.941 1102.7,-347.368 1117,-349.994 1224.68,-369.768 1353.21,-365.162 1425.6,-360.054"/>
<polygon fill="black" stroke="black" points="1426.14,-363.524 1435.86,-359.3 1425.63,-356.543 1426.14,-363.524"/>
</g>
<!-- org.scalameta:classifiers_2.11:0.1.0&#45;SNAPSHOT&#45;&gt;org.scalameta:foundation_2.11:0.1.0&#45;SNAPSHOT -->
<g id="edge40" class="edge"><title>org.scalameta:classifiers_2.11:0.1.0&#45;SNAPSHOT&#45;&gt;org.scalameta:foundation_2.11:0.1.0&#45;SNAPSHOT</title>
<path fill="none" stroke="black" d="M1027.66,-85.1966C1041.56,-114.532 1064.51,-164.628 1081,-208.994 1101.7,-264.687 1150.96,-431.768 1172.33,-504.979"/>
<polygon fill="black" stroke="black" points="1168.99,-506.044 1175.15,-514.665 1175.71,-504.085 1168.99,-506.044"/>
</g>
<!-- org.scalameta:classifiers_2.11:0.1.0&#45;SNAPSHOT&#45;&gt;org.scala&#45;lang:scala&#45;library:2.11.7 -->
<g id="edge50" class="edge"><title>org.scalameta:classifiers_2.11:0.1.0&#45;SNAPSHOT&#45;&gt;org.scala&#45;lang:scala&#45;library:2.11.7</title>
<path fill="none" stroke="black" d="M1075.68,-47.8203C1158.38,-34.7812 1307.43,-25.0156 1400,-99.9937 1466.92,-154.194 1480.2,-263.3 1482.42,-319.598"/>
<polygon fill="black" stroke="black" points="1478.93,-319.905 1482.72,-329.797 1485.93,-319.697 1478.93,-319.905"/>
</g>
<!-- org.scalameta:foundation_2.11:0.1.0&#45;SNAPSHOT&#45;&gt;org.scala&#45;lang:scala&#45;library:2.11.7 -->
<g id="edge45" class="edge"><title>org.scalameta:foundation_2.11:0.1.0&#45;SNAPSHOT&#45;&gt;org.scala&#45;lang:scala&#45;library:2.11.7</title>
<path fill="none" stroke="black" d="M1244.95,-538.002C1291.24,-533.75 1354.66,-521.754 1400,-488.994 1434.27,-464.235 1457.25,-420.443 1470.07,-389.677"/>
<polygon fill="black" stroke="black" points="1473.41,-390.77 1473.88,-380.186 1466.91,-388.164 1473.41,-390.77"/>
</g>
</g>
</svg>
