<?xml version="1.0" encoding="UTF-8" standalone="no"?>
<!DOCTYPE svg PUBLIC "-//W3C//DTD SVG 1.1//EN"
 "http://www.w3.org/Graphics/SVG/1.1/DTD/svg11.dtd">
<!-- Generated by graphviz version 2.38.0 (20140413.2041)
 -->
<!-- Title: dependency&#45;graph Pages: 1 -->
<svg width="1528pt" height="838pt"
 viewBox="0.00 0.00 1528.00 838.04" xmlns="http://www.w3.org/2000/svg" xmlns:xlink="http://www.w3.org/1999/xlink">
<g id="graph0" class="graph" transform="scale(1 1) rotate(0) translate(4 834.041)">
<title>dependency&#45;graph</title>
<polygon fill="white" stroke="none" points="-4,4 -4,-834.041 1524,-834.041 1524,4 -4,4"/>
<!-- org.scalameta:scalameta_2.11:0.1.0&#45;SNAPSHOT -->
<g id="node1" class="node"><title>org.scalameta:scalameta_2.11:0.1.0&#45;SNAPSHOT</title>
<polygon fill="none" stroke="black" points="0,-589.041 0,-639.041 122,-639.041 122,-589.041 0,-589.041"/>
<text text-anchor="start" x="22" y="-624.841" font-family="Times,serif" font-size="14.00">org.scalameta</text>
<text text-anchor="start" x="15.5" y="-610.841" font-family="Times,serif" font-weight="bold" font-size="14.00">scalameta_2.11</text>
<text text-anchor="start" x="8" y="-596.841" font-family="Times,serif" font-size="14.00">0.1.0&#45;SNAPSHOT</text>
</g>
<!-- org.scalameta:transversers_2.11:0.1.0&#45;SNAPSHOT -->
<g id="node2" class="node"><title>org.scalameta:transversers_2.11:0.1.0&#45;SNAPSHOT</title>
<polygon fill="none" stroke="black" points="316,-707.041 316,-757.041 438,-757.041 438,-707.041 316,-707.041"/>
<text text-anchor="start" x="338" y="-742.841" font-family="Times,serif" font-size="14.00">org.scalameta</text>
<text text-anchor="start" x="324" y="-728.841" font-family="Times,serif" font-weight="bold" font-size="14.00">transversers_2.11</text>
<text text-anchor="start" x="324" y="-714.841" font-family="Times,serif" font-size="14.00">0.1.0&#45;SNAPSHOT</text>
</g>
<!-- org.scalameta:scalameta_2.11:0.1.0&#45;SNAPSHOT&#45;&gt;org.scalameta:transversers_2.11:0.1.0&#45;SNAPSHOT -->
<g id="edge1" class="edge"><title>org.scalameta:scalameta_2.11:0.1.0&#45;SNAPSHOT&#45;&gt;org.scalameta:transversers_2.11:0.1.0&#45;SNAPSHOT</title>
<path fill="none" stroke="black" d="M95.6591,-639.078C113.451,-651.347 136.095,-665.497 158,-675.041 205.412,-695.698 261.993,-710.221 305.628,-719.436"/>
<polygon fill="black" stroke="black" points="305.078,-722.896 315.579,-721.493 306.495,-716.041 305.078,-722.896"/>
</g>
<!-- org.scalameta:quasiquotes_2.11:0.1.0&#45;SNAPSHOT -->
<g id="node3" class="node"><title>org.scalameta:quasiquotes_2.11:0.1.0&#45;SNAPSHOT</title>
<polygon fill="none" stroke="black" points="158,-616.041 158,-666.041 280,-666.041 280,-616.041 158,-616.041"/>
<text text-anchor="start" x="180" y="-651.841" font-family="Times,serif" font-size="14.00">org.scalameta</text>
<text text-anchor="start" x="167.5" y="-637.841" font-family="Times,serif" font-weight="bold" font-size="14.00">quasiquotes_2.11</text>
<text text-anchor="start" x="166" y="-623.841" font-family="Times,serif" font-size="14.00">0.1.0&#45;SNAPSHOT</text>
</g>
<!-- org.scalameta:scalameta_2.11:0.1.0&#45;SNAPSHOT&#45;&gt;org.scalameta:quasiquotes_2.11:0.1.0&#45;SNAPSHOT -->
<g id="edge2" class="edge"><title>org.scalameta:scalameta_2.11:0.1.0&#45;SNAPSHOT&#45;&gt;org.scalameta:quasiquotes_2.11:0.1.0&#45;SNAPSHOT</title>
<path fill="none" stroke="black" d="M122.314,-624.48C130.695,-625.93 139.363,-627.431 147.904,-628.909"/>
<polygon fill="black" stroke="black" points="147.396,-632.373 157.847,-630.63 148.59,-625.475 147.396,-632.373"/>
</g>
<!-- org.scalameta:parsers_2.11:0.1.0&#45;SNAPSHOT -->
<g id="node4" class="node"><title>org.scalameta:parsers_2.11:0.1.0&#45;SNAPSHOT</title>
<polygon fill="none" stroke="black" points="316,-494.041 316,-544.041 438,-544.041 438,-494.041 316,-494.041"/>
<text text-anchor="start" x="338" y="-529.841" font-family="Times,serif" font-size="14.00">org.scalameta</text>
<text text-anchor="start" x="339" y="-515.841" font-family="Times,serif" font-weight="bold" font-size="14.00">parsers_2.11</text>
<text text-anchor="start" x="324" y="-501.841" font-family="Times,serif" font-size="14.00">0.1.0&#45;SNAPSHOT</text>
</g>
<!-- org.scalameta:scalameta_2.11:0.1.0&#45;SNAPSHOT&#45;&gt;org.scalameta:parsers_2.11:0.1.0&#45;SNAPSHOT -->
<g id="edge4" class="edge"><title>org.scalameta:scalameta_2.11:0.1.0&#45;SNAPSHOT&#45;&gt;org.scalameta:parsers_2.11:0.1.0&#45;SNAPSHOT</title>
<path fill="none" stroke="black" d="M116.494,-588.973C129.904,-583.305 144.338,-577.617 158,-573.041 206.535,-556.783 262.617,-542.999 305.744,-533.427"/>
<polygon fill="black" stroke="black" points="306.56,-536.832 315.577,-531.268 305.059,-529.995 306.56,-536.832"/>
</g>
<!-- org.scalameta:trees_2.11:0.1.0&#45;SNAPSHOT -->
<g id="node5" class="node"><title>org.scalameta:trees_2.11:0.1.0&#45;SNAPSHOT</title>
<polygon fill="none" stroke="black" points="474,-570.041 474,-620.041 596,-620.041 596,-570.041 474,-570.041"/>
<text text-anchor="start" x="496" y="-605.841" font-family="Times,serif" font-size="14.00">org.scalameta</text>
<text text-anchor="start" x="504.5" y="-591.841" font-family="Times,serif" font-weight="bold" font-size="14.00">trees_2.11</text>
<text text-anchor="start" x="482" y="-577.841" font-family="Times,serif" font-size="14.00">0.1.0&#45;SNAPSHOT</text>
</g>
<!-- org.scalameta:scalameta_2.11:0.1.0&#45;SNAPSHOT&#45;&gt;org.scalameta:trees_2.11:0.1.0&#45;SNAPSHOT -->
<g id="edge7" class="edge"><title>org.scalameta:scalameta_2.11:0.1.0&#45;SNAPSHOT&#45;&gt;org.scalameta:trees_2.11:0.1.0&#45;SNAPSHOT</title>
<path fill="none" stroke="black" d="M122.137,-608.529C134.015,-607.582 146.395,-606.694 158,-606.041 264.332,-600.059 387.774,-597.235 463.377,-595.972"/>
<polygon fill="black" stroke="black" points="463.779,-599.466 473.72,-595.804 463.665,-592.467 463.779,-599.466"/>
</g>
<!-- org.scalameta:tokenizers_2.11:0.1.0&#45;SNAPSHOT -->
<g id="node6" class="node"><title>org.scalameta:tokenizers_2.11:0.1.0&#45;SNAPSHOT</title>
<polygon fill="none" stroke="black" points="632,-344.041 632,-394.041 754,-394.041 754,-344.041 632,-344.041"/>
<text text-anchor="start" x="654" y="-379.841" font-family="Times,serif" font-size="14.00">org.scalameta</text>
<text text-anchor="start" x="646.5" y="-365.841" font-family="Times,serif" font-weight="bold" font-size="14.00">tokenizers_2.11</text>
<text text-anchor="start" x="640" y="-351.841" font-family="Times,serif" font-size="14.00">0.1.0&#45;SNAPSHOT</text>
</g>
<!-- org.scalameta:scalameta_2.11:0.1.0&#45;SNAPSHOT&#45;&gt;org.scalameta:tokenizers_2.11:0.1.0&#45;SNAPSHOT -->
<g id="edge10" class="edge"><title>org.scalameta:scalameta_2.11:0.1.0&#45;SNAPSHOT&#45;&gt;org.scalameta:tokenizers_2.11:0.1.0&#45;SNAPSHOT</title>
<path fill="none" stroke="black" d="M88.2927,-588.689C106.623,-572.135 132.31,-551.069 158,-537.041 312.73,-452.546 516.3,-403.443 621.806,-382"/>
<polygon fill="black" stroke="black" points="622.59,-385.412 631.705,-380.011 621.211,-378.549 622.59,-385.412"/>
</g>
<!-- org.scalameta:dialects_2.11:0.1.0&#45;SNAPSHOT -->
<g id="node13" class="node"><title>org.scalameta:dialects_2.11:0.1.0&#45;SNAPSHOT</title>
<polygon fill="none" stroke="black" points="948,-340.041 948,-390.041 1070,-390.041 1070,-340.041 948,-340.041"/>
<text text-anchor="start" x="970" y="-375.841" font-family="Times,serif" font-size="14.00">org.scalameta</text>
<text text-anchor="start" x="970.5" y="-361.841" font-family="Times,serif" font-weight="bold" font-size="14.00">dialects_2.11</text>
<text text-anchor="start" x="956" y="-347.841" font-family="Times,serif" font-size="14.00">0.1.0&#45;SNAPSHOT</text>
</g>
<!-- org.scalameta:scalameta_2.11:0.1.0&#45;SNAPSHOT&#45;&gt;org.scalameta:dialects_2.11:0.1.0&#45;SNAPSHOT -->
<g id="edge25" class="edge"><title>org.scalameta:scalameta_2.11:0.1.0&#45;SNAPSHOT&#45;&gt;org.scalameta:dialects_2.11:0.1.0&#45;SNAPSHOT</title>
<path fill="none" stroke="black" d="M68.5946,-588.795C92.9848,-501.835 186.631,-220.041 376,-220.041 376,-220.041 376,-220.041 694,-220.041 801.594,-220.041 912.406,-291.081 969.217,-333.712"/>
<polygon fill="black" stroke="black" points="967.122,-336.516 977.2,-339.784 971.359,-330.944 967.122,-336.516"/>
</g>
<!-- org.scalameta:common_2.11:0.1.0&#45;SNAPSHOT -->
<g id="node14" class="node"><title>org.scalameta:common_2.11:0.1.0&#45;SNAPSHOT</title>
<polygon fill="none" stroke="black" points="1111.5,-558.041 1111.5,-608.041 1233.5,-608.041 1233.5,-558.041 1111.5,-558.041"/>
<text text-anchor="start" x="1133.5" y="-593.841" font-family="Times,serif" font-size="14.00">org.scalameta</text>
<text text-anchor="start" x="1131" y="-579.841" font-family="Times,serif" font-weight="bold" font-size="14.00">common_2.11</text>
<text text-anchor="start" x="1119.5" y="-565.841" font-family="Times,serif" font-size="14.00">0.1.0&#45;SNAPSHOT</text>
</g>
<!-- org.scalameta:scalameta_2.11:0.1.0&#45;SNAPSHOT&#45;&gt;org.scalameta:common_2.11:0.1.0&#45;SNAPSHOT -->
<g id="edge33" class="edge"><title>org.scalameta:scalameta_2.11:0.1.0&#45;SNAPSHOT&#45;&gt;org.scalameta:common_2.11:0.1.0&#45;SNAPSHOT</title>
<path fill="none" stroke="black" d="M82.1769,-639.203C100.179,-660.267 128.229,-689.876 158,-709.041 245.172,-765.159 272.326,-792.041 376,-792.041 376,-792.041 376,-792.041 852,-792.041 952.259,-792.041 988.372,-792.255 1070,-734.041 1111.49,-704.451 1141,-652.186 1157.15,-617.577"/>
<polygon fill="black" stroke="black" points="1160.4,-618.87 1161.35,-608.318 1154.03,-615.979 1160.4,-618.87"/>
</g>
<!-- org.scala&#45;lang:scala&#45;library:2.11.7 -->
<g id="node15" class="node"><title>org.scala&#45;lang:scala&#45;library:2.11.7</title>
<polygon fill="none" stroke="black" points="1425,-309.041 1425,-359.041 1520,-359.041 1520,-309.041 1425,-309.041"/>
<text text-anchor="start" x="1433" y="-344.841" font-family="Times,serif" font-size="14.00">org.scala&#45;lang</text>
<text text-anchor="start" x="1434" y="-330.841" font-family="Times,serif" font-weight="bold" font-size="14.00">scala&#45;library</text>
<text text-anchor="start" x="1454.5" y="-316.841" font-family="Times,serif" font-size="14.00">2.11.7</text>
</g>
<!-- org.scalameta:scalameta_2.11:0.1.0&#45;SNAPSHOT&#45;&gt;org.scala&#45;lang:scala&#45;library:2.11.7 -->
<g id="edge45" class="edge"><title>org.scalameta:scalameta_2.11:0.1.0&#45;SNAPSHOT&#45;&gt;org.scala&#45;lang:scala&#45;library:2.11.7</title>
<path fill="none" stroke="black" d="M72.4371,-639.149C87.0059,-671.223 116.409,-726.364 158,-758.041 239.174,-819.865 273.963,-830.041 376,-830.041 376,-830.041 376,-830.041 1173.5,-830.041 1388.57,-830.041 1452.34,-483.136 1467.45,-369.562"/>
<polygon fill="black" stroke="black" points="1470.96,-369.683 1468.76,-359.319 1464.02,-368.793 1470.96,-369.683"/>
</g>
<!-- org.scalameta:transversers_2.11:0.1.0&#45;SNAPSHOT&#45;&gt;org.scalameta:trees_2.11:0.1.0&#45;SNAPSHOT -->
<g id="edge8" class="edge"><title>org.scalameta:transversers_2.11:0.1.0&#45;SNAPSHOT&#45;&gt;org.scalameta:trees_2.11:0.1.0&#45;SNAPSHOT</title>
<path fill="none" stroke="black" d="M406.613,-706.913C432.261,-684.389 470.012,-651.236 497.762,-626.866"/>
<polygon fill="black" stroke="black" points="500.101,-629.469 505.305,-620.241 495.481,-624.21 500.101,-629.469"/>
</g>
<!-- org.scalameta:transversers_2.11:0.1.0&#45;SNAPSHOT&#45;&gt;org.scalameta:common_2.11:0.1.0&#45;SNAPSHOT -->
<g id="edge35" class="edge"><title>org.scalameta:transversers_2.11:0.1.0&#45;SNAPSHOT&#45;&gt;org.scalameta:common_2.11:0.1.0&#45;SNAPSHOT</title>
<path fill="none" stroke="black" d="M438.108,-738.761C501.245,-745.231 603.471,-754.041 692,-754.041 692,-754.041 692,-754.041 852,-754.041 952.731,-754.041 984.074,-744.61 1070,-692.041 1101.57,-672.727 1129.57,-640.938 1148.12,-616.661"/>
<polygon fill="black" stroke="black" points="1151.09,-618.526 1154.27,-608.42 1145.48,-614.336 1151.09,-618.526"/>
</g>
<!-- org.scalameta:quasiquotes_2.11:0.1.0&#45;SNAPSHOT&#45;&gt;org.scalameta:parsers_2.11:0.1.0&#45;SNAPSHOT -->
<g id="edge3" class="edge"><title>org.scalameta:quasiquotes_2.11:0.1.0&#45;SNAPSHOT&#45;&gt;org.scalameta:parsers_2.11:0.1.0&#45;SNAPSHOT</title>
<path fill="none" stroke="black" d="M252.323,-615.762C276.563,-596.806 309.889,-570.743 335.84,-550.448"/>
<polygon fill="black" stroke="black" points="338.264,-552.995 343.985,-544.078 333.952,-547.481 338.264,-552.995"/>
</g>
<!-- org.scalameta:quasiquotes_2.11:0.1.0&#45;SNAPSHOT&#45;&gt;org.scalameta:trees_2.11:0.1.0&#45;SNAPSHOT -->
<g id="edge6" class="edge"><title>org.scalameta:quasiquotes_2.11:0.1.0&#45;SNAPSHOT&#45;&gt;org.scalameta:trees_2.11:0.1.0&#45;SNAPSHOT</title>
<path fill="none" stroke="black" d="M280.171,-632.226C332.559,-624.551 408.546,-613.419 463.717,-605.337"/>
<polygon fill="black" stroke="black" points="464.379,-608.777 473.766,-603.865 463.364,-601.851 464.379,-608.777"/>
</g>
<!-- org.scalameta:quasiquotes_2.11:0.1.0&#45;SNAPSHOT&#45;&gt;org.scalameta:common_2.11:0.1.0&#45;SNAPSHOT -->
<g id="edge32" class="edge"><title>org.scalameta:quasiquotes_2.11:0.1.0&#45;SNAPSHOT&#45;&gt;org.scalameta:common_2.11:0.1.0&#45;SNAPSHOT</title>
<path fill="none" stroke="black" d="M280.241,-652.393C343.27,-663.27 445.214,-678.041 534,-678.041 534,-678.041 534,-678.041 852,-678.041 950.671,-678.041 976.84,-668.553 1070,-636.041 1087.26,-630.018 1105.21,-621.483 1121.14,-613.019"/>
<polygon fill="black" stroke="black" points="1123.15,-615.913 1130.26,-608.063 1119.8,-609.762 1123.15,-615.913"/>
</g>
<!-- org.scalameta:parsers_2.11:0.1.0&#45;SNAPSHOT&#45;&gt;org.scalameta:trees_2.11:0.1.0&#45;SNAPSHOT -->
<g id="edge5" class="edge"><title>org.scalameta:parsers_2.11:0.1.0&#45;SNAPSHOT&#45;&gt;org.scalameta:trees_2.11:0.1.0&#45;SNAPSHOT</title>
<path fill="none" stroke="black" d="M429.513,-544.137C443.49,-550.946 458.756,-558.383 473.195,-565.418"/>
<polygon fill="black" stroke="black" points="472.019,-568.738 482.542,-569.971 475.085,-562.445 472.019,-568.738"/>
</g>
<!-- org.scalameta:inputs_2.11:0.1.0&#45;SNAPSHOT -->
<g id="node12" class="node"><title>org.scalameta:inputs_2.11:0.1.0&#45;SNAPSHOT</title>
<polygon fill="none" stroke="black" points="948,-409.041 948,-459.041 1070,-459.041 1070,-409.041 948,-409.041"/>
<text text-anchor="start" x="970" y="-444.841" font-family="Times,serif" font-size="14.00">org.scalameta</text>
<text text-anchor="start" x="974.5" y="-430.841" font-family="Times,serif" font-weight="bold" font-size="14.00">inputs_2.11</text>
<text text-anchor="start" x="956" y="-416.841" font-family="Times,serif" font-size="14.00">0.1.0&#45;SNAPSHOT</text>
</g>
<!-- org.scalameta:parsers_2.11:0.1.0&#45;SNAPSHOT&#45;&gt;org.scalameta:inputs_2.11:0.1.0&#45;SNAPSHOT -->
<g id="edge19" class="edge"><title>org.scalameta:parsers_2.11:0.1.0&#45;SNAPSHOT&#45;&gt;org.scalameta:inputs_2.11:0.1.0&#45;SNAPSHOT</title>
<path fill="none" stroke="black" d="M438.155,-510.149C450.032,-508.427 462.406,-506.657 474,-505.041 640.121,-481.885 835.561,-456.328 937.714,-443.098"/>
<polygon fill="black" stroke="black" points="938.436,-446.534 947.904,-441.78 937.537,-439.592 938.436,-446.534"/>
</g>
<!-- org.scalameta:parsers_2.11:0.1.0&#45;SNAPSHOT&#45;&gt;org.scalameta:dialects_2.11:0.1.0&#45;SNAPSHOT -->
<g id="edge23" class="edge"><title>org.scalameta:parsers_2.11:0.1.0&#45;SNAPSHOT&#45;&gt;org.scalameta:dialects_2.11:0.1.0&#45;SNAPSHOT</title>
<path fill="none" stroke="black" d="M401.27,-493.878C442.722,-451.132 534.218,-365.876 632,-334.041 734.521,-300.663 860.659,-323.026 937.653,-343.248"/>
<polygon fill="black" stroke="black" points="937.155,-346.738 947.72,-345.953 938.971,-339.977 937.155,-346.738"/>
</g>
<!-- org.scalameta:parsers_2.11:0.1.0&#45;SNAPSHOT&#45;&gt;org.scalameta:common_2.11:0.1.0&#45;SNAPSHOT -->
<g id="edge29" class="edge"><title>org.scalameta:parsers_2.11:0.1.0&#45;SNAPSHOT&#45;&gt;org.scalameta:common_2.11:0.1.0&#45;SNAPSHOT</title>
<path fill="none" stroke="black" d="M438.072,-529.376C541.72,-546.519 761.032,-579.774 948,-588.041 999.26,-590.307 1057.18,-588.899 1101.21,-587.008"/>
<polygon fill="black" stroke="black" points="1101.41,-590.503 1111.24,-586.558 1101.09,-583.51 1101.41,-590.503"/>
</g>
<!-- org.scalameta:parsers_2.11:0.1.0&#45;SNAPSHOT&#45;&gt;org.scala&#45;lang:scala&#45;library:2.11.7 -->
<g id="edge38" class="edge"><title>org.scalameta:parsers_2.11:0.1.0&#45;SNAPSHOT&#45;&gt;org.scala&#45;lang:scala&#45;library:2.11.7</title>
<path fill="none" stroke="black" d="M387.579,-493.826C402.125,-457.936 432.542,-391.446 474,-346.041 588.539,-220.596 632.265,-194.091 790,-131.041 1038.13,-31.8561 1172.91,78.1653 1389,-79.0407 1458.96,-129.935 1470.82,-241.411 1472.06,-298.623"/>
<polygon fill="black" stroke="black" points="1468.57,-298.691 1472.19,-308.648 1475.56,-298.606 1468.57,-298.691"/>
</g>
<!-- org.scalameta:trees_2.11:0.1.0&#45;SNAPSHOT&#45;&gt;org.scalameta:tokenizers_2.11:0.1.0&#45;SNAPSHOT -->
<g id="edge9" class="edge"><title>org.scalameta:trees_2.11:0.1.0&#45;SNAPSHOT&#45;&gt;org.scalameta:tokenizers_2.11:0.1.0&#45;SNAPSHOT</title>
<path fill="none" stroke="black" d="M553.291,-569.991C581.462,-529.18 637.282,-448.312 668.845,-402.585"/>
<polygon fill="black" stroke="black" points="671.831,-404.42 674.632,-394.202 666.071,-400.444 671.831,-404.42"/>
</g>
<!-- org.scalameta:tokens_2.11:0.1.0&#45;SNAPSHOT -->
<g id="node11" class="node"><title>org.scalameta:tokens_2.11:0.1.0&#45;SNAPSHOT</title>
<polygon fill="none" stroke="black" points="790,-485.041 790,-535.041 912,-535.041 912,-485.041 790,-485.041"/>
<text text-anchor="start" x="812" y="-520.841" font-family="Times,serif" font-size="14.00">org.scalameta</text>
<text text-anchor="start" x="815.5" y="-506.841" font-family="Times,serif" font-weight="bold" font-size="14.00">tokens_2.11</text>
<text text-anchor="start" x="798" y="-492.841" font-family="Times,serif" font-size="14.00">0.1.0&#45;SNAPSHOT</text>
</g>
<!-- org.scalameta:trees_2.11:0.1.0&#45;SNAPSHOT&#45;&gt;org.scalameta:tokens_2.11:0.1.0&#45;SNAPSHOT -->
<g id="edge17" class="edge"><title>org.scalameta:trees_2.11:0.1.0&#45;SNAPSHOT&#45;&gt;org.scalameta:tokens_2.11:0.1.0&#45;SNAPSHOT</title>
<path fill="none" stroke="black" d="M596.37,-595.677C641.061,-594.424 702.809,-589.025 754,-571.041 773.831,-564.074 793.768,-552.354 810.294,-541.039"/>
<polygon fill="black" stroke="black" points="812.446,-543.805 818.607,-535.186 808.416,-538.081 812.446,-543.805"/>
</g>
<!-- org.scalameta:trees_2.11:0.1.0&#45;SNAPSHOT&#45;&gt;org.scalameta:dialects_2.11:0.1.0&#45;SNAPSHOT -->
<g id="edge22" class="edge"><title>org.scalameta:trees_2.11:0.1.0&#45;SNAPSHOT&#45;&gt;org.scalameta:dialects_2.11:0.1.0&#45;SNAPSHOT</title>
<path fill="none" stroke="black" d="M587.411,-569.989C675.278,-527.172 853.907,-440.128 947.584,-394.481"/>
<polygon fill="black" stroke="black" points="949.196,-397.589 956.653,-390.062 946.13,-391.296 949.196,-397.589"/>
</g>
<!-- org.scalameta:trees_2.11:0.1.0&#45;SNAPSHOT&#45;&gt;org.scalameta:common_2.11:0.1.0&#45;SNAPSHOT -->
<g id="edge27" class="edge"><title>org.scalameta:trees_2.11:0.1.0&#45;SNAPSHOT&#45;&gt;org.scalameta:common_2.11:0.1.0&#45;SNAPSHOT</title>
<path fill="none" stroke="black" d="M596.113,-605.011C695.444,-619.79 899.785,-643.016 1070,-616.041 1080.33,-614.403 1091.04,-611.883 1101.46,-608.949"/>
<polygon fill="black" stroke="black" points="1102.75,-612.219 1111.35,-606.025 1100.76,-605.507 1102.75,-612.219"/>
</g>
<!-- org.scalameta:trees_2.11:0.1.0&#45;SNAPSHOT&#45;&gt;org.scala&#45;lang:scala&#45;library:2.11.7 -->
<g id="edge37" class="edge"><title>org.scalameta:trees_2.11:0.1.0&#45;SNAPSHOT&#45;&gt;org.scala&#45;lang:scala&#45;library:2.11.7</title>
<path fill="none" stroke="black" d="M573.833,-620.112C631.075,-655.554 744.257,-716.041 850,-716.041 850,-716.041 850,-716.041 1173.5,-716.041 1348.62,-716.041 1436,-463.387 1462.53,-369.028"/>
<polygon fill="black" stroke="black" points="1465.98,-369.675 1465.25,-359.105 1459.23,-367.819 1465.98,-369.675"/>
</g>
<!-- com.lihaoyi:scalaparse_2.11:0.3.7 -->
<g id="node7" class="node"><title>com.lihaoyi:scalaparse_2.11:0.3.7</title>
<polygon fill="none" stroke="black" points="796,-141.041 796,-191.041 906,-191.041 906,-141.041 796,-141.041"/>
<text text-anchor="start" x="817.5" y="-176.841" font-family="Times,serif" font-size="14.00">com.lihaoyi</text>
<text text-anchor="start" x="804" y="-162.841" font-family="Times,serif" font-weight="bold" font-size="14.00">scalaparse_2.11</text>
<text text-anchor="start" x="836.5" y="-148.841" font-family="Times,serif" font-size="14.00">0.3.7</text>
</g>
<!-- org.scalameta:tokenizers_2.11:0.1.0&#45;SNAPSHOT&#45;&gt;com.lihaoyi:scalaparse_2.11:0.3.7 -->
<g id="edge11" class="edge"><title>org.scalameta:tokenizers_2.11:0.1.0&#45;SNAPSHOT&#45;&gt;com.lihaoyi:scalaparse_2.11:0.3.7</title>
<path fill="none" stroke="black" d="M713.442,-343.741C741.485,-307.249 793.327,-239.788 824.438,-199.304"/>
<polygon fill="black" stroke="black" points="827.24,-201.401 830.559,-191.34 821.69,-197.136 827.24,-201.401"/>
</g>
<!-- org.scalameta:tokenizers_2.11:0.1.0&#45;SNAPSHOT&#45;&gt;org.scalameta:tokens_2.11:0.1.0&#45;SNAPSHOT -->
<g id="edge18" class="edge"><title>org.scalameta:tokenizers_2.11:0.1.0&#45;SNAPSHOT&#45;&gt;org.scalameta:tokens_2.11:0.1.0&#45;SNAPSHOT</title>
<path fill="none" stroke="black" d="M721.89,-394.249C747.764,-417.635 786.397,-452.554 814.471,-477.928"/>
<polygon fill="black" stroke="black" points="812.324,-480.705 822.089,-484.814 817.017,-475.512 812.324,-480.705"/>
</g>
<!-- org.scalameta:tokenizers_2.11:0.1.0&#45;SNAPSHOT&#45;&gt;org.scalameta:inputs_2.11:0.1.0&#45;SNAPSHOT -->
<g id="edge21" class="edge"><title>org.scalameta:tokenizers_2.11:0.1.0&#45;SNAPSHOT&#45;&gt;org.scalameta:inputs_2.11:0.1.0&#45;SNAPSHOT</title>
<path fill="none" stroke="black" d="M754.171,-381.496C806.559,-392.341 882.546,-408.071 937.717,-419.492"/>
<polygon fill="black" stroke="black" points="937.264,-422.972 947.766,-421.572 938.683,-416.117 937.264,-422.972"/>
</g>
<!-- org.scalameta:tokenizers_2.11:0.1.0&#45;SNAPSHOT&#45;&gt;org.scalameta:dialects_2.11:0.1.0&#45;SNAPSHOT -->
<g id="edge26" class="edge"><title>org.scalameta:tokenizers_2.11:0.1.0&#45;SNAPSHOT&#45;&gt;org.scalameta:dialects_2.11:0.1.0&#45;SNAPSHOT</title>
<path fill="none" stroke="black" d="M754.166,-366.915C766.042,-366.564 778.413,-366.248 790,-366.041 839.397,-365.156 895.098,-364.913 937.832,-364.888"/>
<polygon fill="black" stroke="black" points="937.851,-368.388 947.85,-364.886 937.849,-361.388 937.851,-368.388"/>
</g>
<!-- org.scalameta:tokenizers_2.11:0.1.0&#45;SNAPSHOT&#45;&gt;org.scalameta:common_2.11:0.1.0&#45;SNAPSHOT -->
<g id="edge34" class="edge"><title>org.scalameta:tokenizers_2.11:0.1.0&#45;SNAPSHOT&#45;&gt;org.scalameta:common_2.11:0.1.0&#45;SNAPSHOT</title>
<path fill="none" stroke="black" d="M704.381,-394.311C722.972,-438.263 762.562,-525.849 790,-544.041 839.457,-576.831 1005.01,-582.866 1101,-583.507"/>
<polygon fill="black" stroke="black" points="1101.19,-587.008 1111.21,-583.557 1101.22,-580.008 1101.19,-587.008"/>
</g>
<!-- org.scalameta:tokenizers_2.11:0.1.0&#45;SNAPSHOT&#45;&gt;org.scala&#45;lang:scala&#45;library:2.11.7 -->
<g id="edge46" class="edge"><title>org.scalameta:tokenizers_2.11:0.1.0&#45;SNAPSHOT&#45;&gt;org.scala&#45;lang:scala&#45;library:2.11.7</title>
<path fill="none" stroke="black" d="M754.003,-357.185C805.285,-347.69 881.162,-335.142 948,-330.041 1117.41,-317.11 1318.55,-325.197 1414.75,-330.501"/>
<polygon fill="black" stroke="black" points="1414.66,-334.002 1424.84,-331.069 1415.05,-327.013 1414.66,-334.002"/>
</g>
<!-- com.lihaoyi:fastparse_2.11:0.3.7 -->
<g id="node8" class="node"><title>com.lihaoyi:fastparse_2.11:0.3.7</title>
<polygon fill="none" stroke="black" points="958,-126.041 958,-176.041 1060,-176.041 1060,-126.041 958,-126.041"/>
<text text-anchor="start" x="975.5" y="-161.841" font-family="Times,serif" font-size="14.00">com.lihaoyi</text>
<text text-anchor="start" x="966" y="-147.841" font-family="Times,serif" font-weight="bold" font-size="14.00">fastparse_2.11</text>
<text text-anchor="start" x="994.5" y="-133.841" font-family="Times,serif" font-size="14.00">0.3.7</text>
</g>
<!-- com.lihaoyi:scalaparse_2.11:0.3.7&#45;&gt;com.lihaoyi:fastparse_2.11:0.3.7 -->
<g id="edge12" class="edge"><title>com.lihaoyi:scalaparse_2.11:0.3.7&#45;&gt;com.lihaoyi:fastparse_2.11:0.3.7</title>
<path fill="none" stroke="black" d="M906.123,-160.837C919.517,-159.549 933.951,-158.161 947.622,-156.846"/>
<polygon fill="black" stroke="black" points="948.28,-160.299 957.899,-155.858 947.61,-153.331 948.28,-160.299"/>
</g>
<!-- com.lihaoyi:sourcecode_2.11:0.1.1 -->
<g id="node10" class="node"><title>com.lihaoyi:sourcecode_2.11:0.1.1</title>
<polygon fill="none" stroke="black" points="1275,-183.041 1275,-233.041 1389,-233.041 1389,-183.041 1275,-183.041"/>
<text text-anchor="start" x="1298.5" y="-218.841" font-family="Times,serif" font-size="14.00">com.lihaoyi</text>
<text text-anchor="start" x="1283" y="-204.841" font-family="Times,serif" font-weight="bold" font-size="14.00">sourcecode_2.11</text>
<text text-anchor="start" x="1317.5" y="-190.841" font-family="Times,serif" font-size="14.00">0.1.1</text>
</g>
<!-- com.lihaoyi:scalaparse_2.11:0.3.7&#45;&gt;com.lihaoyi:sourcecode_2.11:0.1.1 -->
<g id="edge16" class="edge"><title>com.lihaoyi:scalaparse_2.11:0.3.7&#45;&gt;com.lihaoyi:sourcecode_2.11:0.1.1</title>
<path fill="none" stroke="black" d="M906.177,-177.63C919.789,-180.303 934.395,-182.967 948,-185.041 1017.82,-195.685 1035.53,-197.318 1106,-202.041 1159.17,-205.604 1219.55,-207.074 1264.36,-207.669"/>
<polygon fill="black" stroke="black" points="1264.49,-211.171 1274.54,-207.793 1264.58,-204.171 1264.49,-211.171"/>
</g>
<!-- com.lihaoyi:scalaparse_2.11:0.3.7&#45;&gt;org.scala&#45;lang:scala&#45;library:2.11.7 -->
<g id="edge47" class="edge"><title>com.lihaoyi:scalaparse_2.11:0.3.7&#45;&gt;org.scala&#45;lang:scala&#45;library:2.11.7</title>
<path fill="none" stroke="black" d="M905.352,-191.087C919.048,-196.887 933.9,-202.641 948,-207.041 1138.96,-266.629 1198.58,-235.74 1389,-297.041 1397.67,-299.831 1406.65,-303.258 1415.35,-306.888"/>
<polygon fill="black" stroke="black" points="1414.08,-310.153 1424.65,-310.887 1416.84,-303.722 1414.08,-310.153"/>
</g>
<!-- com.lihaoyi:fastparse&#45;utils_2.11:0.3.7 -->
<g id="node9" class="node"><title>com.lihaoyi:fastparse&#45;utils_2.11:0.3.7</title>
<polygon fill="none" stroke="black" points="1106,-118.041 1106,-168.041 1239,-168.041 1239,-118.041 1106,-118.041"/>
<text text-anchor="start" x="1139" y="-153.841" font-family="Times,serif" font-size="14.00">com.lihaoyi</text>
<text text-anchor="start" x="1114" y="-139.841" font-family="Times,serif" font-weight="bold" font-size="14.00">fastparse&#45;utils_2.11</text>
<text text-anchor="start" x="1158" y="-125.841" font-family="Times,serif" font-size="14.00">0.3.7</text>
</g>
<!-- com.lihaoyi:fastparse_2.11:0.3.7&#45;&gt;com.lihaoyi:fastparse&#45;utils_2.11:0.3.7 -->
<g id="edge13" class="edge"><title>com.lihaoyi:fastparse_2.11:0.3.7&#45;&gt;com.lihaoyi:fastparse&#45;utils_2.11:0.3.7</title>
<path fill="none" stroke="black" d="M1060.21,-148.553C1071.5,-147.994 1083.72,-147.389 1095.79,-146.791"/>
<polygon fill="black" stroke="black" points="1096.05,-150.283 1105.86,-146.292 1095.7,-143.291 1096.05,-150.283"/>
</g>
<!-- com.lihaoyi:fastparse_2.11:0.3.7&#45;&gt;com.lihaoyi:sourcecode_2.11:0.1.1 -->
<g id="edge15" class="edge"><title>com.lihaoyi:fastparse_2.11:0.3.7&#45;&gt;com.lihaoyi:sourcecode_2.11:0.1.1</title>
<path fill="none" stroke="black" d="M1060.03,-165.887C1074.75,-169.901 1090.94,-173.977 1106,-177.041 1158.88,-187.798 1219.51,-195.912 1264.5,-201.136"/>
<polygon fill="black" stroke="black" points="1264.39,-204.645 1274.72,-202.304 1265.18,-197.691 1264.39,-204.645"/>
</g>
<!-- com.lihaoyi:fastparse_2.11:0.3.7&#45;&gt;org.scala&#45;lang:scala&#45;library:2.11.7 -->
<g id="edge43" class="edge"><title>com.lihaoyi:fastparse_2.11:0.3.7&#45;&gt;org.scala&#45;lang:scala&#45;library:2.11.7</title>
<path fill="none" stroke="black" d="M1055.53,-125.94C1071.07,-118.668 1088.86,-111.705 1106,-108.041 1229.56,-81.6328 1290.59,-55.7958 1389,-135.041 1439.81,-175.953 1459.68,-253.489 1467.18,-298.754"/>
<polygon fill="black" stroke="black" points="1463.74,-299.363 1468.72,-308.712 1470.65,-298.295 1463.74,-299.363"/>
</g>
<!-- com.lihaoyi:fastparse&#45;utils_2.11:0.3.7&#45;&gt;com.lihaoyi:sourcecode_2.11:0.1.1 -->
<g id="edge14" class="edge"><title>com.lihaoyi:fastparse&#45;utils_2.11:0.3.7&#45;&gt;com.lihaoyi:sourcecode_2.11:0.1.1</title>
<path fill="none" stroke="black" d="M1234.39,-168.171C1244.6,-172.384 1255.23,-176.77 1265.54,-181.027"/>
<polygon fill="black" stroke="black" points="1264.33,-184.312 1274.91,-184.892 1267,-177.841 1264.33,-184.312"/>
</g>
<!-- com.lihaoyi:fastparse&#45;utils_2.11:0.3.7&#45;&gt;org.scala&#45;lang:scala&#45;library:2.11.7 -->
<g id="edge39" class="edge"><title>com.lihaoyi:fastparse&#45;utils_2.11:0.3.7&#45;&gt;org.scala&#45;lang:scala&#45;library:2.11.7</title>
<path fill="none" stroke="black" d="M1239.1,-137.078C1285.05,-136.265 1345.74,-142.299 1389,-173.041 1431.24,-203.056 1453.3,-261.256 1463.65,-298.844"/>
<polygon fill="black" stroke="black" points="1460.35,-300.067 1466.26,-308.858 1467.12,-298.298 1460.35,-300.067"/>
</g>
<!-- com.lihaoyi:sourcecode_2.11:0.1.1&#45;&gt;org.scala&#45;lang:scala&#45;library:2.11.7 -->
<g id="edge44" class="edge"><title>com.lihaoyi:sourcecode_2.11:0.1.1&#45;&gt;org.scala&#45;lang:scala&#45;library:2.11.7</title>
<path fill="none" stroke="black" d="M1360.69,-233.236C1382.4,-252.98 1412.74,-280.585 1436.19,-301.916"/>
<polygon fill="black" stroke="black" points="1434.1,-304.749 1443.85,-308.889 1438.81,-299.571 1434.1,-304.749"/>
</g>
<!-- org.scalameta:tokens_2.11:0.1.0&#45;SNAPSHOT&#45;&gt;org.scalameta:inputs_2.11:0.1.0&#45;SNAPSHOT -->
<g id="edge20" class="edge"><title>org.scalameta:tokens_2.11:0.1.0&#45;SNAPSHOT&#45;&gt;org.scalameta:inputs_2.11:0.1.0&#45;SNAPSHOT</title>
<path fill="none" stroke="black" d="M903.513,-484.945C917.49,-478.135 932.756,-470.698 947.195,-463.664"/>
<polygon fill="black" stroke="black" points="949.085,-466.636 956.542,-459.11 946.019,-460.344 949.085,-466.636"/>
</g>
<!-- org.scalameta:tokens_2.11:0.1.0&#45;SNAPSHOT&#45;&gt;org.scalameta:dialects_2.11:0.1.0&#45;SNAPSHOT -->
<g id="edge24" class="edge"><title>org.scalameta:tokens_2.11:0.1.0&#45;SNAPSHOT&#45;&gt;org.scalameta:dialects_2.11:0.1.0&#45;SNAPSHOT</title>
<path fill="none" stroke="black" d="M869.747,-484.915C887.596,-460.862 916.867,-424.561 948,-399.041 949.186,-398.068 950.404,-397.108 951.648,-396.161"/>
<polygon fill="black" stroke="black" points="954.03,-398.762 960.157,-390.119 949.977,-393.054 954.03,-398.762"/>
</g>
<!-- org.scalameta:tokens_2.11:0.1.0&#45;SNAPSHOT&#45;&gt;org.scalameta:common_2.11:0.1.0&#45;SNAPSHOT -->
<g id="edge30" class="edge"><title>org.scalameta:tokens_2.11:0.1.0&#45;SNAPSHOT&#45;&gt;org.scalameta:common_2.11:0.1.0&#45;SNAPSHOT</title>
<path fill="none" stroke="black" d="M912.142,-518.87C956.181,-525.869 1017.22,-536.681 1070,-550.041 1080.31,-552.651 1091.11,-555.751 1101.65,-558.99"/>
<polygon fill="black" stroke="black" points="1100.65,-562.343 1111.23,-561.992 1102.74,-555.663 1100.65,-562.343"/>
</g>
<!-- org.scalameta:tokens_2.11:0.1.0&#45;SNAPSHOT&#45;&gt;org.scala&#45;lang:scala&#45;library:2.11.7 -->
<g id="edge41" class="edge"><title>org.scalameta:tokens_2.11:0.1.0&#45;SNAPSHOT&#45;&gt;org.scala&#45;lang:scala&#45;library:2.11.7</title>
<path fill="none" stroke="black" d="M912.136,-503.033C1013.75,-489.68 1224.42,-455.424 1389,-385.041 1402.08,-379.446 1415.51,-371.989 1427.64,-364.509"/>
<polygon fill="black" stroke="black" points="1429.64,-367.387 1436.22,-359.084 1425.9,-361.471 1429.64,-367.387"/>
</g>
<!-- org.scalameta:inputs_2.11:0.1.0&#45;SNAPSHOT&#45;&gt;org.scalameta:common_2.11:0.1.0&#45;SNAPSHOT -->
<g id="edge28" class="edge"><title>org.scalameta:inputs_2.11:0.1.0&#45;SNAPSHOT&#45;&gt;org.scalameta:common_2.11:0.1.0&#45;SNAPSHOT</title>
<path fill="none" stroke="black" d="M1037.4,-459.317C1064.74,-484.544 1106.86,-523.403 1136.59,-550.829"/>
<polygon fill="black" stroke="black" points="1134.52,-553.681 1144.24,-557.89 1139.26,-548.537 1134.52,-553.681"/>
</g>
<!-- org.scalameta:inputs_2.11:0.1.0&#45;SNAPSHOT&#45;&gt;org.scala&#45;lang:scala&#45;library:2.11.7 -->
<g id="edge36" class="edge"><title>org.scalameta:inputs_2.11:0.1.0&#45;SNAPSHOT&#45;&gt;org.scala&#45;lang:scala&#45;library:2.11.7</title>
<path fill="none" stroke="black" d="M1070.08,-423.626C1145.12,-410.246 1277.22,-385.454 1389,-358.041 1397.42,-355.976 1406.27,-353.611 1414.92,-351.189"/>
<polygon fill="black" stroke="black" points="1415.91,-354.547 1424.57,-348.444 1413.99,-347.815 1415.91,-354.547"/>
</g>
<!-- org.scalameta:dialects_2.11:0.1.0&#45;SNAPSHOT&#45;&gt;org.scalameta:common_2.11:0.1.0&#45;SNAPSHOT -->
<g id="edge31" class="edge"><title>org.scalameta:dialects_2.11:0.1.0&#45;SNAPSHOT&#45;&gt;org.scalameta:common_2.11:0.1.0&#45;SNAPSHOT</title>
<path fill="none" stroke="black" d="M1059.76,-390.199C1063.42,-392.94 1066.89,-395.89 1070,-399.041 1113.15,-442.69 1143.42,-508.438 1159.11,-548.386"/>
<polygon fill="black" stroke="black" points="1155.93,-549.874 1162.78,-557.957 1162.47,-547.367 1155.93,-549.874"/>
</g>
<!-- org.scalameta:dialects_2.11:0.1.0&#45;SNAPSHOT&#45;&gt;org.scala&#45;lang:scala&#45;library:2.11.7 -->
<g id="edge40" class="edge"><title>org.scalameta:dialects_2.11:0.1.0&#45;SNAPSHOT&#45;&gt;org.scala&#45;lang:scala&#45;library:2.11.7</title>
<path fill="none" stroke="black" d="M1070.33,-360.988C1159.99,-354.965 1327.21,-343.733 1414.75,-337.853"/>
<polygon fill="black" stroke="black" points="1415.02,-341.342 1424.77,-337.18 1414.55,-334.358 1415.02,-341.342"/>
</g>
<!-- org.scalameta:common_2.11:0.1.0&#45;SNAPSHOT&#45;&gt;org.scala&#45;lang:scala&#45;library:2.11.7 -->
<g id="edge42" class="edge"><title>org.scalameta:common_2.11:0.1.0&#45;SNAPSHOT&#45;&gt;org.scala&#45;lang:scala&#45;library:2.11.7</title>
<path fill="none" stroke="black" d="M1233.77,-572.966C1280.89,-562.371 1345.49,-541.524 1389,-502.041 1428.59,-466.113 1451.37,-406.972 1462.59,-369.297"/>
<polygon fill="black" stroke="black" points="1466.07,-369.854 1465.46,-359.277 1459.34,-367.93 1466.07,-369.854"/>
</g>
</g>
</svg>
