<?xml version="1.0" encoding="UTF-8" standalone="no"?>
<!DOCTYPE svg PUBLIC "-//W3C//DTD SVG 1.1//EN"
 "http://www.w3.org/Graphics/SVG/1.1/DTD/svg11.dtd">
<!-- Generated by graphviz version 2.38.0 (20140413.2041)
 -->
<!-- Title: dependency&#45;graph Pages: 1 -->
<svg width="1456pt" height="838pt"
 viewBox="0.00 0.00 1456.00 838.42" xmlns="http://www.w3.org/2000/svg" xmlns:xlink="http://www.w3.org/1999/xlink">
<g id="graph0" class="graph" transform="scale(1 1) rotate(0) translate(4 834.418)">
<title>dependency&#45;graph</title>
<polygon fill="white" stroke="none" points="-4,4 -4,-834.418 1452,-834.418 1452,4 -4,4"/>
<!-- org.scalameta:scalameta_2.11:0.1.0&#45;SNAPSHOT -->
<g id="node1" class="node"><title>org.scalameta:scalameta_2.11:0.1.0&#45;SNAPSHOT</title>
<polygon fill="none" stroke="black" points="0,-543.97 0,-593.97 122,-593.97 122,-543.97 0,-543.97"/>
<text text-anchor="start" x="22" y="-579.77" font-family="Times,serif" font-size="14.00">org.scalameta</text>
<text text-anchor="start" x="15.5" y="-565.77" font-family="Times,serif" font-weight="bold" font-size="14.00">scalameta_2.11</text>
<text text-anchor="start" x="8" y="-551.77" font-family="Times,serif" font-size="14.00">0.1.0&#45;SNAPSHOT</text>
</g>
<!-- org.scalameta:quasiquotes_2.11:0.1.0&#45;SNAPSHOT -->
<g id="node2" class="node"><title>org.scalameta:quasiquotes_2.11:0.1.0&#45;SNAPSHOT</title>
<polygon fill="none" stroke="black" points="158,-467.97 158,-517.97 280,-517.97 280,-467.97 158,-467.97"/>
<text text-anchor="start" x="180" y="-503.77" font-family="Times,serif" font-size="14.00">org.scalameta</text>
<text text-anchor="start" x="167.5" y="-489.77" font-family="Times,serif" font-weight="bold" font-size="14.00">quasiquotes_2.11</text>
<text text-anchor="start" x="166" y="-475.77" font-family="Times,serif" font-size="14.00">0.1.0&#45;SNAPSHOT</text>
</g>
<!-- org.scalameta:scalameta_2.11:0.1.0&#45;SNAPSHOT&#45;&gt;org.scalameta:quasiquotes_2.11:0.1.0&#45;SNAPSHOT -->
<g id="edge1" class="edge"><title>org.scalameta:scalameta_2.11:0.1.0&#45;SNAPSHOT&#45;&gt;org.scalameta:quasiquotes_2.11:0.1.0&#45;SNAPSHOT</title>
<path fill="none" stroke="black" d="M113.513,-543.874C127.49,-537.064 142.756,-529.627 157.195,-522.593"/>
<polygon fill="black" stroke="black" points="159.085,-525.565 166.542,-518.039 156.019,-519.272 159.085,-525.565"/>
</g>
<!-- org.scalameta:parsers_2.11:0.1.0&#45;SNAPSHOT -->
<g id="node3" class="node"><title>org.scalameta:parsers_2.11:0.1.0&#45;SNAPSHOT</title>
<polygon fill="none" stroke="black" points="316,-347.97 316,-397.97 438,-397.97 438,-347.97 316,-347.97"/>
<text text-anchor="start" x="338" y="-383.77" font-family="Times,serif" font-size="14.00">org.scalameta</text>
<text text-anchor="start" x="339" y="-369.77" font-family="Times,serif" font-weight="bold" font-size="14.00">parsers_2.11</text>
<text text-anchor="start" x="324" y="-355.77" font-family="Times,serif" font-size="14.00">0.1.0&#45;SNAPSHOT</text>
</g>
<!-- org.scalameta:scalameta_2.11:0.1.0&#45;SNAPSHOT&#45;&gt;org.scalameta:parsers_2.11:0.1.0&#45;SNAPSHOT -->
<g id="edge3" class="edge"><title>org.scalameta:scalameta_2.11:0.1.0&#45;SNAPSHOT&#45;&gt;org.scalameta:parsers_2.11:0.1.0&#45;SNAPSHOT</title>
<path fill="none" stroke="black" d="M78.3258,-543.767C95.5237,-518.963 124.698,-481.481 158,-457.97 202.829,-426.319 261.049,-404.403 306.046,-390.761"/>
<polygon fill="black" stroke="black" points="307.134,-394.09 315.726,-387.892 305.144,-387.378 307.134,-394.09"/>
</g>
<!-- org.scalameta:tql_2.11:0.1.0&#45;SNAPSHOT -->
<g id="node4" class="node"><title>org.scalameta:tql_2.11:0.1.0&#45;SNAPSHOT</title>
<polygon fill="none" stroke="black" points="316,-597.97 316,-647.97 438,-647.97 438,-597.97 316,-597.97"/>
<text text-anchor="start" x="338" y="-633.77" font-family="Times,serif" font-size="14.00">org.scalameta</text>
<text text-anchor="start" x="353" y="-619.77" font-family="Times,serif" font-weight="bold" font-size="14.00">tql_2.11</text>
<text text-anchor="start" x="324" y="-605.77" font-family="Times,serif" font-size="14.00">0.1.0&#45;SNAPSHOT</text>
</g>
<!-- org.scalameta:scalameta_2.11:0.1.0&#45;SNAPSHOT&#45;&gt;org.scalameta:tql_2.11:0.1.0&#45;SNAPSHOT -->
<g id="edge4" class="edge"><title>org.scalameta:scalameta_2.11:0.1.0&#45;SNAPSHOT&#45;&gt;org.scalameta:tql_2.11:0.1.0&#45;SNAPSHOT</title>
<path fill="none" stroke="black" d="M122.171,-579.317C174.559,-588.327 250.546,-601.395 305.717,-610.883"/>
<polygon fill="black" stroke="black" points="305.317,-614.365 315.766,-612.611 306.504,-607.466 305.317,-614.365"/>
</g>
<!-- org.scalameta:trees_2.11:0.1.0&#45;SNAPSHOT -->
<g id="node5" class="node"><title>org.scalameta:trees_2.11:0.1.0&#45;SNAPSHOT</title>
<polygon fill="none" stroke="black" points="474,-514.97 474,-564.97 596,-564.97 596,-514.97 474,-514.97"/>
<text text-anchor="start" x="496" y="-550.77" font-family="Times,serif" font-size="14.00">org.scalameta</text>
<text text-anchor="start" x="504.5" y="-536.77" font-family="Times,serif" font-weight="bold" font-size="14.00">trees_2.11</text>
<text text-anchor="start" x="482" y="-522.77" font-family="Times,serif" font-size="14.00">0.1.0&#45;SNAPSHOT</text>
</g>
<!-- org.scalameta:scalameta_2.11:0.1.0&#45;SNAPSHOT&#45;&gt;org.scalameta:trees_2.11:0.1.0&#45;SNAPSHOT -->
<g id="edge8" class="edge"><title>org.scalameta:scalameta_2.11:0.1.0&#45;SNAPSHOT&#45;&gt;org.scalameta:trees_2.11:0.1.0&#45;SNAPSHOT</title>
<path fill="none" stroke="black" d="M122.259,-565.267C209.573,-559.903 370.93,-549.989 463.603,-544.295"/>
<polygon fill="black" stroke="black" points="463.961,-547.779 473.728,-543.673 463.532,-540.793 463.961,-547.779"/>
</g>
<!-- org.scalameta:tokenizers_2.11:0.1.0&#45;SNAPSHOT -->
<g id="node6" class="node"><title>org.scalameta:tokenizers_2.11:0.1.0&#45;SNAPSHOT</title>
<polygon fill="none" stroke="black" points="632,-250.97 632,-300.97 754,-300.97 754,-250.97 632,-250.97"/>
<text text-anchor="start" x="654" y="-286.77" font-family="Times,serif" font-size="14.00">org.scalameta</text>
<text text-anchor="start" x="646.5" y="-272.77" font-family="Times,serif" font-weight="bold" font-size="14.00">tokenizers_2.11</text>
<text text-anchor="start" x="640" y="-258.77" font-family="Times,serif" font-size="14.00">0.1.0&#45;SNAPSHOT</text>
</g>
<!-- org.scalameta:scalameta_2.11:0.1.0&#45;SNAPSHOT&#45;&gt;org.scalameta:tokenizers_2.11:0.1.0&#45;SNAPSHOT -->
<g id="edge10" class="edge"><title>org.scalameta:scalameta_2.11:0.1.0&#45;SNAPSHOT&#45;&gt;org.scalameta:tokenizers_2.11:0.1.0&#45;SNAPSHOT</title>
<path fill="none" stroke="black" d="M69.7998,-543.715C82.4955,-506.58 111.041,-437.295 158,-396.97 291.223,-282.564 510.242,-270.264 621.862,-272.282"/>
<polygon fill="black" stroke="black" points="621.92,-275.784 631.996,-272.51 622.077,-268.785 621.92,-275.784"/>
</g>
<!-- org.scalameta:prettyprinters_2.11:0.1.0&#45;SNAPSHOT -->
<g id="node9" class="node"><title>org.scalameta:prettyprinters_2.11:0.1.0&#45;SNAPSHOT</title>
<polygon fill="none" stroke="black" points="948,-629.97 948,-679.97 1081,-679.97 1081,-629.97 948,-629.97"/>
<text text-anchor="start" x="975.5" y="-665.77" font-family="Times,serif" font-size="14.00">org.scalameta</text>
<text text-anchor="start" x="956" y="-651.77" font-family="Times,serif" font-weight="bold" font-size="14.00">prettyprinters_2.11</text>
<text text-anchor="start" x="961.5" y="-637.77" font-family="Times,serif" font-size="14.00">0.1.0&#45;SNAPSHOT</text>
</g>
<!-- org.scalameta:scalameta_2.11:0.1.0&#45;SNAPSHOT&#45;&gt;org.scalameta:prettyprinters_2.11:0.1.0&#45;SNAPSHOT -->
<g id="edge19" class="edge"><title>org.scalameta:scalameta_2.11:0.1.0&#45;SNAPSHOT&#45;&gt;org.scalameta:prettyprinters_2.11:0.1.0&#45;SNAPSHOT</title>
<path fill="none" stroke="black" d="M105.102,-594.018C164.173,-625.923 274.539,-676.97 376,-676.97 376,-676.97 376,-676.97 694,-676.97 777.519,-676.97 873.029,-669.395 937.703,-663.135"/>
<polygon fill="black" stroke="black" points="938.201,-666.603 947.811,-662.143 937.517,-659.636 938.201,-666.603"/>
</g>
<!-- org.scalameta:dialects_2.11:0.1.0&#45;SNAPSHOT -->
<g id="node10" class="node"><title>org.scalameta:dialects_2.11:0.1.0&#45;SNAPSHOT</title>
<polygon fill="none" stroke="black" points="953.5,-261.97 953.5,-311.97 1075.5,-311.97 1075.5,-261.97 953.5,-261.97"/>
<text text-anchor="start" x="975.5" y="-297.77" font-family="Times,serif" font-size="14.00">org.scalameta</text>
<text text-anchor="start" x="976" y="-283.77" font-family="Times,serif" font-weight="bold" font-size="14.00">dialects_2.11</text>
<text text-anchor="start" x="961.5" y="-269.77" font-family="Times,serif" font-size="14.00">0.1.0&#45;SNAPSHOT</text>
</g>
<!-- org.scalameta:scalameta_2.11:0.1.0&#45;SNAPSHOT&#45;&gt;org.scalameta:dialects_2.11:0.1.0&#45;SNAPSHOT -->
<g id="edge21" class="edge"><title>org.scalameta:scalameta_2.11:0.1.0&#45;SNAPSHOT&#45;&gt;org.scalameta:dialects_2.11:0.1.0&#45;SNAPSHOT</title>
<path fill="none" stroke="black" d="M67.8973,-543.817C90.5092,-454.366 180.395,-156.97 376,-156.97 376,-156.97 376,-156.97 694,-156.97 799.023,-156.97 910.095,-217.979 969.641,-256.408"/>
<polygon fill="black" stroke="black" points="967.76,-259.36 978.045,-261.904 971.591,-253.502 967.76,-259.36"/>
</g>
<!-- org.scalameta:foundation_2.11:0.1.0&#45;SNAPSHOT -->
<g id="node11" class="node"><title>org.scalameta:foundation_2.11:0.1.0&#45;SNAPSHOT</title>
<polygon fill="none" stroke="black" points="1156,-499.97 1156,-549.97 1278,-549.97 1278,-499.97 1156,-499.97"/>
<text text-anchor="start" x="1178" y="-535.77" font-family="Times,serif" font-size="14.00">org.scalameta</text>
<text text-anchor="start" x="1168.5" y="-521.77" font-family="Times,serif" font-weight="bold" font-size="14.00">foundation_2.11</text>
<text text-anchor="start" x="1164" y="-507.77" font-family="Times,serif" font-size="14.00">0.1.0&#45;SNAPSHOT</text>
</g>
<!-- org.scalameta:scalameta_2.11:0.1.0&#45;SNAPSHOT&#45;&gt;org.scalameta:foundation_2.11:0.1.0&#45;SNAPSHOT -->
<g id="edge30" class="edge"><title>org.scalameta:scalameta_2.11:0.1.0&#45;SNAPSHOT&#45;&gt;org.scalameta:foundation_2.11:0.1.0&#45;SNAPSHOT</title>
<path fill="none" stroke="black" d="M79.6958,-594.004C123.022,-652.063 240.806,-790.97 376,-790.97 376,-790.97 376,-790.97 852,-790.97 954.767,-790.97 995.789,-816.416 1081,-758.97 1151.91,-711.163 1190.3,-612.742 1206.51,-560.063"/>
<polygon fill="black" stroke="black" points="1209.96,-560.749 1209.47,-550.166 1203.25,-558.749 1209.96,-560.749"/>
</g>
<!-- org.scala&#45;lang:scala&#45;library:2.11.4 -->
<g id="node17" class="node"><title>org.scala&#45;lang:scala&#45;library:2.11.4</title>
<polygon fill="none" stroke="black" points="1353,-326.97 1353,-376.97 1448,-376.97 1448,-326.97 1353,-326.97"/>
<text text-anchor="start" x="1361" y="-362.77" font-family="Times,serif" font-size="14.00">org.scala&#45;lang</text>
<text text-anchor="start" x="1362" y="-348.77" font-family="Times,serif" font-weight="bold" font-size="14.00">scala&#45;library</text>
<text text-anchor="start" x="1382.5" y="-334.77" font-family="Times,serif" font-size="14.00">2.11.4</text>
</g>
<!-- org.scalameta:scalameta_2.11:0.1.0&#45;SNAPSHOT&#45;&gt;org.scala&#45;lang:scala&#45;library:2.11.4 -->
<g id="edge45" class="edge"><title>org.scalameta:scalameta_2.11:0.1.0&#45;SNAPSHOT&#45;&gt;org.scala&#45;lang:scala&#45;library:2.11.4</title>
<path fill="none" stroke="black" d="M69.8764,-594.236C82.6698,-631.414 111.339,-700.883 158,-741.97 236.294,-810.909 271.68,-828.97 376,-828.97 376,-828.97 376,-828.97 1015.5,-828.97 1071.58,-828.97 1165.84,-852.151 1317,-655.97 1379.82,-574.443 1394.86,-448.487 1398.42,-387.489"/>
<polygon fill="black" stroke="black" points="1401.93,-387.394 1398.95,-377.228 1394.94,-387.036 1401.93,-387.394"/>
</g>
<!-- org.scalameta:quasiquotes_2.11:0.1.0&#45;SNAPSHOT&#45;&gt;org.scalameta:parsers_2.11:0.1.0&#45;SNAPSHOT -->
<g id="edge2" class="edge"><title>org.scalameta:quasiquotes_2.11:0.1.0&#45;SNAPSHOT&#45;&gt;org.scalameta:parsers_2.11:0.1.0&#45;SNAPSHOT</title>
<path fill="none" stroke="black" d="M248.756,-467.631C267.495,-451.466 292.706,-430.363 316,-412.97 320.096,-409.911 324.411,-406.811 328.772,-403.76"/>
<polygon fill="black" stroke="black" points="330.918,-406.533 337.168,-397.978 326.947,-400.767 330.918,-406.533"/>
</g>
<!-- org.scalameta:quasiquotes_2.11:0.1.0&#45;SNAPSHOT&#45;&gt;org.scalameta:trees_2.11:0.1.0&#45;SNAPSHOT -->
<g id="edge7" class="edge"><title>org.scalameta:quasiquotes_2.11:0.1.0&#45;SNAPSHOT&#45;&gt;org.scalameta:trees_2.11:0.1.0&#45;SNAPSHOT</title>
<path fill="none" stroke="black" d="M280.432,-497.572C324.348,-501.414 385.109,-507.76 438,-516.97 446.465,-518.443 455.295,-520.222 464.025,-522.13"/>
<polygon fill="black" stroke="black" points="463.288,-525.551 473.812,-524.329 464.822,-518.722 463.288,-525.551"/>
</g>
<!-- org.scalameta:tokens_2.11:0.1.0&#45;SNAPSHOT -->
<g id="node7" class="node"><title>org.scalameta:tokens_2.11:0.1.0&#45;SNAPSHOT</title>
<polygon fill="none" stroke="black" points="790,-407.97 790,-457.97 912,-457.97 912,-407.97 790,-407.97"/>
<text text-anchor="start" x="812" y="-443.77" font-family="Times,serif" font-size="14.00">org.scalameta</text>
<text text-anchor="start" x="815.5" y="-429.77" font-family="Times,serif" font-weight="bold" font-size="14.00">tokens_2.11</text>
<text text-anchor="start" x="798" y="-415.77" font-family="Times,serif" font-size="14.00">0.1.0&#45;SNAPSHOT</text>
</g>
<!-- org.scalameta:quasiquotes_2.11:0.1.0&#45;SNAPSHOT&#45;&gt;org.scalameta:tokens_2.11:0.1.0&#45;SNAPSHOT -->
<g id="edge13" class="edge"><title>org.scalameta:quasiquotes_2.11:0.1.0&#45;SNAPSHOT&#45;&gt;org.scalameta:tokens_2.11:0.1.0&#45;SNAPSHOT</title>
<path fill="none" stroke="black" d="M280.122,-487.244C397.09,-476.104 654.716,-451.568 779.505,-439.683"/>
<polygon fill="black" stroke="black" points="780.085,-443.144 789.708,-438.712 779.422,-436.176 780.085,-443.144"/>
</g>
<!-- org.scalameta:quasiquotes_2.11:0.1.0&#45;SNAPSHOT&#45;&gt;org.scalameta:foundation_2.11:0.1.0&#45;SNAPSHOT -->
<g id="edge29" class="edge"><title>org.scalameta:quasiquotes_2.11:0.1.0&#45;SNAPSHOT&#45;&gt;org.scalameta:foundation_2.11:0.1.0&#45;SNAPSHOT</title>
<path fill="none" stroke="black" d="M277.214,-518.04C355.768,-551.539 502.083,-610.65 632,-644.97 700.806,-663.146 719.513,-661.161 790,-670.97 860.002,-680.711 877.437,-684.963 948,-688.97 1007.02,-692.32 1027.55,-714.203 1081,-688.97 1137.65,-662.226 1178.57,-598.757 1199.68,-559.081"/>
<polygon fill="black" stroke="black" points="1202.88,-560.518 1204.37,-550.029 1196.66,-557.295 1202.88,-560.518"/>
</g>
<!-- org.scalameta:parsers_2.11:0.1.0&#45;SNAPSHOT&#45;&gt;org.scalameta:trees_2.11:0.1.0&#45;SNAPSHOT -->
<g id="edge6" class="edge"><title>org.scalameta:parsers_2.11:0.1.0&#45;SNAPSHOT&#45;&gt;org.scalameta:trees_2.11:0.1.0&#45;SNAPSHOT</title>
<path fill="none" stroke="black" d="M401.355,-397.971C428.581,-427.117 473.659,-475.374 503.595,-507.42"/>
<polygon fill="black" stroke="black" points="501.102,-509.879 510.486,-514.797 506.217,-505.1 501.102,-509.879"/>
</g>
<!-- org.scalameta:parsers_2.11:0.1.0&#45;SNAPSHOT&#45;&gt;org.scalameta:tokens_2.11:0.1.0&#45;SNAPSHOT -->
<g id="edge12" class="edge"><title>org.scalameta:parsers_2.11:0.1.0&#45;SNAPSHOT&#45;&gt;org.scalameta:tokens_2.11:0.1.0&#45;SNAPSHOT</title>
<path fill="none" stroke="black" d="M438.002,-371.399C512.844,-370.67 644.315,-373.447 754,-396.97 763.171,-398.936 772.634,-401.619 781.881,-404.639"/>
<polygon fill="black" stroke="black" points="780.822,-407.976 791.417,-407.893 783.083,-401.351 780.822,-407.976"/>
</g>
<!-- org.scalameta:parsers_2.11:0.1.0&#45;SNAPSHOT&#45;&gt;org.scalameta:foundation_2.11:0.1.0&#45;SNAPSHOT -->
<g id="edge26" class="edge"><title>org.scalameta:parsers_2.11:0.1.0&#45;SNAPSHOT&#45;&gt;org.scalameta:foundation_2.11:0.1.0&#45;SNAPSHOT</title>
<path fill="none" stroke="black" d="M438.239,-388.924C541.688,-415.68 760.13,-469.369 948,-496.97 1014.85,-506.791 1091.58,-514.443 1145.76,-519.247"/>
<polygon fill="black" stroke="black" points="1145.68,-522.754 1155.95,-520.141 1146.29,-515.78 1145.68,-522.754"/>
</g>
<!-- org.scalameta:parsers_2.11:0.1.0&#45;SNAPSHOT&#45;&gt;org.scala&#45;lang:scala&#45;library:2.11.4 -->
<g id="edge40" class="edge"><title>org.scalameta:parsers_2.11:0.1.0&#45;SNAPSHOT&#45;&gt;org.scala&#45;lang:scala&#45;library:2.11.4</title>
<path fill="none" stroke="black" d="M415.431,-347.823C520.356,-279.102 828.523,-89.2639 1117,-28.9695 1204.01,-10.7839 1246.8,25.5552 1317,-28.9695 1340.02,-46.8495 1377.9,-236.611 1393,-316.663"/>
<polygon fill="black" stroke="black" points="1389.6,-317.573 1394.89,-326.757 1396.49,-316.283 1389.6,-317.573"/>
</g>
<!-- org.scalameta:tql_2.11:0.1.0&#45;SNAPSHOT&#45;&gt;org.scalameta:trees_2.11:0.1.0&#45;SNAPSHOT -->
<g id="edge5" class="edge"><title>org.scalameta:tql_2.11:0.1.0&#45;SNAPSHOT&#45;&gt;org.scalameta:trees_2.11:0.1.0&#45;SNAPSHOT</title>
<path fill="none" stroke="black" d="M425.228,-597.842C441.876,-588.984 460.751,-578.942 478.05,-569.738"/>
<polygon fill="black" stroke="black" points="479.748,-572.799 486.932,-565.012 476.46,-566.619 479.748,-572.799"/>
</g>
<!-- org.scalameta:tql_2.11:0.1.0&#45;SNAPSHOT&#45;&gt;org.scalameta:foundation_2.11:0.1.0&#45;SNAPSHOT -->
<g id="edge22" class="edge"><title>org.scalameta:tql_2.11:0.1.0&#45;SNAPSHOT&#45;&gt;org.scalameta:foundation_2.11:0.1.0&#45;SNAPSHOT</title>
<path fill="none" stroke="black" d="M412.78,-648.035C468.721,-685.811 583.438,-752.97 692,-752.97 692,-752.97 692,-752.97 852,-752.97 954.335,-752.97 993.507,-782.049 1081,-728.97 1145.41,-689.895 1185.37,-607.027 1203.85,-559.815"/>
<polygon fill="black" stroke="black" points="1207.18,-560.901 1207.46,-550.31 1200.64,-558.412 1207.18,-560.901"/>
</g>
<!-- org.scalameta:trees_2.11:0.1.0&#45;SNAPSHOT&#45;&gt;org.scalameta:tokenizers_2.11:0.1.0&#45;SNAPSHOT -->
<g id="edge9" class="edge"><title>org.scalameta:trees_2.11:0.1.0&#45;SNAPSHOT&#45;&gt;org.scalameta:tokenizers_2.11:0.1.0&#45;SNAPSHOT</title>
<path fill="none" stroke="black" d="M550.958,-514.656C579.145,-466.954 640.14,-363.733 671.884,-310.012"/>
<polygon fill="black" stroke="black" points="675.013,-311.596 677.087,-301.206 668.987,-308.035 675.013,-311.596"/>
</g>
<!-- org.scalameta:trees_2.11:0.1.0&#45;SNAPSHOT&#45;&gt;org.scalameta:tokens_2.11:0.1.0&#45;SNAPSHOT -->
<g id="edge11" class="edge"><title>org.scalameta:trees_2.11:0.1.0&#45;SNAPSHOT&#45;&gt;org.scalameta:tokens_2.11:0.1.0&#45;SNAPSHOT</title>
<path fill="none" stroke="black" d="M596.171,-519.465C648.668,-501.576 724.862,-475.612 780.06,-456.803"/>
<polygon fill="black" stroke="black" points="781.429,-460.034 789.766,-453.495 779.171,-453.408 781.429,-460.034"/>
</g>
<!-- org.scalameta:inputs_2.11:0.1.0&#45;SNAPSHOT -->
<g id="node8" class="node"><title>org.scalameta:inputs_2.11:0.1.0&#45;SNAPSHOT</title>
<polygon fill="none" stroke="black" points="953.5,-407.97 953.5,-457.97 1075.5,-457.97 1075.5,-407.97 953.5,-407.97"/>
<text text-anchor="start" x="975.5" y="-443.77" font-family="Times,serif" font-size="14.00">org.scalameta</text>
<text text-anchor="start" x="980" y="-429.77" font-family="Times,serif" font-weight="bold" font-size="14.00">inputs_2.11</text>
<text text-anchor="start" x="961.5" y="-415.77" font-family="Times,serif" font-size="14.00">0.1.0&#45;SNAPSHOT</text>
</g>
<!-- org.scalameta:trees_2.11:0.1.0&#45;SNAPSHOT&#45;&gt;org.scalameta:inputs_2.11:0.1.0&#45;SNAPSHOT -->
<g id="edge15" class="edge"><title>org.scalameta:trees_2.11:0.1.0&#45;SNAPSHOT&#45;&gt;org.scalameta:inputs_2.11:0.1.0&#45;SNAPSHOT</title>
<path fill="none" stroke="black" d="M596.232,-531.165C671.03,-519.572 802.177,-497.079 912,-466.97 922.36,-464.129 933.217,-460.838 943.817,-457.444"/>
<polygon fill="black" stroke="black" points="945.031,-460.73 953.459,-454.309 942.866,-454.073 945.031,-460.73"/>
</g>
<!-- org.scalameta:trees_2.11:0.1.0&#45;SNAPSHOT&#45;&gt;org.scalameta:prettyprinters_2.11:0.1.0&#45;SNAPSHOT -->
<g id="edge17" class="edge"><title>org.scalameta:trees_2.11:0.1.0&#45;SNAPSHOT&#45;&gt;org.scalameta:prettyprinters_2.11:0.1.0&#45;SNAPSHOT</title>
<path fill="none" stroke="black" d="M559.973,-565.016C578.034,-582.184 604.349,-603.802 632,-614.97 732.021,-655.365 858.2,-660.655 937.394,-659.093"/>
<polygon fill="black" stroke="black" points="937.857,-662.583 947.77,-658.843 937.688,-655.585 937.857,-662.583"/>
</g>
<!-- org.scalameta:trees_2.11:0.1.0&#45;SNAPSHOT&#45;&gt;org.scalameta:foundation_2.11:0.1.0&#45;SNAPSHOT -->
<g id="edge24" class="edge"><title>org.scalameta:trees_2.11:0.1.0&#45;SNAPSHOT&#45;&gt;org.scalameta:foundation_2.11:0.1.0&#45;SNAPSHOT</title>
<path fill="none" stroke="black" d="M596.135,-541.85C696.627,-544.546 905.017,-548.232 1081,-538.97 1102.13,-537.857 1125.05,-535.803 1145.9,-533.603"/>
<polygon fill="black" stroke="black" points="1146.39,-537.071 1155.96,-532.516 1145.64,-530.112 1146.39,-537.071"/>
</g>
<!-- org.scalameta:trees_2.11:0.1.0&#45;SNAPSHOT&#45;&gt;org.scala&#45;lang:scala&#45;library:2.11.4 -->
<g id="edge37" class="edge"><title>org.scalameta:trees_2.11:0.1.0&#45;SNAPSHOT&#45;&gt;org.scala&#45;lang:scala&#45;library:2.11.4</title>
<path fill="none" stroke="black" d="M596.109,-558.769C658.82,-576.693 760.314,-600.97 850,-600.97 850,-600.97 850,-600.97 1015.5,-600.97 1150.79,-600.97 1210.53,-642.451 1317,-558.97 1370.78,-516.803 1389.62,-434.273 1396.13,-387.157"/>
<polygon fill="black" stroke="black" points="1399.62,-387.469 1397.41,-377.107 1392.68,-386.587 1399.62,-387.469"/>
</g>
<!-- org.scalameta:tokenizers_2.11:0.1.0&#45;SNAPSHOT&#45;&gt;org.scalameta:tokens_2.11:0.1.0&#45;SNAPSHOT -->
<g id="edge14" class="edge"><title>org.scalameta:tokenizers_2.11:0.1.0&#45;SNAPSHOT&#45;&gt;org.scalameta:tokens_2.11:0.1.0&#45;SNAPSHOT</title>
<path fill="none" stroke="black" d="M711.228,-301.085C729.128,-326.103 758.837,-364.752 790,-392.97 793.326,-395.981 796.897,-398.934 800.58,-401.785"/>
<polygon fill="black" stroke="black" points="798.647,-404.709 808.766,-407.847 802.813,-399.083 798.647,-404.709"/>
</g>
<!-- org.scalameta:tokenizers_2.11:0.1.0&#45;SNAPSHOT&#45;&gt;org.scalameta:foundation_2.11:0.1.0&#45;SNAPSHOT -->
<g id="edge31" class="edge"><title>org.scalameta:tokenizers_2.11:0.1.0&#45;SNAPSHOT&#45;&gt;org.scalameta:foundation_2.11:0.1.0&#45;SNAPSHOT</title>
<path fill="none" stroke="black" d="M754.109,-286.226C833.253,-301.609 974.791,-335.722 1081,-397.97 1123.63,-422.956 1163.69,-463.663 1188.93,-492.241"/>
<polygon fill="black" stroke="black" points="1186.44,-494.71 1195.64,-499.956 1191.72,-490.115 1186.44,-494.71"/>
</g>
<!-- org.scala&#45;lang:scala&#45;compiler:2.11.8 -->
<g id="node12" class="node"><title>org.scala&#45;lang:scala&#45;compiler:2.11.8</title>
<polygon fill="none" stroke="black" points="962.5,-153.97 962.5,-203.97 1066.5,-203.97 1066.5,-153.97 962.5,-153.97"/>
<text text-anchor="start" x="975" y="-189.77" font-family="Times,serif" font-size="14.00">org.scala&#45;lang</text>
<text text-anchor="start" x="970.5" y="-175.77" font-family="Times,serif" font-weight="bold" font-size="14.00">scala&#45;compiler</text>
<text text-anchor="start" x="996.5" y="-161.77" font-family="Times,serif" font-size="14.00">2.11.8</text>
</g>
<!-- org.scalameta:tokenizers_2.11:0.1.0&#45;SNAPSHOT&#45;&gt;org.scala&#45;lang:scala&#45;compiler:2.11.8 -->
<g id="edge32" class="edge"><title>org.scalameta:tokenizers_2.11:0.1.0&#45;SNAPSHOT&#45;&gt;org.scala&#45;lang:scala&#45;compiler:2.11.8</title>
<path fill="none" stroke="black" d="M729.375,-250.804C746.869,-239.469 768.747,-226.883 790,-218.97 842.889,-199.276 906.526,-189.099 952.346,-183.954"/>
<polygon fill="black" stroke="black" points="952.855,-187.419 962.424,-182.871 952.108,-180.46 952.855,-187.419"/>
</g>
<!-- org.scalameta:tokenizers_2.11:0.1.0&#45;SNAPSHOT&#45;&gt;org.scala&#45;lang:scala&#45;library:2.11.4 -->
<g id="edge46" class="edge"><title>org.scalameta:tokenizers_2.11:0.1.0&#45;SNAPSHOT&#45;&gt;org.scala&#45;lang:scala&#45;library:2.11.4</title>
<path fill="none" stroke="black" d="M754.188,-268.671C805.583,-262.826 881.523,-255.103 948,-251.97 1007.05,-249.186 1024.26,-235.392 1081,-251.97 1099.22,-257.294 1099.29,-268.131 1117,-274.97 1201.11,-307.445 1231.54,-280.228 1317,-308.97 1327.43,-312.478 1338.16,-317.165 1348.28,-322.155"/>
<polygon fill="black" stroke="black" points="1346.88,-325.37 1357.38,-326.797 1350.06,-319.135 1346.88,-325.37"/>
</g>
<!-- org.scalameta:tokens_2.11:0.1.0&#45;SNAPSHOT&#45;&gt;org.scalameta:inputs_2.11:0.1.0&#45;SNAPSHOT -->
<g id="edge16" class="edge"><title>org.scalameta:tokens_2.11:0.1.0&#45;SNAPSHOT&#45;&gt;org.scalameta:inputs_2.11:0.1.0&#45;SNAPSHOT</title>
<path fill="none" stroke="black" d="M912.137,-432.97C922.226,-432.97 932.775,-432.97 943.095,-432.97"/>
<polygon fill="black" stroke="black" points="943.313,-436.47 953.313,-432.97 943.313,-429.47 943.313,-436.47"/>
</g>
<!-- org.scalameta:tokens_2.11:0.1.0&#45;SNAPSHOT&#45;&gt;org.scalameta:prettyprinters_2.11:0.1.0&#45;SNAPSHOT -->
<g id="edge18" class="edge"><title>org.scalameta:tokens_2.11:0.1.0&#45;SNAPSHOT&#45;&gt;org.scalameta:prettyprinters_2.11:0.1.0&#45;SNAPSHOT</title>
<path fill="none" stroke="black" d="M870.212,-458.004C899.351,-498.059 956.485,-576.597 989.117,-621.452"/>
<polygon fill="black" stroke="black" points="986.393,-623.658 995.107,-629.686 992.054,-619.54 986.393,-623.658"/>
</g>
<!-- org.scalameta:tokens_2.11:0.1.0&#45;SNAPSHOT&#45;&gt;org.scalameta:dialects_2.11:0.1.0&#45;SNAPSHOT -->
<g id="edge20" class="edge"><title>org.scalameta:tokens_2.11:0.1.0&#45;SNAPSHOT&#45;&gt;org.scalameta:dialects_2.11:0.1.0&#45;SNAPSHOT</title>
<path fill="none" stroke="black" d="M871.196,-407.951C889.417,-385.194 918.358,-351.512 948,-326.97 951.878,-323.759 956.037,-320.625 960.311,-317.615"/>
<polygon fill="black" stroke="black" points="962.304,-320.492 968.627,-311.991 958.383,-314.694 962.304,-320.492"/>
</g>
<!-- org.scalameta:tokens_2.11:0.1.0&#45;SNAPSHOT&#45;&gt;org.scalameta:foundation_2.11:0.1.0&#45;SNAPSHOT -->
<g id="edge27" class="edge"><title>org.scalameta:tokens_2.11:0.1.0&#45;SNAPSHOT&#45;&gt;org.scalameta:foundation_2.11:0.1.0&#45;SNAPSHOT</title>
<path fill="none" stroke="black" d="M912.051,-455.555C923.881,-459.63 936.264,-463.636 948,-466.97 1014.39,-485.827 1091.54,-501.927 1145.96,-512.346"/>
<polygon fill="black" stroke="black" points="1145.38,-515.797 1155.85,-514.224 1146.68,-508.919 1145.38,-515.797"/>
</g>
<!-- org.scalameta:tokens_2.11:0.1.0&#45;SNAPSHOT&#45;&gt;org.scala&#45;lang:scala&#45;library:2.11.4 -->
<g id="edge44" class="edge"><title>org.scalameta:tokens_2.11:0.1.0&#45;SNAPSHOT&#45;&gt;org.scala&#45;lang:scala&#45;library:2.11.4</title>
<path fill="none" stroke="black" d="M912.255,-408.431C923.958,-404.402 936.243,-400.668 948,-397.97 1087.47,-365.964 1256.29,-356.218 1342.62,-353.257"/>
<polygon fill="black" stroke="black" points="1342.85,-356.752 1352.73,-352.929 1342.63,-349.755 1342.85,-356.752"/>
</g>
<!-- org.scalameta:inputs_2.11:0.1.0&#45;SNAPSHOT&#45;&gt;org.scalameta:foundation_2.11:0.1.0&#45;SNAPSHOT -->
<g id="edge23" class="edge"><title>org.scalameta:inputs_2.11:0.1.0&#45;SNAPSHOT&#45;&gt;org.scalameta:foundation_2.11:0.1.0&#45;SNAPSHOT</title>
<path fill="none" stroke="black" d="M1070.02,-457.987C1095.44,-469.649 1125.84,-483.6 1152.31,-495.743"/>
<polygon fill="black" stroke="black" points="1150.94,-498.967 1161.49,-499.957 1153.86,-492.605 1150.94,-498.967"/>
</g>
<!-- org.scalameta:inputs_2.11:0.1.0&#45;SNAPSHOT&#45;&gt;org.scala&#45;lang:scala&#45;library:2.11.4 -->
<g id="edge38" class="edge"><title>org.scalameta:inputs_2.11:0.1.0&#45;SNAPSHOT&#45;&gt;org.scala&#45;lang:scala&#45;library:2.11.4</title>
<path fill="none" stroke="black" d="M1075.55,-427.39C1137,-420.758 1234.87,-407.629 1317,-384.97 1325.54,-382.615 1334.39,-379.657 1342.99,-376.485"/>
<polygon fill="black" stroke="black" points="1344.47,-379.667 1352.57,-372.833 1341.98,-373.126 1344.47,-379.667"/>
</g>
<!-- org.scalameta:prettyprinters_2.11:0.1.0&#45;SNAPSHOT&#45;&gt;org.scalameta:foundation_2.11:0.1.0&#45;SNAPSHOT -->
<g id="edge25" class="edge"><title>org.scalameta:prettyprinters_2.11:0.1.0&#45;SNAPSHOT&#45;&gt;org.scalameta:foundation_2.11:0.1.0&#45;SNAPSHOT</title>
<path fill="none" stroke="black" d="M1054.16,-629.904C1086.78,-608.751 1133.62,-578.384 1168.52,-555.755"/>
<polygon fill="black" stroke="black" points="1170.63,-558.556 1177.12,-550.179 1166.82,-552.683 1170.63,-558.556"/>
</g>
<!-- org.scalameta:prettyprinters_2.11:0.1.0&#45;SNAPSHOT&#45;&gt;org.scala&#45;lang:scala&#45;library:2.11.4 -->
<g id="edge41" class="edge"><title>org.scalameta:prettyprinters_2.11:0.1.0&#45;SNAPSHOT&#45;&gt;org.scala&#45;lang:scala&#45;library:2.11.4</title>
<path fill="none" stroke="black" d="M1081.12,-665.023C1148.19,-671.426 1251.54,-670.034 1317,-614.97 1385.09,-557.695 1397.79,-444.887 1399.64,-387.423"/>
<polygon fill="black" stroke="black" points="1403.14,-387.441 1399.87,-377.363 1396.15,-387.28 1403.14,-387.441"/>
</g>
<!-- org.scalameta:dialects_2.11:0.1.0&#45;SNAPSHOT&#45;&gt;org.scalameta:foundation_2.11:0.1.0&#45;SNAPSHOT -->
<g id="edge28" class="edge"><title>org.scalameta:dialects_2.11:0.1.0&#45;SNAPSHOT&#45;&gt;org.scalameta:foundation_2.11:0.1.0&#45;SNAPSHOT</title>
<path fill="none" stroke="black" d="M1036.58,-311.99C1072.98,-355.2 1147.62,-443.798 1188.21,-491.986"/>
<polygon fill="black" stroke="black" points="1185.78,-494.534 1194.9,-499.927 1191.14,-490.024 1185.78,-494.534"/>
</g>
<!-- org.scalameta:dialects_2.11:0.1.0&#45;SNAPSHOT&#45;&gt;org.scala&#45;lang:scala&#45;library:2.11.4 -->
<g id="edge43" class="edge"><title>org.scalameta:dialects_2.11:0.1.0&#45;SNAPSHOT&#45;&gt;org.scala&#45;lang:scala&#45;library:2.11.4</title>
<path fill="none" stroke="black" d="M1075.76,-300.678C1089.29,-303.577 1103.61,-306.502 1117,-308.97 1195.01,-323.347 1285.78,-336.54 1342.94,-344.418"/>
<polygon fill="black" stroke="black" points="1342.48,-347.888 1352.86,-345.779 1343.43,-340.953 1342.48,-347.888"/>
</g>
<!-- org.scalameta:foundation_2.11:0.1.0&#45;SNAPSHOT&#45;&gt;org.scala&#45;lang:scala&#45;library:2.11.4 -->
<g id="edge42" class="edge"><title>org.scalameta:foundation_2.11:0.1.0&#45;SNAPSHOT&#45;&gt;org.scala&#45;lang:scala&#45;library:2.11.4</title>
<path fill="none" stroke="black" d="M1244.5,-499.865C1264.46,-480.948 1292.47,-454.358 1317,-430.97 1333.01,-415.703 1350.73,-398.741 1365.64,-384.459"/>
<polygon fill="black" stroke="black" points="1368.35,-386.705 1373.15,-377.259 1363.51,-381.652 1368.35,-386.705"/>
</g>
<!-- org.scala&#45;lang.modules:scala&#45;parser&#45;combinators_2.11:1.0.4 -->
<g id="node13" class="node"><title>org.scala&#45;lang.modules:scala&#45;parser&#45;combinators_2.11:1.0.4</title>
<polygon fill="none" stroke="black" points="1117,-38.9695 1117,-88.9695 1317,-88.9695 1317,-38.9695 1117,-38.9695"/>
<text text-anchor="start" x="1152" y="-74.7695" font-family="Times,serif" font-size="14.00">org.scala&#45;lang.modules</text>
<text text-anchor="start" x="1125" y="-60.7695" font-family="Times,serif" font-weight="bold" font-size="14.00">scala&#45;parser&#45;combinators_2.11</text>
<text text-anchor="start" x="1202.5" y="-46.7695" font-family="Times,serif" font-size="14.00">1.0.4</text>
</g>
<!-- org.scala&#45;lang:scala&#45;compiler:2.11.8&#45;&gt;org.scala&#45;lang.modules:scala&#45;parser&#45;combinators_2.11:1.0.4 -->
<g id="edge33" class="edge"><title>org.scala&#45;lang:scala&#45;compiler:2.11.8&#45;&gt;org.scala&#45;lang.modules:scala&#45;parser&#45;combinators_2.11:1.0.4</title>
<path fill="none" stroke="black" d="M1041.68,-153.881C1061.18,-136.288 1089.14,-113.27 1117,-97.9695 1119.91,-96.3732 1122.9,-94.8316 1125.96,-93.3452"/>
<polygon fill="black" stroke="black" points="1127.67,-96.4125 1135.29,-89.0515 1124.74,-90.0539 1127.67,-96.4125"/>
</g>
<!-- org.scala&#45;lang.modules:scala&#45;xml_2.11:1.0.4 -->
<g id="node14" class="node"><title>org.scala&#45;lang.modules:scala&#45;xml_2.11:1.0.4</title>
<polygon fill="none" stroke="black" points="1144,-107.97 1144,-157.97 1290,-157.97 1290,-107.97 1144,-107.97"/>
<text text-anchor="start" x="1152" y="-143.77" font-family="Times,serif" font-size="14.00">org.scala&#45;lang.modules</text>
<text text-anchor="start" x="1172.5" y="-129.77" font-family="Times,serif" font-weight="bold" font-size="14.00">scala&#45;xml_2.11</text>
<text text-anchor="start" x="1202.5" y="-115.77" font-family="Times,serif" font-size="14.00">1.0.4</text>
</g>
<!-- org.scala&#45;lang:scala&#45;compiler:2.11.8&#45;&gt;org.scala&#45;lang.modules:scala&#45;xml_2.11:1.0.4 -->
<g id="edge34" class="edge"><title>org.scala&#45;lang:scala&#45;compiler:2.11.8&#45;&gt;org.scala&#45;lang.modules:scala&#45;xml_2.11:1.0.4</title>
<path fill="none" stroke="black" d="M1066.61,-167.243C1087.03,-162.559 1111.06,-157.046 1133.8,-151.828"/>
<polygon fill="black" stroke="black" points="1134.83,-155.182 1143.8,-149.534 1133.27,-148.359 1134.83,-155.182"/>
</g>
<!-- org.scala&#45;lang:scala&#45;reflect:2.11.8 -->
<g id="node15" class="node"><title>org.scala&#45;lang:scala&#45;reflect:2.11.8</title>
<polygon fill="none" stroke="black" points="1169.5,-215.97 1169.5,-265.97 1264.5,-265.97 1264.5,-215.97 1169.5,-215.97"/>
<text text-anchor="start" x="1177.5" y="-251.77" font-family="Times,serif" font-size="14.00">org.scala&#45;lang</text>
<text text-anchor="start" x="1181" y="-237.77" font-family="Times,serif" font-weight="bold" font-size="14.00">scala&#45;reflect</text>
<text text-anchor="start" x="1199" y="-223.77" font-family="Times,serif" font-size="14.00">2.11.8</text>
</g>
<!-- org.scala&#45;lang:scala&#45;compiler:2.11.8&#45;&gt;org.scala&#45;lang:scala&#45;reflect:2.11.8 -->
<g id="edge35" class="edge"><title>org.scala&#45;lang:scala&#45;compiler:2.11.8&#45;&gt;org.scala&#45;lang:scala&#45;reflect:2.11.8</title>
<path fill="none" stroke="black" d="M1066.61,-194.775C1095.07,-203.575 1130.55,-214.545 1159.78,-223.586"/>
<polygon fill="black" stroke="black" points="1158.85,-226.962 1169.44,-226.572 1160.92,-220.274 1158.85,-226.962"/>
</g>
<!-- org.scala&#45;lang:scala&#45;compiler:2.11.8&#45;&gt;org.scala&#45;lang:scala&#45;library:2.11.4 -->
<g id="edge47" class="edge"><title>org.scala&#45;lang:scala&#45;compiler:2.11.8&#45;&gt;org.scala&#45;lang:scala&#45;library:2.11.4</title>
<path fill="none" stroke="black" d="M1066.75,-177.933C1141.75,-177.344 1276.87,-180.082 1317,-205.97 1356.41,-231.393 1378.89,-282.636 1390.14,-317.134"/>
<polygon fill="black" stroke="black" points="1386.84,-318.309 1393.15,-326.82 1393.53,-316.232 1386.84,-318.309"/>
</g>
<!-- org.scala&#45;lang:scala&#45;library:2.11.6 -->
<g id="node16" class="node"><title>org.scala&#45;lang:scala&#45;library:2.11.6</title>
<polygon fill="none" stroke="black" points="1353,-38.9695 1353,-88.9695 1448,-88.9695 1448,-38.9695 1353,-38.9695"/>
<text text-anchor="start" x="1361" y="-74.7695" font-family="Times,serif" font-size="14.00">org.scala&#45;lang</text>
<text text-anchor="start" x="1362" y="-60.7695" font-family="Times,serif" font-weight="bold" font-size="14.00">scala&#45;library</text>
<text text-anchor="start" x="1382.5" y="-46.7695" font-family="Times,serif" font-size="14.00">2.11.6</text>
</g>
<!-- org.scala&#45;lang.modules:scala&#45;parser&#45;combinators_2.11:1.0.4&#45;&gt;org.scala&#45;lang:scala&#45;library:2.11.6 -->
<g id="edge36" class="edge"><title>org.scala&#45;lang.modules:scala&#45;parser&#45;combinators_2.11:1.0.4&#45;&gt;org.scala&#45;lang:scala&#45;library:2.11.6</title>
<path fill="none" stroke="black" d="M1317.25,-63.9695C1325.98,-63.9695 1334.6,-63.9695 1342.79,-63.9695"/>
<polygon fill="black" stroke="black" points="1342.91,-67.4696 1352.91,-63.9695 1342.91,-60.4696 1342.91,-67.4696"/>
</g>
<!-- org.scala&#45;lang.modules:scala&#45;xml_2.11:1.0.4&#45;&gt;org.scala&#45;lang:scala&#45;library:2.11.4 -->
<g id="edge39" class="edge"><title>org.scala&#45;lang.modules:scala&#45;xml_2.11:1.0.4&#45;&gt;org.scala&#45;lang:scala&#45;library:2.11.4</title>
<path fill="none" stroke="black" d="M1290.09,-154.427C1299.88,-159.441 1309.22,-165.551 1317,-172.97 1358.58,-212.607 1381.11,-277.24 1391.69,-317.036"/>
<polygon fill="black" stroke="black" points="1388.32,-318.006 1394.18,-326.832 1395.1,-316.277 1388.32,-318.006"/>
</g>
<!-- org.scala&#45;lang:scala&#45;reflect:2.11.8&#45;&gt;org.scala&#45;lang:scala&#45;library:2.11.4 -->
<g id="edge48" class="edge"><title>org.scala&#45;lang:scala&#45;reflect:2.11.8&#45;&gt;org.scala&#45;lang:scala&#45;library:2.11.4</title>
<path fill="none" stroke="black" d="M1264.85,-256.297C1281.86,-262.781 1300.85,-271.13 1317,-280.97 1334.84,-291.839 1352.65,-306.558 1367.14,-319.776"/>
<polygon fill="black" stroke="black" points="1365.12,-322.678 1374.82,-326.931 1369.89,-317.555 1365.12,-322.678"/>
</g>
</g>
</svg>
