<?xml version="1.0" encoding="UTF-8" standalone="no"?>
<!DOCTYPE svg PUBLIC "-//W3C//DTD SVG 1.1//EN"
 "http://www.w3.org/Graphics/SVG/1.1/DTD/svg11.dtd">
<!-- Generated by graphviz version 2.38.0 (20140413.2041)
 -->
<!-- Title: Router Pages: 1 -->
<svg width="1168pt" height="260pt"
 viewBox="0.00 0.00 1168.00 260.00" xmlns="http://www.w3.org/2000/svg" xmlns:xlink="http://www.w3.org/1999/xlink">
<g id="graph0" class="graph" transform="scale(1 1) rotate(0) translate(4 256)">
<title>Router</title>
<polygon fill="white" stroke="none" points="-4,4 -4,-256 1164,-256 1164,4 -4,4"/>
<!-- Name1 -->
<g id="node1" class="node"><title>Name1</title>
<polygon fill="none" stroke="black" points="54,-108 0,-108 0,-72 54,-72 54,-108"/>
<text text-anchor="middle" x="27" y="-86.5" font-family="Inconsolata" font-size="14.00">Name</text>
</g>
<!-- Name2 -->
<g id="node2" class="node"><title>Name2</title>
<polygon fill="none" stroke="black" points="364,-36 310,-36 310,-0 364,-0 364,-36"/>
<text text-anchor="middle" x="337" y="-14.5" font-family="Inconsolata" font-size="14.00">Name</text>
</g>
<!-- Type1 -->
<g id="node3" class="node"><title>Type1</title>
<polygon fill="lightgrey" stroke="black" points="162,-180 108,-180 108,-144 162,-144 162,-180"/>
<text text-anchor="middle" x="135" y="-158.5" font-family="Inconsolata" font-size="14.00">Type</text>
</g>
<!-- Type1&#45;&gt;Name1 -->
<g id="edge10" class="edge"><title>Type1&#45;&gt;Name1</title>
<path fill="none" stroke="black" d="M108.58,-143.876C94.59,-134.808 77.2236,-123.552 62.1142,-113.759"/>
<polygon fill="black" stroke="black" points="63.8165,-110.692 53.5213,-108.19 60.0092,-116.566 63.8165,-110.692"/>
</g>
<!-- Tuple1 -->
<g id="node5" class="node"><title>Tuple1</title>
<polygon fill="none" stroke="black" points="126,-108 72,-108 72,-72 126,-72 126,-108"/>
<text text-anchor="middle" x="99" y="-86.5" font-family="Inconsolata" font-size="14.00">Tuple</text>
</g>
<!-- Type1&#45;&gt;Tuple1 -->
<g id="edge9" class="edge"><title>Type1&#45;&gt;Tuple1</title>
<path fill="none" stroke="black" d="M126.101,-143.697C122.003,-135.728 117.051,-126.1 112.507,-117.264"/>
<polygon fill="black" stroke="black" points="115.483,-115.396 107.797,-108.104 109.258,-118.598 115.483,-115.396"/>
</g>
<!-- Function -->
<g id="node18" class="node"><title>Function</title>
<polygon fill="none" stroke="black" points="216,-108 144,-108 144,-72 216,-72 216,-108"/>
<text text-anchor="middle" x="180" y="-86.5" font-family="Inconsolata" font-size="14.00">Function</text>
</g>
<!-- Type1&#45;&gt;Function -->
<g id="edge8" class="edge"><title>Type1&#45;&gt;Function</title>
<path fill="none" stroke="black" d="M146.124,-143.697C151.355,-135.559 157.7,-125.689 163.478,-116.701"/>
<polygon fill="black" stroke="black" points="166.541,-118.409 169.004,-108.104 160.653,-114.623 166.541,-118.409"/>
</g>
<!-- Type2 -->
<g id="node4" class="node"><title>Type2</title>
<polygon fill="none" stroke="black" points="796,-36 742,-36 742,-0 796,-0 796,-36"/>
<text text-anchor="middle" x="769" y="-14.5" font-family="Inconsolata" font-size="14.00">Type</text>
</g>
<!-- Tuple2 -->
<g id="node6" class="node"><title>Tuple2</title>
<polygon fill="none" stroke="black" points="436,-36 382,-36 382,-0 436,-0 436,-36"/>
<text text-anchor="middle" x="409" y="-14.5" font-family="Inconsolata" font-size="14.00">Tuple</text>
</g>
<!-- Term -->
<g id="node7" class="node"><title>Term</title>
<polygon fill="lightgrey" stroke="black" points="508,-108 454,-108 454,-72 508,-72 508,-108"/>
<text text-anchor="middle" x="481" y="-86.5" font-family="Inconsolata" font-size="14.00">Term</text>
</g>
<!-- Term&#45;&gt;Name2 -->
<g id="edge25" class="edge"><title>Term&#45;&gt;Name2</title>
<path fill="none" stroke="black" d="M453.915,-75.8335C431.231,-64.8066 398.643,-48.9655 373.632,-36.8072"/>
<polygon fill="black" stroke="black" points="374.977,-33.5696 364.453,-32.3454 371.917,-39.8652 374.977,-33.5696"/>
</g>
<!-- Term&#45;&gt;Tuple2 -->
<g id="edge24" class="edge"><title>Term&#45;&gt;Tuple2</title>
<path fill="none" stroke="black" d="M463.202,-71.6966C454.396,-63.135 443.618,-52.6562 433.999,-43.3045"/>
<polygon fill="black" stroke="black" points="436.203,-40.5657 426.593,-36.1043 431.323,-45.5846 436.203,-40.5657"/>
</g>
<!-- Block -->
<g id="node24" class="node"><title>Block</title>
<polygon fill="none" stroke="black" points="508,-36 454,-36 454,-0 508,-0 508,-36"/>
<text text-anchor="middle" x="481" y="-14.5" font-family="Inconsolata" font-size="14.00">Block</text>
</g>
<!-- Term&#45;&gt;Block -->
<g id="edge26" class="edge"><title>Term&#45;&gt;Block</title>
<path fill="none" stroke="black" d="M481,-71.6966C481,-63.9827 481,-54.7125 481,-46.1124"/>
<polygon fill="black" stroke="black" points="484.5,-46.1043 481,-36.1043 477.5,-46.1044 484.5,-46.1043"/>
</g>
<!-- For -->
<g id="node25" class="node"><title>For</title>
<polygon fill="none" stroke="black" points="580,-36 526,-36 526,-0 580,-0 580,-36"/>
<text text-anchor="middle" x="553" y="-14.5" font-family="Inconsolata" font-size="14.00">For</text>
</g>
<!-- Term&#45;&gt;For -->
<g id="edge27" class="edge"><title>Term&#45;&gt;For</title>
<path fill="none" stroke="black" d="M498.798,-71.6966C507.604,-63.135 518.382,-52.6562 528.001,-43.3045"/>
<polygon fill="black" stroke="black" points="530.677,-45.5846 535.407,-36.1043 525.797,-40.5657 530.677,-45.5846"/>
</g>
<!-- While -->
<g id="node26" class="node"><title>While</title>
<polygon fill="none" stroke="black" points="652,-36 598,-36 598,-0 652,-0 652,-36"/>
<text text-anchor="middle" x="625" y="-14.5" font-family="Inconsolata" font-size="14.00">While</text>
</g>
<!-- Term&#45;&gt;While -->
<g id="edge28" class="edge"><title>Term&#45;&gt;While</title>
<path fill="none" stroke="black" d="M508.085,-75.8335C530.769,-64.8066 563.357,-48.9655 588.368,-36.8072"/>
<polygon fill="black" stroke="black" points="590.083,-39.8652 597.547,-32.3454 587.023,-33.5696 590.083,-39.8652"/>
</g>
<!-- If -->
<g id="node27" class="node"><title>If</title>
<polygon fill="none" stroke="black" points="724,-36 670,-36 670,-0 724,-0 724,-36"/>
<text text-anchor="middle" x="697" y="-14.5" font-family="Inconsolata" font-size="14.00">If</text>
</g>
<!-- Term&#45;&gt;If -->
<g id="edge29" class="edge"><title>Term&#45;&gt;If</title>
<path fill="none" stroke="black" d="M508.268,-82.3778C542.098,-73.8602 601.587,-57.8969 660.266,-36.0042"/>
<polygon fill="black" stroke="black" points="661.561,-39.2562 669.672,-32.4399 659.081,-32.7104 661.561,-39.2562"/>
</g>
<!-- Match -->
<g id="node28" class="node"><title>Match</title>
<polygon fill="none" stroke="black" points="116,-36 62,-36 62,-0 116,-0 116,-36"/>
<text text-anchor="middle" x="89" y="-14.5" font-family="Inconsolata" font-size="14.00">Match</text>
</g>
<!-- Term&#45;&gt;Match -->
<g id="edge30" class="edge"><title>Term&#45;&gt;Match</title>
<path fill="none" stroke="black" d="M453.844,-75.0427C450.909,-73.8778 447.926,-72.8305 445,-72 310.413,-33.7933 264.732,-73.2312 125.877,-35.6703"/>
<polygon fill="black" stroke="black" points="126.729,-32.2743 116.156,-32.9573 124.847,-39.0166 126.729,-32.2743"/>
</g>
<!-- Apply -->
<g id="node29" class="node"><title>Apply</title>
<polygon fill="none" stroke="black" points="188,-36 134,-36 134,-0 188,-0 188,-36"/>
<text text-anchor="middle" x="161" y="-14.5" font-family="Inconsolata" font-size="14.00">Apply</text>
</g>
<!-- Term&#45;&gt;Apply -->
<g id="edge31" class="edge"><title>Term&#45;&gt;Apply</title>
<path fill="none" stroke="black" d="M453.816,-75.1391C450.886,-73.9554 447.912,-72.8774 445,-72 341.379,-40.7769 305.666,-66.5806 197.803,-35.7076"/>
<polygon fill="black" stroke="black" points="198.766,-32.3428 188.184,-32.8609 196.78,-39.055 198.766,-32.3428"/>
</g>
<!-- InfixApply -->
<g id="node30" class="node"><title>InfixApply</title>
<polygon fill="none" stroke="black" points="292,-36 206,-36 206,-0 292,-0 292,-36"/>
<text text-anchor="middle" x="249" y="-14.5" font-family="Inconsolata" font-size="14.00">InfixApply</text>
</g>
<!-- Term&#45;&gt;InfixApply -->
<g id="edge32" class="edge"><title>Term&#45;&gt;InfixApply</title>
<path fill="none" stroke="black" d="M453.717,-75.4387C450.807,-74.1966 447.864,-73.023 445,-72 385.787,-50.8488 366.221,-53.9023 301.885,-36.1176"/>
<polygon fill="black" stroke="black" points="302.633,-32.692 292.057,-33.3371 300.727,-39.4275 302.633,-32.692"/>
</g>
<!-- Defn -->
<g id="node8" class="node"><title>Defn</title>
<polygon fill="lightgrey" stroke="black" points="940,-108 886,-108 886,-72 940,-72 940,-108"/>
<text text-anchor="middle" x="913" y="-86.5" font-family="Inconsolata" font-size="14.00">Defn</text>
</g>
<!-- Defn&#45;&gt;Type2 -->
<g id="edge19" class="edge"><title>Defn&#45;&gt;Type2</title>
<path fill="none" stroke="black" d="M885.915,-75.8335C863.231,-64.8066 830.643,-48.9655 805.632,-36.8072"/>
<polygon fill="black" stroke="black" points="806.977,-33.5696 796.453,-32.3454 803.917,-39.8652 806.977,-33.5696"/>
</g>
<!-- Class -->
<g id="node19" class="node"><title>Class</title>
<polygon fill="none" stroke="black" points="1012,-36 958,-36 958,-0 1012,-0 1012,-36"/>
<text text-anchor="middle" x="985" y="-14.5" font-family="Inconsolata" font-size="14.00">Class</text>
</g>
<!-- Defn&#45;&gt;Class -->
<g id="edge15" class="edge"><title>Defn&#45;&gt;Class</title>
<path fill="none" stroke="black" d="M930.798,-71.6966C939.604,-63.135 950.382,-52.6562 960.001,-43.3045"/>
<polygon fill="black" stroke="black" points="962.677,-45.5846 967.407,-36.1043 957.797,-40.5657 962.677,-45.5846"/>
</g>
<!-- Trait -->
<g id="node20" class="node"><title>Trait</title>
<polygon fill="none" stroke="black" points="1084,-36 1030,-36 1030,-0 1084,-0 1084,-36"/>
<text text-anchor="middle" x="1057" y="-14.5" font-family="Inconsolata" font-size="14.00">Trait</text>
</g>
<!-- Defn&#45;&gt;Trait -->
<g id="edge16" class="edge"><title>Defn&#45;&gt;Trait</title>
<path fill="none" stroke="black" d="M940.085,-75.8335C962.769,-64.8066 995.357,-48.9655 1020.37,-36.8072"/>
<polygon fill="black" stroke="black" points="1022.08,-39.8652 1029.55,-32.3454 1019.02,-33.5696 1022.08,-39.8652"/>
</g>
<!-- Object -->
<g id="node21" class="node"><title>Object</title>
<polygon fill="none" stroke="black" points="1160,-36 1102,-36 1102,-0 1160,-0 1160,-36"/>
<text text-anchor="middle" x="1131" y="-14.5" font-family="Inconsolata" font-size="14.00">Object</text>
</g>
<!-- Defn&#45;&gt;Object -->
<g id="edge17" class="edge"><title>Defn&#45;&gt;Object</title>
<path fill="none" stroke="black" d="M940.205,-82.2102C973.971,-73.5206 1033.39,-57.3723 1092.26,-36.042"/>
<polygon fill="black" stroke="black" points="1093.52,-39.3079 1101.7,-32.5744 1091.11,-32.7371 1093.52,-39.3079"/>
</g>
<!-- Val -->
<g id="node22" class="node"><title>Val</title>
<polygon fill="none" stroke="black" points="868,-36 814,-36 814,-0 868,-0 868,-36"/>
<text text-anchor="middle" x="841" y="-14.5" font-family="Inconsolata" font-size="14.00">Val</text>
</g>
<!-- Defn&#45;&gt;Val -->
<g id="edge18" class="edge"><title>Defn&#45;&gt;Val</title>
<path fill="none" stroke="black" d="M895.202,-71.6966C886.396,-63.135 875.618,-52.6562 865.999,-43.3045"/>
<polygon fill="black" stroke="black" points="868.203,-40.5657 858.593,-36.1043 863.323,-45.5846 868.203,-40.5657"/>
</g>
<!-- Def -->
<g id="node23" class="node"><title>Def</title>
<polygon fill="none" stroke="black" points="940,-36 886,-36 886,-0 940,-0 940,-36"/>
<text text-anchor="middle" x="913" y="-14.5" font-family="Inconsolata" font-size="14.00">Def</text>
</g>
<!-- Defn&#45;&gt;Def -->
<g id="edge20" class="edge"><title>Defn&#45;&gt;Def</title>
<path fill="none" stroke="black" d="M913,-71.6966C913,-63.9827 913,-54.7125 913,-46.1124"/>
<polygon fill="black" stroke="black" points="916.5,-46.1043 913,-36.1043 909.5,-46.1044 916.5,-46.1043"/>
</g>
<!-- Decl -->
<g id="node9" class="node"><title>Decl</title>
<polygon fill="lightgrey" stroke="black" points="832,-108 778,-108 778,-72 832,-72 832,-108"/>
<text text-anchor="middle" x="805" y="-86.5" font-family="Inconsolata" font-size="14.00">Decl</text>
</g>
<!-- Decl&#45;&gt;Type2 -->
<g id="edge22" class="edge"><title>Decl&#45;&gt;Type2</title>
<path fill="none" stroke="black" d="M796.101,-71.6966C792.003,-63.7284 787.051,-54.0995 782.507,-45.2641"/>
<polygon fill="black" stroke="black" points="785.483,-43.3965 777.797,-36.1043 779.258,-46.598 785.483,-43.3965"/>
</g>
<!-- Decl&#45;&gt;Val -->
<g id="edge21" class="edge"><title>Decl&#45;&gt;Val</title>
<path fill="none" stroke="black" d="M813.899,-71.6966C817.997,-63.7284 822.949,-54.0995 827.493,-45.2641"/>
<polygon fill="black" stroke="black" points="830.742,-46.598 832.203,-36.1043 824.517,-43.3965 830.742,-46.598"/>
</g>
<!-- Decl&#45;&gt;Def -->
<g id="edge23" class="edge"><title>Decl&#45;&gt;Def</title>
<path fill="none" stroke="black" d="M831.42,-71.8761C845.41,-62.8083 862.776,-51.5523 877.886,-41.7592"/>
<polygon fill="black" stroke="black" points="879.991,-44.5658 886.479,-36.1898 876.183,-38.6917 879.991,-44.5658"/>
</g>
<!-- Template -->
<g id="node10" class="node"><title>Template</title>
<polygon fill="lightgrey" stroke="black" points="288,-180 216,-180 216,-144 288,-144 288,-180"/>
<text text-anchor="middle" x="252" y="-158.5" font-family="Inconsolata" font-size="14.00">Template</text>
</g>
<!-- Import -->
<g id="node11" class="node"><title>Import</title>
<polygon fill="lightgrey" stroke="black" points="654,-108 596,-108 596,-72 654,-72 654,-108"/>
<text text-anchor="middle" x="625" y="-86.5" font-family="Inconsolata" font-size="14.00">Import</text>
</g>
<!-- Mod -->
<g id="node12" class="node"><title>Mod</title>
<polygon fill="lightgrey" stroke="black" points="360,-180 306,-180 306,-144 360,-144 360,-180"/>
<text text-anchor="middle" x="333" y="-158.5" font-family="Inconsolata" font-size="14.00">Mod</text>
</g>
<!-- Final -->
<g id="node15" class="node"><title>Final</title>
<polygon fill="none" stroke="black" points="288,-108 234,-108 234,-72 288,-72 288,-108"/>
<text text-anchor="middle" x="261" y="-86.5" font-family="Inconsolata" font-size="14.00">Final</text>
</g>
<!-- Mod&#45;&gt;Final -->
<g id="edge5" class="edge"><title>Mod&#45;&gt;Final</title>
<path fill="none" stroke="black" d="M315.202,-143.697C306.396,-135.135 295.618,-124.656 285.999,-115.304"/>
<polygon fill="black" stroke="black" points="288.203,-112.566 278.593,-108.104 283.323,-117.585 288.203,-112.566"/>
</g>
<!-- Lazy -->
<g id="node16" class="node"><title>Lazy</title>
<polygon fill="none" stroke="black" points="360,-108 306,-108 306,-72 360,-72 360,-108"/>
<text text-anchor="middle" x="333" y="-86.5" font-family="Inconsolata" font-size="14.00">Lazy</text>
</g>
<!-- Mod&#45;&gt;Lazy -->
<g id="edge6" class="edge"><title>Mod&#45;&gt;Lazy</title>
<path fill="none" stroke="black" d="M333,-143.697C333,-135.983 333,-126.712 333,-118.112"/>
<polygon fill="black" stroke="black" points="336.5,-118.104 333,-108.104 329.5,-118.104 336.5,-118.104"/>
</g>
<!-- Sealed -->
<g id="node17" class="node"><title>Sealed</title>
<polygon fill="none" stroke="black" points="436,-108 378,-108 378,-72 436,-72 436,-108"/>
<text text-anchor="middle" x="407" y="-86.5" font-family="Inconsolata" font-size="14.00">Sealed</text>
</g>
<!-- Mod&#45;&gt;Sealed -->
<g id="edge7" class="edge"><title>Mod&#45;&gt;Sealed</title>
<path fill="none" stroke="black" d="M351.292,-143.697C360.433,-135.05 371.64,-124.449 381.6,-115.027"/>
<polygon fill="black" stroke="black" points="384.059,-117.519 388.918,-108.104 379.248,-112.434 384.059,-117.519"/>
</g>
<!-- Tree -->
<g id="node13" class="node"><title>Tree</title>
<polygon fill="none" stroke="black" points="319,-252 265,-252 265,-216 319,-216 319,-252"/>
<text text-anchor="middle" x="292" y="-230.5" font-family="Inconsolata" font-size="14.00">Tree</text>
</g>
<!-- Tree&#45;&gt;Type1 -->
<g id="edge3" class="edge"><title>Tree&#45;&gt;Type1</title>
<path fill="none" stroke="black" d="M264.653,-220.807C238.763,-209.264 199.725,-191.858 171.251,-179.163"/>
<polygon fill="black" stroke="black" points="172.593,-175.929 162.034,-175.053 169.742,-182.322 172.593,-175.929"/>
</g>
<!-- Tree&#45;&gt;Template -->
<g id="edge2" class="edge"><title>Tree&#45;&gt;Template</title>
<path fill="none" stroke="black" d="M282.112,-215.697C277.511,-207.644 271.94,-197.894 266.847,-188.982"/>
<polygon fill="black" stroke="black" points="269.774,-187.05 261.774,-180.104 263.696,-190.523 269.774,-187.05"/>
</g>
<!-- Tree&#45;&gt;Mod -->
<g id="edge4" class="edge"><title>Tree&#45;&gt;Mod</title>
<path fill="none" stroke="black" d="M302.135,-215.697C306.852,-207.644 312.562,-197.894 317.782,-188.982"/>
<polygon fill="black" stroke="black" points="320.948,-190.502 322.982,-180.104 314.908,-186.964 320.948,-190.502"/>
</g>
<!-- Stat -->
<g id="node14" class="node"><title>Stat</title>
<polygon fill="none" stroke="black" points="652,-180 598,-180 598,-144 652,-144 652,-180"/>
<text text-anchor="middle" x="625" y="-158.5" font-family="Inconsolata" font-size="14.00">Stat</text>
</g>
<!-- Tree&#45;&gt;Stat -->
<g id="edge1" class="edge"><title>Tree&#45;&gt;Stat</title>
<path fill="none" stroke="black" d="M319.251,-227.272C378.793,-214.755 520.557,-184.955 588.053,-170.767"/>
<polygon fill="black" stroke="black" points="588.774,-174.192 597.84,-168.709 587.334,-167.341 588.774,-174.192"/>
</g>
<!-- Stat&#45;&gt;Term -->
<g id="edge12" class="edge"><title>Stat&#45;&gt;Term</title>
<path fill="none" stroke="black" d="M597.915,-147.834C575.231,-136.807 542.643,-120.966 517.632,-108.807"/>
<polygon fill="black" stroke="black" points="518.977,-105.57 508.453,-104.345 515.917,-111.865 518.977,-105.57"/>
</g>
<!-- Stat&#45;&gt;Defn -->
<g id="edge13" class="edge"><title>Stat&#45;&gt;Defn</title>
<path fill="none" stroke="black" d="M652.094,-154.415C703.876,-141.829 816.962,-114.343 875.784,-100.045"/>
<polygon fill="black" stroke="black" points="876.877,-103.382 885.768,-97.6189 875.224,-96.5798 876.877,-103.382"/>
</g>
<!-- Stat&#45;&gt;Decl -->
<g id="edge14" class="edge"><title>Stat&#45;&gt;Decl</title>
<path fill="none" stroke="black" d="M652.338,-150.369C683.309,-138.324 733.935,-118.636 768.321,-105.264"/>
<polygon fill="black" stroke="black" points="769.943,-108.389 777.994,-101.502 767.406,-101.865 769.943,-108.389"/>
</g>
<!-- Stat&#45;&gt;Import -->
<g id="edge11" class="edge"><title>Stat&#45;&gt;Import</title>
<path fill="none" stroke="black" d="M625,-143.697C625,-135.983 625,-126.712 625,-118.112"/>
<polygon fill="black" stroke="black" points="628.5,-118.104 625,-108.104 621.5,-118.104 628.5,-118.104"/>
</g>
</g>
</svg>
